%
M48
M72
T01C0.02362
T02C0.03200
T03C0.04000
T04C0.04700
T05C0.12598
%
T01
X72595Y65242
X55095Y82742
X40095Y102742
X55095Y128992
X95095Y128992
X126345Y155242
X136345Y155242
X163845Y153992
X162595Y146492
X206345Y145242
X206345Y155242
X122595Y100242
X102595Y82742
X107595Y65242
X142595Y70242
X167595Y80242
T02
X149577Y109724
X156648Y116795
X214060Y83474
X224060Y83474
T03
X223845Y102742
X223845Y112742
X150095Y138992
X140095Y138992
X130095Y138992
T04
X127595Y42742
X147595Y42742
X167595Y42742
X202595Y42742
X222595Y42742
X102595Y42742
X82595Y42742
X62595Y42742
X42595Y42742
T05
X42359Y14543
X229839Y14937
X229839Y172220
X42753Y172220
M30
