G75*
%MOIN*%
%OFA0B0*%
%FSLAX25Y25*%
%IPPOS*%
%LPD*%
%AMOC8*
5,1,8,0,0,1.08239X$1,22.5*
%
%ADD10C,0.00000*%
%ADD11OC8,0.06300*%
%ADD12C,0.06300*%
%ADD13R,0.05118X0.05906*%
%ADD14R,0.04400X0.07100*%
%ADD15R,0.09055X0.06299*%
%ADD16R,0.04724X0.04724*%
%ADD17R,0.07874X0.04724*%
%ADD18R,0.11800X0.29500*%
%ADD19R,0.05906X0.05118*%
%ADD20C,0.07050*%
%ADD21R,0.07800X0.02200*%
%ADD22C,0.06000*%
D10*
X0032595Y0023933D02*
X0032595Y0161394D01*
X0233796Y0161394D01*
X0233796Y0023933D01*
X0032595Y0023933D01*
D11*
X0145095Y0106433D03*
X0217595Y0083933D03*
D12*
X0217595Y0073933D03*
X0155095Y0106433D03*
D13*
X0151335Y0088933D03*
X0143855Y0088933D03*
X0153855Y0068933D03*
X0161335Y0068933D03*
X0126335Y0068933D03*
X0118855Y0068933D03*
X0091335Y0063933D03*
X0083855Y0063933D03*
X0061335Y0063933D03*
X0053855Y0063933D03*
X0183855Y0103933D03*
X0191335Y0103933D03*
D14*
X0191695Y0071433D03*
X0203495Y0071433D03*
D15*
X0192694Y0153933D03*
X0179997Y0153933D03*
X0155194Y0153933D03*
X0142497Y0153933D03*
X0117694Y0153933D03*
X0217497Y0153933D03*
D16*
X0205095Y0124445D03*
X0205095Y0113421D03*
D17*
X0111375Y0116177D03*
X0111375Y0124051D03*
X0111375Y0131925D03*
X0111375Y0108303D03*
X0111375Y0100429D03*
X0111375Y0092555D03*
X0111375Y0084681D03*
X0111375Y0076807D03*
X0047595Y0076807D03*
X0047595Y0084681D03*
X0047595Y0092555D03*
X0047595Y0100429D03*
X0047595Y0108303D03*
X0047595Y0116177D03*
X0047595Y0124051D03*
X0047595Y0131925D03*
D18*
X0172745Y0123933D03*
X0192445Y0123933D03*
D19*
X0162595Y0097673D03*
X0162595Y0090193D03*
X0185095Y0062673D03*
X0185095Y0055193D03*
D20*
X0202595Y0044958D02*
X0202595Y0037908D01*
X0222595Y0037908D02*
X0222595Y0044958D01*
X0167595Y0044958D02*
X0167595Y0037908D01*
X0147595Y0037908D02*
X0147595Y0044958D01*
X0127595Y0044958D02*
X0127595Y0037908D01*
X0102595Y0037908D02*
X0102595Y0044958D01*
X0082595Y0044958D02*
X0082595Y0037908D01*
X0062595Y0037908D02*
X0062595Y0044958D01*
X0042595Y0044958D02*
X0042595Y0037908D01*
D21*
X0177895Y0078933D03*
X0177895Y0083933D03*
X0177895Y0088933D03*
X0177895Y0093933D03*
X0197295Y0093933D03*
X0197295Y0088933D03*
X0197295Y0083933D03*
X0197295Y0078933D03*
D22*
X0152595Y0125933D02*
X0152595Y0131933D01*
X0142595Y0131933D02*
X0142595Y0125933D01*
X0132595Y0125933D02*
X0132595Y0131933D01*
M02*
