G75*
%MOIN*%
%OFA0B0*%
%FSLAX25Y25*%
%IPPOS*%
%LPD*%
%AMOC8*
5,1,8,0,0,1.08239X$1,22.5*
%
%ADD10C,0.00000*%
%ADD11OC8,0.06300*%
%ADD12C,0.06300*%
%ADD13R,0.05118X0.05906*%
%ADD14R,0.06299X0.11811*%
%ADD15R,0.24409X0.22835*%
%ADD16R,0.05906X0.05118*%
%ADD17C,0.07050*%
%ADD18C,0.06000*%
%ADD19C,0.03562*%
%ADD20C,0.01200*%
%ADD21C,0.01600*%
%ADD22C,0.05000*%
%ADD23C,0.02400*%
%ADD24C,0.08600*%
%ADD25OC8,0.03562*%
D10*
X0032595Y0023933D02*
X0032595Y0161394D01*
X0233796Y0161394D01*
X0233796Y0023933D01*
X0032595Y0023933D01*
D11*
X0145095Y0106433D03*
X0217595Y0083933D03*
D12*
X0217595Y0073933D03*
X0155095Y0106433D03*
D13*
X0118835Y0106433D03*
X0111355Y0106433D03*
X0053835Y0108933D03*
X0046355Y0108933D03*
D14*
X0043595Y0092201D03*
X0061595Y0092201D03*
X0078595Y0092201D03*
X0096595Y0092201D03*
X0113595Y0092201D03*
X0131595Y0092201D03*
X0148595Y0092201D03*
X0166595Y0092201D03*
X0183595Y0092201D03*
X0201595Y0092201D03*
D15*
X0192595Y0063933D03*
X0157595Y0063933D03*
X0122595Y0063933D03*
X0087595Y0063933D03*
X0052595Y0063933D03*
D16*
X0057595Y0122693D03*
X0057595Y0130173D03*
X0067595Y0130173D03*
X0067595Y0122693D03*
X0117595Y0147693D03*
X0117595Y0155173D03*
X0170095Y0150173D03*
X0170095Y0142693D03*
X0207595Y0142693D03*
X0207595Y0150173D03*
D17*
X0202595Y0044958D02*
X0202595Y0037908D01*
X0222595Y0037908D02*
X0222595Y0044958D01*
X0167595Y0044958D02*
X0167595Y0037908D01*
X0147595Y0037908D02*
X0147595Y0044958D01*
X0127595Y0044958D02*
X0127595Y0037908D01*
X0102595Y0037908D02*
X0102595Y0044958D01*
X0082595Y0044958D02*
X0082595Y0037908D01*
X0062595Y0037908D02*
X0062595Y0044958D01*
X0042595Y0044958D02*
X0042595Y0037908D01*
D18*
X0132595Y0125933D02*
X0132595Y0131933D01*
X0142595Y0131933D02*
X0142595Y0125933D01*
X0152595Y0125933D02*
X0152595Y0131933D01*
D19*
X0162595Y0138933D03*
X0162595Y0148933D03*
X0185095Y0146433D03*
X0205095Y0118933D03*
X0135095Y0153933D03*
X0125095Y0153933D03*
X0067595Y0116433D03*
X0057595Y0116433D03*
X0040095Y0101433D03*
X0055095Y0081433D03*
X0072595Y0063933D03*
X0102595Y0081433D03*
X0107595Y0063933D03*
X0142595Y0063933D03*
X0177595Y0063933D03*
D20*
X0162595Y0138933D02*
X0166355Y0142693D01*
X0170095Y0142693D01*
X0207595Y0142693D01*
X0206355Y0148933D02*
X0187595Y0148933D01*
X0185095Y0146433D01*
X0170095Y0150173D02*
X0168855Y0148933D01*
X0162595Y0148933D01*
X0125095Y0153933D02*
X0123855Y0155173D01*
X0117595Y0155173D01*
X0117595Y0147693D02*
X0117595Y0146433D01*
X0067595Y0122693D02*
X0067595Y0116433D01*
X0057595Y0116433D02*
X0057595Y0122693D01*
X0044327Y0092201D02*
X0055095Y0081433D01*
X0044327Y0092201D02*
X0043595Y0092201D01*
X0206355Y0148933D02*
X0206425Y0148935D01*
X0206494Y0148941D01*
X0206563Y0148951D01*
X0206631Y0148964D01*
X0206698Y0148981D01*
X0206765Y0149003D01*
X0206830Y0149027D01*
X0206893Y0149056D01*
X0206955Y0149088D01*
X0207015Y0149123D01*
X0207073Y0149162D01*
X0207128Y0149204D01*
X0207181Y0149248D01*
X0207232Y0149296D01*
X0207280Y0149347D01*
X0207324Y0149400D01*
X0207366Y0149455D01*
X0207405Y0149513D01*
X0207440Y0149573D01*
X0207472Y0149635D01*
X0207501Y0149698D01*
X0207525Y0149763D01*
X0207547Y0149830D01*
X0207564Y0149897D01*
X0207577Y0149965D01*
X0207587Y0150034D01*
X0207593Y0150103D01*
X0207595Y0150173D01*
D21*
X0212148Y0150215D02*
X0230996Y0150215D01*
X0230996Y0148617D02*
X0212148Y0148617D01*
X0212148Y0147018D02*
X0230996Y0147018D01*
X0230996Y0145420D02*
X0212148Y0145420D01*
X0212148Y0145915D02*
X0211630Y0146433D01*
X0212148Y0146951D01*
X0212148Y0153395D01*
X0211211Y0154332D01*
X0203980Y0154332D01*
X0203042Y0153395D01*
X0203042Y0150933D01*
X0186767Y0150933D01*
X0185448Y0149614D01*
X0184462Y0149614D01*
X0183293Y0149130D01*
X0182398Y0148235D01*
X0181914Y0147066D01*
X0181914Y0145800D01*
X0182373Y0144693D01*
X0174648Y0144693D01*
X0174648Y0145915D01*
X0174130Y0146433D01*
X0174648Y0146951D01*
X0174648Y0153395D01*
X0173711Y0154332D01*
X0166480Y0154332D01*
X0165542Y0153395D01*
X0165542Y0150933D01*
X0165094Y0150933D01*
X0164397Y0151630D01*
X0163228Y0152114D01*
X0161962Y0152114D01*
X0160793Y0151630D01*
X0159898Y0150735D01*
X0159414Y0149566D01*
X0159414Y0148300D01*
X0159898Y0147131D01*
X0160793Y0146236D01*
X0161962Y0145752D01*
X0163228Y0145752D01*
X0164397Y0146236D01*
X0165094Y0146933D01*
X0165561Y0146933D01*
X0166061Y0146433D01*
X0165542Y0145915D01*
X0165542Y0144693D01*
X0165527Y0144693D01*
X0163019Y0142186D01*
X0156568Y0148637D01*
X0155612Y0149033D01*
X0122148Y0149033D01*
X0122148Y0150915D01*
X0121630Y0151433D01*
X0122148Y0151951D01*
X0122148Y0152736D01*
X0122398Y0152131D01*
X0123293Y0151236D01*
X0124462Y0150752D01*
X0125728Y0150752D01*
X0126897Y0151236D01*
X0127792Y0152131D01*
X0128276Y0153300D01*
X0128276Y0154566D01*
X0127792Y0155735D01*
X0126897Y0156630D01*
X0125728Y0157114D01*
X0124742Y0157114D01*
X0124683Y0157173D01*
X0122148Y0157173D01*
X0122148Y0158395D01*
X0121949Y0158594D01*
X0230996Y0158594D01*
X0230996Y0026733D01*
X0217595Y0026733D01*
X0217595Y0036064D01*
X0217660Y0035864D01*
X0218041Y0035117D01*
X0218533Y0034439D01*
X0219126Y0033846D01*
X0219804Y0033354D01*
X0220551Y0032973D01*
X0221348Y0032714D01*
X0222176Y0032583D01*
X0222220Y0032583D01*
X0222220Y0041058D01*
X0222970Y0041058D01*
X0222970Y0032583D01*
X0223014Y0032583D01*
X0223842Y0032714D01*
X0224639Y0032973D01*
X0225386Y0033354D01*
X0226064Y0033846D01*
X0226657Y0034439D01*
X0227149Y0035117D01*
X0227530Y0035864D01*
X0227789Y0036661D01*
X0227920Y0037489D01*
X0227920Y0041058D01*
X0222970Y0041058D01*
X0222970Y0041808D01*
X0222220Y0041808D01*
X0222220Y0050283D01*
X0222176Y0050283D01*
X0221348Y0050152D01*
X0220551Y0049893D01*
X0219804Y0049512D01*
X0219126Y0049020D01*
X0218533Y0048427D01*
X0218041Y0047749D01*
X0217660Y0047002D01*
X0217595Y0046802D01*
X0217595Y0058933D01*
X0213995Y0058933D01*
X0213995Y0064818D01*
X0218361Y0069183D01*
X0218540Y0069183D01*
X0220286Y0069906D01*
X0221622Y0071242D01*
X0222345Y0072988D01*
X0222345Y0074878D01*
X0221622Y0076624D01*
X0220286Y0077960D01*
X0218540Y0078683D01*
X0216650Y0078683D01*
X0214904Y0077960D01*
X0213568Y0076624D01*
X0212845Y0074878D01*
X0212845Y0074698D01*
X0207595Y0069448D01*
X0207595Y0078933D01*
X0179795Y0078933D01*
X0179795Y0084695D01*
X0187407Y0084695D01*
X0188345Y0085633D01*
X0188345Y0098769D01*
X0187407Y0099706D01*
X0179783Y0099706D01*
X0178846Y0098769D01*
X0178846Y0090562D01*
X0175395Y0087112D01*
X0175395Y0078933D01*
X0144795Y0078933D01*
X0144795Y0084695D01*
X0152407Y0084695D01*
X0153345Y0085633D01*
X0153345Y0098769D01*
X0152407Y0099706D01*
X0144783Y0099706D01*
X0143846Y0098769D01*
X0143846Y0090562D01*
X0140395Y0087112D01*
X0140395Y0078933D01*
X0109795Y0078933D01*
X0109795Y0084695D01*
X0117407Y0084695D01*
X0118345Y0085633D01*
X0118345Y0098769D01*
X0117407Y0099706D01*
X0109783Y0099706D01*
X0108846Y0098769D01*
X0108846Y0090562D01*
X0105395Y0087112D01*
X0105395Y0078933D01*
X0074795Y0078933D01*
X0074795Y0084695D01*
X0082407Y0084695D01*
X0083345Y0085633D01*
X0083345Y0098769D01*
X0082407Y0099706D01*
X0074783Y0099706D01*
X0073846Y0098769D01*
X0073846Y0090562D01*
X0071684Y0088401D01*
X0070395Y0087112D01*
X0070395Y0078933D01*
X0057094Y0078933D01*
X0057792Y0079631D01*
X0058276Y0080800D01*
X0058276Y0082066D01*
X0057792Y0083235D01*
X0056897Y0084130D01*
X0055728Y0084614D01*
X0054742Y0084614D01*
X0048345Y0091012D01*
X0048345Y0098769D01*
X0047407Y0099706D01*
X0042823Y0099706D01*
X0043276Y0100800D01*
X0043276Y0102066D01*
X0042792Y0103235D01*
X0042695Y0103332D01*
X0042695Y0104818D01*
X0043133Y0104380D01*
X0049577Y0104380D01*
X0049954Y0104757D01*
X0050171Y0104540D01*
X0050581Y0104303D01*
X0051039Y0104180D01*
X0053356Y0104180D01*
X0053356Y0108453D01*
X0054315Y0108453D01*
X0054315Y0104180D01*
X0056631Y0104180D01*
X0057089Y0104303D01*
X0057500Y0104540D01*
X0057835Y0104875D01*
X0058072Y0105286D01*
X0058194Y0105743D01*
X0058194Y0108454D01*
X0054315Y0108454D01*
X0054315Y0109413D01*
X0053356Y0109413D01*
X0053356Y0113686D01*
X0051039Y0113686D01*
X0050581Y0113563D01*
X0050171Y0113326D01*
X0049954Y0113109D01*
X0049577Y0113486D01*
X0043133Y0113486D01*
X0042695Y0113048D01*
X0042695Y0132856D01*
X0043672Y0133833D01*
X0053480Y0133833D01*
X0053042Y0133395D01*
X0053042Y0126951D01*
X0053561Y0126433D01*
X0053042Y0125915D01*
X0053042Y0119471D01*
X0053980Y0118534D01*
X0055197Y0118534D01*
X0054898Y0118235D01*
X0054414Y0117066D01*
X0054414Y0115800D01*
X0054898Y0114631D01*
X0055793Y0113736D01*
X0055915Y0113686D01*
X0054315Y0113686D01*
X0054315Y0109413D01*
X0058194Y0109413D01*
X0058194Y0112123D01*
X0058072Y0112581D01*
X0057835Y0112991D01*
X0057574Y0113252D01*
X0058228Y0113252D01*
X0059397Y0113736D01*
X0060292Y0114631D01*
X0060776Y0115800D01*
X0060776Y0117066D01*
X0060292Y0118235D01*
X0059993Y0118534D01*
X0061211Y0118534D01*
X0062148Y0119471D01*
X0062148Y0125915D01*
X0061630Y0126433D01*
X0062148Y0126951D01*
X0062148Y0133395D01*
X0061710Y0133833D01*
X0063480Y0133833D01*
X0063042Y0133395D01*
X0063042Y0126951D01*
X0063561Y0126433D01*
X0063042Y0125915D01*
X0063042Y0119471D01*
X0063980Y0118534D01*
X0065197Y0118534D01*
X0064898Y0118235D01*
X0064414Y0117066D01*
X0064414Y0115800D01*
X0064898Y0114631D01*
X0065793Y0113736D01*
X0066962Y0113252D01*
X0068228Y0113252D01*
X0069397Y0113736D01*
X0070292Y0114631D01*
X0070776Y0115800D01*
X0070776Y0117066D01*
X0070292Y0118235D01*
X0069993Y0118534D01*
X0071211Y0118534D01*
X0072148Y0119471D01*
X0072148Y0125915D01*
X0071630Y0126433D01*
X0072148Y0126951D01*
X0072148Y0133395D01*
X0071710Y0133833D01*
X0105612Y0133833D01*
X0106568Y0134229D01*
X0111272Y0138933D01*
X0112595Y0138933D01*
X0112595Y0140256D01*
X0115873Y0143534D01*
X0121211Y0143534D01*
X0121510Y0143833D01*
X0154018Y0143833D01*
X0159414Y0138437D01*
X0159414Y0138300D01*
X0159898Y0137131D01*
X0160793Y0136236D01*
X0161962Y0135752D01*
X0163228Y0135752D01*
X0164397Y0136236D01*
X0165292Y0137131D01*
X0165776Y0138300D01*
X0165776Y0139237D01*
X0166480Y0138534D01*
X0173711Y0138534D01*
X0174648Y0139471D01*
X0174648Y0140693D01*
X0203042Y0140693D01*
X0203042Y0139471D01*
X0203980Y0138534D01*
X0211211Y0138534D01*
X0212148Y0139471D01*
X0212148Y0145915D01*
X0212148Y0143821D02*
X0230996Y0143821D01*
X0230996Y0142223D02*
X0212148Y0142223D01*
X0212148Y0140624D02*
X0230996Y0140624D01*
X0230996Y0139026D02*
X0211703Y0139026D01*
X0203488Y0139026D02*
X0174203Y0139026D01*
X0174648Y0140624D02*
X0203042Y0140624D01*
X0203042Y0151814D02*
X0174648Y0151814D01*
X0174648Y0150215D02*
X0186049Y0150215D01*
X0182780Y0148617D02*
X0174648Y0148617D01*
X0174648Y0147018D02*
X0181914Y0147018D01*
X0182072Y0145420D02*
X0174648Y0145420D01*
X0165542Y0145420D02*
X0159785Y0145420D01*
X0160011Y0147018D02*
X0158187Y0147018D01*
X0159414Y0148617D02*
X0156588Y0148617D01*
X0159683Y0150215D02*
X0122148Y0150215D01*
X0122010Y0151814D02*
X0122715Y0151814D01*
X0127475Y0151814D02*
X0161238Y0151814D01*
X0163953Y0151814D02*
X0165542Y0151814D01*
X0165560Y0153412D02*
X0128276Y0153412D01*
X0128092Y0155011D02*
X0230996Y0155011D01*
X0230996Y0153412D02*
X0212130Y0153412D01*
X0212148Y0151814D02*
X0230996Y0151814D01*
X0230996Y0156610D02*
X0126917Y0156610D01*
X0122148Y0158208D02*
X0230996Y0158208D01*
X0203060Y0153412D02*
X0174630Y0153412D01*
X0164655Y0143821D02*
X0161384Y0143821D01*
X0162982Y0142223D02*
X0163057Y0142223D01*
X0165776Y0139026D02*
X0165988Y0139026D01*
X0165415Y0137427D02*
X0230996Y0137427D01*
X0230996Y0135829D02*
X0163414Y0135829D01*
X0161777Y0135829D02*
X0155399Y0135829D01*
X0155111Y0136038D02*
X0155722Y0135594D01*
X0156256Y0135060D01*
X0156700Y0134449D01*
X0157043Y0133776D01*
X0157277Y0133057D01*
X0157395Y0132311D01*
X0157395Y0129133D01*
X0152795Y0129133D01*
X0152395Y0129133D01*
X0152395Y0128733D01*
X0147795Y0128733D01*
X0147795Y0125555D01*
X0147913Y0124809D01*
X0148147Y0124091D01*
X0148490Y0123417D01*
X0148934Y0122806D01*
X0149468Y0122272D01*
X0150079Y0121828D01*
X0150753Y0121485D01*
X0151471Y0121251D01*
X0152217Y0121133D01*
X0152395Y0121133D01*
X0152395Y0128733D01*
X0152795Y0128733D01*
X0152795Y0121133D01*
X0152973Y0121133D01*
X0153719Y0121251D01*
X0154438Y0121485D01*
X0155111Y0121828D01*
X0155722Y0122272D01*
X0156256Y0122806D01*
X0156700Y0123417D01*
X0157043Y0124091D01*
X0157277Y0124809D01*
X0157395Y0125555D01*
X0157395Y0128733D01*
X0152795Y0128733D01*
X0152795Y0129133D01*
X0152795Y0136733D01*
X0152973Y0136733D01*
X0153719Y0136615D01*
X0154438Y0136381D01*
X0155111Y0136038D01*
X0152795Y0135829D02*
X0152395Y0135829D01*
X0152395Y0136733D02*
X0152217Y0136733D01*
X0151471Y0136615D01*
X0150753Y0136381D01*
X0150079Y0136038D01*
X0149468Y0135594D01*
X0148934Y0135060D01*
X0148490Y0134449D01*
X0148147Y0133776D01*
X0147913Y0133057D01*
X0147795Y0132311D01*
X0147795Y0129133D01*
X0152395Y0129133D01*
X0152395Y0136733D01*
X0149791Y0135829D02*
X0145205Y0135829D01*
X0145201Y0135833D02*
X0143510Y0136533D01*
X0141680Y0136533D01*
X0139989Y0135833D01*
X0138695Y0134539D01*
X0137995Y0132848D01*
X0137995Y0125018D01*
X0138695Y0123327D01*
X0139989Y0122033D01*
X0141680Y0121333D01*
X0143510Y0121333D01*
X0145201Y0122033D01*
X0146495Y0123327D01*
X0147195Y0125018D01*
X0147195Y0132848D01*
X0146495Y0134539D01*
X0145201Y0135833D01*
X0146623Y0134230D02*
X0148379Y0134230D01*
X0147846Y0132632D02*
X0147195Y0132632D01*
X0147195Y0131033D02*
X0147795Y0131033D01*
X0147795Y0129435D02*
X0147195Y0129435D01*
X0147195Y0127836D02*
X0147795Y0127836D01*
X0147795Y0126238D02*
X0147195Y0126238D01*
X0147038Y0124639D02*
X0147968Y0124639D01*
X0148763Y0123041D02*
X0146208Y0123041D01*
X0143774Y0121442D02*
X0150883Y0121442D01*
X0152395Y0121442D02*
X0152795Y0121442D01*
X0154307Y0121442D02*
X0230996Y0121442D01*
X0230996Y0119844D02*
X0072148Y0119844D01*
X0072148Y0121442D02*
X0131417Y0121442D01*
X0131680Y0121333D02*
X0133510Y0121333D01*
X0135201Y0122033D01*
X0136495Y0123327D01*
X0137195Y0125018D01*
X0137195Y0132848D01*
X0136495Y0134539D01*
X0135201Y0135833D01*
X0133510Y0136533D01*
X0131680Y0136533D01*
X0129989Y0135833D01*
X0128695Y0134539D01*
X0127995Y0132848D01*
X0127995Y0125018D01*
X0128695Y0123327D01*
X0129989Y0122033D01*
X0131680Y0121333D01*
X0133774Y0121442D02*
X0141417Y0121442D01*
X0138982Y0123041D02*
X0136208Y0123041D01*
X0137038Y0124639D02*
X0138152Y0124639D01*
X0137995Y0126238D02*
X0137195Y0126238D01*
X0137195Y0127836D02*
X0137995Y0127836D01*
X0137995Y0129435D02*
X0137195Y0129435D01*
X0137195Y0131033D02*
X0137995Y0131033D01*
X0137995Y0132632D02*
X0137195Y0132632D01*
X0136623Y0134230D02*
X0138568Y0134230D01*
X0139986Y0135829D02*
X0135205Y0135829D01*
X0129986Y0135829D02*
X0108168Y0135829D01*
X0109766Y0137427D02*
X0159776Y0137427D01*
X0158825Y0139026D02*
X0112595Y0139026D01*
X0112963Y0140624D02*
X0157227Y0140624D01*
X0155628Y0142223D02*
X0114562Y0142223D01*
X0121498Y0143821D02*
X0154030Y0143821D01*
X0152795Y0134230D02*
X0152395Y0134230D01*
X0152395Y0132632D02*
X0152795Y0132632D01*
X0152795Y0131033D02*
X0152395Y0131033D01*
X0152395Y0129435D02*
X0152795Y0129435D01*
X0152795Y0127836D02*
X0152395Y0127836D01*
X0152395Y0126238D02*
X0152795Y0126238D01*
X0152795Y0124639D02*
X0152395Y0124639D01*
X0152395Y0123041D02*
X0152795Y0123041D01*
X0156427Y0123041D02*
X0230996Y0123041D01*
X0230996Y0124639D02*
X0157222Y0124639D01*
X0157395Y0126238D02*
X0230996Y0126238D01*
X0230996Y0127836D02*
X0157395Y0127836D01*
X0157395Y0129435D02*
X0230996Y0129435D01*
X0230996Y0131033D02*
X0157395Y0131033D01*
X0157344Y0132632D02*
X0230996Y0132632D01*
X0230996Y0134230D02*
X0156812Y0134230D01*
X0128568Y0134230D02*
X0106569Y0134230D01*
X0127995Y0132632D02*
X0072148Y0132632D01*
X0072148Y0131033D02*
X0127995Y0131033D01*
X0127995Y0129435D02*
X0072148Y0129435D01*
X0072148Y0127836D02*
X0127995Y0127836D01*
X0127995Y0126238D02*
X0071825Y0126238D01*
X0072148Y0124639D02*
X0128152Y0124639D01*
X0128982Y0123041D02*
X0072148Y0123041D01*
X0070282Y0118245D02*
X0230996Y0118245D01*
X0230996Y0116647D02*
X0070776Y0116647D01*
X0070465Y0115048D02*
X0230996Y0115048D01*
X0230996Y0113450D02*
X0068705Y0113450D01*
X0066485Y0113450D02*
X0058705Y0113450D01*
X0058194Y0111851D02*
X0230996Y0111851D01*
X0230996Y0110253D02*
X0157993Y0110253D01*
X0157786Y0110460D02*
X0156040Y0111183D01*
X0154150Y0111183D01*
X0152404Y0110460D01*
X0151068Y0109124D01*
X0150345Y0107378D01*
X0150345Y0105488D01*
X0151068Y0103742D01*
X0152404Y0102406D01*
X0154150Y0101683D01*
X0156040Y0101683D01*
X0157786Y0102406D01*
X0159122Y0103742D01*
X0159845Y0105488D01*
X0159845Y0107378D01*
X0159122Y0109124D01*
X0157786Y0110460D01*
X0159316Y0108654D02*
X0230996Y0108654D01*
X0230996Y0107056D02*
X0159845Y0107056D01*
X0159832Y0105457D02*
X0230996Y0105457D01*
X0230996Y0103859D02*
X0159170Y0103859D01*
X0157433Y0102260D02*
X0230996Y0102260D01*
X0230996Y0100662D02*
X0125365Y0100662D01*
X0125776Y0100251D02*
X0124795Y0101232D01*
X0124795Y0107344D01*
X0123506Y0108633D01*
X0122994Y0108633D01*
X0122994Y0110049D01*
X0122057Y0110986D01*
X0115613Y0110986D01*
X0115237Y0110609D01*
X0115019Y0110826D01*
X0114609Y0111063D01*
X0114151Y0111186D01*
X0111835Y0111186D01*
X0111835Y0106913D01*
X0110875Y0106913D01*
X0110875Y0105954D01*
X0106996Y0105954D01*
X0106996Y0103243D01*
X0107119Y0102786D01*
X0107356Y0102375D01*
X0107691Y0102040D01*
X0108101Y0101803D01*
X0108559Y0101680D01*
X0110875Y0101680D01*
X0110875Y0105953D01*
X0111835Y0105953D01*
X0111835Y0101680D01*
X0114151Y0101680D01*
X0114609Y0101803D01*
X0115019Y0102040D01*
X0115237Y0102257D01*
X0115613Y0101880D01*
X0120395Y0101880D01*
X0120395Y0101232D01*
X0119414Y0100251D01*
X0119414Y0097615D01*
X0121277Y0095752D01*
X0123913Y0095752D01*
X0125776Y0097615D01*
X0125776Y0100251D01*
X0125776Y0099063D02*
X0126919Y0099063D01*
X0127005Y0099212D02*
X0126768Y0098801D01*
X0126646Y0098343D01*
X0126646Y0092976D01*
X0130820Y0092976D01*
X0130820Y0099906D01*
X0128209Y0099906D01*
X0127751Y0099784D01*
X0127340Y0099547D01*
X0127005Y0099212D01*
X0126646Y0097465D02*
X0125625Y0097465D01*
X0126646Y0095866D02*
X0124027Y0095866D01*
X0121163Y0095866D02*
X0118345Y0095866D01*
X0118345Y0094268D02*
X0126646Y0094268D01*
X0126646Y0091426D02*
X0126646Y0086058D01*
X0126768Y0085600D01*
X0127005Y0085190D01*
X0127340Y0084855D01*
X0127751Y0084618D01*
X0128209Y0084495D01*
X0130820Y0084495D01*
X0130820Y0091426D01*
X0126646Y0091426D01*
X0126646Y0091071D02*
X0118345Y0091071D01*
X0118345Y0092669D02*
X0130820Y0092669D01*
X0130820Y0092976D02*
X0130820Y0091426D01*
X0132370Y0091426D01*
X0132370Y0092976D01*
X0130820Y0092976D01*
X0130820Y0094268D02*
X0132370Y0094268D01*
X0132370Y0092976D02*
X0132370Y0099906D01*
X0134982Y0099906D01*
X0135440Y0099784D01*
X0135850Y0099547D01*
X0136185Y0099212D01*
X0136422Y0098801D01*
X0136545Y0098343D01*
X0136545Y0092976D01*
X0132370Y0092976D01*
X0132370Y0092669D02*
X0143846Y0092669D01*
X0143846Y0091071D02*
X0136545Y0091071D01*
X0136545Y0091426D02*
X0132370Y0091426D01*
X0132370Y0084495D01*
X0134982Y0084495D01*
X0135440Y0084618D01*
X0135850Y0084855D01*
X0136185Y0085190D01*
X0136422Y0085600D01*
X0136545Y0086058D01*
X0136545Y0091426D01*
X0136545Y0094268D02*
X0143846Y0094268D01*
X0143846Y0095866D02*
X0136545Y0095866D01*
X0136545Y0097465D02*
X0143846Y0097465D01*
X0144140Y0099063D02*
X0136271Y0099063D01*
X0132370Y0099063D02*
X0130820Y0099063D01*
X0130820Y0097465D02*
X0132370Y0097465D01*
X0132370Y0095866D02*
X0130820Y0095866D01*
X0130820Y0091071D02*
X0132370Y0091071D01*
X0132370Y0089472D02*
X0130820Y0089472D01*
X0130820Y0087874D02*
X0132370Y0087874D01*
X0132370Y0086275D02*
X0130820Y0086275D01*
X0130820Y0084677D02*
X0132370Y0084677D01*
X0135541Y0084677D02*
X0140395Y0084677D01*
X0140395Y0086275D02*
X0136545Y0086275D01*
X0136545Y0087874D02*
X0141157Y0087874D01*
X0142595Y0086201D02*
X0148595Y0092201D01*
X0153345Y0092669D02*
X0165820Y0092669D01*
X0165820Y0092976D02*
X0165820Y0091426D01*
X0161646Y0091426D01*
X0161646Y0086058D01*
X0161768Y0085600D01*
X0162005Y0085190D01*
X0162340Y0084855D01*
X0162751Y0084618D01*
X0163209Y0084495D01*
X0165820Y0084495D01*
X0165820Y0091426D01*
X0167370Y0091426D01*
X0167370Y0092976D01*
X0165820Y0092976D01*
X0165820Y0099906D01*
X0163209Y0099906D01*
X0162751Y0099784D01*
X0162340Y0099547D01*
X0162005Y0099212D01*
X0161768Y0098801D01*
X0161646Y0098343D01*
X0161646Y0092976D01*
X0165820Y0092976D01*
X0165820Y0094268D02*
X0167370Y0094268D01*
X0167370Y0092976D02*
X0167370Y0099906D01*
X0169982Y0099906D01*
X0170440Y0099784D01*
X0170850Y0099547D01*
X0171185Y0099212D01*
X0171422Y0098801D01*
X0171545Y0098343D01*
X0171545Y0092976D01*
X0167370Y0092976D01*
X0167370Y0092669D02*
X0178846Y0092669D01*
X0178846Y0091071D02*
X0171545Y0091071D01*
X0171545Y0091426D02*
X0167370Y0091426D01*
X0167370Y0084495D01*
X0169982Y0084495D01*
X0170440Y0084618D01*
X0170850Y0084855D01*
X0171185Y0085190D01*
X0171422Y0085600D01*
X0171545Y0086058D01*
X0171545Y0091426D01*
X0171545Y0094268D02*
X0178846Y0094268D01*
X0178846Y0095866D02*
X0171545Y0095866D01*
X0171545Y0097465D02*
X0178846Y0097465D01*
X0179140Y0099063D02*
X0171271Y0099063D01*
X0167370Y0099063D02*
X0165820Y0099063D01*
X0165820Y0097465D02*
X0167370Y0097465D01*
X0167370Y0095866D02*
X0165820Y0095866D01*
X0161646Y0095866D02*
X0153345Y0095866D01*
X0153345Y0094268D02*
X0161646Y0094268D01*
X0161646Y0097465D02*
X0153345Y0097465D01*
X0153051Y0099063D02*
X0161919Y0099063D01*
X0152757Y0102260D02*
X0147923Y0102260D01*
X0147145Y0101483D02*
X0150045Y0104383D01*
X0150045Y0106433D01*
X0145095Y0106433D01*
X0140145Y0106433D01*
X0140145Y0104383D01*
X0143045Y0101483D01*
X0145095Y0101483D01*
X0145095Y0106433D01*
X0145095Y0106433D01*
X0145095Y0106433D01*
X0140145Y0106433D01*
X0140145Y0108483D01*
X0143045Y0111383D01*
X0145095Y0111383D01*
X0145095Y0106433D01*
X0145095Y0101483D01*
X0147145Y0101483D01*
X0145095Y0102260D02*
X0145095Y0102260D01*
X0145095Y0103859D02*
X0145095Y0103859D01*
X0145095Y0105457D02*
X0145095Y0105457D01*
X0145095Y0106433D02*
X0145095Y0106433D01*
X0145095Y0106433D01*
X0145095Y0111383D01*
X0147145Y0111383D01*
X0150045Y0108483D01*
X0150045Y0106433D01*
X0145095Y0106433D01*
X0145095Y0107056D02*
X0145095Y0107056D01*
X0145095Y0108654D02*
X0145095Y0108654D01*
X0145095Y0110253D02*
X0145095Y0110253D01*
X0148276Y0110253D02*
X0152197Y0110253D01*
X0150874Y0108654D02*
X0149874Y0108654D01*
X0150045Y0107056D02*
X0150345Y0107056D01*
X0150358Y0105457D02*
X0150045Y0105457D01*
X0149521Y0103859D02*
X0151020Y0103859D01*
X0142268Y0102260D02*
X0124795Y0102260D01*
X0124795Y0103859D02*
X0140669Y0103859D01*
X0140145Y0105457D02*
X0124795Y0105457D01*
X0124795Y0107056D02*
X0140145Y0107056D01*
X0140316Y0108654D02*
X0122994Y0108654D01*
X0122790Y0110253D02*
X0141914Y0110253D01*
X0122595Y0106433D02*
X0122595Y0098933D01*
X0119414Y0099063D02*
X0118051Y0099063D01*
X0118345Y0097465D02*
X0119565Y0097465D01*
X0119825Y0100662D02*
X0043219Y0100662D01*
X0043196Y0102260D02*
X0107471Y0102260D01*
X0106996Y0103859D02*
X0042695Y0103859D01*
X0048051Y0099063D02*
X0056919Y0099063D01*
X0057005Y0099212D02*
X0056768Y0098801D01*
X0056646Y0098343D01*
X0056646Y0092976D01*
X0060820Y0092976D01*
X0060820Y0099906D01*
X0058209Y0099906D01*
X0057751Y0099784D01*
X0057340Y0099547D01*
X0057005Y0099212D01*
X0056646Y0097465D02*
X0048345Y0097465D01*
X0048345Y0095866D02*
X0056646Y0095866D01*
X0056646Y0094268D02*
X0048345Y0094268D01*
X0048345Y0092669D02*
X0060820Y0092669D01*
X0060820Y0092976D02*
X0060820Y0091426D01*
X0056646Y0091426D01*
X0056646Y0086058D01*
X0056768Y0085600D01*
X0057005Y0085190D01*
X0057340Y0084855D01*
X0057751Y0084618D01*
X0058209Y0084495D01*
X0060820Y0084495D01*
X0060820Y0091426D01*
X0062370Y0091426D01*
X0062370Y0092976D01*
X0060820Y0092976D01*
X0060820Y0094268D02*
X0062370Y0094268D01*
X0062370Y0092976D02*
X0062370Y0099906D01*
X0064982Y0099906D01*
X0065440Y0099784D01*
X0065850Y0099547D01*
X0066185Y0099212D01*
X0066422Y0098801D01*
X0066545Y0098343D01*
X0066545Y0092976D01*
X0062370Y0092976D01*
X0062370Y0092669D02*
X0073846Y0092669D01*
X0073846Y0091071D02*
X0066545Y0091071D01*
X0066545Y0091426D02*
X0062370Y0091426D01*
X0062370Y0084495D01*
X0064982Y0084495D01*
X0065440Y0084618D01*
X0065850Y0084855D01*
X0066185Y0085190D01*
X0066422Y0085600D01*
X0066545Y0086058D01*
X0066545Y0091426D01*
X0066545Y0094268D02*
X0073846Y0094268D01*
X0073846Y0095866D02*
X0066545Y0095866D01*
X0066545Y0097465D02*
X0073846Y0097465D01*
X0074140Y0099063D02*
X0066271Y0099063D01*
X0062370Y0099063D02*
X0060820Y0099063D01*
X0060820Y0097465D02*
X0062370Y0097465D01*
X0062370Y0095866D02*
X0060820Y0095866D01*
X0060820Y0091071D02*
X0062370Y0091071D01*
X0062370Y0089472D02*
X0060820Y0089472D01*
X0060820Y0087874D02*
X0062370Y0087874D01*
X0062370Y0086275D02*
X0060820Y0086275D01*
X0060820Y0084677D02*
X0062370Y0084677D01*
X0065541Y0084677D02*
X0070395Y0084677D01*
X0070395Y0086275D02*
X0066545Y0086275D01*
X0066545Y0087874D02*
X0071157Y0087874D01*
X0072595Y0086201D02*
X0072595Y0063933D01*
X0073790Y0053933D02*
X0066400Y0053933D01*
X0066400Y0051853D01*
X0065463Y0050916D01*
X0061173Y0050916D01*
X0062006Y0050083D01*
X0063615Y0050083D01*
X0065498Y0049303D01*
X0066940Y0047861D01*
X0067720Y0045977D01*
X0067720Y0043955D01*
X0068295Y0042567D01*
X0068295Y0040299D01*
X0067720Y0038911D01*
X0067720Y0036889D01*
X0066940Y0035005D01*
X0065498Y0033563D01*
X0063615Y0032783D01*
X0061576Y0032783D01*
X0059692Y0033563D01*
X0058250Y0035005D01*
X0057470Y0036889D01*
X0057470Y0038497D01*
X0047763Y0048204D01*
X0046895Y0050299D01*
X0046895Y0050916D01*
X0039728Y0050916D01*
X0038790Y0051853D01*
X0038790Y0053933D01*
X0035395Y0053933D01*
X0035395Y0026733D01*
X0212595Y0026733D01*
X0212595Y0053933D01*
X0206400Y0053933D01*
X0206400Y0051853D01*
X0205463Y0050916D01*
X0185139Y0050916D01*
X0172720Y0038497D01*
X0172720Y0036889D01*
X0171940Y0035005D01*
X0170498Y0033563D01*
X0168615Y0032783D01*
X0166576Y0032783D01*
X0164692Y0033563D01*
X0163250Y0035005D01*
X0162470Y0036889D01*
X0162470Y0038911D01*
X0161895Y0040299D01*
X0161895Y0042567D01*
X0162470Y0043955D01*
X0162470Y0045977D01*
X0163250Y0047861D01*
X0164692Y0049303D01*
X0166576Y0050083D01*
X0168184Y0050083D01*
X0169017Y0050916D01*
X0163295Y0050916D01*
X0163295Y0050299D01*
X0162427Y0048204D01*
X0152720Y0038497D01*
X0152720Y0036889D01*
X0151940Y0035005D01*
X0150498Y0033563D01*
X0148615Y0032783D01*
X0146576Y0032783D01*
X0144692Y0033563D01*
X0143250Y0035005D01*
X0142470Y0036889D01*
X0142470Y0038911D01*
X0141895Y0040299D01*
X0141895Y0042567D01*
X0142470Y0043955D01*
X0142470Y0045977D01*
X0143250Y0047861D01*
X0144692Y0049303D01*
X0146576Y0050083D01*
X0148184Y0050083D01*
X0149017Y0050916D01*
X0144728Y0050916D01*
X0143790Y0051853D01*
X0143790Y0053933D01*
X0136400Y0053933D01*
X0136400Y0051853D01*
X0135463Y0050916D01*
X0120139Y0050916D01*
X0107720Y0038497D01*
X0107720Y0036889D01*
X0106940Y0035005D01*
X0105498Y0033563D01*
X0103615Y0032783D01*
X0101576Y0032783D01*
X0099692Y0033563D01*
X0098250Y0035005D01*
X0097470Y0036889D01*
X0097470Y0038911D01*
X0096895Y0040299D01*
X0096895Y0042567D01*
X0097470Y0043955D01*
X0097470Y0045977D01*
X0098250Y0047861D01*
X0099692Y0049303D01*
X0101576Y0050083D01*
X0103184Y0050083D01*
X0107034Y0053933D01*
X0101400Y0053933D01*
X0101400Y0051853D01*
X0100463Y0050916D01*
X0088295Y0050916D01*
X0088295Y0040299D01*
X0087720Y0038911D01*
X0087720Y0036889D01*
X0086940Y0035005D01*
X0085498Y0033563D01*
X0083615Y0032783D01*
X0081576Y0032783D01*
X0079692Y0033563D01*
X0078250Y0035005D01*
X0077470Y0036889D01*
X0077470Y0038911D01*
X0076895Y0040299D01*
X0076895Y0050916D01*
X0074728Y0050916D01*
X0073790Y0051853D01*
X0073790Y0053933D01*
X0073790Y0052706D02*
X0066400Y0052706D01*
X0065655Y0051108D02*
X0074536Y0051108D01*
X0076895Y0049509D02*
X0065000Y0049509D01*
X0066890Y0047911D02*
X0076895Y0047911D01*
X0076895Y0046312D02*
X0067581Y0046312D01*
X0067720Y0044714D02*
X0076895Y0044714D01*
X0076895Y0043115D02*
X0068068Y0043115D01*
X0068295Y0041517D02*
X0076895Y0041517D01*
X0077053Y0039918D02*
X0068137Y0039918D01*
X0067720Y0038320D02*
X0077470Y0038320D01*
X0077540Y0036721D02*
X0067651Y0036721D01*
X0066989Y0035123D02*
X0078202Y0035123D01*
X0079787Y0033524D02*
X0065404Y0033524D01*
X0059787Y0033524D02*
X0045621Y0033524D01*
X0045386Y0033354D02*
X0046064Y0033846D01*
X0046657Y0034439D01*
X0047149Y0035117D01*
X0047530Y0035864D01*
X0047789Y0036661D01*
X0047920Y0037489D01*
X0047920Y0041058D01*
X0042970Y0041058D01*
X0042970Y0032583D01*
X0043014Y0032583D01*
X0043842Y0032714D01*
X0044639Y0032973D01*
X0045386Y0033354D01*
X0042970Y0033524D02*
X0042220Y0033524D01*
X0042220Y0032583D02*
X0042220Y0041058D01*
X0037270Y0041058D01*
X0037270Y0037489D01*
X0037401Y0036661D01*
X0037660Y0035864D01*
X0038041Y0035117D01*
X0038533Y0034439D01*
X0039126Y0033846D01*
X0039804Y0033354D01*
X0040551Y0032973D01*
X0041348Y0032714D01*
X0042176Y0032583D01*
X0042220Y0032583D01*
X0039570Y0033524D02*
X0035395Y0033524D01*
X0035395Y0031926D02*
X0212595Y0031926D01*
X0212595Y0033524D02*
X0205621Y0033524D01*
X0205386Y0033354D02*
X0206064Y0033846D01*
X0206657Y0034439D01*
X0207149Y0035117D01*
X0207530Y0035864D01*
X0207789Y0036661D01*
X0207920Y0037489D01*
X0207920Y0041058D01*
X0202970Y0041058D01*
X0202970Y0032583D01*
X0203014Y0032583D01*
X0203842Y0032714D01*
X0204639Y0032973D01*
X0205386Y0033354D01*
X0202970Y0033524D02*
X0202220Y0033524D01*
X0202220Y0032583D02*
X0202220Y0041058D01*
X0197270Y0041058D01*
X0197270Y0037489D01*
X0197401Y0036661D01*
X0197660Y0035864D01*
X0198041Y0035117D01*
X0198533Y0034439D01*
X0199126Y0033846D01*
X0199804Y0033354D01*
X0200551Y0032973D01*
X0201348Y0032714D01*
X0202176Y0032583D01*
X0202220Y0032583D01*
X0199570Y0033524D02*
X0170404Y0033524D01*
X0171989Y0035123D02*
X0198038Y0035123D01*
X0197392Y0036721D02*
X0172651Y0036721D01*
X0172720Y0038320D02*
X0197270Y0038320D01*
X0197270Y0039918D02*
X0174141Y0039918D01*
X0175740Y0041517D02*
X0202220Y0041517D01*
X0202220Y0041808D02*
X0202220Y0041058D01*
X0202970Y0041058D01*
X0202970Y0041808D01*
X0202220Y0041808D01*
X0197270Y0041808D01*
X0197270Y0045377D01*
X0197401Y0046205D01*
X0197660Y0047002D01*
X0198041Y0047749D01*
X0198533Y0048427D01*
X0199126Y0049020D01*
X0199804Y0049512D01*
X0200551Y0049893D01*
X0201348Y0050152D01*
X0202176Y0050283D01*
X0202220Y0050283D01*
X0202220Y0041808D01*
X0202970Y0041808D02*
X0202970Y0050283D01*
X0203014Y0050283D01*
X0203842Y0050152D01*
X0204639Y0049893D01*
X0205386Y0049512D01*
X0206064Y0049020D01*
X0206657Y0048427D01*
X0207149Y0047749D01*
X0207530Y0047002D01*
X0207789Y0046205D01*
X0207920Y0045377D01*
X0207920Y0041808D01*
X0202970Y0041808D01*
X0202970Y0041517D02*
X0212595Y0041517D01*
X0212595Y0043115D02*
X0207920Y0043115D01*
X0207920Y0044714D02*
X0212595Y0044714D01*
X0212595Y0046312D02*
X0207754Y0046312D01*
X0207032Y0047911D02*
X0212595Y0047911D01*
X0212595Y0049509D02*
X0205390Y0049509D01*
X0205655Y0051108D02*
X0212595Y0051108D01*
X0212595Y0052706D02*
X0206400Y0052706D01*
X0202970Y0049509D02*
X0202220Y0049509D01*
X0202220Y0047911D02*
X0202970Y0047911D01*
X0202970Y0046312D02*
X0202220Y0046312D01*
X0202220Y0044714D02*
X0202970Y0044714D01*
X0202970Y0043115D02*
X0202220Y0043115D01*
X0202220Y0039918D02*
X0202970Y0039918D01*
X0202970Y0038320D02*
X0202220Y0038320D01*
X0202220Y0036721D02*
X0202970Y0036721D01*
X0202970Y0035123D02*
X0202220Y0035123D01*
X0207152Y0035123D02*
X0212595Y0035123D01*
X0212595Y0036721D02*
X0207799Y0036721D01*
X0207920Y0038320D02*
X0212595Y0038320D01*
X0212595Y0039918D02*
X0207920Y0039918D01*
X0217595Y0035123D02*
X0218038Y0035123D01*
X0217595Y0033524D02*
X0219570Y0033524D01*
X0217595Y0031926D02*
X0230996Y0031926D01*
X0230996Y0033524D02*
X0225621Y0033524D01*
X0227152Y0035123D02*
X0230996Y0035123D01*
X0230996Y0036721D02*
X0227799Y0036721D01*
X0227920Y0038320D02*
X0230996Y0038320D01*
X0230996Y0039918D02*
X0227920Y0039918D01*
X0227920Y0041808D02*
X0227920Y0045377D01*
X0227789Y0046205D01*
X0227530Y0047002D01*
X0227149Y0047749D01*
X0226657Y0048427D01*
X0226064Y0049020D01*
X0225386Y0049512D01*
X0224639Y0049893D01*
X0223842Y0050152D01*
X0223014Y0050283D01*
X0222970Y0050283D01*
X0222970Y0041808D01*
X0227920Y0041808D01*
X0227920Y0043115D02*
X0230996Y0043115D01*
X0230996Y0041517D02*
X0222970Y0041517D01*
X0222970Y0043115D02*
X0222220Y0043115D01*
X0222220Y0044714D02*
X0222970Y0044714D01*
X0222970Y0046312D02*
X0222220Y0046312D01*
X0222220Y0047911D02*
X0222970Y0047911D01*
X0222970Y0049509D02*
X0222220Y0049509D01*
X0219800Y0049509D02*
X0217595Y0049509D01*
X0217595Y0047911D02*
X0218158Y0047911D01*
X0217595Y0051108D02*
X0230996Y0051108D01*
X0230996Y0052706D02*
X0217595Y0052706D01*
X0217595Y0054305D02*
X0230996Y0054305D01*
X0230996Y0055903D02*
X0217595Y0055903D01*
X0217595Y0057502D02*
X0230996Y0057502D01*
X0230996Y0059100D02*
X0213995Y0059100D01*
X0213995Y0060699D02*
X0230996Y0060699D01*
X0230996Y0062297D02*
X0213995Y0062297D01*
X0213995Y0063896D02*
X0230996Y0063896D01*
X0230996Y0065494D02*
X0214672Y0065494D01*
X0216270Y0067093D02*
X0230996Y0067093D01*
X0230996Y0068691D02*
X0217869Y0068691D01*
X0220669Y0070290D02*
X0230996Y0070290D01*
X0230996Y0071888D02*
X0221890Y0071888D01*
X0222345Y0073487D02*
X0230996Y0073487D01*
X0230996Y0075085D02*
X0222259Y0075085D01*
X0221562Y0076684D02*
X0230996Y0076684D01*
X0230996Y0078282D02*
X0219507Y0078282D01*
X0219645Y0078983D02*
X0222545Y0081883D01*
X0222545Y0083933D01*
X0217595Y0083933D01*
X0212645Y0083933D01*
X0212645Y0081883D01*
X0215545Y0078983D01*
X0217595Y0078983D01*
X0217595Y0083933D01*
X0217595Y0083933D01*
X0217595Y0083933D01*
X0212645Y0083933D01*
X0212645Y0085983D01*
X0215545Y0088883D01*
X0217595Y0088883D01*
X0217595Y0083933D01*
X0217595Y0078983D01*
X0219645Y0078983D01*
X0220543Y0079881D02*
X0230996Y0079881D01*
X0230996Y0081479D02*
X0222142Y0081479D01*
X0222545Y0083078D02*
X0230996Y0083078D01*
X0230996Y0084677D02*
X0222545Y0084677D01*
X0222545Y0083933D02*
X0222545Y0085983D01*
X0219645Y0088883D01*
X0217595Y0088883D01*
X0217595Y0083933D01*
X0217595Y0083933D01*
X0217595Y0083933D01*
X0222545Y0083933D01*
X0222254Y0086275D02*
X0230996Y0086275D01*
X0230996Y0087874D02*
X0220655Y0087874D01*
X0217595Y0087874D02*
X0217595Y0087874D01*
X0217595Y0086275D02*
X0217595Y0086275D01*
X0217595Y0084677D02*
X0217595Y0084677D01*
X0217595Y0083078D02*
X0217595Y0083078D01*
X0217595Y0081479D02*
X0217595Y0081479D01*
X0217595Y0079881D02*
X0217595Y0079881D01*
X0215683Y0078282D02*
X0207595Y0078282D01*
X0207595Y0076684D02*
X0213629Y0076684D01*
X0212931Y0075085D02*
X0207595Y0075085D01*
X0207595Y0073487D02*
X0211634Y0073487D01*
X0210035Y0071888D02*
X0207595Y0071888D01*
X0207595Y0070290D02*
X0208437Y0070290D01*
X0214647Y0079881D02*
X0179795Y0079881D01*
X0179795Y0081479D02*
X0213048Y0081479D01*
X0212645Y0083078D02*
X0179795Y0083078D01*
X0179795Y0084677D02*
X0197649Y0084677D01*
X0197751Y0084618D02*
X0198209Y0084495D01*
X0200820Y0084495D01*
X0200820Y0091426D01*
X0196646Y0091426D01*
X0196646Y0086058D01*
X0196768Y0085600D01*
X0197005Y0085190D01*
X0197340Y0084855D01*
X0197751Y0084618D01*
X0196646Y0086275D02*
X0188345Y0086275D01*
X0188345Y0087874D02*
X0196646Y0087874D01*
X0196646Y0089472D02*
X0188345Y0089472D01*
X0188345Y0091071D02*
X0196646Y0091071D01*
X0200820Y0091071D02*
X0202370Y0091071D01*
X0202370Y0091426D02*
X0200820Y0091426D01*
X0200820Y0092976D01*
X0200820Y0099906D01*
X0198209Y0099906D01*
X0197751Y0099784D01*
X0197340Y0099547D01*
X0197005Y0099212D01*
X0196768Y0098801D01*
X0196646Y0098343D01*
X0196646Y0092976D01*
X0200820Y0092976D01*
X0202370Y0092976D01*
X0202370Y0099906D01*
X0204982Y0099906D01*
X0205440Y0099784D01*
X0205850Y0099547D01*
X0206185Y0099212D01*
X0206422Y0098801D01*
X0206545Y0098343D01*
X0206545Y0092976D01*
X0202370Y0092976D01*
X0202370Y0091426D01*
X0206545Y0091426D01*
X0206545Y0086058D01*
X0206422Y0085600D01*
X0206185Y0085190D01*
X0205850Y0084855D01*
X0205440Y0084618D01*
X0204982Y0084495D01*
X0202370Y0084495D01*
X0202370Y0091426D01*
X0202370Y0092669D02*
X0230996Y0092669D01*
X0230996Y0091071D02*
X0206545Y0091071D01*
X0206545Y0089472D02*
X0230996Y0089472D01*
X0230996Y0094268D02*
X0206545Y0094268D01*
X0206545Y0095866D02*
X0230996Y0095866D01*
X0230996Y0097465D02*
X0206545Y0097465D01*
X0206271Y0099063D02*
X0230996Y0099063D01*
X0214535Y0087874D02*
X0206545Y0087874D01*
X0206545Y0086275D02*
X0212937Y0086275D01*
X0212645Y0084677D02*
X0205541Y0084677D01*
X0202370Y0084677D02*
X0200820Y0084677D01*
X0200820Y0086275D02*
X0202370Y0086275D01*
X0202370Y0087874D02*
X0200820Y0087874D01*
X0200820Y0089472D02*
X0202370Y0089472D01*
X0200820Y0092669D02*
X0188345Y0092669D01*
X0188345Y0094268D02*
X0196646Y0094268D01*
X0196646Y0095866D02*
X0188345Y0095866D01*
X0188345Y0097465D02*
X0196646Y0097465D01*
X0196919Y0099063D02*
X0188051Y0099063D01*
X0183595Y0092201D02*
X0177595Y0086201D01*
X0177595Y0063933D01*
X0183732Y0049509D02*
X0199800Y0049509D01*
X0198158Y0047911D02*
X0182134Y0047911D01*
X0180535Y0046312D02*
X0197436Y0046312D01*
X0197270Y0044714D02*
X0178937Y0044714D01*
X0177338Y0043115D02*
X0197270Y0043115D01*
X0212595Y0030327D02*
X0035395Y0030327D01*
X0035395Y0028729D02*
X0212595Y0028729D01*
X0212595Y0027130D02*
X0035395Y0027130D01*
X0035395Y0035123D02*
X0038038Y0035123D01*
X0037392Y0036721D02*
X0035395Y0036721D01*
X0035395Y0038320D02*
X0037270Y0038320D01*
X0037270Y0039918D02*
X0035395Y0039918D01*
X0035395Y0041517D02*
X0042220Y0041517D01*
X0042220Y0041808D02*
X0042220Y0041058D01*
X0042970Y0041058D01*
X0042970Y0041808D01*
X0042220Y0041808D01*
X0037270Y0041808D01*
X0037270Y0045377D01*
X0037401Y0046205D01*
X0037660Y0047002D01*
X0038041Y0047749D01*
X0038533Y0048427D01*
X0039126Y0049020D01*
X0039804Y0049512D01*
X0040551Y0049893D01*
X0041348Y0050152D01*
X0042176Y0050283D01*
X0042220Y0050283D01*
X0042220Y0041808D01*
X0042970Y0041808D02*
X0042970Y0050283D01*
X0043014Y0050283D01*
X0043842Y0050152D01*
X0044639Y0049893D01*
X0045386Y0049512D01*
X0046064Y0049020D01*
X0046657Y0048427D01*
X0047149Y0047749D01*
X0047530Y0047002D01*
X0047789Y0046205D01*
X0047920Y0045377D01*
X0047920Y0041808D01*
X0042970Y0041808D01*
X0042970Y0041517D02*
X0054450Y0041517D01*
X0052852Y0043115D02*
X0047920Y0043115D01*
X0047920Y0044714D02*
X0051253Y0044714D01*
X0049655Y0046312D02*
X0047754Y0046312D01*
X0048056Y0047911D02*
X0047032Y0047911D01*
X0047222Y0049509D02*
X0045390Y0049509D01*
X0042970Y0049509D02*
X0042220Y0049509D01*
X0042220Y0047911D02*
X0042970Y0047911D01*
X0042970Y0046312D02*
X0042220Y0046312D01*
X0042220Y0044714D02*
X0042970Y0044714D01*
X0042970Y0043115D02*
X0042220Y0043115D01*
X0042220Y0039918D02*
X0042970Y0039918D01*
X0042970Y0038320D02*
X0042220Y0038320D01*
X0042220Y0036721D02*
X0042970Y0036721D01*
X0042970Y0035123D02*
X0042220Y0035123D01*
X0047152Y0035123D02*
X0058202Y0035123D01*
X0057540Y0036721D02*
X0047799Y0036721D01*
X0047920Y0038320D02*
X0057470Y0038320D01*
X0056049Y0039918D02*
X0047920Y0039918D01*
X0038158Y0047911D02*
X0035395Y0047911D01*
X0035395Y0049509D02*
X0039800Y0049509D01*
X0039536Y0051108D02*
X0035395Y0051108D01*
X0035395Y0052706D02*
X0038790Y0052706D01*
X0037436Y0046312D02*
X0035395Y0046312D01*
X0035395Y0044714D02*
X0037270Y0044714D01*
X0037270Y0043115D02*
X0035395Y0043115D01*
X0057895Y0079881D02*
X0070395Y0079881D01*
X0070395Y0081479D02*
X0058276Y0081479D01*
X0057857Y0083078D02*
X0070395Y0083078D01*
X0072595Y0086201D02*
X0078595Y0092201D01*
X0083345Y0092669D02*
X0095820Y0092669D01*
X0095820Y0092976D02*
X0095820Y0091426D01*
X0091646Y0091426D01*
X0091646Y0086058D01*
X0091768Y0085600D01*
X0092005Y0085190D01*
X0092340Y0084855D01*
X0092751Y0084618D01*
X0093209Y0084495D01*
X0095820Y0084495D01*
X0095820Y0091426D01*
X0097370Y0091426D01*
X0097370Y0092976D01*
X0095820Y0092976D01*
X0095820Y0099906D01*
X0093209Y0099906D01*
X0092751Y0099784D01*
X0092340Y0099547D01*
X0092005Y0099212D01*
X0091768Y0098801D01*
X0091646Y0098343D01*
X0091646Y0092976D01*
X0095820Y0092976D01*
X0095820Y0094268D02*
X0097370Y0094268D01*
X0097370Y0092976D02*
X0097370Y0099906D01*
X0099982Y0099906D01*
X0100440Y0099784D01*
X0100850Y0099547D01*
X0101185Y0099212D01*
X0101422Y0098801D01*
X0101545Y0098343D01*
X0101545Y0092976D01*
X0097370Y0092976D01*
X0097370Y0092669D02*
X0108846Y0092669D01*
X0108846Y0091071D02*
X0101545Y0091071D01*
X0101545Y0091426D02*
X0097370Y0091426D01*
X0097370Y0084495D01*
X0099982Y0084495D01*
X0100440Y0084618D01*
X0100850Y0084855D01*
X0101185Y0085190D01*
X0101422Y0085600D01*
X0101545Y0086058D01*
X0101545Y0091426D01*
X0101545Y0094268D02*
X0108846Y0094268D01*
X0108846Y0095866D02*
X0101545Y0095866D01*
X0101545Y0097465D02*
X0108846Y0097465D01*
X0109140Y0099063D02*
X0101271Y0099063D01*
X0097370Y0099063D02*
X0095820Y0099063D01*
X0095820Y0097465D02*
X0097370Y0097465D01*
X0097370Y0095866D02*
X0095820Y0095866D01*
X0091646Y0095866D02*
X0083345Y0095866D01*
X0083345Y0094268D02*
X0091646Y0094268D01*
X0091646Y0097465D02*
X0083345Y0097465D01*
X0083051Y0099063D02*
X0091919Y0099063D01*
X0091646Y0091071D02*
X0083345Y0091071D01*
X0083345Y0089472D02*
X0091646Y0089472D01*
X0091646Y0087874D02*
X0083345Y0087874D01*
X0083345Y0086275D02*
X0091646Y0086275D01*
X0092649Y0084677D02*
X0074795Y0084677D01*
X0074795Y0083078D02*
X0105395Y0083078D01*
X0105395Y0084677D02*
X0100541Y0084677D01*
X0101545Y0086275D02*
X0105395Y0086275D01*
X0106157Y0087874D02*
X0101545Y0087874D01*
X0101545Y0089472D02*
X0107755Y0089472D01*
X0107595Y0086201D02*
X0113595Y0092201D01*
X0118345Y0089472D02*
X0126646Y0089472D01*
X0126646Y0087874D02*
X0118345Y0087874D01*
X0118345Y0086275D02*
X0126646Y0086275D01*
X0127649Y0084677D02*
X0109795Y0084677D01*
X0109795Y0083078D02*
X0140395Y0083078D01*
X0140395Y0081479D02*
X0109795Y0081479D01*
X0109795Y0079881D02*
X0140395Y0079881D01*
X0144795Y0079881D02*
X0175395Y0079881D01*
X0175395Y0081479D02*
X0144795Y0081479D01*
X0144795Y0083078D02*
X0175395Y0083078D01*
X0175395Y0084677D02*
X0170541Y0084677D01*
X0171545Y0086275D02*
X0175395Y0086275D01*
X0176157Y0087874D02*
X0171545Y0087874D01*
X0171545Y0089472D02*
X0177755Y0089472D01*
X0167370Y0089472D02*
X0165820Y0089472D01*
X0165820Y0087874D02*
X0167370Y0087874D01*
X0167370Y0086275D02*
X0165820Y0086275D01*
X0165820Y0084677D02*
X0167370Y0084677D01*
X0162649Y0084677D02*
X0144795Y0084677D01*
X0142595Y0086201D02*
X0142595Y0063933D01*
X0143790Y0052706D02*
X0136400Y0052706D01*
X0135655Y0051108D02*
X0144536Y0051108D01*
X0145190Y0049509D02*
X0130390Y0049509D01*
X0130386Y0049512D02*
X0129639Y0049893D01*
X0128842Y0050152D01*
X0128014Y0050283D01*
X0127970Y0050283D01*
X0127970Y0041808D01*
X0127220Y0041808D01*
X0127220Y0041058D01*
X0122270Y0041058D01*
X0122270Y0037489D01*
X0122401Y0036661D01*
X0122660Y0035864D01*
X0123041Y0035117D01*
X0123533Y0034439D01*
X0124126Y0033846D01*
X0124804Y0033354D01*
X0125551Y0032973D01*
X0126348Y0032714D01*
X0127176Y0032583D01*
X0127220Y0032583D01*
X0127220Y0041058D01*
X0127970Y0041058D01*
X0127970Y0032583D01*
X0128014Y0032583D01*
X0128842Y0032714D01*
X0129639Y0032973D01*
X0130386Y0033354D01*
X0131064Y0033846D01*
X0131657Y0034439D01*
X0132149Y0035117D01*
X0132530Y0035864D01*
X0132789Y0036661D01*
X0132920Y0037489D01*
X0132920Y0041058D01*
X0127970Y0041058D01*
X0127970Y0041808D01*
X0132920Y0041808D01*
X0132920Y0045377D01*
X0132789Y0046205D01*
X0132530Y0047002D01*
X0132149Y0047749D01*
X0131657Y0048427D01*
X0131064Y0049020D01*
X0130386Y0049512D01*
X0132032Y0047911D02*
X0143300Y0047911D01*
X0142609Y0046312D02*
X0132754Y0046312D01*
X0132920Y0044714D02*
X0142470Y0044714D01*
X0142122Y0043115D02*
X0132920Y0043115D01*
X0132920Y0039918D02*
X0142053Y0039918D01*
X0141895Y0041517D02*
X0127970Y0041517D01*
X0127220Y0041517D02*
X0110740Y0041517D01*
X0112338Y0043115D02*
X0122270Y0043115D01*
X0122270Y0041808D02*
X0127220Y0041808D01*
X0127220Y0050283D01*
X0127176Y0050283D01*
X0126348Y0050152D01*
X0125551Y0049893D01*
X0124804Y0049512D01*
X0124126Y0049020D01*
X0123533Y0048427D01*
X0123041Y0047749D01*
X0122660Y0047002D01*
X0122401Y0046205D01*
X0122270Y0045377D01*
X0122270Y0041808D01*
X0122270Y0039918D02*
X0109141Y0039918D01*
X0107720Y0038320D02*
X0122270Y0038320D01*
X0122392Y0036721D02*
X0107651Y0036721D01*
X0106989Y0035123D02*
X0123038Y0035123D01*
X0124570Y0033524D02*
X0105404Y0033524D01*
X0099787Y0033524D02*
X0085404Y0033524D01*
X0086989Y0035123D02*
X0098202Y0035123D01*
X0097540Y0036721D02*
X0087651Y0036721D01*
X0087720Y0038320D02*
X0097470Y0038320D01*
X0097053Y0039918D02*
X0088137Y0039918D01*
X0088295Y0041517D02*
X0096895Y0041517D01*
X0097122Y0043115D02*
X0088295Y0043115D01*
X0088295Y0044714D02*
X0097470Y0044714D01*
X0097609Y0046312D02*
X0088295Y0046312D01*
X0088295Y0047911D02*
X0098300Y0047911D01*
X0100190Y0049509D02*
X0088295Y0049509D01*
X0100655Y0051108D02*
X0104209Y0051108D01*
X0105807Y0052706D02*
X0101400Y0052706D01*
X0113937Y0044714D02*
X0122270Y0044714D01*
X0122436Y0046312D02*
X0115535Y0046312D01*
X0117134Y0047911D02*
X0123158Y0047911D01*
X0124800Y0049509D02*
X0118732Y0049509D01*
X0127220Y0049509D02*
X0127970Y0049509D01*
X0127970Y0047911D02*
X0127220Y0047911D01*
X0127220Y0046312D02*
X0127970Y0046312D01*
X0127970Y0044714D02*
X0127220Y0044714D01*
X0127220Y0043115D02*
X0127970Y0043115D01*
X0127970Y0039918D02*
X0127220Y0039918D01*
X0127220Y0038320D02*
X0127970Y0038320D01*
X0127970Y0036721D02*
X0127220Y0036721D01*
X0127220Y0035123D02*
X0127970Y0035123D01*
X0127970Y0033524D02*
X0127220Y0033524D01*
X0130621Y0033524D02*
X0144787Y0033524D01*
X0143202Y0035123D02*
X0132152Y0035123D01*
X0132799Y0036721D02*
X0142540Y0036721D01*
X0142470Y0038320D02*
X0132920Y0038320D01*
X0150404Y0033524D02*
X0164787Y0033524D01*
X0163202Y0035123D02*
X0151989Y0035123D01*
X0152651Y0036721D02*
X0162540Y0036721D01*
X0162470Y0038320D02*
X0152720Y0038320D01*
X0154141Y0039918D02*
X0162053Y0039918D01*
X0161895Y0041517D02*
X0155740Y0041517D01*
X0157338Y0043115D02*
X0162122Y0043115D01*
X0162470Y0044714D02*
X0158937Y0044714D01*
X0160535Y0046312D02*
X0162609Y0046312D01*
X0162134Y0047911D02*
X0163300Y0047911D01*
X0162968Y0049509D02*
X0165190Y0049509D01*
X0217595Y0030327D02*
X0230996Y0030327D01*
X0230996Y0028729D02*
X0217595Y0028729D01*
X0217595Y0027130D02*
X0230996Y0027130D01*
X0222970Y0033524D02*
X0222220Y0033524D01*
X0222220Y0035123D02*
X0222970Y0035123D01*
X0222970Y0036721D02*
X0222220Y0036721D01*
X0222220Y0038320D02*
X0222970Y0038320D01*
X0222970Y0039918D02*
X0222220Y0039918D01*
X0227920Y0044714D02*
X0230996Y0044714D01*
X0230996Y0046312D02*
X0227754Y0046312D01*
X0227032Y0047911D02*
X0230996Y0047911D01*
X0230996Y0049509D02*
X0225390Y0049509D01*
X0167370Y0091071D02*
X0165820Y0091071D01*
X0161646Y0091071D02*
X0153345Y0091071D01*
X0153345Y0089472D02*
X0161646Y0089472D01*
X0161646Y0087874D02*
X0153345Y0087874D01*
X0153345Y0086275D02*
X0161646Y0086275D01*
X0142755Y0089472D02*
X0136545Y0089472D01*
X0111835Y0102260D02*
X0110875Y0102260D01*
X0110875Y0103859D02*
X0111835Y0103859D01*
X0111835Y0105457D02*
X0110875Y0105457D01*
X0110875Y0106913D02*
X0106996Y0106913D01*
X0106996Y0109623D01*
X0107119Y0110081D01*
X0107356Y0110491D01*
X0107691Y0110826D01*
X0108101Y0111063D01*
X0108559Y0111186D01*
X0110875Y0111186D01*
X0110875Y0106913D01*
X0110875Y0107056D02*
X0111835Y0107056D01*
X0111835Y0108654D02*
X0110875Y0108654D01*
X0110875Y0110253D02*
X0111835Y0110253D01*
X0107218Y0110253D02*
X0058194Y0110253D01*
X0058194Y0107056D02*
X0106996Y0107056D01*
X0106996Y0108654D02*
X0054315Y0108654D01*
X0054315Y0107056D02*
X0053356Y0107056D01*
X0053356Y0105457D02*
X0054315Y0105457D01*
X0058118Y0105457D02*
X0106996Y0105457D01*
X0118835Y0106433D02*
X0122595Y0106433D01*
X0097370Y0091071D02*
X0095820Y0091071D01*
X0095820Y0089472D02*
X0097370Y0089472D01*
X0097370Y0087874D02*
X0095820Y0087874D01*
X0095820Y0086275D02*
X0097370Y0086275D01*
X0097370Y0084677D02*
X0095820Y0084677D01*
X0105395Y0081479D02*
X0074795Y0081479D01*
X0074795Y0079881D02*
X0105395Y0079881D01*
X0107595Y0086201D02*
X0107595Y0063933D01*
X0072755Y0089472D02*
X0066545Y0089472D01*
X0057649Y0084677D02*
X0054680Y0084677D01*
X0053082Y0086275D02*
X0056646Y0086275D01*
X0056646Y0087874D02*
X0051483Y0087874D01*
X0049885Y0089472D02*
X0056646Y0089472D01*
X0056646Y0091071D02*
X0048345Y0091071D01*
X0043595Y0092201D02*
X0040863Y0092201D01*
X0053356Y0110253D02*
X0054315Y0110253D01*
X0054315Y0111851D02*
X0053356Y0111851D01*
X0053356Y0113450D02*
X0054315Y0113450D01*
X0054726Y0115048D02*
X0042695Y0115048D01*
X0042695Y0113450D02*
X0043097Y0113450D01*
X0042695Y0116647D02*
X0054414Y0116647D01*
X0054909Y0118245D02*
X0042695Y0118245D01*
X0042695Y0119844D02*
X0053042Y0119844D01*
X0053042Y0121442D02*
X0042695Y0121442D01*
X0042695Y0123041D02*
X0053042Y0123041D01*
X0053042Y0124639D02*
X0042695Y0124639D01*
X0042695Y0126238D02*
X0053365Y0126238D01*
X0053042Y0127836D02*
X0042695Y0127836D01*
X0042695Y0129435D02*
X0053042Y0129435D01*
X0053042Y0131033D02*
X0042695Y0131033D01*
X0042695Y0132632D02*
X0053042Y0132632D01*
X0062148Y0132632D02*
X0063042Y0132632D01*
X0063042Y0131033D02*
X0062148Y0131033D01*
X0062148Y0129435D02*
X0063042Y0129435D01*
X0063042Y0127836D02*
X0062148Y0127836D01*
X0061825Y0126238D02*
X0063365Y0126238D01*
X0063042Y0124639D02*
X0062148Y0124639D01*
X0062148Y0123041D02*
X0063042Y0123041D01*
X0063042Y0121442D02*
X0062148Y0121442D01*
X0062148Y0119844D02*
X0063042Y0119844D01*
X0064909Y0118245D02*
X0060282Y0118245D01*
X0060776Y0116647D02*
X0064414Y0116647D01*
X0064726Y0115048D02*
X0060465Y0115048D01*
X0050385Y0113450D02*
X0049613Y0113450D01*
X0200820Y0099063D02*
X0202370Y0099063D01*
X0202370Y0097465D02*
X0200820Y0097465D01*
X0200820Y0095866D02*
X0202370Y0095866D01*
X0202370Y0094268D02*
X0200820Y0094268D01*
D22*
X0217595Y0073933D02*
X0210095Y0066433D01*
X0210095Y0048933D01*
X0202595Y0041433D01*
D23*
X0067595Y0130173D02*
X0067595Y0136433D01*
X0105095Y0136433D01*
X0115095Y0146433D01*
X0117595Y0146433D01*
X0155095Y0146433D01*
X0162595Y0138933D01*
X0067595Y0136433D02*
X0057595Y0136433D01*
X0057595Y0130173D01*
X0057595Y0136433D02*
X0042595Y0136433D01*
X0040095Y0133933D01*
X0040095Y0108933D01*
X0046355Y0108933D01*
X0040095Y0108933D02*
X0040095Y0101433D01*
D24*
X0052595Y0063933D02*
X0052595Y0051433D01*
X0062595Y0041433D01*
X0082595Y0041433D02*
X0082595Y0063933D01*
X0102595Y0041433D02*
X0122595Y0061433D01*
X0122595Y0063933D01*
X0147595Y0041433D02*
X0157595Y0051433D01*
X0157595Y0063933D01*
X0167595Y0041433D02*
X0192595Y0066433D01*
D25*
X0122595Y0098933D03*
M02*
