G75*
%MOIN*%
%OFA0B0*%
%FSLAX25Y25*%
%IPPOS*%
%LPD*%
%AMOC8*
5,1,8,0,0,1.08239X$1,22.5*
%
%ADD10C,0.00000*%
%ADD11C,0.00512*%
%ADD12C,0.00600*%
%ADD13OC8,0.06300*%
%ADD14C,0.06300*%
%ADD15R,0.05118X0.05906*%
%ADD16R,0.04400X0.07100*%
%ADD17R,0.09055X0.06299*%
%ADD18R,0.04724X0.04724*%
%ADD19R,0.07874X0.04724*%
%ADD20R,0.11800X0.29500*%
%ADD21R,0.05906X0.05118*%
%ADD22C,0.07050*%
%ADD23R,0.07800X0.02200*%
%ADD24C,0.06000*%
%ADD25C,0.03562*%
%ADD26C,0.01200*%
%ADD27C,0.01000*%
%ADD28C,0.01600*%
%ADD29C,0.04000*%
%ADD30C,0.02400*%
%ADD31C,0.03200*%
%ADD32OC8,0.03562*%
D10*
X0032595Y0023933D02*
X0032595Y0161394D01*
X0233796Y0161394D01*
X0233796Y0023933D01*
X0032595Y0023933D01*
D11*
X0032595Y0001256D01*
X0032851Y0008933D02*
X0042831Y0007909D01*
X0042831Y0007676D02*
X0032851Y0008933D01*
X0042831Y0009957D01*
X0042831Y0010190D02*
X0042831Y0007676D01*
X0042831Y0008421D02*
X0032851Y0008933D01*
X0042831Y0009445D01*
X0042831Y0010190D02*
X0032851Y0008933D01*
X0232339Y0008933D01*
X0222359Y0007909D01*
X0222359Y0007676D02*
X0232339Y0008933D01*
X0222359Y0009957D01*
X0222359Y0010190D02*
X0222359Y0007676D01*
X0222359Y0008421D02*
X0232339Y0008933D01*
X0222359Y0009445D01*
X0222359Y0010190D02*
X0232339Y0008933D01*
X0232595Y0001256D02*
X0232595Y0023933D01*
X0032595Y0023933D02*
X0004918Y0023933D01*
X0012595Y0024189D02*
X0013619Y0034169D01*
X0013852Y0034169D02*
X0012595Y0024189D01*
X0011572Y0034169D01*
X0011338Y0034169D02*
X0013852Y0034169D01*
X0013107Y0034169D02*
X0012595Y0024189D01*
X0012083Y0034169D01*
X0011338Y0034169D02*
X0012595Y0024189D01*
X0012595Y0161138D01*
X0013619Y0151157D01*
X0013852Y0151157D02*
X0012595Y0161138D01*
X0011572Y0151157D01*
X0011338Y0151157D02*
X0013852Y0151157D01*
X0013107Y0151157D02*
X0012595Y0161138D01*
X0012083Y0151157D01*
X0011338Y0151157D02*
X0012595Y0161138D01*
X0004918Y0161394D02*
X0032595Y0161394D01*
D12*
X0010033Y0107318D02*
X0010033Y0103047D01*
X0005763Y0107318D01*
X0004695Y0107318D01*
X0003628Y0106250D01*
X0003628Y0104115D01*
X0004695Y0103047D01*
X0004695Y0100872D02*
X0003628Y0099805D01*
X0003628Y0097670D01*
X0004695Y0096602D01*
X0005763Y0096602D01*
X0006831Y0097670D01*
X0006831Y0100872D01*
X0008966Y0100872D02*
X0004695Y0100872D01*
X0008966Y0100872D02*
X0010033Y0099805D01*
X0010033Y0097670D01*
X0008966Y0096602D01*
X0008966Y0094447D02*
X0010033Y0094447D01*
X0010033Y0093379D01*
X0008966Y0093379D01*
X0008966Y0094447D01*
X0006831Y0091204D02*
X0006831Y0086934D01*
X0003628Y0090136D01*
X0010033Y0090136D01*
X0008966Y0084759D02*
X0010033Y0083691D01*
X0010033Y0081556D01*
X0008966Y0080488D01*
X0006831Y0082623D02*
X0006831Y0083691D01*
X0007898Y0084759D01*
X0008966Y0084759D01*
X0006831Y0083691D02*
X0005763Y0084759D01*
X0004695Y0084759D01*
X0003628Y0083691D01*
X0003628Y0081556D01*
X0004695Y0080488D01*
X0120420Y0017900D02*
X0120420Y0014698D01*
X0122555Y0015765D01*
X0123623Y0015765D01*
X0124690Y0014698D01*
X0124690Y0012562D01*
X0123623Y0011495D01*
X0121488Y0011495D01*
X0120420Y0012562D01*
X0120420Y0017900D02*
X0124690Y0017900D01*
X0126866Y0016833D02*
X0127933Y0017900D01*
X0130068Y0017900D01*
X0131136Y0016833D01*
X0126866Y0012562D01*
X0127933Y0011495D01*
X0130068Y0011495D01*
X0131136Y0012562D01*
X0131136Y0016833D01*
X0126866Y0016833D02*
X0126866Y0012562D01*
X0133311Y0012562D02*
X0133311Y0011495D01*
X0134379Y0011495D01*
X0134379Y0012562D01*
X0133311Y0012562D01*
X0136534Y0012562D02*
X0136534Y0013630D01*
X0137601Y0014698D01*
X0139736Y0014698D01*
X0140804Y0013630D01*
X0140804Y0012562D01*
X0139736Y0011495D01*
X0137601Y0011495D01*
X0136534Y0012562D01*
X0137601Y0014698D02*
X0136534Y0015765D01*
X0136534Y0016833D01*
X0137601Y0017900D01*
X0139736Y0017900D01*
X0140804Y0016833D01*
X0140804Y0015765D01*
X0139736Y0014698D01*
X0142979Y0016833D02*
X0144047Y0017900D01*
X0146182Y0017900D01*
X0147250Y0016833D01*
X0142979Y0012562D01*
X0144047Y0011495D01*
X0146182Y0011495D01*
X0147250Y0012562D01*
X0147250Y0016833D01*
X0142979Y0016833D02*
X0142979Y0012562D01*
D13*
X0217595Y0083933D03*
X0145095Y0106433D03*
D14*
X0155095Y0106433D03*
X0217595Y0073933D03*
D15*
X0191335Y0103933D03*
X0183855Y0103933D03*
X0151335Y0088933D03*
X0143855Y0088933D03*
X0153855Y0068933D03*
X0161335Y0068933D03*
X0126335Y0068933D03*
X0118855Y0068933D03*
X0091335Y0063933D03*
X0083855Y0063933D03*
X0061335Y0063933D03*
X0053855Y0063933D03*
D16*
X0191695Y0071433D03*
X0203495Y0071433D03*
D17*
X0192694Y0153933D03*
X0179997Y0153933D03*
X0155194Y0153933D03*
X0142497Y0153933D03*
X0117694Y0153933D03*
X0217497Y0153933D03*
D18*
X0205095Y0124445D03*
X0205095Y0113421D03*
D19*
X0111375Y0116177D03*
X0111375Y0124051D03*
X0111375Y0131925D03*
X0111375Y0108303D03*
X0111375Y0100429D03*
X0111375Y0092555D03*
X0111375Y0084681D03*
X0111375Y0076807D03*
X0047595Y0076807D03*
X0047595Y0084681D03*
X0047595Y0092555D03*
X0047595Y0100429D03*
X0047595Y0108303D03*
X0047595Y0116177D03*
X0047595Y0124051D03*
X0047595Y0131925D03*
D20*
X0172745Y0123933D03*
X0192445Y0123933D03*
D21*
X0162595Y0097673D03*
X0162595Y0090193D03*
X0185095Y0062673D03*
X0185095Y0055193D03*
D22*
X0202595Y0044958D02*
X0202595Y0037908D01*
X0222595Y0037908D02*
X0222595Y0044958D01*
X0167595Y0044958D02*
X0167595Y0037908D01*
X0147595Y0037908D02*
X0147595Y0044958D01*
X0127595Y0044958D02*
X0127595Y0037908D01*
X0102595Y0037908D02*
X0102595Y0044958D01*
X0082595Y0044958D02*
X0082595Y0037908D01*
X0062595Y0037908D02*
X0062595Y0044958D01*
X0042595Y0044958D02*
X0042595Y0037908D01*
D23*
X0177895Y0078933D03*
X0177895Y0083933D03*
X0177895Y0088933D03*
X0177895Y0093933D03*
X0197295Y0093933D03*
X0197295Y0088933D03*
X0197295Y0083933D03*
X0197295Y0078933D03*
D24*
X0152595Y0125933D02*
X0152595Y0131933D01*
X0142595Y0131933D02*
X0142595Y0125933D01*
X0132595Y0125933D02*
X0132595Y0131933D01*
D25*
X0135095Y0153933D03*
X0125095Y0153933D03*
X0162595Y0148933D03*
X0162595Y0138933D03*
X0185095Y0146433D03*
X0205095Y0118933D03*
X0177595Y0063933D03*
X0142595Y0063933D03*
X0107595Y0063933D03*
X0102595Y0081433D03*
X0072595Y0063933D03*
X0055095Y0081433D03*
X0040095Y0101433D03*
X0057595Y0116433D03*
X0067595Y0116433D03*
D26*
X0067595Y0098933D01*
X0072595Y0093933D01*
X0107595Y0093933D01*
X0106099Y0100429D02*
X0105095Y0101433D01*
X0105095Y0133933D01*
X0107595Y0136433D01*
X0115095Y0136433D01*
X0122595Y0143933D01*
X0182595Y0143933D01*
X0185095Y0146433D01*
X0187694Y0148933D01*
X0192694Y0153933D01*
X0179997Y0153933D02*
X0167595Y0153933D01*
X0162595Y0148933D01*
X0160095Y0146433D01*
X0122595Y0146433D01*
X0115095Y0138933D01*
X0107595Y0138933D01*
X0100095Y0131433D01*
X0048087Y0131433D01*
X0047595Y0131925D01*
X0042595Y0136433D02*
X0040095Y0133933D01*
X0040095Y0111433D01*
X0043225Y0108303D01*
X0047595Y0108303D01*
X0046965Y0108933D01*
X0047595Y0116177D02*
X0057339Y0116177D01*
X0057595Y0116433D01*
X0042595Y0136433D02*
X0102595Y0136433D01*
X0107595Y0141433D01*
X0115095Y0141433D01*
X0117595Y0143933D01*
X0117595Y0153835D01*
X0117694Y0153933D01*
X0125095Y0153933D01*
X0135095Y0153933D02*
X0142497Y0153933D01*
X0155194Y0153933D01*
X0140095Y0136433D02*
X0142595Y0133933D01*
X0142595Y0128933D01*
X0140095Y0136433D02*
X0130095Y0136433D01*
X0125587Y0131925D01*
X0115587Y0131925D01*
X0111375Y0124051D02*
X0127713Y0124051D01*
X0132595Y0128933D01*
X0145095Y0106433D02*
X0143855Y0105193D01*
X0143855Y0088933D01*
X0151335Y0088933D02*
X0161335Y0088933D01*
X0162595Y0090193D01*
X0161355Y0091433D01*
X0162595Y0090193D02*
X0167595Y0085193D01*
X0167595Y0083933D01*
X0172595Y0078933D01*
X0177895Y0078933D01*
X0162595Y0068933D02*
X0161335Y0070193D01*
X0162595Y0097673D02*
X0162595Y0098933D01*
X0155095Y0106433D01*
X0172745Y0123933D02*
X0175095Y0126283D01*
X0175095Y0136433D01*
X0205095Y0141531D02*
X0205095Y0124445D01*
X0205095Y0141531D02*
X0217497Y0153933D01*
X0111375Y0100429D02*
X0106099Y0100429D01*
X0055095Y0081433D02*
X0055095Y0071433D01*
X0053855Y0070193D01*
X0053855Y0063933D01*
X0055095Y0081433D02*
X0051847Y0084681D01*
X0047595Y0084681D01*
D27*
X0107595Y0093933D02*
X0109997Y0093933D01*
X0111375Y0092555D01*
D28*
X0111375Y0084681D02*
X0118343Y0084681D01*
X0122595Y0088933D01*
X0122595Y0098933D01*
X0127595Y0103933D02*
X0123225Y0108303D01*
X0111375Y0108303D01*
X0111375Y0116177D02*
X0125351Y0116177D01*
X0132595Y0108933D01*
X0132595Y0088933D01*
X0142595Y0078933D01*
X0167595Y0078933D01*
X0177595Y0068933D01*
X0177595Y0063933D01*
X0183835Y0063933D01*
X0185095Y0062673D01*
X0191695Y0058033D02*
X0188855Y0055193D01*
X0185095Y0055193D01*
X0191695Y0058033D02*
X0191695Y0071433D01*
X0161335Y0070193D02*
X0161335Y0068933D01*
X0161335Y0062673D01*
X0157595Y0058933D01*
X0136335Y0058933D01*
X0126335Y0068933D01*
X0125095Y0070173D01*
X0125095Y0073933D01*
X0122221Y0076807D01*
X0111375Y0076807D01*
X0118855Y0068933D02*
X0113855Y0063933D01*
X0107595Y0063933D01*
X0092595Y0078933D01*
X0077595Y0078933D01*
X0056099Y0100429D01*
X0047595Y0100429D01*
X0047595Y0092555D02*
X0053973Y0092555D01*
X0072595Y0073933D01*
X0072595Y0063933D01*
X0083855Y0063933D01*
X0087595Y0058933D02*
X0066335Y0058933D01*
X0061335Y0063933D01*
X0055095Y0065173D02*
X0053855Y0063933D01*
X0047595Y0076807D02*
X0044721Y0076807D01*
X0087595Y0058933D02*
X0091335Y0062673D01*
X0091335Y0063933D01*
X0096335Y0058933D01*
X0117595Y0058933D01*
X0126335Y0067673D01*
X0126335Y0068933D01*
X0127595Y0068933D01*
X0126335Y0068933D02*
X0126335Y0070193D01*
X0127595Y0083933D02*
X0142595Y0068933D01*
X0142595Y0063933D01*
X0148855Y0063933D01*
X0153855Y0068933D01*
X0127595Y0083933D02*
X0127595Y0103933D01*
X0115587Y0131925D02*
X0111375Y0131925D01*
X0177895Y0097973D02*
X0177895Y0093933D01*
X0177895Y0097973D02*
X0183855Y0103933D01*
X0191335Y0103933D02*
X0197295Y0097973D01*
X0197295Y0093933D01*
D29*
X0197295Y0088933D02*
X0202595Y0088933D01*
X0205095Y0091433D01*
X0220095Y0091433D01*
X0225095Y0086433D01*
X0225095Y0076433D01*
X0222595Y0073933D01*
X0217595Y0073933D01*
X0205995Y0073933D01*
X0203495Y0071433D01*
X0191695Y0071433D02*
X0190095Y0073033D01*
X0190095Y0081433D01*
X0192595Y0083933D01*
X0197295Y0083933D01*
X0217595Y0083933D01*
X0192445Y0123933D02*
X0192445Y0128571D01*
D30*
X0205095Y0124445D02*
X0205095Y0118933D01*
X0162595Y0123933D02*
X0162595Y0138933D01*
X0102595Y0081433D02*
X0107221Y0076807D01*
X0111375Y0076807D01*
X0044721Y0076807D02*
X0040095Y0081433D01*
X0040095Y0101433D01*
D31*
X0155095Y0106433D02*
X0155095Y0116433D01*
X0162595Y0123933D01*
X0172745Y0123933D01*
X0192445Y0123933D02*
X0202957Y0113421D01*
X0205095Y0113421D01*
X0205095Y0101733D01*
X0197295Y0093933D01*
X0192445Y0123933D02*
X0192295Y0128783D01*
D32*
X0122595Y0098933D03*
M02*
