%
M48
M72
T01C0.02362
T02C0.03200
T03C0.04000
T04C0.04700
%
T01
X72595Y63933
X55095Y81433
X40095Y101433
X57595Y116433
X67595Y116433
X102595Y81433
X122595Y98933
X107595Y63933
X142595Y63933
X177595Y63933
X205095Y118933
X185095Y146433
X162595Y148933
X162595Y138933
X135095Y153933
X125095Y153933
T02
X145095Y106433
X155095Y106433
X217595Y83933
X217595Y73933
T03
X152595Y128933
X142595Y128933
X132595Y128933
T04
X42595Y41433
X62595Y41433
X82595Y41433
X102595Y41433
X127595Y41433
X147595Y41433
X167595Y41433
X202595Y41433
X222595Y41433
M30
