G75*
%MOIN*%
%OFA0B0*%
%FSLAX25Y25*%
%IPPOS*%
%LPD*%
%AMOC8*
5,1,8,0,0,1.08239X$1,22.5*
%
%ADD10C,0.00000*%
%ADD11OC8,0.06300*%
%ADD12C,0.06300*%
%ADD13R,0.05118X0.05906*%
%ADD14R,0.06299X0.11811*%
%ADD15R,0.24409X0.22835*%
%ADD16R,0.05906X0.05118*%
%ADD17C,0.07050*%
%ADD18C,0.06000*%
D10*
X0032595Y0023933D02*
X0032595Y0161394D01*
X0233796Y0161394D01*
X0233796Y0023933D01*
X0032595Y0023933D01*
D11*
X0145095Y0106433D03*
X0217595Y0083933D03*
D12*
X0217595Y0073933D03*
X0155095Y0106433D03*
D13*
X0118835Y0106433D03*
X0111355Y0106433D03*
X0053835Y0108933D03*
X0046355Y0108933D03*
D14*
X0043595Y0092201D03*
X0061595Y0092201D03*
X0078595Y0092201D03*
X0096595Y0092201D03*
X0113595Y0092201D03*
X0131595Y0092201D03*
X0148595Y0092201D03*
X0166595Y0092201D03*
X0183595Y0092201D03*
X0201595Y0092201D03*
D15*
X0192595Y0063933D03*
X0157595Y0063933D03*
X0122595Y0063933D03*
X0087595Y0063933D03*
X0052595Y0063933D03*
D16*
X0057595Y0122693D03*
X0057595Y0130173D03*
X0067595Y0130173D03*
X0067595Y0122693D03*
X0117595Y0147693D03*
X0117595Y0155173D03*
X0170095Y0150173D03*
X0170095Y0142693D03*
X0207595Y0142693D03*
X0207595Y0150173D03*
D17*
X0202595Y0044958D02*
X0202595Y0037908D01*
X0222595Y0037908D02*
X0222595Y0044958D01*
X0167595Y0044958D02*
X0167595Y0037908D01*
X0147595Y0037908D02*
X0147595Y0044958D01*
X0127595Y0044958D02*
X0127595Y0037908D01*
X0102595Y0037908D02*
X0102595Y0044958D01*
X0082595Y0044958D02*
X0082595Y0037908D01*
X0062595Y0037908D02*
X0062595Y0044958D01*
X0042595Y0044958D02*
X0042595Y0037908D01*
D18*
X0132595Y0125933D02*
X0132595Y0131933D01*
X0142595Y0131933D02*
X0142595Y0125933D01*
X0152595Y0125933D02*
X0152595Y0131933D01*
M02*
