G75*
%MOIN*%
%OFA0B0*%
%FSLAX25Y25*%
%IPPOS*%
%LPD*%
%AMOC8*
5,1,8,0,0,1.08239X$1,22.5*
%
%ADD10C,0.00000*%
%ADD11C,0.00300*%
%ADD12C,0.00400*%
%ADD13C,0.00600*%
%ADD14C,0.00500*%
%ADD15C,0.00800*%
%ADD16C,0.00200*%
%ADD17C,0.00700*%
%ADD18C,0.00100*%
D10*
X0032595Y0023933D02*
X0032595Y0161394D01*
X0233796Y0161394D01*
X0233796Y0023933D01*
X0032595Y0023933D01*
D11*
X0174745Y0096567D02*
X0177881Y0099703D01*
X0174745Y0096567D01*
X0174745Y0098135D02*
X0177881Y0098135D01*
X0174745Y0098135D01*
X0174745Y0099703D02*
X0177881Y0096567D01*
X0174745Y0099703D01*
X0176313Y0099703D02*
X0176313Y0096567D01*
X0176313Y0099703D01*
X0185241Y0090205D02*
X0189945Y0090205D01*
X0189945Y0088637D02*
X0189945Y0091773D01*
X0186809Y0088637D02*
X0185241Y0090205D01*
X0185241Y0087169D02*
X0189161Y0087169D01*
X0189945Y0086385D01*
X0189945Y0084817D01*
X0189161Y0084033D01*
X0185241Y0084033D01*
X0195979Y0066287D02*
X0195195Y0065503D01*
X0195195Y0062367D01*
X0195979Y0061583D01*
X0197547Y0061583D01*
X0198331Y0062367D01*
X0199799Y0061583D02*
X0201367Y0061583D01*
X0200583Y0061583D02*
X0200583Y0066287D01*
X0199799Y0066287D02*
X0201367Y0066287D01*
X0202868Y0066287D02*
X0206004Y0061583D01*
X0206004Y0066287D01*
X0202868Y0066287D02*
X0202868Y0061583D01*
X0198331Y0065503D02*
X0197547Y0066287D01*
X0195979Y0066287D01*
X0194341Y0109383D02*
X0194341Y0111735D01*
X0195125Y0112519D01*
X0198261Y0112519D01*
X0199045Y0111735D01*
X0199045Y0109383D01*
X0194341Y0109383D01*
X0196693Y0113987D02*
X0195909Y0114771D01*
X0195909Y0116339D01*
X0196693Y0117123D01*
X0197477Y0117123D01*
X0197477Y0113987D01*
X0198261Y0113987D02*
X0196693Y0113987D01*
X0198261Y0113987D02*
X0199045Y0114771D01*
X0199045Y0116339D01*
X0199045Y0118591D02*
X0199045Y0120943D01*
X0198261Y0121727D01*
X0197477Y0120943D01*
X0197477Y0119375D01*
X0196693Y0118591D01*
X0195909Y0119375D01*
X0195909Y0121727D01*
X0195909Y0123195D02*
X0195909Y0123979D01*
X0199045Y0123979D01*
X0199045Y0123195D02*
X0199045Y0124763D01*
X0198261Y0126264D02*
X0199045Y0127048D01*
X0199045Y0129400D01*
X0199829Y0129400D02*
X0195909Y0129400D01*
X0195909Y0127048D01*
X0196693Y0126264D01*
X0198261Y0126264D01*
X0200613Y0127832D02*
X0200613Y0128616D01*
X0199829Y0129400D01*
X0199045Y0130868D02*
X0195909Y0130868D01*
X0195909Y0133220D01*
X0196693Y0134004D01*
X0199045Y0134004D01*
X0198261Y0135472D02*
X0197477Y0136256D01*
X0197477Y0138608D01*
X0196693Y0138608D02*
X0199045Y0138608D01*
X0199045Y0136256D01*
X0198261Y0135472D01*
X0195909Y0136256D02*
X0195909Y0137824D01*
X0196693Y0138608D01*
X0195909Y0140076D02*
X0195909Y0141644D01*
X0195125Y0140860D02*
X0198261Y0140860D01*
X0199045Y0141644D01*
X0198261Y0143145D02*
X0199045Y0143929D01*
X0199045Y0145497D01*
X0198261Y0146281D01*
X0196693Y0146281D01*
X0195909Y0145497D01*
X0195909Y0143929D01*
X0196693Y0143145D01*
X0198261Y0143145D01*
X0197477Y0147749D02*
X0195909Y0149317D01*
X0195909Y0150101D01*
X0195909Y0151586D02*
X0196693Y0152370D01*
X0196693Y0154722D01*
X0198261Y0154722D02*
X0195125Y0154722D01*
X0194341Y0153938D01*
X0194341Y0152370D01*
X0195125Y0151586D01*
X0195909Y0151586D01*
X0198261Y0151586D02*
X0199045Y0152370D01*
X0199045Y0153938D01*
X0198261Y0154722D01*
X0205309Y0155103D02*
X0205309Y0154319D01*
X0206877Y0152751D01*
X0208445Y0152751D02*
X0205309Y0152751D01*
X0206093Y0151283D02*
X0205309Y0150499D01*
X0205309Y0148931D01*
X0206093Y0148147D01*
X0207661Y0148147D01*
X0208445Y0148931D01*
X0208445Y0150499D01*
X0207661Y0151283D01*
X0206093Y0151283D01*
X0199045Y0147749D02*
X0195909Y0147749D01*
X0204525Y0145862D02*
X0207661Y0145862D01*
X0208445Y0146646D01*
X0205309Y0146646D02*
X0205309Y0145078D01*
X0206093Y0143610D02*
X0208445Y0143610D01*
X0208445Y0141258D01*
X0207661Y0140474D01*
X0206877Y0141258D01*
X0206877Y0143610D01*
X0206093Y0143610D02*
X0205309Y0142826D01*
X0205309Y0141258D01*
X0206093Y0139006D02*
X0208445Y0139006D01*
X0206093Y0139006D02*
X0205309Y0138222D01*
X0205309Y0135870D01*
X0208445Y0135870D01*
X0208445Y0134402D02*
X0208445Y0132050D01*
X0207661Y0131266D01*
X0206093Y0131266D01*
X0205309Y0132050D01*
X0205309Y0134402D01*
X0209229Y0134402D01*
X0210013Y0133618D01*
X0210013Y0132834D01*
X0208445Y0129765D02*
X0208445Y0128197D01*
X0208445Y0128981D02*
X0205309Y0128981D01*
X0205309Y0128197D01*
X0205309Y0126729D02*
X0205309Y0124377D01*
X0206093Y0123593D01*
X0206877Y0124377D01*
X0206877Y0125945D01*
X0207661Y0126729D01*
X0208445Y0125945D01*
X0208445Y0123593D01*
X0206877Y0122125D02*
X0206093Y0122125D01*
X0205309Y0121341D01*
X0205309Y0119773D01*
X0206093Y0118989D01*
X0207661Y0118989D01*
X0208445Y0119773D01*
X0208445Y0121341D01*
X0206877Y0122125D02*
X0206877Y0118989D01*
X0207661Y0117521D02*
X0204525Y0117521D01*
X0203741Y0116737D01*
X0203741Y0114385D01*
X0208445Y0114385D01*
X0208445Y0116737D01*
X0207661Y0117521D01*
X0210241Y0115205D02*
X0214945Y0115205D01*
X0214945Y0113637D02*
X0214945Y0116773D01*
X0211809Y0113637D02*
X0210241Y0115205D01*
X0208445Y0112867D02*
X0208445Y0112083D01*
X0207661Y0112083D01*
X0207661Y0112867D01*
X0208445Y0112867D01*
X0210241Y0111385D02*
X0210241Y0109033D01*
X0214945Y0109033D01*
X0214945Y0111385D01*
X0214161Y0112169D01*
X0211025Y0112169D01*
X0210241Y0111385D01*
X0194341Y0123979D02*
X0193557Y0123979D01*
X0184945Y0124669D02*
X0184945Y0121533D01*
X0180241Y0121533D01*
X0181809Y0126137D02*
X0180241Y0127705D01*
X0184945Y0127705D01*
X0184945Y0126137D02*
X0184945Y0129273D01*
X0202957Y0128981D02*
X0203741Y0128981D01*
X0153695Y0135817D02*
X0153695Y0136784D01*
X0153211Y0137268D01*
X0152244Y0137268D01*
X0152244Y0136301D01*
X0151276Y0137268D02*
X0150793Y0136784D01*
X0150793Y0135817D01*
X0151276Y0135333D01*
X0153211Y0135333D01*
X0153695Y0135817D01*
X0153695Y0138280D02*
X0150793Y0138280D01*
X0153695Y0140215D01*
X0150793Y0140215D01*
X0150793Y0141226D02*
X0150793Y0142677D01*
X0151276Y0143161D01*
X0153211Y0143161D01*
X0153695Y0142677D01*
X0153695Y0141226D01*
X0150793Y0141226D01*
X0143695Y0141226D02*
X0143695Y0142677D01*
X0143211Y0143161D01*
X0141276Y0143161D01*
X0140793Y0142677D01*
X0140793Y0141226D01*
X0143695Y0141226D01*
X0143695Y0140215D02*
X0140793Y0138280D01*
X0140793Y0137268D02*
X0140793Y0135333D01*
X0140793Y0136301D02*
X0143695Y0136301D01*
X0143695Y0138280D02*
X0140793Y0140215D01*
X0133695Y0140215D02*
X0130793Y0138280D01*
X0131276Y0137268D02*
X0132244Y0137268D01*
X0132728Y0136784D01*
X0132728Y0135333D01*
X0133695Y0135333D02*
X0130793Y0135333D01*
X0130793Y0136784D01*
X0131276Y0137268D01*
X0132728Y0136301D02*
X0133695Y0137268D01*
X0133695Y0138280D02*
X0130793Y0140215D01*
X0130793Y0141226D02*
X0130793Y0142677D01*
X0131276Y0143161D01*
X0133211Y0143161D01*
X0133695Y0142677D01*
X0133695Y0141226D01*
X0130793Y0141226D01*
D12*
X0172795Y0107970D02*
X0172795Y0104900D01*
X0173562Y0104133D01*
X0175097Y0104133D01*
X0175864Y0104900D01*
X0177399Y0106435D02*
X0180468Y0106435D01*
X0179701Y0104133D02*
X0179701Y0108737D01*
X0177399Y0106435D01*
X0175864Y0107970D02*
X0175097Y0108737D01*
X0173562Y0108737D01*
X0172795Y0107970D01*
X0172395Y0103910D02*
X0172395Y0100841D01*
X0172395Y0102376D02*
X0167791Y0102376D01*
X0169326Y0100841D01*
X0172395Y0099306D02*
X0172395Y0096237D01*
X0172395Y0097772D02*
X0167791Y0097772D01*
X0169326Y0096237D01*
X0170093Y0094702D02*
X0170861Y0093935D01*
X0170861Y0091633D01*
X0172395Y0091633D02*
X0167791Y0091633D01*
X0167791Y0093935D01*
X0168559Y0094702D01*
X0170093Y0094702D01*
X0170861Y0093168D02*
X0172395Y0094702D01*
X0157572Y0082970D02*
X0156805Y0083737D01*
X0155270Y0083737D01*
X0154503Y0082970D01*
X0157572Y0082970D02*
X0157572Y0082202D01*
X0154503Y0079133D01*
X0157572Y0079133D01*
X0159045Y0078737D02*
X0161347Y0078737D01*
X0162114Y0077970D01*
X0162114Y0076435D01*
X0161347Y0075668D01*
X0159045Y0075668D01*
X0160580Y0075668D02*
X0162114Y0074133D01*
X0163649Y0074133D02*
X0166718Y0077202D01*
X0166718Y0077970D01*
X0165951Y0078737D01*
X0164416Y0078737D01*
X0163649Y0077970D01*
X0159045Y0078737D02*
X0159045Y0074133D01*
X0163649Y0074133D02*
X0166718Y0074133D01*
X0179837Y0072487D02*
X0179837Y0067883D01*
X0179837Y0069418D02*
X0182139Y0069418D01*
X0182907Y0070185D01*
X0182907Y0071720D01*
X0182139Y0072487D01*
X0179837Y0072487D01*
X0181372Y0069418D02*
X0182907Y0067883D01*
X0184441Y0067883D02*
X0187510Y0067883D01*
X0185976Y0067883D02*
X0185976Y0072487D01*
X0184441Y0070952D01*
X0152968Y0079133D02*
X0149899Y0079133D01*
X0148364Y0079133D02*
X0146830Y0080668D01*
X0147597Y0080668D02*
X0145295Y0080668D01*
X0145295Y0079133D02*
X0145295Y0083737D01*
X0147597Y0083737D01*
X0148364Y0082970D01*
X0148364Y0081435D01*
X0147597Y0080668D01*
X0149899Y0082202D02*
X0151434Y0083737D01*
X0151434Y0079133D01*
X0131718Y0077970D02*
X0131718Y0077202D01*
X0130951Y0076435D01*
X0131718Y0075668D01*
X0131718Y0074900D01*
X0130951Y0074133D01*
X0129416Y0074133D01*
X0128649Y0074900D01*
X0127114Y0074133D02*
X0125580Y0075668D01*
X0126347Y0075668D02*
X0124045Y0075668D01*
X0124045Y0074133D02*
X0124045Y0078737D01*
X0126347Y0078737D01*
X0127114Y0077970D01*
X0127114Y0076435D01*
X0126347Y0075668D01*
X0130184Y0076435D02*
X0130951Y0076435D01*
X0131718Y0077970D02*
X0130951Y0078737D01*
X0129416Y0078737D01*
X0128649Y0077970D01*
X0096718Y0071435D02*
X0093649Y0071435D01*
X0095951Y0073737D01*
X0095951Y0069133D01*
X0092114Y0069133D02*
X0090580Y0070668D01*
X0091347Y0070668D02*
X0089045Y0070668D01*
X0089045Y0069133D02*
X0089045Y0073737D01*
X0091347Y0073737D01*
X0092114Y0072970D01*
X0092114Y0071435D01*
X0091347Y0070668D01*
X0067080Y0077007D02*
X0067080Y0080076D01*
X0066313Y0081611D02*
X0067080Y0082378D01*
X0067080Y0083913D01*
X0066313Y0084680D01*
X0065546Y0084680D01*
X0064778Y0083913D01*
X0064778Y0082378D01*
X0064011Y0081611D01*
X0063244Y0081611D01*
X0062476Y0082378D01*
X0062476Y0083913D01*
X0063244Y0084680D01*
X0062476Y0086215D02*
X0062476Y0088517D01*
X0063244Y0089284D01*
X0064778Y0089284D01*
X0065546Y0088517D01*
X0065546Y0086215D01*
X0067080Y0086215D02*
X0062476Y0086215D01*
X0064778Y0090819D02*
X0064778Y0093888D01*
X0064011Y0095423D02*
X0062476Y0096957D01*
X0067080Y0096957D01*
X0067080Y0095423D02*
X0067080Y0098492D01*
X0067080Y0100027D02*
X0064011Y0103096D01*
X0063244Y0103096D01*
X0062476Y0102329D01*
X0062476Y0100794D01*
X0063244Y0100027D01*
X0067080Y0100027D02*
X0067080Y0103096D01*
X0062476Y0080076D02*
X0062476Y0077007D01*
X0067080Y0077007D01*
X0064778Y0077007D02*
X0064778Y0078542D01*
X0065468Y0073737D02*
X0062399Y0073737D01*
X0062399Y0071435D01*
X0063934Y0072202D01*
X0064701Y0072202D01*
X0065468Y0071435D01*
X0065468Y0069900D01*
X0064701Y0069133D01*
X0063166Y0069133D01*
X0062399Y0069900D01*
X0060864Y0069133D02*
X0059330Y0070668D01*
X0060097Y0070668D02*
X0057795Y0070668D01*
X0057795Y0069133D02*
X0057795Y0073737D01*
X0060097Y0073737D01*
X0060864Y0072970D01*
X0060864Y0071435D01*
X0060097Y0070668D01*
X0060295Y0031237D02*
X0062597Y0031237D01*
X0063364Y0030470D01*
X0063364Y0028935D01*
X0062597Y0028168D01*
X0060295Y0028168D01*
X0061830Y0028168D02*
X0063364Y0026633D01*
X0060295Y0026633D02*
X0060295Y0031237D01*
X0048822Y0030470D02*
X0048055Y0031237D01*
X0046520Y0031237D01*
X0045753Y0030470D01*
X0045753Y0027400D01*
X0046520Y0026633D01*
X0048055Y0026633D01*
X0048822Y0027400D01*
X0044218Y0027400D02*
X0043451Y0026633D01*
X0041916Y0026633D01*
X0041149Y0027400D01*
X0041149Y0030470D01*
X0041916Y0031237D01*
X0043451Y0031237D01*
X0044218Y0030470D01*
X0039614Y0031237D02*
X0039614Y0028168D01*
X0038080Y0026633D01*
X0036545Y0028168D01*
X0036545Y0031237D01*
X0080295Y0030470D02*
X0080295Y0027400D01*
X0081062Y0026633D01*
X0082597Y0026633D01*
X0083364Y0027400D01*
X0083364Y0028935D01*
X0081830Y0028935D01*
X0083364Y0030470D02*
X0082597Y0031237D01*
X0081062Y0031237D01*
X0080295Y0030470D01*
X0100295Y0031237D02*
X0100295Y0026633D01*
X0102597Y0026633D01*
X0103364Y0027400D01*
X0103364Y0028168D01*
X0102597Y0028935D01*
X0100295Y0028935D01*
X0100295Y0031237D02*
X0102597Y0031237D01*
X0103364Y0030470D01*
X0103364Y0029702D01*
X0102597Y0028935D01*
X0121545Y0028168D02*
X0123080Y0026633D01*
X0124614Y0028168D01*
X0124614Y0031237D01*
X0126149Y0030470D02*
X0126149Y0027400D01*
X0126916Y0026633D01*
X0128451Y0026633D01*
X0129218Y0027400D01*
X0130753Y0027400D02*
X0131520Y0026633D01*
X0133055Y0026633D01*
X0133822Y0027400D01*
X0130753Y0027400D02*
X0130753Y0030470D01*
X0131520Y0031237D01*
X0133055Y0031237D01*
X0133822Y0030470D01*
X0129218Y0030470D02*
X0128451Y0031237D01*
X0126916Y0031237D01*
X0126149Y0030470D01*
X0121545Y0031237D02*
X0121545Y0028168D01*
X0142795Y0027400D02*
X0143562Y0026633D01*
X0145097Y0026633D01*
X0145864Y0027400D01*
X0147399Y0026633D02*
X0148934Y0028168D01*
X0150468Y0026633D01*
X0150468Y0031237D01*
X0147399Y0031237D02*
X0147399Y0026633D01*
X0145864Y0030470D02*
X0145097Y0031237D01*
X0143562Y0031237D01*
X0142795Y0030470D01*
X0142795Y0027400D01*
X0161545Y0026633D02*
X0163080Y0028168D01*
X0164614Y0026633D01*
X0164614Y0031237D01*
X0166149Y0031237D02*
X0166149Y0026633D01*
X0167684Y0028168D01*
X0169218Y0026633D01*
X0169218Y0031237D01*
X0161545Y0031237D02*
X0161545Y0026633D01*
X0215295Y0027400D02*
X0216062Y0026633D01*
X0217597Y0026633D01*
X0218364Y0027400D01*
X0218364Y0028935D01*
X0216830Y0028935D01*
X0218364Y0030470D02*
X0217597Y0031237D01*
X0216062Y0031237D01*
X0215295Y0030470D01*
X0215295Y0027400D01*
X0219899Y0026633D02*
X0219899Y0031237D01*
X0222968Y0026633D01*
X0222968Y0031237D01*
X0224503Y0031237D02*
X0226805Y0031237D01*
X0227572Y0030470D01*
X0227572Y0027400D01*
X0226805Y0026633D01*
X0224503Y0026633D01*
X0224503Y0031237D01*
D13*
X0226095Y0034433D02*
X0232595Y0034433D01*
X0232595Y0060433D01*
X0232595Y0061433D01*
X0192595Y0061433D01*
X0192595Y0060433D01*
X0192595Y0034433D01*
X0192595Y0024933D01*
X0232595Y0024933D01*
X0232595Y0034433D01*
X0219095Y0034433D02*
X0206095Y0034433D01*
X0199095Y0034433D02*
X0192595Y0034433D01*
X0177595Y0034433D02*
X0177595Y0024933D01*
X0117595Y0024933D01*
X0117595Y0034433D01*
X0117595Y0060433D01*
X0117595Y0061433D01*
X0177595Y0061433D01*
X0177595Y0060433D01*
X0117595Y0060433D01*
X0112595Y0060433D02*
X0112595Y0034433D01*
X0106095Y0034433D01*
X0112595Y0034433D02*
X0112595Y0024933D01*
X0032595Y0024933D01*
X0032595Y0034433D01*
X0039095Y0034433D01*
X0032595Y0034433D02*
X0032595Y0060433D01*
X0032595Y0061433D01*
X0072595Y0061433D01*
X0072595Y0034433D01*
X0079095Y0034433D01*
X0072595Y0034433D02*
X0066095Y0034433D01*
X0059095Y0034433D02*
X0046095Y0034433D01*
X0040595Y0055133D02*
X0040597Y0055222D01*
X0040603Y0055311D01*
X0040613Y0055400D01*
X0040627Y0055488D01*
X0040644Y0055575D01*
X0040666Y0055661D01*
X0040692Y0055747D01*
X0040721Y0055831D01*
X0040754Y0055914D01*
X0040790Y0055995D01*
X0040831Y0056075D01*
X0040874Y0056152D01*
X0040921Y0056228D01*
X0040972Y0056301D01*
X0041025Y0056372D01*
X0041082Y0056441D01*
X0041142Y0056507D01*
X0041205Y0056571D01*
X0041270Y0056631D01*
X0041338Y0056689D01*
X0041409Y0056743D01*
X0041482Y0056794D01*
X0041557Y0056842D01*
X0041634Y0056887D01*
X0041713Y0056928D01*
X0041794Y0056965D01*
X0041876Y0056999D01*
X0041960Y0057030D01*
X0042045Y0057056D01*
X0042131Y0057079D01*
X0042218Y0057097D01*
X0042306Y0057112D01*
X0042395Y0057123D01*
X0042484Y0057130D01*
X0042573Y0057133D01*
X0042662Y0057132D01*
X0042751Y0057127D01*
X0042839Y0057118D01*
X0042928Y0057105D01*
X0043015Y0057088D01*
X0043102Y0057068D01*
X0043188Y0057043D01*
X0043272Y0057015D01*
X0043355Y0056983D01*
X0043437Y0056947D01*
X0043517Y0056908D01*
X0043595Y0056865D01*
X0043671Y0056819D01*
X0043745Y0056769D01*
X0043817Y0056716D01*
X0043886Y0056660D01*
X0043953Y0056601D01*
X0044017Y0056539D01*
X0044078Y0056475D01*
X0044137Y0056407D01*
X0044192Y0056337D01*
X0044244Y0056265D01*
X0044293Y0056190D01*
X0044338Y0056114D01*
X0044380Y0056035D01*
X0044418Y0055955D01*
X0044453Y0055873D01*
X0044484Y0055789D01*
X0044512Y0055704D01*
X0044535Y0055618D01*
X0044555Y0055531D01*
X0044571Y0055444D01*
X0044583Y0055355D01*
X0044591Y0055267D01*
X0044595Y0055178D01*
X0044595Y0055088D01*
X0044591Y0054999D01*
X0044583Y0054911D01*
X0044571Y0054822D01*
X0044555Y0054735D01*
X0044535Y0054648D01*
X0044512Y0054562D01*
X0044484Y0054477D01*
X0044453Y0054393D01*
X0044418Y0054311D01*
X0044380Y0054231D01*
X0044338Y0054152D01*
X0044293Y0054076D01*
X0044244Y0054001D01*
X0044192Y0053929D01*
X0044137Y0053859D01*
X0044078Y0053791D01*
X0044017Y0053727D01*
X0043953Y0053665D01*
X0043886Y0053606D01*
X0043817Y0053550D01*
X0043745Y0053497D01*
X0043671Y0053447D01*
X0043595Y0053401D01*
X0043517Y0053358D01*
X0043437Y0053319D01*
X0043355Y0053283D01*
X0043272Y0053251D01*
X0043188Y0053223D01*
X0043102Y0053198D01*
X0043015Y0053178D01*
X0042928Y0053161D01*
X0042839Y0053148D01*
X0042751Y0053139D01*
X0042662Y0053134D01*
X0042573Y0053133D01*
X0042484Y0053136D01*
X0042395Y0053143D01*
X0042306Y0053154D01*
X0042218Y0053169D01*
X0042131Y0053187D01*
X0042045Y0053210D01*
X0041960Y0053236D01*
X0041876Y0053267D01*
X0041794Y0053301D01*
X0041713Y0053338D01*
X0041634Y0053379D01*
X0041557Y0053424D01*
X0041482Y0053472D01*
X0041409Y0053523D01*
X0041338Y0053577D01*
X0041270Y0053635D01*
X0041205Y0053695D01*
X0041142Y0053759D01*
X0041082Y0053825D01*
X0041025Y0053894D01*
X0040972Y0053965D01*
X0040921Y0054038D01*
X0040874Y0054114D01*
X0040831Y0054191D01*
X0040790Y0054271D01*
X0040754Y0054352D01*
X0040721Y0054435D01*
X0040692Y0054519D01*
X0040666Y0054605D01*
X0040644Y0054691D01*
X0040627Y0054778D01*
X0040613Y0054866D01*
X0040603Y0054955D01*
X0040597Y0055044D01*
X0040595Y0055133D01*
X0032595Y0060433D02*
X0112595Y0060433D01*
X0112595Y0061433D01*
X0072595Y0061433D01*
X0060595Y0055133D02*
X0060597Y0055222D01*
X0060603Y0055311D01*
X0060613Y0055400D01*
X0060627Y0055488D01*
X0060644Y0055575D01*
X0060666Y0055661D01*
X0060692Y0055747D01*
X0060721Y0055831D01*
X0060754Y0055914D01*
X0060790Y0055995D01*
X0060831Y0056075D01*
X0060874Y0056152D01*
X0060921Y0056228D01*
X0060972Y0056301D01*
X0061025Y0056372D01*
X0061082Y0056441D01*
X0061142Y0056507D01*
X0061205Y0056571D01*
X0061270Y0056631D01*
X0061338Y0056689D01*
X0061409Y0056743D01*
X0061482Y0056794D01*
X0061557Y0056842D01*
X0061634Y0056887D01*
X0061713Y0056928D01*
X0061794Y0056965D01*
X0061876Y0056999D01*
X0061960Y0057030D01*
X0062045Y0057056D01*
X0062131Y0057079D01*
X0062218Y0057097D01*
X0062306Y0057112D01*
X0062395Y0057123D01*
X0062484Y0057130D01*
X0062573Y0057133D01*
X0062662Y0057132D01*
X0062751Y0057127D01*
X0062839Y0057118D01*
X0062928Y0057105D01*
X0063015Y0057088D01*
X0063102Y0057068D01*
X0063188Y0057043D01*
X0063272Y0057015D01*
X0063355Y0056983D01*
X0063437Y0056947D01*
X0063517Y0056908D01*
X0063595Y0056865D01*
X0063671Y0056819D01*
X0063745Y0056769D01*
X0063817Y0056716D01*
X0063886Y0056660D01*
X0063953Y0056601D01*
X0064017Y0056539D01*
X0064078Y0056475D01*
X0064137Y0056407D01*
X0064192Y0056337D01*
X0064244Y0056265D01*
X0064293Y0056190D01*
X0064338Y0056114D01*
X0064380Y0056035D01*
X0064418Y0055955D01*
X0064453Y0055873D01*
X0064484Y0055789D01*
X0064512Y0055704D01*
X0064535Y0055618D01*
X0064555Y0055531D01*
X0064571Y0055444D01*
X0064583Y0055355D01*
X0064591Y0055267D01*
X0064595Y0055178D01*
X0064595Y0055088D01*
X0064591Y0054999D01*
X0064583Y0054911D01*
X0064571Y0054822D01*
X0064555Y0054735D01*
X0064535Y0054648D01*
X0064512Y0054562D01*
X0064484Y0054477D01*
X0064453Y0054393D01*
X0064418Y0054311D01*
X0064380Y0054231D01*
X0064338Y0054152D01*
X0064293Y0054076D01*
X0064244Y0054001D01*
X0064192Y0053929D01*
X0064137Y0053859D01*
X0064078Y0053791D01*
X0064017Y0053727D01*
X0063953Y0053665D01*
X0063886Y0053606D01*
X0063817Y0053550D01*
X0063745Y0053497D01*
X0063671Y0053447D01*
X0063595Y0053401D01*
X0063517Y0053358D01*
X0063437Y0053319D01*
X0063355Y0053283D01*
X0063272Y0053251D01*
X0063188Y0053223D01*
X0063102Y0053198D01*
X0063015Y0053178D01*
X0062928Y0053161D01*
X0062839Y0053148D01*
X0062751Y0053139D01*
X0062662Y0053134D01*
X0062573Y0053133D01*
X0062484Y0053136D01*
X0062395Y0053143D01*
X0062306Y0053154D01*
X0062218Y0053169D01*
X0062131Y0053187D01*
X0062045Y0053210D01*
X0061960Y0053236D01*
X0061876Y0053267D01*
X0061794Y0053301D01*
X0061713Y0053338D01*
X0061634Y0053379D01*
X0061557Y0053424D01*
X0061482Y0053472D01*
X0061409Y0053523D01*
X0061338Y0053577D01*
X0061270Y0053635D01*
X0061205Y0053695D01*
X0061142Y0053759D01*
X0061082Y0053825D01*
X0061025Y0053894D01*
X0060972Y0053965D01*
X0060921Y0054038D01*
X0060874Y0054114D01*
X0060831Y0054191D01*
X0060790Y0054271D01*
X0060754Y0054352D01*
X0060721Y0054435D01*
X0060692Y0054519D01*
X0060666Y0054605D01*
X0060644Y0054691D01*
X0060627Y0054778D01*
X0060613Y0054866D01*
X0060603Y0054955D01*
X0060597Y0055044D01*
X0060595Y0055133D01*
X0080595Y0055133D02*
X0080597Y0055222D01*
X0080603Y0055311D01*
X0080613Y0055400D01*
X0080627Y0055488D01*
X0080644Y0055575D01*
X0080666Y0055661D01*
X0080692Y0055747D01*
X0080721Y0055831D01*
X0080754Y0055914D01*
X0080790Y0055995D01*
X0080831Y0056075D01*
X0080874Y0056152D01*
X0080921Y0056228D01*
X0080972Y0056301D01*
X0081025Y0056372D01*
X0081082Y0056441D01*
X0081142Y0056507D01*
X0081205Y0056571D01*
X0081270Y0056631D01*
X0081338Y0056689D01*
X0081409Y0056743D01*
X0081482Y0056794D01*
X0081557Y0056842D01*
X0081634Y0056887D01*
X0081713Y0056928D01*
X0081794Y0056965D01*
X0081876Y0056999D01*
X0081960Y0057030D01*
X0082045Y0057056D01*
X0082131Y0057079D01*
X0082218Y0057097D01*
X0082306Y0057112D01*
X0082395Y0057123D01*
X0082484Y0057130D01*
X0082573Y0057133D01*
X0082662Y0057132D01*
X0082751Y0057127D01*
X0082839Y0057118D01*
X0082928Y0057105D01*
X0083015Y0057088D01*
X0083102Y0057068D01*
X0083188Y0057043D01*
X0083272Y0057015D01*
X0083355Y0056983D01*
X0083437Y0056947D01*
X0083517Y0056908D01*
X0083595Y0056865D01*
X0083671Y0056819D01*
X0083745Y0056769D01*
X0083817Y0056716D01*
X0083886Y0056660D01*
X0083953Y0056601D01*
X0084017Y0056539D01*
X0084078Y0056475D01*
X0084137Y0056407D01*
X0084192Y0056337D01*
X0084244Y0056265D01*
X0084293Y0056190D01*
X0084338Y0056114D01*
X0084380Y0056035D01*
X0084418Y0055955D01*
X0084453Y0055873D01*
X0084484Y0055789D01*
X0084512Y0055704D01*
X0084535Y0055618D01*
X0084555Y0055531D01*
X0084571Y0055444D01*
X0084583Y0055355D01*
X0084591Y0055267D01*
X0084595Y0055178D01*
X0084595Y0055088D01*
X0084591Y0054999D01*
X0084583Y0054911D01*
X0084571Y0054822D01*
X0084555Y0054735D01*
X0084535Y0054648D01*
X0084512Y0054562D01*
X0084484Y0054477D01*
X0084453Y0054393D01*
X0084418Y0054311D01*
X0084380Y0054231D01*
X0084338Y0054152D01*
X0084293Y0054076D01*
X0084244Y0054001D01*
X0084192Y0053929D01*
X0084137Y0053859D01*
X0084078Y0053791D01*
X0084017Y0053727D01*
X0083953Y0053665D01*
X0083886Y0053606D01*
X0083817Y0053550D01*
X0083745Y0053497D01*
X0083671Y0053447D01*
X0083595Y0053401D01*
X0083517Y0053358D01*
X0083437Y0053319D01*
X0083355Y0053283D01*
X0083272Y0053251D01*
X0083188Y0053223D01*
X0083102Y0053198D01*
X0083015Y0053178D01*
X0082928Y0053161D01*
X0082839Y0053148D01*
X0082751Y0053139D01*
X0082662Y0053134D01*
X0082573Y0053133D01*
X0082484Y0053136D01*
X0082395Y0053143D01*
X0082306Y0053154D01*
X0082218Y0053169D01*
X0082131Y0053187D01*
X0082045Y0053210D01*
X0081960Y0053236D01*
X0081876Y0053267D01*
X0081794Y0053301D01*
X0081713Y0053338D01*
X0081634Y0053379D01*
X0081557Y0053424D01*
X0081482Y0053472D01*
X0081409Y0053523D01*
X0081338Y0053577D01*
X0081270Y0053635D01*
X0081205Y0053695D01*
X0081142Y0053759D01*
X0081082Y0053825D01*
X0081025Y0053894D01*
X0080972Y0053965D01*
X0080921Y0054038D01*
X0080874Y0054114D01*
X0080831Y0054191D01*
X0080790Y0054271D01*
X0080754Y0054352D01*
X0080721Y0054435D01*
X0080692Y0054519D01*
X0080666Y0054605D01*
X0080644Y0054691D01*
X0080627Y0054778D01*
X0080613Y0054866D01*
X0080603Y0054955D01*
X0080597Y0055044D01*
X0080595Y0055133D01*
X0100595Y0055133D02*
X0100597Y0055222D01*
X0100603Y0055311D01*
X0100613Y0055400D01*
X0100627Y0055488D01*
X0100644Y0055575D01*
X0100666Y0055661D01*
X0100692Y0055747D01*
X0100721Y0055831D01*
X0100754Y0055914D01*
X0100790Y0055995D01*
X0100831Y0056075D01*
X0100874Y0056152D01*
X0100921Y0056228D01*
X0100972Y0056301D01*
X0101025Y0056372D01*
X0101082Y0056441D01*
X0101142Y0056507D01*
X0101205Y0056571D01*
X0101270Y0056631D01*
X0101338Y0056689D01*
X0101409Y0056743D01*
X0101482Y0056794D01*
X0101557Y0056842D01*
X0101634Y0056887D01*
X0101713Y0056928D01*
X0101794Y0056965D01*
X0101876Y0056999D01*
X0101960Y0057030D01*
X0102045Y0057056D01*
X0102131Y0057079D01*
X0102218Y0057097D01*
X0102306Y0057112D01*
X0102395Y0057123D01*
X0102484Y0057130D01*
X0102573Y0057133D01*
X0102662Y0057132D01*
X0102751Y0057127D01*
X0102839Y0057118D01*
X0102928Y0057105D01*
X0103015Y0057088D01*
X0103102Y0057068D01*
X0103188Y0057043D01*
X0103272Y0057015D01*
X0103355Y0056983D01*
X0103437Y0056947D01*
X0103517Y0056908D01*
X0103595Y0056865D01*
X0103671Y0056819D01*
X0103745Y0056769D01*
X0103817Y0056716D01*
X0103886Y0056660D01*
X0103953Y0056601D01*
X0104017Y0056539D01*
X0104078Y0056475D01*
X0104137Y0056407D01*
X0104192Y0056337D01*
X0104244Y0056265D01*
X0104293Y0056190D01*
X0104338Y0056114D01*
X0104380Y0056035D01*
X0104418Y0055955D01*
X0104453Y0055873D01*
X0104484Y0055789D01*
X0104512Y0055704D01*
X0104535Y0055618D01*
X0104555Y0055531D01*
X0104571Y0055444D01*
X0104583Y0055355D01*
X0104591Y0055267D01*
X0104595Y0055178D01*
X0104595Y0055088D01*
X0104591Y0054999D01*
X0104583Y0054911D01*
X0104571Y0054822D01*
X0104555Y0054735D01*
X0104535Y0054648D01*
X0104512Y0054562D01*
X0104484Y0054477D01*
X0104453Y0054393D01*
X0104418Y0054311D01*
X0104380Y0054231D01*
X0104338Y0054152D01*
X0104293Y0054076D01*
X0104244Y0054001D01*
X0104192Y0053929D01*
X0104137Y0053859D01*
X0104078Y0053791D01*
X0104017Y0053727D01*
X0103953Y0053665D01*
X0103886Y0053606D01*
X0103817Y0053550D01*
X0103745Y0053497D01*
X0103671Y0053447D01*
X0103595Y0053401D01*
X0103517Y0053358D01*
X0103437Y0053319D01*
X0103355Y0053283D01*
X0103272Y0053251D01*
X0103188Y0053223D01*
X0103102Y0053198D01*
X0103015Y0053178D01*
X0102928Y0053161D01*
X0102839Y0053148D01*
X0102751Y0053139D01*
X0102662Y0053134D01*
X0102573Y0053133D01*
X0102484Y0053136D01*
X0102395Y0053143D01*
X0102306Y0053154D01*
X0102218Y0053169D01*
X0102131Y0053187D01*
X0102045Y0053210D01*
X0101960Y0053236D01*
X0101876Y0053267D01*
X0101794Y0053301D01*
X0101713Y0053338D01*
X0101634Y0053379D01*
X0101557Y0053424D01*
X0101482Y0053472D01*
X0101409Y0053523D01*
X0101338Y0053577D01*
X0101270Y0053635D01*
X0101205Y0053695D01*
X0101142Y0053759D01*
X0101082Y0053825D01*
X0101025Y0053894D01*
X0100972Y0053965D01*
X0100921Y0054038D01*
X0100874Y0054114D01*
X0100831Y0054191D01*
X0100790Y0054271D01*
X0100754Y0054352D01*
X0100721Y0054435D01*
X0100692Y0054519D01*
X0100666Y0054605D01*
X0100644Y0054691D01*
X0100627Y0054778D01*
X0100613Y0054866D01*
X0100603Y0054955D01*
X0100597Y0055044D01*
X0100595Y0055133D01*
X0125595Y0055133D02*
X0125597Y0055222D01*
X0125603Y0055311D01*
X0125613Y0055400D01*
X0125627Y0055488D01*
X0125644Y0055575D01*
X0125666Y0055661D01*
X0125692Y0055747D01*
X0125721Y0055831D01*
X0125754Y0055914D01*
X0125790Y0055995D01*
X0125831Y0056075D01*
X0125874Y0056152D01*
X0125921Y0056228D01*
X0125972Y0056301D01*
X0126025Y0056372D01*
X0126082Y0056441D01*
X0126142Y0056507D01*
X0126205Y0056571D01*
X0126270Y0056631D01*
X0126338Y0056689D01*
X0126409Y0056743D01*
X0126482Y0056794D01*
X0126557Y0056842D01*
X0126634Y0056887D01*
X0126713Y0056928D01*
X0126794Y0056965D01*
X0126876Y0056999D01*
X0126960Y0057030D01*
X0127045Y0057056D01*
X0127131Y0057079D01*
X0127218Y0057097D01*
X0127306Y0057112D01*
X0127395Y0057123D01*
X0127484Y0057130D01*
X0127573Y0057133D01*
X0127662Y0057132D01*
X0127751Y0057127D01*
X0127839Y0057118D01*
X0127928Y0057105D01*
X0128015Y0057088D01*
X0128102Y0057068D01*
X0128188Y0057043D01*
X0128272Y0057015D01*
X0128355Y0056983D01*
X0128437Y0056947D01*
X0128517Y0056908D01*
X0128595Y0056865D01*
X0128671Y0056819D01*
X0128745Y0056769D01*
X0128817Y0056716D01*
X0128886Y0056660D01*
X0128953Y0056601D01*
X0129017Y0056539D01*
X0129078Y0056475D01*
X0129137Y0056407D01*
X0129192Y0056337D01*
X0129244Y0056265D01*
X0129293Y0056190D01*
X0129338Y0056114D01*
X0129380Y0056035D01*
X0129418Y0055955D01*
X0129453Y0055873D01*
X0129484Y0055789D01*
X0129512Y0055704D01*
X0129535Y0055618D01*
X0129555Y0055531D01*
X0129571Y0055444D01*
X0129583Y0055355D01*
X0129591Y0055267D01*
X0129595Y0055178D01*
X0129595Y0055088D01*
X0129591Y0054999D01*
X0129583Y0054911D01*
X0129571Y0054822D01*
X0129555Y0054735D01*
X0129535Y0054648D01*
X0129512Y0054562D01*
X0129484Y0054477D01*
X0129453Y0054393D01*
X0129418Y0054311D01*
X0129380Y0054231D01*
X0129338Y0054152D01*
X0129293Y0054076D01*
X0129244Y0054001D01*
X0129192Y0053929D01*
X0129137Y0053859D01*
X0129078Y0053791D01*
X0129017Y0053727D01*
X0128953Y0053665D01*
X0128886Y0053606D01*
X0128817Y0053550D01*
X0128745Y0053497D01*
X0128671Y0053447D01*
X0128595Y0053401D01*
X0128517Y0053358D01*
X0128437Y0053319D01*
X0128355Y0053283D01*
X0128272Y0053251D01*
X0128188Y0053223D01*
X0128102Y0053198D01*
X0128015Y0053178D01*
X0127928Y0053161D01*
X0127839Y0053148D01*
X0127751Y0053139D01*
X0127662Y0053134D01*
X0127573Y0053133D01*
X0127484Y0053136D01*
X0127395Y0053143D01*
X0127306Y0053154D01*
X0127218Y0053169D01*
X0127131Y0053187D01*
X0127045Y0053210D01*
X0126960Y0053236D01*
X0126876Y0053267D01*
X0126794Y0053301D01*
X0126713Y0053338D01*
X0126634Y0053379D01*
X0126557Y0053424D01*
X0126482Y0053472D01*
X0126409Y0053523D01*
X0126338Y0053577D01*
X0126270Y0053635D01*
X0126205Y0053695D01*
X0126142Y0053759D01*
X0126082Y0053825D01*
X0126025Y0053894D01*
X0125972Y0053965D01*
X0125921Y0054038D01*
X0125874Y0054114D01*
X0125831Y0054191D01*
X0125790Y0054271D01*
X0125754Y0054352D01*
X0125721Y0054435D01*
X0125692Y0054519D01*
X0125666Y0054605D01*
X0125644Y0054691D01*
X0125627Y0054778D01*
X0125613Y0054866D01*
X0125603Y0054955D01*
X0125597Y0055044D01*
X0125595Y0055133D01*
X0145595Y0055133D02*
X0145597Y0055222D01*
X0145603Y0055311D01*
X0145613Y0055400D01*
X0145627Y0055488D01*
X0145644Y0055575D01*
X0145666Y0055661D01*
X0145692Y0055747D01*
X0145721Y0055831D01*
X0145754Y0055914D01*
X0145790Y0055995D01*
X0145831Y0056075D01*
X0145874Y0056152D01*
X0145921Y0056228D01*
X0145972Y0056301D01*
X0146025Y0056372D01*
X0146082Y0056441D01*
X0146142Y0056507D01*
X0146205Y0056571D01*
X0146270Y0056631D01*
X0146338Y0056689D01*
X0146409Y0056743D01*
X0146482Y0056794D01*
X0146557Y0056842D01*
X0146634Y0056887D01*
X0146713Y0056928D01*
X0146794Y0056965D01*
X0146876Y0056999D01*
X0146960Y0057030D01*
X0147045Y0057056D01*
X0147131Y0057079D01*
X0147218Y0057097D01*
X0147306Y0057112D01*
X0147395Y0057123D01*
X0147484Y0057130D01*
X0147573Y0057133D01*
X0147662Y0057132D01*
X0147751Y0057127D01*
X0147839Y0057118D01*
X0147928Y0057105D01*
X0148015Y0057088D01*
X0148102Y0057068D01*
X0148188Y0057043D01*
X0148272Y0057015D01*
X0148355Y0056983D01*
X0148437Y0056947D01*
X0148517Y0056908D01*
X0148595Y0056865D01*
X0148671Y0056819D01*
X0148745Y0056769D01*
X0148817Y0056716D01*
X0148886Y0056660D01*
X0148953Y0056601D01*
X0149017Y0056539D01*
X0149078Y0056475D01*
X0149137Y0056407D01*
X0149192Y0056337D01*
X0149244Y0056265D01*
X0149293Y0056190D01*
X0149338Y0056114D01*
X0149380Y0056035D01*
X0149418Y0055955D01*
X0149453Y0055873D01*
X0149484Y0055789D01*
X0149512Y0055704D01*
X0149535Y0055618D01*
X0149555Y0055531D01*
X0149571Y0055444D01*
X0149583Y0055355D01*
X0149591Y0055267D01*
X0149595Y0055178D01*
X0149595Y0055088D01*
X0149591Y0054999D01*
X0149583Y0054911D01*
X0149571Y0054822D01*
X0149555Y0054735D01*
X0149535Y0054648D01*
X0149512Y0054562D01*
X0149484Y0054477D01*
X0149453Y0054393D01*
X0149418Y0054311D01*
X0149380Y0054231D01*
X0149338Y0054152D01*
X0149293Y0054076D01*
X0149244Y0054001D01*
X0149192Y0053929D01*
X0149137Y0053859D01*
X0149078Y0053791D01*
X0149017Y0053727D01*
X0148953Y0053665D01*
X0148886Y0053606D01*
X0148817Y0053550D01*
X0148745Y0053497D01*
X0148671Y0053447D01*
X0148595Y0053401D01*
X0148517Y0053358D01*
X0148437Y0053319D01*
X0148355Y0053283D01*
X0148272Y0053251D01*
X0148188Y0053223D01*
X0148102Y0053198D01*
X0148015Y0053178D01*
X0147928Y0053161D01*
X0147839Y0053148D01*
X0147751Y0053139D01*
X0147662Y0053134D01*
X0147573Y0053133D01*
X0147484Y0053136D01*
X0147395Y0053143D01*
X0147306Y0053154D01*
X0147218Y0053169D01*
X0147131Y0053187D01*
X0147045Y0053210D01*
X0146960Y0053236D01*
X0146876Y0053267D01*
X0146794Y0053301D01*
X0146713Y0053338D01*
X0146634Y0053379D01*
X0146557Y0053424D01*
X0146482Y0053472D01*
X0146409Y0053523D01*
X0146338Y0053577D01*
X0146270Y0053635D01*
X0146205Y0053695D01*
X0146142Y0053759D01*
X0146082Y0053825D01*
X0146025Y0053894D01*
X0145972Y0053965D01*
X0145921Y0054038D01*
X0145874Y0054114D01*
X0145831Y0054191D01*
X0145790Y0054271D01*
X0145754Y0054352D01*
X0145721Y0054435D01*
X0145692Y0054519D01*
X0145666Y0054605D01*
X0145644Y0054691D01*
X0145627Y0054778D01*
X0145613Y0054866D01*
X0145603Y0054955D01*
X0145597Y0055044D01*
X0145595Y0055133D01*
X0165595Y0055133D02*
X0165597Y0055222D01*
X0165603Y0055311D01*
X0165613Y0055400D01*
X0165627Y0055488D01*
X0165644Y0055575D01*
X0165666Y0055661D01*
X0165692Y0055747D01*
X0165721Y0055831D01*
X0165754Y0055914D01*
X0165790Y0055995D01*
X0165831Y0056075D01*
X0165874Y0056152D01*
X0165921Y0056228D01*
X0165972Y0056301D01*
X0166025Y0056372D01*
X0166082Y0056441D01*
X0166142Y0056507D01*
X0166205Y0056571D01*
X0166270Y0056631D01*
X0166338Y0056689D01*
X0166409Y0056743D01*
X0166482Y0056794D01*
X0166557Y0056842D01*
X0166634Y0056887D01*
X0166713Y0056928D01*
X0166794Y0056965D01*
X0166876Y0056999D01*
X0166960Y0057030D01*
X0167045Y0057056D01*
X0167131Y0057079D01*
X0167218Y0057097D01*
X0167306Y0057112D01*
X0167395Y0057123D01*
X0167484Y0057130D01*
X0167573Y0057133D01*
X0167662Y0057132D01*
X0167751Y0057127D01*
X0167839Y0057118D01*
X0167928Y0057105D01*
X0168015Y0057088D01*
X0168102Y0057068D01*
X0168188Y0057043D01*
X0168272Y0057015D01*
X0168355Y0056983D01*
X0168437Y0056947D01*
X0168517Y0056908D01*
X0168595Y0056865D01*
X0168671Y0056819D01*
X0168745Y0056769D01*
X0168817Y0056716D01*
X0168886Y0056660D01*
X0168953Y0056601D01*
X0169017Y0056539D01*
X0169078Y0056475D01*
X0169137Y0056407D01*
X0169192Y0056337D01*
X0169244Y0056265D01*
X0169293Y0056190D01*
X0169338Y0056114D01*
X0169380Y0056035D01*
X0169418Y0055955D01*
X0169453Y0055873D01*
X0169484Y0055789D01*
X0169512Y0055704D01*
X0169535Y0055618D01*
X0169555Y0055531D01*
X0169571Y0055444D01*
X0169583Y0055355D01*
X0169591Y0055267D01*
X0169595Y0055178D01*
X0169595Y0055088D01*
X0169591Y0054999D01*
X0169583Y0054911D01*
X0169571Y0054822D01*
X0169555Y0054735D01*
X0169535Y0054648D01*
X0169512Y0054562D01*
X0169484Y0054477D01*
X0169453Y0054393D01*
X0169418Y0054311D01*
X0169380Y0054231D01*
X0169338Y0054152D01*
X0169293Y0054076D01*
X0169244Y0054001D01*
X0169192Y0053929D01*
X0169137Y0053859D01*
X0169078Y0053791D01*
X0169017Y0053727D01*
X0168953Y0053665D01*
X0168886Y0053606D01*
X0168817Y0053550D01*
X0168745Y0053497D01*
X0168671Y0053447D01*
X0168595Y0053401D01*
X0168517Y0053358D01*
X0168437Y0053319D01*
X0168355Y0053283D01*
X0168272Y0053251D01*
X0168188Y0053223D01*
X0168102Y0053198D01*
X0168015Y0053178D01*
X0167928Y0053161D01*
X0167839Y0053148D01*
X0167751Y0053139D01*
X0167662Y0053134D01*
X0167573Y0053133D01*
X0167484Y0053136D01*
X0167395Y0053143D01*
X0167306Y0053154D01*
X0167218Y0053169D01*
X0167131Y0053187D01*
X0167045Y0053210D01*
X0166960Y0053236D01*
X0166876Y0053267D01*
X0166794Y0053301D01*
X0166713Y0053338D01*
X0166634Y0053379D01*
X0166557Y0053424D01*
X0166482Y0053472D01*
X0166409Y0053523D01*
X0166338Y0053577D01*
X0166270Y0053635D01*
X0166205Y0053695D01*
X0166142Y0053759D01*
X0166082Y0053825D01*
X0166025Y0053894D01*
X0165972Y0053965D01*
X0165921Y0054038D01*
X0165874Y0054114D01*
X0165831Y0054191D01*
X0165790Y0054271D01*
X0165754Y0054352D01*
X0165721Y0054435D01*
X0165692Y0054519D01*
X0165666Y0054605D01*
X0165644Y0054691D01*
X0165627Y0054778D01*
X0165613Y0054866D01*
X0165603Y0054955D01*
X0165597Y0055044D01*
X0165595Y0055133D01*
X0177595Y0060433D02*
X0177595Y0034433D01*
X0171095Y0034433D01*
X0164095Y0034433D02*
X0151095Y0034433D01*
X0144095Y0034433D02*
X0131095Y0034433D01*
X0124095Y0034433D02*
X0117595Y0034433D01*
X0099095Y0034433D02*
X0086095Y0034433D01*
X0175395Y0077933D02*
X0179795Y0077933D01*
X0179795Y0079933D01*
X0175395Y0079933D01*
X0175395Y0077933D01*
X0179795Y0076633D02*
X0179795Y0096233D01*
X0195395Y0096233D01*
X0195395Y0076633D01*
X0179795Y0076633D01*
X0182195Y0076633D02*
X0192995Y0076633D01*
X0193895Y0075033D02*
X0190895Y0075033D01*
X0190895Y0067833D01*
X0204295Y0067833D01*
X0204295Y0075033D01*
X0190895Y0075033D01*
X0190895Y0067833D01*
X0193895Y0067833D01*
X0193895Y0075033D01*
X0195195Y0075033D02*
X0199995Y0075033D01*
X0201295Y0075033D02*
X0204295Y0075033D01*
X0204295Y0067933D01*
X0201295Y0067833D01*
X0201295Y0075033D01*
X0199795Y0077933D02*
X0195395Y0077933D01*
X0195395Y0079933D01*
X0199795Y0079933D01*
X0199795Y0077933D01*
X0199795Y0082933D02*
X0195395Y0082933D01*
X0195395Y0084933D01*
X0199795Y0084933D01*
X0199795Y0082933D01*
X0199795Y0087933D02*
X0195395Y0087933D01*
X0195395Y0089933D01*
X0199795Y0089933D01*
X0199795Y0087933D01*
X0199795Y0092933D02*
X0195395Y0092933D01*
X0195395Y0094933D01*
X0199795Y0094933D01*
X0199795Y0092933D01*
X0192995Y0096233D02*
X0182195Y0096233D01*
X0179795Y0094933D02*
X0175395Y0094933D01*
X0175395Y0092933D01*
X0179795Y0092933D01*
X0179795Y0094933D01*
X0179795Y0089933D02*
X0175395Y0089933D01*
X0175395Y0087933D01*
X0179795Y0087933D01*
X0179795Y0089933D01*
X0179795Y0084933D02*
X0175395Y0084933D01*
X0175395Y0082933D01*
X0179795Y0082933D01*
X0179795Y0084933D01*
X0186395Y0096233D02*
X0186400Y0096165D01*
X0186409Y0096097D01*
X0186421Y0096029D01*
X0186438Y0095963D01*
X0186458Y0095897D01*
X0186482Y0095833D01*
X0186509Y0095770D01*
X0186540Y0095709D01*
X0186575Y0095649D01*
X0186613Y0095592D01*
X0186654Y0095537D01*
X0186698Y0095485D01*
X0186745Y0095435D01*
X0186795Y0095388D01*
X0186847Y0095343D01*
X0186902Y0095302D01*
X0186959Y0095264D01*
X0187018Y0095230D01*
X0187079Y0095198D01*
X0187142Y0095171D01*
X0187206Y0095147D01*
X0187272Y0095126D01*
X0187338Y0095110D01*
X0187406Y0095097D01*
X0187474Y0095088D01*
X0187542Y0095083D01*
X0187611Y0095082D01*
X0187679Y0095085D01*
X0187748Y0095092D01*
X0187815Y0095102D01*
X0187882Y0095117D01*
X0187948Y0095135D01*
X0188013Y0095157D01*
X0188077Y0095183D01*
X0188139Y0095212D01*
X0188199Y0095245D01*
X0188257Y0095281D01*
X0188314Y0095321D01*
X0188367Y0095363D01*
X0188419Y0095409D01*
X0188467Y0095457D01*
X0188513Y0095508D01*
X0188556Y0095562D01*
X0188595Y0095618D01*
X0188632Y0095676D01*
X0188664Y0095736D01*
X0188694Y0095798D01*
X0188720Y0095862D01*
X0188742Y0095927D01*
X0188760Y0095993D01*
X0188775Y0096060D01*
X0188786Y0096128D01*
X0188793Y0096196D01*
X0188796Y0096264D01*
X0188795Y0096333D01*
X0188796Y0096264D01*
X0188793Y0096196D01*
X0188786Y0096128D01*
X0188775Y0096060D01*
X0188760Y0095993D01*
X0188742Y0095927D01*
X0188720Y0095862D01*
X0188694Y0095798D01*
X0188664Y0095736D01*
X0188632Y0095676D01*
X0188595Y0095618D01*
X0188556Y0095562D01*
X0188513Y0095508D01*
X0188467Y0095457D01*
X0188419Y0095409D01*
X0188367Y0095363D01*
X0188314Y0095321D01*
X0188257Y0095281D01*
X0188199Y0095245D01*
X0188139Y0095212D01*
X0188077Y0095183D01*
X0188013Y0095157D01*
X0187948Y0095135D01*
X0187882Y0095117D01*
X0187815Y0095102D01*
X0187748Y0095092D01*
X0187679Y0095085D01*
X0187611Y0095082D01*
X0187542Y0095083D01*
X0187474Y0095088D01*
X0187406Y0095097D01*
X0187338Y0095110D01*
X0187272Y0095126D01*
X0187206Y0095147D01*
X0187142Y0095171D01*
X0187079Y0095198D01*
X0187018Y0095230D01*
X0186959Y0095264D01*
X0186902Y0095302D01*
X0186847Y0095343D01*
X0186795Y0095388D01*
X0186745Y0095435D01*
X0186698Y0095485D01*
X0186654Y0095537D01*
X0186613Y0095592D01*
X0186575Y0095649D01*
X0186540Y0095709D01*
X0186509Y0095770D01*
X0186482Y0095833D01*
X0186458Y0095897D01*
X0186438Y0095963D01*
X0186421Y0096029D01*
X0186409Y0096097D01*
X0186400Y0096165D01*
X0186395Y0096233D01*
X0185195Y0109533D02*
X0179995Y0109533D01*
X0166595Y0109533D02*
X0166595Y0138333D01*
X0198595Y0138333D01*
X0198595Y0109533D01*
X0166595Y0109533D01*
X0162095Y0106433D02*
X0159095Y0106433D01*
X0160595Y0107933D02*
X0160595Y0104933D01*
X0136595Y0106433D02*
X0136599Y0106764D01*
X0136611Y0107095D01*
X0136632Y0107426D01*
X0136660Y0107756D01*
X0136697Y0108086D01*
X0136741Y0108414D01*
X0136794Y0108741D01*
X0136854Y0109067D01*
X0136923Y0109391D01*
X0137000Y0109713D01*
X0137084Y0110034D01*
X0137176Y0110352D01*
X0137276Y0110668D01*
X0137384Y0110981D01*
X0137500Y0111292D01*
X0137623Y0111599D01*
X0137753Y0111904D01*
X0137891Y0112205D01*
X0138036Y0112503D01*
X0138189Y0112797D01*
X0138349Y0113087D01*
X0138516Y0113373D01*
X0138689Y0113655D01*
X0138870Y0113933D01*
X0139058Y0114206D01*
X0139252Y0114475D01*
X0139452Y0114739D01*
X0139659Y0114997D01*
X0139873Y0115251D01*
X0140092Y0115499D01*
X0140318Y0115742D01*
X0140549Y0115979D01*
X0140786Y0116210D01*
X0141029Y0116436D01*
X0141277Y0116655D01*
X0141531Y0116869D01*
X0141789Y0117076D01*
X0142053Y0117276D01*
X0142322Y0117470D01*
X0142595Y0117658D01*
X0142873Y0117839D01*
X0143155Y0118012D01*
X0143441Y0118179D01*
X0143731Y0118339D01*
X0144025Y0118492D01*
X0144323Y0118637D01*
X0144624Y0118775D01*
X0144929Y0118905D01*
X0145236Y0119028D01*
X0145547Y0119144D01*
X0145860Y0119252D01*
X0146176Y0119352D01*
X0146494Y0119444D01*
X0146815Y0119528D01*
X0147137Y0119605D01*
X0147461Y0119674D01*
X0147787Y0119734D01*
X0148114Y0119787D01*
X0148442Y0119831D01*
X0148772Y0119868D01*
X0149102Y0119896D01*
X0149433Y0119917D01*
X0149764Y0119929D01*
X0150095Y0119933D01*
X0150426Y0119929D01*
X0150757Y0119917D01*
X0151088Y0119896D01*
X0151418Y0119868D01*
X0151748Y0119831D01*
X0152076Y0119787D01*
X0152403Y0119734D01*
X0152729Y0119674D01*
X0153053Y0119605D01*
X0153375Y0119528D01*
X0153696Y0119444D01*
X0154014Y0119352D01*
X0154330Y0119252D01*
X0154643Y0119144D01*
X0154954Y0119028D01*
X0155261Y0118905D01*
X0155566Y0118775D01*
X0155867Y0118637D01*
X0156165Y0118492D01*
X0156459Y0118339D01*
X0156749Y0118179D01*
X0157035Y0118012D01*
X0157317Y0117839D01*
X0157595Y0117658D01*
X0157868Y0117470D01*
X0158137Y0117276D01*
X0158401Y0117076D01*
X0158659Y0116869D01*
X0158913Y0116655D01*
X0159161Y0116436D01*
X0159404Y0116210D01*
X0159641Y0115979D01*
X0159872Y0115742D01*
X0160098Y0115499D01*
X0160317Y0115251D01*
X0160531Y0114997D01*
X0160738Y0114739D01*
X0160938Y0114475D01*
X0161132Y0114206D01*
X0161320Y0113933D01*
X0161501Y0113655D01*
X0161674Y0113373D01*
X0161841Y0113087D01*
X0162001Y0112797D01*
X0162154Y0112503D01*
X0162299Y0112205D01*
X0162437Y0111904D01*
X0162567Y0111599D01*
X0162690Y0111292D01*
X0162806Y0110981D01*
X0162914Y0110668D01*
X0163014Y0110352D01*
X0163106Y0110034D01*
X0163190Y0109713D01*
X0163267Y0109391D01*
X0163336Y0109067D01*
X0163396Y0108741D01*
X0163449Y0108414D01*
X0163493Y0108086D01*
X0163530Y0107756D01*
X0163558Y0107426D01*
X0163579Y0107095D01*
X0163591Y0106764D01*
X0163595Y0106433D01*
X0163591Y0106102D01*
X0163579Y0105771D01*
X0163558Y0105440D01*
X0163530Y0105110D01*
X0163493Y0104780D01*
X0163449Y0104452D01*
X0163396Y0104125D01*
X0163336Y0103799D01*
X0163267Y0103475D01*
X0163190Y0103153D01*
X0163106Y0102832D01*
X0163014Y0102514D01*
X0162914Y0102198D01*
X0162806Y0101885D01*
X0162690Y0101574D01*
X0162567Y0101267D01*
X0162437Y0100962D01*
X0162299Y0100661D01*
X0162154Y0100363D01*
X0162001Y0100069D01*
X0161841Y0099779D01*
X0161674Y0099493D01*
X0161501Y0099211D01*
X0161320Y0098933D01*
X0161132Y0098660D01*
X0160938Y0098391D01*
X0160738Y0098127D01*
X0160531Y0097869D01*
X0160317Y0097615D01*
X0160098Y0097367D01*
X0159872Y0097124D01*
X0159641Y0096887D01*
X0159404Y0096656D01*
X0159161Y0096430D01*
X0158913Y0096211D01*
X0158659Y0095997D01*
X0158401Y0095790D01*
X0158137Y0095590D01*
X0157868Y0095396D01*
X0157595Y0095208D01*
X0157317Y0095027D01*
X0157035Y0094854D01*
X0156749Y0094687D01*
X0156459Y0094527D01*
X0156165Y0094374D01*
X0155867Y0094229D01*
X0155566Y0094091D01*
X0155261Y0093961D01*
X0154954Y0093838D01*
X0154643Y0093722D01*
X0154330Y0093614D01*
X0154014Y0093514D01*
X0153696Y0093422D01*
X0153375Y0093338D01*
X0153053Y0093261D01*
X0152729Y0093192D01*
X0152403Y0093132D01*
X0152076Y0093079D01*
X0151748Y0093035D01*
X0151418Y0092998D01*
X0151088Y0092970D01*
X0150757Y0092949D01*
X0150426Y0092937D01*
X0150095Y0092933D01*
X0149764Y0092937D01*
X0149433Y0092949D01*
X0149102Y0092970D01*
X0148772Y0092998D01*
X0148442Y0093035D01*
X0148114Y0093079D01*
X0147787Y0093132D01*
X0147461Y0093192D01*
X0147137Y0093261D01*
X0146815Y0093338D01*
X0146494Y0093422D01*
X0146176Y0093514D01*
X0145860Y0093614D01*
X0145547Y0093722D01*
X0145236Y0093838D01*
X0144929Y0093961D01*
X0144624Y0094091D01*
X0144323Y0094229D01*
X0144025Y0094374D01*
X0143731Y0094527D01*
X0143441Y0094687D01*
X0143155Y0094854D01*
X0142873Y0095027D01*
X0142595Y0095208D01*
X0142322Y0095396D01*
X0142053Y0095590D01*
X0141789Y0095790D01*
X0141531Y0095997D01*
X0141277Y0096211D01*
X0141029Y0096430D01*
X0140786Y0096656D01*
X0140549Y0096887D01*
X0140318Y0097124D01*
X0140092Y0097367D01*
X0139873Y0097615D01*
X0139659Y0097869D01*
X0139452Y0098127D01*
X0139252Y0098391D01*
X0139058Y0098660D01*
X0138870Y0098933D01*
X0138689Y0099211D01*
X0138516Y0099493D01*
X0138349Y0099779D01*
X0138189Y0100069D01*
X0138036Y0100363D01*
X0137891Y0100661D01*
X0137753Y0100962D01*
X0137623Y0101267D01*
X0137500Y0101574D01*
X0137384Y0101885D01*
X0137276Y0102198D01*
X0137176Y0102514D01*
X0137084Y0102832D01*
X0137000Y0103153D01*
X0136923Y0103475D01*
X0136854Y0103799D01*
X0136794Y0104125D01*
X0136741Y0104452D01*
X0136697Y0104780D01*
X0136660Y0105110D01*
X0136632Y0105440D01*
X0136611Y0105771D01*
X0136599Y0106102D01*
X0136595Y0106433D01*
X0135095Y0123933D02*
X0130095Y0123933D01*
X0127595Y0126433D01*
X0127595Y0131433D01*
X0130095Y0133933D01*
X0135095Y0133933D01*
X0137595Y0131433D01*
X0140095Y0133933D01*
X0145095Y0133933D01*
X0147595Y0131433D01*
X0150095Y0133933D01*
X0155095Y0133933D01*
X0157595Y0131433D01*
X0157595Y0126433D01*
X0155095Y0123933D01*
X0150095Y0123933D01*
X0147595Y0126433D01*
X0145095Y0123933D01*
X0140095Y0123933D01*
X0137595Y0126433D01*
X0135095Y0123933D01*
X0179995Y0138333D02*
X0185195Y0138333D01*
X0201095Y0126833D02*
X0209095Y0126833D01*
X0209095Y0109833D01*
X0201095Y0109833D02*
X0201095Y0126833D01*
X0204095Y0078933D02*
X0204099Y0079264D01*
X0204111Y0079595D01*
X0204132Y0079926D01*
X0204160Y0080256D01*
X0204197Y0080586D01*
X0204241Y0080914D01*
X0204294Y0081241D01*
X0204354Y0081567D01*
X0204423Y0081891D01*
X0204500Y0082213D01*
X0204584Y0082534D01*
X0204676Y0082852D01*
X0204776Y0083168D01*
X0204884Y0083481D01*
X0205000Y0083792D01*
X0205123Y0084099D01*
X0205253Y0084404D01*
X0205391Y0084705D01*
X0205536Y0085003D01*
X0205689Y0085297D01*
X0205849Y0085587D01*
X0206016Y0085873D01*
X0206189Y0086155D01*
X0206370Y0086433D01*
X0206558Y0086706D01*
X0206752Y0086975D01*
X0206952Y0087239D01*
X0207159Y0087497D01*
X0207373Y0087751D01*
X0207592Y0087999D01*
X0207818Y0088242D01*
X0208049Y0088479D01*
X0208286Y0088710D01*
X0208529Y0088936D01*
X0208777Y0089155D01*
X0209031Y0089369D01*
X0209289Y0089576D01*
X0209553Y0089776D01*
X0209822Y0089970D01*
X0210095Y0090158D01*
X0210373Y0090339D01*
X0210655Y0090512D01*
X0210941Y0090679D01*
X0211231Y0090839D01*
X0211525Y0090992D01*
X0211823Y0091137D01*
X0212124Y0091275D01*
X0212429Y0091405D01*
X0212736Y0091528D01*
X0213047Y0091644D01*
X0213360Y0091752D01*
X0213676Y0091852D01*
X0213994Y0091944D01*
X0214315Y0092028D01*
X0214637Y0092105D01*
X0214961Y0092174D01*
X0215287Y0092234D01*
X0215614Y0092287D01*
X0215942Y0092331D01*
X0216272Y0092368D01*
X0216602Y0092396D01*
X0216933Y0092417D01*
X0217264Y0092429D01*
X0217595Y0092433D01*
X0217926Y0092429D01*
X0218257Y0092417D01*
X0218588Y0092396D01*
X0218918Y0092368D01*
X0219248Y0092331D01*
X0219576Y0092287D01*
X0219903Y0092234D01*
X0220229Y0092174D01*
X0220553Y0092105D01*
X0220875Y0092028D01*
X0221196Y0091944D01*
X0221514Y0091852D01*
X0221830Y0091752D01*
X0222143Y0091644D01*
X0222454Y0091528D01*
X0222761Y0091405D01*
X0223066Y0091275D01*
X0223367Y0091137D01*
X0223665Y0090992D01*
X0223959Y0090839D01*
X0224249Y0090679D01*
X0224535Y0090512D01*
X0224817Y0090339D01*
X0225095Y0090158D01*
X0225368Y0089970D01*
X0225637Y0089776D01*
X0225901Y0089576D01*
X0226159Y0089369D01*
X0226413Y0089155D01*
X0226661Y0088936D01*
X0226904Y0088710D01*
X0227141Y0088479D01*
X0227372Y0088242D01*
X0227598Y0087999D01*
X0227817Y0087751D01*
X0228031Y0087497D01*
X0228238Y0087239D01*
X0228438Y0086975D01*
X0228632Y0086706D01*
X0228820Y0086433D01*
X0229001Y0086155D01*
X0229174Y0085873D01*
X0229341Y0085587D01*
X0229501Y0085297D01*
X0229654Y0085003D01*
X0229799Y0084705D01*
X0229937Y0084404D01*
X0230067Y0084099D01*
X0230190Y0083792D01*
X0230306Y0083481D01*
X0230414Y0083168D01*
X0230514Y0082852D01*
X0230606Y0082534D01*
X0230690Y0082213D01*
X0230767Y0081891D01*
X0230836Y0081567D01*
X0230896Y0081241D01*
X0230949Y0080914D01*
X0230993Y0080586D01*
X0231030Y0080256D01*
X0231058Y0079926D01*
X0231079Y0079595D01*
X0231091Y0079264D01*
X0231095Y0078933D01*
X0231091Y0078602D01*
X0231079Y0078271D01*
X0231058Y0077940D01*
X0231030Y0077610D01*
X0230993Y0077280D01*
X0230949Y0076952D01*
X0230896Y0076625D01*
X0230836Y0076299D01*
X0230767Y0075975D01*
X0230690Y0075653D01*
X0230606Y0075332D01*
X0230514Y0075014D01*
X0230414Y0074698D01*
X0230306Y0074385D01*
X0230190Y0074074D01*
X0230067Y0073767D01*
X0229937Y0073462D01*
X0229799Y0073161D01*
X0229654Y0072863D01*
X0229501Y0072569D01*
X0229341Y0072279D01*
X0229174Y0071993D01*
X0229001Y0071711D01*
X0228820Y0071433D01*
X0228632Y0071160D01*
X0228438Y0070891D01*
X0228238Y0070627D01*
X0228031Y0070369D01*
X0227817Y0070115D01*
X0227598Y0069867D01*
X0227372Y0069624D01*
X0227141Y0069387D01*
X0226904Y0069156D01*
X0226661Y0068930D01*
X0226413Y0068711D01*
X0226159Y0068497D01*
X0225901Y0068290D01*
X0225637Y0068090D01*
X0225368Y0067896D01*
X0225095Y0067708D01*
X0224817Y0067527D01*
X0224535Y0067354D01*
X0224249Y0067187D01*
X0223959Y0067027D01*
X0223665Y0066874D01*
X0223367Y0066729D01*
X0223066Y0066591D01*
X0222761Y0066461D01*
X0222454Y0066338D01*
X0222143Y0066222D01*
X0221830Y0066114D01*
X0221514Y0066014D01*
X0221196Y0065922D01*
X0220875Y0065838D01*
X0220553Y0065761D01*
X0220229Y0065692D01*
X0219903Y0065632D01*
X0219576Y0065579D01*
X0219248Y0065535D01*
X0218918Y0065498D01*
X0218588Y0065470D01*
X0218257Y0065449D01*
X0217926Y0065437D01*
X0217595Y0065433D01*
X0217264Y0065437D01*
X0216933Y0065449D01*
X0216602Y0065470D01*
X0216272Y0065498D01*
X0215942Y0065535D01*
X0215614Y0065579D01*
X0215287Y0065632D01*
X0214961Y0065692D01*
X0214637Y0065761D01*
X0214315Y0065838D01*
X0213994Y0065922D01*
X0213676Y0066014D01*
X0213360Y0066114D01*
X0213047Y0066222D01*
X0212736Y0066338D01*
X0212429Y0066461D01*
X0212124Y0066591D01*
X0211823Y0066729D01*
X0211525Y0066874D01*
X0211231Y0067027D01*
X0210941Y0067187D01*
X0210655Y0067354D01*
X0210373Y0067527D01*
X0210095Y0067708D01*
X0209822Y0067896D01*
X0209553Y0068090D01*
X0209289Y0068290D01*
X0209031Y0068497D01*
X0208777Y0068711D01*
X0208529Y0068930D01*
X0208286Y0069156D01*
X0208049Y0069387D01*
X0207818Y0069624D01*
X0207592Y0069867D01*
X0207373Y0070115D01*
X0207159Y0070369D01*
X0206952Y0070627D01*
X0206752Y0070891D01*
X0206558Y0071160D01*
X0206370Y0071433D01*
X0206189Y0071711D01*
X0206016Y0071993D01*
X0205849Y0072279D01*
X0205689Y0072569D01*
X0205536Y0072863D01*
X0205391Y0073161D01*
X0205253Y0073462D01*
X0205123Y0073767D01*
X0205000Y0074074D01*
X0204884Y0074385D01*
X0204776Y0074698D01*
X0204676Y0075014D01*
X0204584Y0075332D01*
X0204500Y0075653D01*
X0204423Y0075975D01*
X0204354Y0076299D01*
X0204294Y0076625D01*
X0204241Y0076952D01*
X0204197Y0077280D01*
X0204160Y0077610D01*
X0204132Y0077940D01*
X0204111Y0078271D01*
X0204099Y0078602D01*
X0204095Y0078933D01*
X0217595Y0069933D02*
X0217595Y0066933D01*
X0219095Y0068433D02*
X0216095Y0068433D01*
X0199995Y0067833D02*
X0195195Y0067833D01*
X0192595Y0060433D02*
X0232595Y0060433D01*
X0220595Y0055133D02*
X0220597Y0055222D01*
X0220603Y0055311D01*
X0220613Y0055400D01*
X0220627Y0055488D01*
X0220644Y0055575D01*
X0220666Y0055661D01*
X0220692Y0055747D01*
X0220721Y0055831D01*
X0220754Y0055914D01*
X0220790Y0055995D01*
X0220831Y0056075D01*
X0220874Y0056152D01*
X0220921Y0056228D01*
X0220972Y0056301D01*
X0221025Y0056372D01*
X0221082Y0056441D01*
X0221142Y0056507D01*
X0221205Y0056571D01*
X0221270Y0056631D01*
X0221338Y0056689D01*
X0221409Y0056743D01*
X0221482Y0056794D01*
X0221557Y0056842D01*
X0221634Y0056887D01*
X0221713Y0056928D01*
X0221794Y0056965D01*
X0221876Y0056999D01*
X0221960Y0057030D01*
X0222045Y0057056D01*
X0222131Y0057079D01*
X0222218Y0057097D01*
X0222306Y0057112D01*
X0222395Y0057123D01*
X0222484Y0057130D01*
X0222573Y0057133D01*
X0222662Y0057132D01*
X0222751Y0057127D01*
X0222839Y0057118D01*
X0222928Y0057105D01*
X0223015Y0057088D01*
X0223102Y0057068D01*
X0223188Y0057043D01*
X0223272Y0057015D01*
X0223355Y0056983D01*
X0223437Y0056947D01*
X0223517Y0056908D01*
X0223595Y0056865D01*
X0223671Y0056819D01*
X0223745Y0056769D01*
X0223817Y0056716D01*
X0223886Y0056660D01*
X0223953Y0056601D01*
X0224017Y0056539D01*
X0224078Y0056475D01*
X0224137Y0056407D01*
X0224192Y0056337D01*
X0224244Y0056265D01*
X0224293Y0056190D01*
X0224338Y0056114D01*
X0224380Y0056035D01*
X0224418Y0055955D01*
X0224453Y0055873D01*
X0224484Y0055789D01*
X0224512Y0055704D01*
X0224535Y0055618D01*
X0224555Y0055531D01*
X0224571Y0055444D01*
X0224583Y0055355D01*
X0224591Y0055267D01*
X0224595Y0055178D01*
X0224595Y0055088D01*
X0224591Y0054999D01*
X0224583Y0054911D01*
X0224571Y0054822D01*
X0224555Y0054735D01*
X0224535Y0054648D01*
X0224512Y0054562D01*
X0224484Y0054477D01*
X0224453Y0054393D01*
X0224418Y0054311D01*
X0224380Y0054231D01*
X0224338Y0054152D01*
X0224293Y0054076D01*
X0224244Y0054001D01*
X0224192Y0053929D01*
X0224137Y0053859D01*
X0224078Y0053791D01*
X0224017Y0053727D01*
X0223953Y0053665D01*
X0223886Y0053606D01*
X0223817Y0053550D01*
X0223745Y0053497D01*
X0223671Y0053447D01*
X0223595Y0053401D01*
X0223517Y0053358D01*
X0223437Y0053319D01*
X0223355Y0053283D01*
X0223272Y0053251D01*
X0223188Y0053223D01*
X0223102Y0053198D01*
X0223015Y0053178D01*
X0222928Y0053161D01*
X0222839Y0053148D01*
X0222751Y0053139D01*
X0222662Y0053134D01*
X0222573Y0053133D01*
X0222484Y0053136D01*
X0222395Y0053143D01*
X0222306Y0053154D01*
X0222218Y0053169D01*
X0222131Y0053187D01*
X0222045Y0053210D01*
X0221960Y0053236D01*
X0221876Y0053267D01*
X0221794Y0053301D01*
X0221713Y0053338D01*
X0221634Y0053379D01*
X0221557Y0053424D01*
X0221482Y0053472D01*
X0221409Y0053523D01*
X0221338Y0053577D01*
X0221270Y0053635D01*
X0221205Y0053695D01*
X0221142Y0053759D01*
X0221082Y0053825D01*
X0221025Y0053894D01*
X0220972Y0053965D01*
X0220921Y0054038D01*
X0220874Y0054114D01*
X0220831Y0054191D01*
X0220790Y0054271D01*
X0220754Y0054352D01*
X0220721Y0054435D01*
X0220692Y0054519D01*
X0220666Y0054605D01*
X0220644Y0054691D01*
X0220627Y0054778D01*
X0220613Y0054866D01*
X0220603Y0054955D01*
X0220597Y0055044D01*
X0220595Y0055133D01*
X0200595Y0055133D02*
X0200597Y0055222D01*
X0200603Y0055311D01*
X0200613Y0055400D01*
X0200627Y0055488D01*
X0200644Y0055575D01*
X0200666Y0055661D01*
X0200692Y0055747D01*
X0200721Y0055831D01*
X0200754Y0055914D01*
X0200790Y0055995D01*
X0200831Y0056075D01*
X0200874Y0056152D01*
X0200921Y0056228D01*
X0200972Y0056301D01*
X0201025Y0056372D01*
X0201082Y0056441D01*
X0201142Y0056507D01*
X0201205Y0056571D01*
X0201270Y0056631D01*
X0201338Y0056689D01*
X0201409Y0056743D01*
X0201482Y0056794D01*
X0201557Y0056842D01*
X0201634Y0056887D01*
X0201713Y0056928D01*
X0201794Y0056965D01*
X0201876Y0056999D01*
X0201960Y0057030D01*
X0202045Y0057056D01*
X0202131Y0057079D01*
X0202218Y0057097D01*
X0202306Y0057112D01*
X0202395Y0057123D01*
X0202484Y0057130D01*
X0202573Y0057133D01*
X0202662Y0057132D01*
X0202751Y0057127D01*
X0202839Y0057118D01*
X0202928Y0057105D01*
X0203015Y0057088D01*
X0203102Y0057068D01*
X0203188Y0057043D01*
X0203272Y0057015D01*
X0203355Y0056983D01*
X0203437Y0056947D01*
X0203517Y0056908D01*
X0203595Y0056865D01*
X0203671Y0056819D01*
X0203745Y0056769D01*
X0203817Y0056716D01*
X0203886Y0056660D01*
X0203953Y0056601D01*
X0204017Y0056539D01*
X0204078Y0056475D01*
X0204137Y0056407D01*
X0204192Y0056337D01*
X0204244Y0056265D01*
X0204293Y0056190D01*
X0204338Y0056114D01*
X0204380Y0056035D01*
X0204418Y0055955D01*
X0204453Y0055873D01*
X0204484Y0055789D01*
X0204512Y0055704D01*
X0204535Y0055618D01*
X0204555Y0055531D01*
X0204571Y0055444D01*
X0204583Y0055355D01*
X0204591Y0055267D01*
X0204595Y0055178D01*
X0204595Y0055088D01*
X0204591Y0054999D01*
X0204583Y0054911D01*
X0204571Y0054822D01*
X0204555Y0054735D01*
X0204535Y0054648D01*
X0204512Y0054562D01*
X0204484Y0054477D01*
X0204453Y0054393D01*
X0204418Y0054311D01*
X0204380Y0054231D01*
X0204338Y0054152D01*
X0204293Y0054076D01*
X0204244Y0054001D01*
X0204192Y0053929D01*
X0204137Y0053859D01*
X0204078Y0053791D01*
X0204017Y0053727D01*
X0203953Y0053665D01*
X0203886Y0053606D01*
X0203817Y0053550D01*
X0203745Y0053497D01*
X0203671Y0053447D01*
X0203595Y0053401D01*
X0203517Y0053358D01*
X0203437Y0053319D01*
X0203355Y0053283D01*
X0203272Y0053251D01*
X0203188Y0053223D01*
X0203102Y0053198D01*
X0203015Y0053178D01*
X0202928Y0053161D01*
X0202839Y0053148D01*
X0202751Y0053139D01*
X0202662Y0053134D01*
X0202573Y0053133D01*
X0202484Y0053136D01*
X0202395Y0053143D01*
X0202306Y0053154D01*
X0202218Y0053169D01*
X0202131Y0053187D01*
X0202045Y0053210D01*
X0201960Y0053236D01*
X0201876Y0053267D01*
X0201794Y0053301D01*
X0201713Y0053338D01*
X0201634Y0053379D01*
X0201557Y0053424D01*
X0201482Y0053472D01*
X0201409Y0053523D01*
X0201338Y0053577D01*
X0201270Y0053635D01*
X0201205Y0053695D01*
X0201142Y0053759D01*
X0201082Y0053825D01*
X0201025Y0053894D01*
X0200972Y0053965D01*
X0200921Y0054038D01*
X0200874Y0054114D01*
X0200831Y0054191D01*
X0200790Y0054271D01*
X0200754Y0054352D01*
X0200721Y0054435D01*
X0200692Y0054519D01*
X0200666Y0054605D01*
X0200644Y0054691D01*
X0200627Y0054778D01*
X0200613Y0054866D01*
X0200603Y0054955D01*
X0200597Y0055044D01*
X0200595Y0055133D01*
D14*
X0224841Y0076934D02*
X0225592Y0076183D01*
X0228595Y0076183D01*
X0229345Y0076934D01*
X0229345Y0078435D01*
X0228595Y0079186D01*
X0228595Y0080787D02*
X0229345Y0081538D01*
X0229345Y0083039D01*
X0228595Y0083790D01*
X0227844Y0083790D01*
X0227093Y0083039D01*
X0227093Y0082288D01*
X0227093Y0083039D02*
X0226343Y0083790D01*
X0225592Y0083790D01*
X0224841Y0083039D01*
X0224841Y0081538D01*
X0225592Y0080787D01*
X0225592Y0079186D02*
X0224841Y0078435D01*
X0224841Y0076934D01*
X0209305Y0031687D02*
X0207804Y0031687D01*
X0207053Y0030936D01*
X0207053Y0027934D01*
X0207804Y0027183D01*
X0209305Y0027183D01*
X0210056Y0027934D01*
X0210056Y0030936D02*
X0209305Y0031687D01*
X0205452Y0030936D02*
X0204701Y0031687D01*
X0203200Y0031687D01*
X0202449Y0030936D01*
X0202449Y0027934D01*
X0203200Y0027183D01*
X0204701Y0027183D01*
X0205452Y0027934D01*
X0200848Y0028684D02*
X0199346Y0027183D01*
X0197845Y0028684D01*
X0197845Y0031687D01*
X0200848Y0031687D02*
X0200848Y0028684D01*
X0111375Y0068933D02*
X0111375Y0163815D01*
X0047595Y0163815D01*
X0047595Y0068933D01*
X0111375Y0068933D01*
X0145387Y0095684D02*
X0146138Y0094933D01*
X0147639Y0094933D01*
X0148390Y0095684D01*
X0149991Y0094933D02*
X0152994Y0094933D01*
X0151492Y0094933D02*
X0151492Y0099437D01*
X0149991Y0097936D01*
X0148390Y0098686D02*
X0147639Y0099437D01*
X0146138Y0099437D01*
X0145387Y0098686D01*
X0145387Y0095684D01*
X0139243Y0117683D02*
X0139994Y0118434D01*
X0139994Y0119935D01*
X0138492Y0119935D01*
X0136991Y0121436D02*
X0136991Y0118434D01*
X0137742Y0117683D01*
X0139243Y0117683D01*
X0135390Y0118434D02*
X0135390Y0121436D01*
X0134639Y0122187D01*
X0133138Y0122187D01*
X0132387Y0121436D01*
X0132387Y0118434D01*
X0133138Y0117683D01*
X0134639Y0117683D01*
X0135390Y0118434D01*
X0136991Y0121436D02*
X0137742Y0122187D01*
X0139243Y0122187D01*
X0139994Y0121436D01*
X0130786Y0121436D02*
X0130786Y0119935D01*
X0130035Y0119184D01*
X0127783Y0119184D01*
X0127783Y0117683D02*
X0127783Y0122187D01*
X0130035Y0122187D01*
X0130786Y0121436D01*
X0129285Y0119184D02*
X0130786Y0117683D01*
X0126182Y0119935D02*
X0126182Y0121436D01*
X0125431Y0122187D01*
X0123179Y0122187D01*
X0123179Y0117683D01*
X0123179Y0119184D02*
X0125431Y0119184D01*
X0126182Y0119935D01*
X0158241Y0126683D02*
X0161244Y0126683D01*
X0159742Y0126683D02*
X0159742Y0131187D01*
X0158241Y0129686D01*
D15*
X0156768Y0147043D02*
X0178422Y0147043D01*
X0178422Y0147044D02*
X0178484Y0147046D01*
X0178545Y0147052D01*
X0178606Y0147061D01*
X0178667Y0147075D01*
X0178726Y0147092D01*
X0178784Y0147113D01*
X0178841Y0147138D01*
X0178896Y0147166D01*
X0178949Y0147197D01*
X0179000Y0147232D01*
X0179049Y0147270D01*
X0179096Y0147311D01*
X0179139Y0147354D01*
X0179180Y0147401D01*
X0179218Y0147450D01*
X0179253Y0147501D01*
X0179284Y0147554D01*
X0179312Y0147609D01*
X0179337Y0147666D01*
X0179358Y0147724D01*
X0179375Y0147783D01*
X0179389Y0147844D01*
X0179398Y0147905D01*
X0179404Y0147966D01*
X0179406Y0148028D01*
X0179406Y0149602D01*
X0173501Y0150980D02*
X0173501Y0156886D01*
X0161690Y0156886D01*
X0161690Y0150980D01*
X0173501Y0150980D01*
X0179406Y0158264D02*
X0179406Y0159839D01*
X0179404Y0159901D01*
X0179398Y0159962D01*
X0179389Y0160023D01*
X0179375Y0160084D01*
X0179358Y0160143D01*
X0179337Y0160201D01*
X0179312Y0160258D01*
X0179284Y0160313D01*
X0179253Y0160366D01*
X0179218Y0160417D01*
X0179180Y0160466D01*
X0179139Y0160513D01*
X0179096Y0160556D01*
X0179049Y0160597D01*
X0179000Y0160635D01*
X0178949Y0160670D01*
X0178896Y0160701D01*
X0178841Y0160729D01*
X0178784Y0160754D01*
X0178726Y0160775D01*
X0178667Y0160792D01*
X0178606Y0160806D01*
X0178545Y0160815D01*
X0178484Y0160821D01*
X0178422Y0160823D01*
X0156768Y0160823D01*
X0156706Y0160821D01*
X0156645Y0160815D01*
X0156584Y0160806D01*
X0156523Y0160792D01*
X0156464Y0160775D01*
X0156406Y0160754D01*
X0156349Y0160729D01*
X0156294Y0160701D01*
X0156241Y0160670D01*
X0156190Y0160635D01*
X0156141Y0160597D01*
X0156094Y0160556D01*
X0156051Y0160513D01*
X0156010Y0160466D01*
X0155972Y0160417D01*
X0155937Y0160366D01*
X0155906Y0160313D01*
X0155878Y0160258D01*
X0155853Y0160201D01*
X0155832Y0160143D01*
X0155815Y0160084D01*
X0155801Y0160023D01*
X0155792Y0159962D01*
X0155786Y0159901D01*
X0155784Y0159839D01*
X0155784Y0158264D01*
X0155784Y0149602D02*
X0155784Y0148028D01*
X0155786Y0147966D01*
X0155792Y0147905D01*
X0155801Y0147844D01*
X0155815Y0147783D01*
X0155832Y0147724D01*
X0155853Y0147666D01*
X0155878Y0147609D01*
X0155906Y0147554D01*
X0155937Y0147501D01*
X0155972Y0147450D01*
X0156010Y0147401D01*
X0156051Y0147354D01*
X0156094Y0147311D01*
X0156141Y0147270D01*
X0156190Y0147232D01*
X0156241Y0147197D01*
X0156294Y0147166D01*
X0156349Y0147138D01*
X0156406Y0147113D01*
X0156464Y0147092D01*
X0156523Y0147075D01*
X0156584Y0147061D01*
X0156645Y0147052D01*
X0156706Y0147046D01*
X0156768Y0147044D01*
X0141906Y0148028D02*
X0141906Y0149602D01*
X0141906Y0148028D02*
X0141904Y0147966D01*
X0141898Y0147905D01*
X0141889Y0147844D01*
X0141875Y0147783D01*
X0141858Y0147724D01*
X0141837Y0147666D01*
X0141812Y0147609D01*
X0141784Y0147554D01*
X0141753Y0147501D01*
X0141718Y0147450D01*
X0141680Y0147401D01*
X0141639Y0147354D01*
X0141596Y0147311D01*
X0141549Y0147270D01*
X0141500Y0147232D01*
X0141449Y0147197D01*
X0141396Y0147166D01*
X0141341Y0147138D01*
X0141284Y0147113D01*
X0141226Y0147092D01*
X0141167Y0147075D01*
X0141106Y0147061D01*
X0141045Y0147052D01*
X0140984Y0147046D01*
X0140922Y0147044D01*
X0140922Y0147043D02*
X0119268Y0147043D01*
X0119268Y0147044D02*
X0119206Y0147046D01*
X0119145Y0147052D01*
X0119084Y0147061D01*
X0119023Y0147075D01*
X0118964Y0147092D01*
X0118906Y0147113D01*
X0118849Y0147138D01*
X0118794Y0147166D01*
X0118741Y0147197D01*
X0118690Y0147232D01*
X0118641Y0147270D01*
X0118594Y0147311D01*
X0118551Y0147354D01*
X0118510Y0147401D01*
X0118472Y0147450D01*
X0118437Y0147501D01*
X0118406Y0147554D01*
X0118378Y0147609D01*
X0118353Y0147666D01*
X0118332Y0147724D01*
X0118315Y0147783D01*
X0118301Y0147844D01*
X0118292Y0147905D01*
X0118286Y0147966D01*
X0118284Y0148028D01*
X0118284Y0149602D01*
X0124190Y0150980D02*
X0124190Y0156886D01*
X0136001Y0156886D01*
X0136001Y0150980D01*
X0124190Y0150980D01*
X0118284Y0158264D02*
X0118284Y0159839D01*
X0118286Y0159901D01*
X0118292Y0159962D01*
X0118301Y0160023D01*
X0118315Y0160084D01*
X0118332Y0160143D01*
X0118353Y0160201D01*
X0118378Y0160258D01*
X0118406Y0160313D01*
X0118437Y0160366D01*
X0118472Y0160417D01*
X0118510Y0160466D01*
X0118551Y0160513D01*
X0118594Y0160556D01*
X0118641Y0160597D01*
X0118690Y0160635D01*
X0118741Y0160670D01*
X0118794Y0160701D01*
X0118849Y0160729D01*
X0118906Y0160754D01*
X0118964Y0160775D01*
X0119023Y0160792D01*
X0119084Y0160806D01*
X0119145Y0160815D01*
X0119206Y0160821D01*
X0119268Y0160823D01*
X0140922Y0160823D01*
X0140984Y0160821D01*
X0141045Y0160815D01*
X0141106Y0160806D01*
X0141167Y0160792D01*
X0141226Y0160775D01*
X0141284Y0160754D01*
X0141341Y0160729D01*
X0141396Y0160701D01*
X0141449Y0160670D01*
X0141500Y0160635D01*
X0141549Y0160597D01*
X0141596Y0160556D01*
X0141639Y0160513D01*
X0141680Y0160466D01*
X0141718Y0160417D01*
X0141753Y0160366D01*
X0141784Y0160313D01*
X0141812Y0160258D01*
X0141837Y0160201D01*
X0141858Y0160143D01*
X0141875Y0160084D01*
X0141889Y0160023D01*
X0141898Y0159962D01*
X0141904Y0159901D01*
X0141906Y0159839D01*
X0141906Y0158264D01*
X0193284Y0158264D02*
X0193284Y0159839D01*
X0193286Y0159901D01*
X0193292Y0159962D01*
X0193301Y0160023D01*
X0193315Y0160084D01*
X0193332Y0160143D01*
X0193353Y0160201D01*
X0193378Y0160258D01*
X0193406Y0160313D01*
X0193437Y0160366D01*
X0193472Y0160417D01*
X0193510Y0160466D01*
X0193551Y0160513D01*
X0193594Y0160556D01*
X0193641Y0160597D01*
X0193690Y0160635D01*
X0193741Y0160670D01*
X0193794Y0160701D01*
X0193849Y0160729D01*
X0193906Y0160754D01*
X0193964Y0160775D01*
X0194023Y0160792D01*
X0194084Y0160806D01*
X0194145Y0160815D01*
X0194206Y0160821D01*
X0194268Y0160823D01*
X0215922Y0160823D01*
X0215984Y0160821D01*
X0216045Y0160815D01*
X0216106Y0160806D01*
X0216167Y0160792D01*
X0216226Y0160775D01*
X0216284Y0160754D01*
X0216341Y0160729D01*
X0216396Y0160701D01*
X0216449Y0160670D01*
X0216500Y0160635D01*
X0216549Y0160597D01*
X0216596Y0160556D01*
X0216639Y0160513D01*
X0216680Y0160466D01*
X0216718Y0160417D01*
X0216753Y0160366D01*
X0216784Y0160313D01*
X0216812Y0160258D01*
X0216837Y0160201D01*
X0216858Y0160143D01*
X0216875Y0160084D01*
X0216889Y0160023D01*
X0216898Y0159962D01*
X0216904Y0159901D01*
X0216906Y0159839D01*
X0216906Y0158264D01*
X0211001Y0156886D02*
X0211001Y0150980D01*
X0199190Y0150980D01*
X0199190Y0156886D01*
X0211001Y0156886D01*
X0216906Y0149602D02*
X0216906Y0148028D01*
X0216904Y0147966D01*
X0216898Y0147905D01*
X0216889Y0147844D01*
X0216875Y0147783D01*
X0216858Y0147724D01*
X0216837Y0147666D01*
X0216812Y0147609D01*
X0216784Y0147554D01*
X0216753Y0147501D01*
X0216718Y0147450D01*
X0216680Y0147401D01*
X0216639Y0147354D01*
X0216596Y0147311D01*
X0216549Y0147270D01*
X0216500Y0147232D01*
X0216449Y0147197D01*
X0216396Y0147166D01*
X0216341Y0147138D01*
X0216284Y0147113D01*
X0216226Y0147092D01*
X0216167Y0147075D01*
X0216106Y0147061D01*
X0216045Y0147052D01*
X0215984Y0147046D01*
X0215922Y0147044D01*
X0215922Y0147043D02*
X0194268Y0147043D01*
X0194268Y0147044D02*
X0194206Y0147046D01*
X0194145Y0147052D01*
X0194084Y0147061D01*
X0194023Y0147075D01*
X0193964Y0147092D01*
X0193906Y0147113D01*
X0193849Y0147138D01*
X0193794Y0147166D01*
X0193741Y0147197D01*
X0193690Y0147232D01*
X0193641Y0147270D01*
X0193594Y0147311D01*
X0193551Y0147354D01*
X0193510Y0147401D01*
X0193472Y0147450D01*
X0193437Y0147501D01*
X0193406Y0147554D01*
X0193378Y0147609D01*
X0193353Y0147666D01*
X0193332Y0147724D01*
X0193315Y0147783D01*
X0193301Y0147844D01*
X0193292Y0147905D01*
X0193286Y0147966D01*
X0193284Y0148028D01*
X0193284Y0149602D01*
D16*
X0180777Y0145959D02*
X0178909Y0145959D01*
X0179843Y0145959D02*
X0179843Y0143157D01*
X0178015Y0143624D02*
X0177548Y0143157D01*
X0176614Y0143157D01*
X0176146Y0143624D01*
X0175252Y0143157D02*
X0174318Y0144091D01*
X0174785Y0144091D02*
X0173384Y0144091D01*
X0173384Y0143157D02*
X0173384Y0145959D01*
X0174785Y0145959D01*
X0175252Y0145492D01*
X0175252Y0144558D01*
X0174785Y0144091D01*
X0176146Y0145025D02*
X0176614Y0144558D01*
X0177548Y0144558D01*
X0178015Y0144091D01*
X0178015Y0143624D01*
X0178015Y0145492D02*
X0177548Y0145959D01*
X0176614Y0145959D01*
X0176146Y0145492D01*
X0176146Y0145025D01*
X0210884Y0144709D02*
X0210884Y0141907D01*
X0210884Y0142841D02*
X0212285Y0142841D01*
X0212752Y0143308D01*
X0212752Y0144242D01*
X0212285Y0144709D01*
X0210884Y0144709D01*
X0213646Y0144709D02*
X0215048Y0144709D01*
X0215515Y0144242D01*
X0215515Y0143308D01*
X0215048Y0142841D01*
X0213646Y0142841D01*
X0213646Y0141907D02*
X0213646Y0144709D01*
X0214581Y0142841D02*
X0215515Y0141907D01*
X0216409Y0142374D02*
X0216876Y0141907D01*
X0217810Y0141907D01*
X0218277Y0142374D01*
X0218277Y0143308D01*
X0217343Y0143308D01*
X0216409Y0144242D02*
X0216409Y0142374D01*
X0216409Y0144242D02*
X0216876Y0144709D01*
X0217810Y0144709D01*
X0218277Y0144242D01*
X0141112Y0144560D02*
X0140645Y0144093D01*
X0139244Y0144093D01*
X0140178Y0144093D02*
X0141112Y0143159D01*
X0141112Y0144560D02*
X0141112Y0145494D01*
X0140645Y0145961D01*
X0139244Y0145961D01*
X0139244Y0143159D01*
X0138350Y0143159D02*
X0136481Y0143159D01*
X0136481Y0145961D01*
X0135587Y0145494D02*
X0135120Y0145961D01*
X0134186Y0145961D01*
X0133719Y0145494D01*
X0133719Y0143626D01*
X0134186Y0143159D01*
X0135120Y0143159D01*
X0135587Y0143626D01*
D17*
X0201095Y0126833D02*
X0201095Y0109833D01*
X0209095Y0109833D02*
X0209095Y0126833D01*
D18*
X0209495Y0110533D02*
X0200695Y0110533D01*
X0200695Y0108533D01*
X0209495Y0108533D01*
X0209495Y0110533D01*
X0200695Y0110533D01*
X0200695Y0108533D01*
X0209495Y0108533D01*
X0209495Y0110533D01*
X0209495Y0110525D02*
X0200695Y0110525D01*
X0209495Y0110525D01*
X0209495Y0110426D02*
X0200695Y0110426D01*
X0209495Y0110426D01*
X0209495Y0110327D02*
X0200695Y0110327D01*
X0209495Y0110327D01*
X0209495Y0110229D02*
X0200695Y0110229D01*
X0209495Y0110229D01*
X0209495Y0110130D02*
X0200695Y0110130D01*
X0209495Y0110130D01*
X0209495Y0110032D02*
X0200695Y0110032D01*
X0209495Y0110032D01*
X0209495Y0109933D02*
X0200695Y0109933D01*
X0209495Y0109933D01*
X0209495Y0109835D02*
X0200695Y0109835D01*
X0209495Y0109835D01*
X0209495Y0109736D02*
X0200695Y0109736D01*
X0209495Y0109736D01*
X0209495Y0109638D02*
X0200695Y0109638D01*
X0209495Y0109638D01*
X0209495Y0109539D02*
X0200695Y0109539D01*
X0209495Y0109539D01*
X0209495Y0109441D02*
X0200695Y0109441D01*
X0209495Y0109441D01*
X0209495Y0109342D02*
X0200695Y0109342D01*
X0209495Y0109342D01*
X0209495Y0109244D02*
X0200695Y0109244D01*
X0209495Y0109244D01*
X0209495Y0109145D02*
X0200695Y0109145D01*
X0209495Y0109145D01*
X0209495Y0109047D02*
X0200695Y0109047D01*
X0209495Y0109047D01*
X0209495Y0108948D02*
X0200695Y0108948D01*
X0209495Y0108948D01*
X0209495Y0108850D02*
X0200695Y0108850D01*
X0209495Y0108850D01*
X0209495Y0108751D02*
X0200695Y0108751D01*
X0209495Y0108751D01*
X0209495Y0108653D02*
X0200695Y0108653D01*
X0209495Y0108653D01*
X0209495Y0108554D02*
X0200695Y0108554D01*
X0209495Y0108554D01*
M02*
