G75*
%MOIN*%
%OFA0B0*%
%FSLAX25Y25*%
%IPPOS*%
%LPD*%
%AMOC8*
5,1,8,0,0,1.08239X$1,22.5*
%
%ADD10C,0.00000*%
%ADD11C,0.01260*%
%ADD12C,0.06300*%
%ADD13R,0.05118X0.05906*%
%ADD14R,0.06299X0.11811*%
%ADD15R,0.24409X0.22835*%
%ADD16R,0.05906X0.05118*%
%ADD17C,0.07050*%
%ADD18OC8,0.06300*%
%ADD19C,0.06000*%
%ADD20C,0.03562*%
%ADD21C,0.01200*%
%ADD22C,0.01600*%
%ADD23C,0.02400*%
%ADD24C,0.08600*%
%ADD25OC8,0.03562*%
D10*
X0052477Y0025103D02*
X0261020Y0024709D01*
X0261020Y0209788D01*
X0052477Y0209788D01*
X0052477Y0025103D01*
X0056060Y0038252D02*
X0056062Y0038410D01*
X0056068Y0038568D01*
X0056078Y0038726D01*
X0056092Y0038884D01*
X0056110Y0039041D01*
X0056131Y0039198D01*
X0056157Y0039354D01*
X0056187Y0039510D01*
X0056220Y0039665D01*
X0056258Y0039818D01*
X0056299Y0039971D01*
X0056344Y0040123D01*
X0056393Y0040274D01*
X0056446Y0040423D01*
X0056502Y0040571D01*
X0056562Y0040717D01*
X0056626Y0040862D01*
X0056694Y0041005D01*
X0056765Y0041147D01*
X0056839Y0041287D01*
X0056917Y0041424D01*
X0056999Y0041560D01*
X0057083Y0041694D01*
X0057172Y0041825D01*
X0057263Y0041954D01*
X0057358Y0042081D01*
X0057455Y0042206D01*
X0057556Y0042328D01*
X0057660Y0042447D01*
X0057767Y0042564D01*
X0057877Y0042678D01*
X0057990Y0042789D01*
X0058105Y0042898D01*
X0058223Y0043003D01*
X0058344Y0043105D01*
X0058467Y0043205D01*
X0058593Y0043301D01*
X0058721Y0043394D01*
X0058851Y0043484D01*
X0058984Y0043570D01*
X0059119Y0043654D01*
X0059255Y0043733D01*
X0059394Y0043810D01*
X0059535Y0043882D01*
X0059677Y0043952D01*
X0059821Y0044017D01*
X0059967Y0044079D01*
X0060114Y0044137D01*
X0060263Y0044192D01*
X0060413Y0044243D01*
X0060564Y0044290D01*
X0060716Y0044333D01*
X0060869Y0044372D01*
X0061024Y0044408D01*
X0061179Y0044439D01*
X0061335Y0044467D01*
X0061491Y0044491D01*
X0061648Y0044511D01*
X0061806Y0044527D01*
X0061963Y0044539D01*
X0062122Y0044547D01*
X0062280Y0044551D01*
X0062438Y0044551D01*
X0062596Y0044547D01*
X0062755Y0044539D01*
X0062912Y0044527D01*
X0063070Y0044511D01*
X0063227Y0044491D01*
X0063383Y0044467D01*
X0063539Y0044439D01*
X0063694Y0044408D01*
X0063849Y0044372D01*
X0064002Y0044333D01*
X0064154Y0044290D01*
X0064305Y0044243D01*
X0064455Y0044192D01*
X0064604Y0044137D01*
X0064751Y0044079D01*
X0064897Y0044017D01*
X0065041Y0043952D01*
X0065183Y0043882D01*
X0065324Y0043810D01*
X0065463Y0043733D01*
X0065599Y0043654D01*
X0065734Y0043570D01*
X0065867Y0043484D01*
X0065997Y0043394D01*
X0066125Y0043301D01*
X0066251Y0043205D01*
X0066374Y0043105D01*
X0066495Y0043003D01*
X0066613Y0042898D01*
X0066728Y0042789D01*
X0066841Y0042678D01*
X0066951Y0042564D01*
X0067058Y0042447D01*
X0067162Y0042328D01*
X0067263Y0042206D01*
X0067360Y0042081D01*
X0067455Y0041954D01*
X0067546Y0041825D01*
X0067635Y0041694D01*
X0067719Y0041560D01*
X0067801Y0041424D01*
X0067879Y0041287D01*
X0067953Y0041147D01*
X0068024Y0041005D01*
X0068092Y0040862D01*
X0068156Y0040717D01*
X0068216Y0040571D01*
X0068272Y0040423D01*
X0068325Y0040274D01*
X0068374Y0040123D01*
X0068419Y0039971D01*
X0068460Y0039818D01*
X0068498Y0039665D01*
X0068531Y0039510D01*
X0068561Y0039354D01*
X0068587Y0039198D01*
X0068608Y0039041D01*
X0068626Y0038884D01*
X0068640Y0038726D01*
X0068650Y0038568D01*
X0068656Y0038410D01*
X0068658Y0038252D01*
X0068656Y0038094D01*
X0068650Y0037936D01*
X0068640Y0037778D01*
X0068626Y0037620D01*
X0068608Y0037463D01*
X0068587Y0037306D01*
X0068561Y0037150D01*
X0068531Y0036994D01*
X0068498Y0036839D01*
X0068460Y0036686D01*
X0068419Y0036533D01*
X0068374Y0036381D01*
X0068325Y0036230D01*
X0068272Y0036081D01*
X0068216Y0035933D01*
X0068156Y0035787D01*
X0068092Y0035642D01*
X0068024Y0035499D01*
X0067953Y0035357D01*
X0067879Y0035217D01*
X0067801Y0035080D01*
X0067719Y0034944D01*
X0067635Y0034810D01*
X0067546Y0034679D01*
X0067455Y0034550D01*
X0067360Y0034423D01*
X0067263Y0034298D01*
X0067162Y0034176D01*
X0067058Y0034057D01*
X0066951Y0033940D01*
X0066841Y0033826D01*
X0066728Y0033715D01*
X0066613Y0033606D01*
X0066495Y0033501D01*
X0066374Y0033399D01*
X0066251Y0033299D01*
X0066125Y0033203D01*
X0065997Y0033110D01*
X0065867Y0033020D01*
X0065734Y0032934D01*
X0065599Y0032850D01*
X0065463Y0032771D01*
X0065324Y0032694D01*
X0065183Y0032622D01*
X0065041Y0032552D01*
X0064897Y0032487D01*
X0064751Y0032425D01*
X0064604Y0032367D01*
X0064455Y0032312D01*
X0064305Y0032261D01*
X0064154Y0032214D01*
X0064002Y0032171D01*
X0063849Y0032132D01*
X0063694Y0032096D01*
X0063539Y0032065D01*
X0063383Y0032037D01*
X0063227Y0032013D01*
X0063070Y0031993D01*
X0062912Y0031977D01*
X0062755Y0031965D01*
X0062596Y0031957D01*
X0062438Y0031953D01*
X0062280Y0031953D01*
X0062122Y0031957D01*
X0061963Y0031965D01*
X0061806Y0031977D01*
X0061648Y0031993D01*
X0061491Y0032013D01*
X0061335Y0032037D01*
X0061179Y0032065D01*
X0061024Y0032096D01*
X0060869Y0032132D01*
X0060716Y0032171D01*
X0060564Y0032214D01*
X0060413Y0032261D01*
X0060263Y0032312D01*
X0060114Y0032367D01*
X0059967Y0032425D01*
X0059821Y0032487D01*
X0059677Y0032552D01*
X0059535Y0032622D01*
X0059394Y0032694D01*
X0059255Y0032771D01*
X0059119Y0032850D01*
X0058984Y0032934D01*
X0058851Y0033020D01*
X0058721Y0033110D01*
X0058593Y0033203D01*
X0058467Y0033299D01*
X0058344Y0033399D01*
X0058223Y0033501D01*
X0058105Y0033606D01*
X0057990Y0033715D01*
X0057877Y0033826D01*
X0057767Y0033940D01*
X0057660Y0034057D01*
X0057556Y0034176D01*
X0057455Y0034298D01*
X0057358Y0034423D01*
X0057263Y0034550D01*
X0057172Y0034679D01*
X0057083Y0034810D01*
X0056999Y0034944D01*
X0056917Y0035080D01*
X0056839Y0035217D01*
X0056765Y0035357D01*
X0056694Y0035499D01*
X0056626Y0035642D01*
X0056562Y0035787D01*
X0056502Y0035933D01*
X0056446Y0036081D01*
X0056393Y0036230D01*
X0056344Y0036381D01*
X0056299Y0036533D01*
X0056258Y0036686D01*
X0056220Y0036839D01*
X0056187Y0036994D01*
X0056157Y0037150D01*
X0056131Y0037306D01*
X0056110Y0037463D01*
X0056092Y0037620D01*
X0056078Y0037778D01*
X0056068Y0037936D01*
X0056062Y0038094D01*
X0056060Y0038252D01*
X0052595Y0048951D02*
X0253796Y0048951D01*
X0243540Y0038646D02*
X0243542Y0038804D01*
X0243548Y0038962D01*
X0243558Y0039120D01*
X0243572Y0039278D01*
X0243590Y0039435D01*
X0243611Y0039592D01*
X0243637Y0039748D01*
X0243667Y0039904D01*
X0243700Y0040059D01*
X0243738Y0040212D01*
X0243779Y0040365D01*
X0243824Y0040517D01*
X0243873Y0040668D01*
X0243926Y0040817D01*
X0243982Y0040965D01*
X0244042Y0041111D01*
X0244106Y0041256D01*
X0244174Y0041399D01*
X0244245Y0041541D01*
X0244319Y0041681D01*
X0244397Y0041818D01*
X0244479Y0041954D01*
X0244563Y0042088D01*
X0244652Y0042219D01*
X0244743Y0042348D01*
X0244838Y0042475D01*
X0244935Y0042600D01*
X0245036Y0042722D01*
X0245140Y0042841D01*
X0245247Y0042958D01*
X0245357Y0043072D01*
X0245470Y0043183D01*
X0245585Y0043292D01*
X0245703Y0043397D01*
X0245824Y0043499D01*
X0245947Y0043599D01*
X0246073Y0043695D01*
X0246201Y0043788D01*
X0246331Y0043878D01*
X0246464Y0043964D01*
X0246599Y0044048D01*
X0246735Y0044127D01*
X0246874Y0044204D01*
X0247015Y0044276D01*
X0247157Y0044346D01*
X0247301Y0044411D01*
X0247447Y0044473D01*
X0247594Y0044531D01*
X0247743Y0044586D01*
X0247893Y0044637D01*
X0248044Y0044684D01*
X0248196Y0044727D01*
X0248349Y0044766D01*
X0248504Y0044802D01*
X0248659Y0044833D01*
X0248815Y0044861D01*
X0248971Y0044885D01*
X0249128Y0044905D01*
X0249286Y0044921D01*
X0249443Y0044933D01*
X0249602Y0044941D01*
X0249760Y0044945D01*
X0249918Y0044945D01*
X0250076Y0044941D01*
X0250235Y0044933D01*
X0250392Y0044921D01*
X0250550Y0044905D01*
X0250707Y0044885D01*
X0250863Y0044861D01*
X0251019Y0044833D01*
X0251174Y0044802D01*
X0251329Y0044766D01*
X0251482Y0044727D01*
X0251634Y0044684D01*
X0251785Y0044637D01*
X0251935Y0044586D01*
X0252084Y0044531D01*
X0252231Y0044473D01*
X0252377Y0044411D01*
X0252521Y0044346D01*
X0252663Y0044276D01*
X0252804Y0044204D01*
X0252943Y0044127D01*
X0253079Y0044048D01*
X0253214Y0043964D01*
X0253347Y0043878D01*
X0253477Y0043788D01*
X0253605Y0043695D01*
X0253731Y0043599D01*
X0253854Y0043499D01*
X0253975Y0043397D01*
X0254093Y0043292D01*
X0254208Y0043183D01*
X0254321Y0043072D01*
X0254431Y0042958D01*
X0254538Y0042841D01*
X0254642Y0042722D01*
X0254743Y0042600D01*
X0254840Y0042475D01*
X0254935Y0042348D01*
X0255026Y0042219D01*
X0255115Y0042088D01*
X0255199Y0041954D01*
X0255281Y0041818D01*
X0255359Y0041681D01*
X0255433Y0041541D01*
X0255504Y0041399D01*
X0255572Y0041256D01*
X0255636Y0041111D01*
X0255696Y0040965D01*
X0255752Y0040817D01*
X0255805Y0040668D01*
X0255854Y0040517D01*
X0255899Y0040365D01*
X0255940Y0040212D01*
X0255978Y0040059D01*
X0256011Y0039904D01*
X0256041Y0039748D01*
X0256067Y0039592D01*
X0256088Y0039435D01*
X0256106Y0039278D01*
X0256120Y0039120D01*
X0256130Y0038962D01*
X0256136Y0038804D01*
X0256138Y0038646D01*
X0256136Y0038488D01*
X0256130Y0038330D01*
X0256120Y0038172D01*
X0256106Y0038014D01*
X0256088Y0037857D01*
X0256067Y0037700D01*
X0256041Y0037544D01*
X0256011Y0037388D01*
X0255978Y0037233D01*
X0255940Y0037080D01*
X0255899Y0036927D01*
X0255854Y0036775D01*
X0255805Y0036624D01*
X0255752Y0036475D01*
X0255696Y0036327D01*
X0255636Y0036181D01*
X0255572Y0036036D01*
X0255504Y0035893D01*
X0255433Y0035751D01*
X0255359Y0035611D01*
X0255281Y0035474D01*
X0255199Y0035338D01*
X0255115Y0035204D01*
X0255026Y0035073D01*
X0254935Y0034944D01*
X0254840Y0034817D01*
X0254743Y0034692D01*
X0254642Y0034570D01*
X0254538Y0034451D01*
X0254431Y0034334D01*
X0254321Y0034220D01*
X0254208Y0034109D01*
X0254093Y0034000D01*
X0253975Y0033895D01*
X0253854Y0033793D01*
X0253731Y0033693D01*
X0253605Y0033597D01*
X0253477Y0033504D01*
X0253347Y0033414D01*
X0253214Y0033328D01*
X0253079Y0033244D01*
X0252943Y0033165D01*
X0252804Y0033088D01*
X0252663Y0033016D01*
X0252521Y0032946D01*
X0252377Y0032881D01*
X0252231Y0032819D01*
X0252084Y0032761D01*
X0251935Y0032706D01*
X0251785Y0032655D01*
X0251634Y0032608D01*
X0251482Y0032565D01*
X0251329Y0032526D01*
X0251174Y0032490D01*
X0251019Y0032459D01*
X0250863Y0032431D01*
X0250707Y0032407D01*
X0250550Y0032387D01*
X0250392Y0032371D01*
X0250235Y0032359D01*
X0250076Y0032351D01*
X0249918Y0032347D01*
X0249760Y0032347D01*
X0249602Y0032351D01*
X0249443Y0032359D01*
X0249286Y0032371D01*
X0249128Y0032387D01*
X0248971Y0032407D01*
X0248815Y0032431D01*
X0248659Y0032459D01*
X0248504Y0032490D01*
X0248349Y0032526D01*
X0248196Y0032565D01*
X0248044Y0032608D01*
X0247893Y0032655D01*
X0247743Y0032706D01*
X0247594Y0032761D01*
X0247447Y0032819D01*
X0247301Y0032881D01*
X0247157Y0032946D01*
X0247015Y0033016D01*
X0246874Y0033088D01*
X0246735Y0033165D01*
X0246599Y0033244D01*
X0246464Y0033328D01*
X0246331Y0033414D01*
X0246201Y0033504D01*
X0246073Y0033597D01*
X0245947Y0033693D01*
X0245824Y0033793D01*
X0245703Y0033895D01*
X0245585Y0034000D01*
X0245470Y0034109D01*
X0245357Y0034220D01*
X0245247Y0034334D01*
X0245140Y0034451D01*
X0245036Y0034570D01*
X0244935Y0034692D01*
X0244838Y0034817D01*
X0244743Y0034944D01*
X0244652Y0035073D01*
X0244563Y0035204D01*
X0244479Y0035338D01*
X0244397Y0035474D01*
X0244319Y0035611D01*
X0244245Y0035751D01*
X0244174Y0035893D01*
X0244106Y0036036D01*
X0244042Y0036181D01*
X0243982Y0036327D01*
X0243926Y0036475D01*
X0243873Y0036624D01*
X0243824Y0036775D01*
X0243779Y0036927D01*
X0243738Y0037080D01*
X0243700Y0037233D01*
X0243667Y0037388D01*
X0243637Y0037544D01*
X0243611Y0037700D01*
X0243590Y0037857D01*
X0243572Y0038014D01*
X0243558Y0038172D01*
X0243548Y0038330D01*
X0243542Y0038488D01*
X0243540Y0038646D01*
X0243540Y0195929D02*
X0243542Y0196087D01*
X0243548Y0196245D01*
X0243558Y0196403D01*
X0243572Y0196561D01*
X0243590Y0196718D01*
X0243611Y0196875D01*
X0243637Y0197031D01*
X0243667Y0197187D01*
X0243700Y0197342D01*
X0243738Y0197495D01*
X0243779Y0197648D01*
X0243824Y0197800D01*
X0243873Y0197951D01*
X0243926Y0198100D01*
X0243982Y0198248D01*
X0244042Y0198394D01*
X0244106Y0198539D01*
X0244174Y0198682D01*
X0244245Y0198824D01*
X0244319Y0198964D01*
X0244397Y0199101D01*
X0244479Y0199237D01*
X0244563Y0199371D01*
X0244652Y0199502D01*
X0244743Y0199631D01*
X0244838Y0199758D01*
X0244935Y0199883D01*
X0245036Y0200005D01*
X0245140Y0200124D01*
X0245247Y0200241D01*
X0245357Y0200355D01*
X0245470Y0200466D01*
X0245585Y0200575D01*
X0245703Y0200680D01*
X0245824Y0200782D01*
X0245947Y0200882D01*
X0246073Y0200978D01*
X0246201Y0201071D01*
X0246331Y0201161D01*
X0246464Y0201247D01*
X0246599Y0201331D01*
X0246735Y0201410D01*
X0246874Y0201487D01*
X0247015Y0201559D01*
X0247157Y0201629D01*
X0247301Y0201694D01*
X0247447Y0201756D01*
X0247594Y0201814D01*
X0247743Y0201869D01*
X0247893Y0201920D01*
X0248044Y0201967D01*
X0248196Y0202010D01*
X0248349Y0202049D01*
X0248504Y0202085D01*
X0248659Y0202116D01*
X0248815Y0202144D01*
X0248971Y0202168D01*
X0249128Y0202188D01*
X0249286Y0202204D01*
X0249443Y0202216D01*
X0249602Y0202224D01*
X0249760Y0202228D01*
X0249918Y0202228D01*
X0250076Y0202224D01*
X0250235Y0202216D01*
X0250392Y0202204D01*
X0250550Y0202188D01*
X0250707Y0202168D01*
X0250863Y0202144D01*
X0251019Y0202116D01*
X0251174Y0202085D01*
X0251329Y0202049D01*
X0251482Y0202010D01*
X0251634Y0201967D01*
X0251785Y0201920D01*
X0251935Y0201869D01*
X0252084Y0201814D01*
X0252231Y0201756D01*
X0252377Y0201694D01*
X0252521Y0201629D01*
X0252663Y0201559D01*
X0252804Y0201487D01*
X0252943Y0201410D01*
X0253079Y0201331D01*
X0253214Y0201247D01*
X0253347Y0201161D01*
X0253477Y0201071D01*
X0253605Y0200978D01*
X0253731Y0200882D01*
X0253854Y0200782D01*
X0253975Y0200680D01*
X0254093Y0200575D01*
X0254208Y0200466D01*
X0254321Y0200355D01*
X0254431Y0200241D01*
X0254538Y0200124D01*
X0254642Y0200005D01*
X0254743Y0199883D01*
X0254840Y0199758D01*
X0254935Y0199631D01*
X0255026Y0199502D01*
X0255115Y0199371D01*
X0255199Y0199237D01*
X0255281Y0199101D01*
X0255359Y0198964D01*
X0255433Y0198824D01*
X0255504Y0198682D01*
X0255572Y0198539D01*
X0255636Y0198394D01*
X0255696Y0198248D01*
X0255752Y0198100D01*
X0255805Y0197951D01*
X0255854Y0197800D01*
X0255899Y0197648D01*
X0255940Y0197495D01*
X0255978Y0197342D01*
X0256011Y0197187D01*
X0256041Y0197031D01*
X0256067Y0196875D01*
X0256088Y0196718D01*
X0256106Y0196561D01*
X0256120Y0196403D01*
X0256130Y0196245D01*
X0256136Y0196087D01*
X0256138Y0195929D01*
X0256136Y0195771D01*
X0256130Y0195613D01*
X0256120Y0195455D01*
X0256106Y0195297D01*
X0256088Y0195140D01*
X0256067Y0194983D01*
X0256041Y0194827D01*
X0256011Y0194671D01*
X0255978Y0194516D01*
X0255940Y0194363D01*
X0255899Y0194210D01*
X0255854Y0194058D01*
X0255805Y0193907D01*
X0255752Y0193758D01*
X0255696Y0193610D01*
X0255636Y0193464D01*
X0255572Y0193319D01*
X0255504Y0193176D01*
X0255433Y0193034D01*
X0255359Y0192894D01*
X0255281Y0192757D01*
X0255199Y0192621D01*
X0255115Y0192487D01*
X0255026Y0192356D01*
X0254935Y0192227D01*
X0254840Y0192100D01*
X0254743Y0191975D01*
X0254642Y0191853D01*
X0254538Y0191734D01*
X0254431Y0191617D01*
X0254321Y0191503D01*
X0254208Y0191392D01*
X0254093Y0191283D01*
X0253975Y0191178D01*
X0253854Y0191076D01*
X0253731Y0190976D01*
X0253605Y0190880D01*
X0253477Y0190787D01*
X0253347Y0190697D01*
X0253214Y0190611D01*
X0253079Y0190527D01*
X0252943Y0190448D01*
X0252804Y0190371D01*
X0252663Y0190299D01*
X0252521Y0190229D01*
X0252377Y0190164D01*
X0252231Y0190102D01*
X0252084Y0190044D01*
X0251935Y0189989D01*
X0251785Y0189938D01*
X0251634Y0189891D01*
X0251482Y0189848D01*
X0251329Y0189809D01*
X0251174Y0189773D01*
X0251019Y0189742D01*
X0250863Y0189714D01*
X0250707Y0189690D01*
X0250550Y0189670D01*
X0250392Y0189654D01*
X0250235Y0189642D01*
X0250076Y0189634D01*
X0249918Y0189630D01*
X0249760Y0189630D01*
X0249602Y0189634D01*
X0249443Y0189642D01*
X0249286Y0189654D01*
X0249128Y0189670D01*
X0248971Y0189690D01*
X0248815Y0189714D01*
X0248659Y0189742D01*
X0248504Y0189773D01*
X0248349Y0189809D01*
X0248196Y0189848D01*
X0248044Y0189891D01*
X0247893Y0189938D01*
X0247743Y0189989D01*
X0247594Y0190044D01*
X0247447Y0190102D01*
X0247301Y0190164D01*
X0247157Y0190229D01*
X0247015Y0190299D01*
X0246874Y0190371D01*
X0246735Y0190448D01*
X0246599Y0190527D01*
X0246464Y0190611D01*
X0246331Y0190697D01*
X0246201Y0190787D01*
X0246073Y0190880D01*
X0245947Y0190976D01*
X0245824Y0191076D01*
X0245703Y0191178D01*
X0245585Y0191283D01*
X0245470Y0191392D01*
X0245357Y0191503D01*
X0245247Y0191617D01*
X0245140Y0191734D01*
X0245036Y0191853D01*
X0244935Y0191975D01*
X0244838Y0192100D01*
X0244743Y0192227D01*
X0244652Y0192356D01*
X0244563Y0192487D01*
X0244479Y0192621D01*
X0244397Y0192757D01*
X0244319Y0192894D01*
X0244245Y0193034D01*
X0244174Y0193176D01*
X0244106Y0193319D01*
X0244042Y0193464D01*
X0243982Y0193610D01*
X0243926Y0193758D01*
X0243873Y0193907D01*
X0243824Y0194058D01*
X0243779Y0194210D01*
X0243738Y0194363D01*
X0243700Y0194516D01*
X0243667Y0194671D01*
X0243637Y0194827D01*
X0243611Y0194983D01*
X0243590Y0195140D01*
X0243572Y0195297D01*
X0243558Y0195455D01*
X0243548Y0195613D01*
X0243542Y0195771D01*
X0243540Y0195929D01*
X0056454Y0195929D02*
X0056456Y0196087D01*
X0056462Y0196245D01*
X0056472Y0196403D01*
X0056486Y0196561D01*
X0056504Y0196718D01*
X0056525Y0196875D01*
X0056551Y0197031D01*
X0056581Y0197187D01*
X0056614Y0197342D01*
X0056652Y0197495D01*
X0056693Y0197648D01*
X0056738Y0197800D01*
X0056787Y0197951D01*
X0056840Y0198100D01*
X0056896Y0198248D01*
X0056956Y0198394D01*
X0057020Y0198539D01*
X0057088Y0198682D01*
X0057159Y0198824D01*
X0057233Y0198964D01*
X0057311Y0199101D01*
X0057393Y0199237D01*
X0057477Y0199371D01*
X0057566Y0199502D01*
X0057657Y0199631D01*
X0057752Y0199758D01*
X0057849Y0199883D01*
X0057950Y0200005D01*
X0058054Y0200124D01*
X0058161Y0200241D01*
X0058271Y0200355D01*
X0058384Y0200466D01*
X0058499Y0200575D01*
X0058617Y0200680D01*
X0058738Y0200782D01*
X0058861Y0200882D01*
X0058987Y0200978D01*
X0059115Y0201071D01*
X0059245Y0201161D01*
X0059378Y0201247D01*
X0059513Y0201331D01*
X0059649Y0201410D01*
X0059788Y0201487D01*
X0059929Y0201559D01*
X0060071Y0201629D01*
X0060215Y0201694D01*
X0060361Y0201756D01*
X0060508Y0201814D01*
X0060657Y0201869D01*
X0060807Y0201920D01*
X0060958Y0201967D01*
X0061110Y0202010D01*
X0061263Y0202049D01*
X0061418Y0202085D01*
X0061573Y0202116D01*
X0061729Y0202144D01*
X0061885Y0202168D01*
X0062042Y0202188D01*
X0062200Y0202204D01*
X0062357Y0202216D01*
X0062516Y0202224D01*
X0062674Y0202228D01*
X0062832Y0202228D01*
X0062990Y0202224D01*
X0063149Y0202216D01*
X0063306Y0202204D01*
X0063464Y0202188D01*
X0063621Y0202168D01*
X0063777Y0202144D01*
X0063933Y0202116D01*
X0064088Y0202085D01*
X0064243Y0202049D01*
X0064396Y0202010D01*
X0064548Y0201967D01*
X0064699Y0201920D01*
X0064849Y0201869D01*
X0064998Y0201814D01*
X0065145Y0201756D01*
X0065291Y0201694D01*
X0065435Y0201629D01*
X0065577Y0201559D01*
X0065718Y0201487D01*
X0065857Y0201410D01*
X0065993Y0201331D01*
X0066128Y0201247D01*
X0066261Y0201161D01*
X0066391Y0201071D01*
X0066519Y0200978D01*
X0066645Y0200882D01*
X0066768Y0200782D01*
X0066889Y0200680D01*
X0067007Y0200575D01*
X0067122Y0200466D01*
X0067235Y0200355D01*
X0067345Y0200241D01*
X0067452Y0200124D01*
X0067556Y0200005D01*
X0067657Y0199883D01*
X0067754Y0199758D01*
X0067849Y0199631D01*
X0067940Y0199502D01*
X0068029Y0199371D01*
X0068113Y0199237D01*
X0068195Y0199101D01*
X0068273Y0198964D01*
X0068347Y0198824D01*
X0068418Y0198682D01*
X0068486Y0198539D01*
X0068550Y0198394D01*
X0068610Y0198248D01*
X0068666Y0198100D01*
X0068719Y0197951D01*
X0068768Y0197800D01*
X0068813Y0197648D01*
X0068854Y0197495D01*
X0068892Y0197342D01*
X0068925Y0197187D01*
X0068955Y0197031D01*
X0068981Y0196875D01*
X0069002Y0196718D01*
X0069020Y0196561D01*
X0069034Y0196403D01*
X0069044Y0196245D01*
X0069050Y0196087D01*
X0069052Y0195929D01*
X0069050Y0195771D01*
X0069044Y0195613D01*
X0069034Y0195455D01*
X0069020Y0195297D01*
X0069002Y0195140D01*
X0068981Y0194983D01*
X0068955Y0194827D01*
X0068925Y0194671D01*
X0068892Y0194516D01*
X0068854Y0194363D01*
X0068813Y0194210D01*
X0068768Y0194058D01*
X0068719Y0193907D01*
X0068666Y0193758D01*
X0068610Y0193610D01*
X0068550Y0193464D01*
X0068486Y0193319D01*
X0068418Y0193176D01*
X0068347Y0193034D01*
X0068273Y0192894D01*
X0068195Y0192757D01*
X0068113Y0192621D01*
X0068029Y0192487D01*
X0067940Y0192356D01*
X0067849Y0192227D01*
X0067754Y0192100D01*
X0067657Y0191975D01*
X0067556Y0191853D01*
X0067452Y0191734D01*
X0067345Y0191617D01*
X0067235Y0191503D01*
X0067122Y0191392D01*
X0067007Y0191283D01*
X0066889Y0191178D01*
X0066768Y0191076D01*
X0066645Y0190976D01*
X0066519Y0190880D01*
X0066391Y0190787D01*
X0066261Y0190697D01*
X0066128Y0190611D01*
X0065993Y0190527D01*
X0065857Y0190448D01*
X0065718Y0190371D01*
X0065577Y0190299D01*
X0065435Y0190229D01*
X0065291Y0190164D01*
X0065145Y0190102D01*
X0064998Y0190044D01*
X0064849Y0189989D01*
X0064699Y0189938D01*
X0064548Y0189891D01*
X0064396Y0189848D01*
X0064243Y0189809D01*
X0064088Y0189773D01*
X0063933Y0189742D01*
X0063777Y0189714D01*
X0063621Y0189690D01*
X0063464Y0189670D01*
X0063306Y0189654D01*
X0063149Y0189642D01*
X0062990Y0189634D01*
X0062832Y0189630D01*
X0062674Y0189630D01*
X0062516Y0189634D01*
X0062357Y0189642D01*
X0062200Y0189654D01*
X0062042Y0189670D01*
X0061885Y0189690D01*
X0061729Y0189714D01*
X0061573Y0189742D01*
X0061418Y0189773D01*
X0061263Y0189809D01*
X0061110Y0189848D01*
X0060958Y0189891D01*
X0060807Y0189938D01*
X0060657Y0189989D01*
X0060508Y0190044D01*
X0060361Y0190102D01*
X0060215Y0190164D01*
X0060071Y0190229D01*
X0059929Y0190299D01*
X0059788Y0190371D01*
X0059649Y0190448D01*
X0059513Y0190527D01*
X0059378Y0190611D01*
X0059245Y0190697D01*
X0059115Y0190787D01*
X0058987Y0190880D01*
X0058861Y0190976D01*
X0058738Y0191076D01*
X0058617Y0191178D01*
X0058499Y0191283D01*
X0058384Y0191392D01*
X0058271Y0191503D01*
X0058161Y0191617D01*
X0058054Y0191734D01*
X0057950Y0191853D01*
X0057849Y0191975D01*
X0057752Y0192100D01*
X0057657Y0192227D01*
X0057566Y0192356D01*
X0057477Y0192487D01*
X0057393Y0192621D01*
X0057311Y0192757D01*
X0057233Y0192894D01*
X0057159Y0193034D01*
X0057088Y0193176D01*
X0057020Y0193319D01*
X0056956Y0193464D01*
X0056896Y0193610D01*
X0056840Y0193758D01*
X0056787Y0193907D01*
X0056738Y0194058D01*
X0056693Y0194210D01*
X0056652Y0194363D01*
X0056614Y0194516D01*
X0056581Y0194671D01*
X0056551Y0194827D01*
X0056525Y0194983D01*
X0056504Y0195140D01*
X0056486Y0195297D01*
X0056472Y0195455D01*
X0056462Y0195613D01*
X0056456Y0195771D01*
X0056454Y0195929D01*
D11*
X0167688Y0133019D02*
X0167058Y0132389D01*
X0167058Y0134477D01*
X0168533Y0135952D01*
X0170621Y0135952D01*
X0172096Y0134477D01*
X0172096Y0132389D01*
X0170621Y0130914D01*
X0168533Y0130914D01*
X0167058Y0132389D01*
X0168003Y0132781D01*
X0168003Y0134085D01*
X0168925Y0135007D01*
X0170229Y0135007D01*
X0171151Y0134085D01*
X0171151Y0132781D01*
X0170229Y0131859D01*
X0168925Y0131859D01*
X0168003Y0132781D01*
X0168948Y0133172D01*
X0168948Y0133694D01*
X0169316Y0134062D01*
X0169838Y0134062D01*
X0170206Y0133694D01*
X0170206Y0133172D01*
X0169838Y0132804D01*
X0169316Y0132804D01*
X0168948Y0133172D01*
D12*
X0176648Y0140504D03*
X0244060Y0107183D03*
D13*
X0217585Y0178951D03*
X0210105Y0178951D03*
X0198835Y0178951D03*
X0191355Y0178951D03*
X0138835Y0131451D03*
X0131355Y0131451D03*
X0107585Y0155201D03*
X0100105Y0155201D03*
X0090085Y0155201D03*
X0082605Y0155201D03*
X0067585Y0141451D03*
X0060105Y0141451D03*
X0060105Y0132701D03*
X0067585Y0132701D03*
D14*
X0063595Y0117219D03*
X0081595Y0117219D03*
X0098595Y0117219D03*
X0116595Y0117219D03*
X0133595Y0117219D03*
X0151595Y0117219D03*
X0168595Y0117219D03*
X0186595Y0117219D03*
X0203595Y0117219D03*
X0221595Y0117219D03*
D15*
X0212595Y0088951D03*
X0177595Y0088951D03*
X0142595Y0088951D03*
X0107595Y0088951D03*
X0072595Y0088951D03*
D16*
X0138845Y0172711D03*
X0138845Y0180191D03*
D17*
X0147595Y0069976D02*
X0147595Y0062926D01*
X0167595Y0062926D02*
X0167595Y0069976D01*
X0187595Y0069976D02*
X0187595Y0062926D01*
X0222595Y0062926D02*
X0222595Y0069976D01*
X0242595Y0069976D02*
X0242595Y0062926D01*
X0122595Y0062926D02*
X0122595Y0069976D01*
X0102595Y0069976D02*
X0102595Y0062926D01*
X0082595Y0062926D02*
X0082595Y0069976D01*
X0062595Y0069976D02*
X0062595Y0062926D01*
D18*
X0234060Y0107183D03*
D19*
X0240845Y0126451D02*
X0246845Y0126451D01*
X0246845Y0136451D02*
X0240845Y0136451D01*
X0170095Y0159701D02*
X0170095Y0165701D01*
X0160095Y0165701D02*
X0160095Y0159701D01*
X0150095Y0159701D02*
X0150095Y0165701D01*
D20*
X0146345Y0177701D03*
X0156345Y0178951D03*
X0182595Y0170201D03*
X0183845Y0177701D03*
X0226345Y0178951D03*
X0226345Y0168951D03*
X0187595Y0103951D03*
X0162595Y0093951D03*
X0127595Y0088951D03*
X0122595Y0106451D03*
X0092595Y0088951D03*
X0075095Y0106451D03*
X0060095Y0126451D03*
X0075095Y0152701D03*
X0115095Y0152701D03*
D21*
X0112595Y0155201D01*
X0107585Y0155201D01*
X0100105Y0155201D02*
X0100105Y0161441D01*
X0100095Y0161451D01*
X0090095Y0161451D02*
X0090085Y0161441D01*
X0090085Y0155201D01*
X0082605Y0155201D02*
X0077595Y0155201D01*
X0075095Y0152701D01*
X0064327Y0117219D02*
X0075095Y0106451D01*
X0064327Y0117219D02*
X0063595Y0117219D01*
X0137595Y0173951D02*
X0138845Y0172711D01*
X0146345Y0177701D02*
X0146345Y0178951D01*
X0145105Y0180191D01*
X0138845Y0180191D01*
X0182595Y0170201D02*
X0186345Y0173951D01*
X0198845Y0173951D01*
X0198845Y0178941D01*
X0198835Y0178951D01*
X0210105Y0178951D01*
X0217585Y0178951D02*
X0226345Y0178951D01*
X0191355Y0178951D02*
X0185095Y0178951D01*
X0183845Y0177701D01*
X0190085Y0177691D02*
X0191355Y0178951D01*
D22*
X0187196Y0180951D02*
X0184267Y0180951D01*
X0184198Y0180882D01*
X0183212Y0180882D01*
X0182043Y0180398D01*
X0181148Y0179503D01*
X0180664Y0178334D01*
X0180664Y0177068D01*
X0180933Y0176418D01*
X0180612Y0176551D01*
X0149312Y0176551D01*
X0149526Y0177068D01*
X0149526Y0178334D01*
X0149042Y0179503D01*
X0148147Y0180398D01*
X0147430Y0180695D01*
X0147174Y0180951D01*
X0145933Y0182191D01*
X0143398Y0182191D01*
X0143398Y0183413D01*
X0142860Y0183951D01*
X0252595Y0183951D01*
X0252595Y0051751D01*
X0235095Y0051751D01*
X0235095Y0083951D01*
X0227595Y0083951D01*
X0227595Y0103951D01*
X0193439Y0103951D01*
X0199492Y0110004D01*
X0199783Y0109713D01*
X0207407Y0109713D01*
X0208345Y0110650D01*
X0208345Y0123787D01*
X0207407Y0124724D01*
X0199783Y0124724D01*
X0198846Y0123787D01*
X0198846Y0115580D01*
X0189655Y0106390D01*
X0189397Y0106648D01*
X0188228Y0107132D01*
X0186962Y0107132D01*
X0185793Y0106648D01*
X0184898Y0105753D01*
X0184414Y0104584D01*
X0184414Y0103951D01*
X0164795Y0103951D01*
X0164795Y0109713D01*
X0172407Y0109713D01*
X0173345Y0110650D01*
X0173345Y0123787D01*
X0172407Y0124724D01*
X0164783Y0124724D01*
X0163846Y0123787D01*
X0163846Y0115580D01*
X0161684Y0113419D01*
X0160395Y0112130D01*
X0160395Y0103951D01*
X0129795Y0103951D01*
X0129795Y0109713D01*
X0137407Y0109713D01*
X0138345Y0110650D01*
X0138345Y0123787D01*
X0137407Y0124724D01*
X0129783Y0124724D01*
X0128846Y0123787D01*
X0128846Y0115580D01*
X0125395Y0112130D01*
X0125395Y0103951D01*
X0094795Y0103951D01*
X0094795Y0109713D01*
X0102407Y0109713D01*
X0103345Y0110650D01*
X0103345Y0123787D01*
X0102407Y0124724D01*
X0094783Y0124724D01*
X0093846Y0123787D01*
X0093846Y0115580D01*
X0091684Y0113419D01*
X0090395Y0112130D01*
X0090395Y0103951D01*
X0077094Y0103951D01*
X0077792Y0104649D01*
X0078276Y0105818D01*
X0078276Y0107084D01*
X0077792Y0108253D01*
X0076897Y0109148D01*
X0075728Y0109632D01*
X0074742Y0109632D01*
X0068345Y0116030D01*
X0068345Y0123787D01*
X0067407Y0124724D01*
X0062823Y0124724D01*
X0063276Y0125818D01*
X0063276Y0127084D01*
X0062835Y0128148D01*
X0063327Y0128148D01*
X0063704Y0128525D01*
X0063921Y0128308D01*
X0064331Y0128071D01*
X0064789Y0127948D01*
X0067106Y0127948D01*
X0067106Y0132221D01*
X0068065Y0132221D01*
X0068065Y0127948D01*
X0070381Y0127948D01*
X0070839Y0128071D01*
X0071250Y0128308D01*
X0071585Y0128643D01*
X0071822Y0129053D01*
X0071944Y0129511D01*
X0071944Y0132221D01*
X0068065Y0132221D01*
X0068065Y0133181D01*
X0067106Y0133181D01*
X0067106Y0137454D01*
X0067106Y0140971D01*
X0068065Y0140971D01*
X0068065Y0133181D01*
X0071944Y0133181D01*
X0071944Y0135891D01*
X0071822Y0136349D01*
X0071585Y0136759D01*
X0071268Y0137076D01*
X0071585Y0137393D01*
X0071822Y0137803D01*
X0071944Y0138261D01*
X0071944Y0140971D01*
X0068065Y0140971D01*
X0068065Y0141931D01*
X0067106Y0141931D01*
X0067106Y0146204D01*
X0064789Y0146204D01*
X0064331Y0146081D01*
X0063921Y0145844D01*
X0063704Y0145627D01*
X0063327Y0146004D01*
X0062705Y0146004D01*
X0062705Y0157884D01*
X0063672Y0158851D01*
X0078480Y0158851D01*
X0078446Y0158816D01*
X0078446Y0157201D01*
X0076767Y0157201D01*
X0075448Y0155882D01*
X0074462Y0155882D01*
X0073293Y0155398D01*
X0072398Y0154503D01*
X0071914Y0153334D01*
X0071914Y0152068D01*
X0072398Y0150899D01*
X0073293Y0150004D01*
X0074462Y0149520D01*
X0075728Y0149520D01*
X0076897Y0150004D01*
X0077792Y0150899D01*
X0078276Y0152068D01*
X0078276Y0153054D01*
X0078424Y0153201D01*
X0078446Y0153201D01*
X0078446Y0151586D01*
X0079383Y0150648D01*
X0085827Y0150648D01*
X0086345Y0151167D01*
X0086863Y0150648D01*
X0093307Y0150648D01*
X0094244Y0151586D01*
X0094244Y0158816D01*
X0094210Y0158851D01*
X0095980Y0158851D01*
X0095946Y0158816D01*
X0095946Y0151586D01*
X0096883Y0150648D01*
X0103327Y0150648D01*
X0103845Y0151167D01*
X0104363Y0150648D01*
X0110807Y0150648D01*
X0111744Y0151586D01*
X0111744Y0153201D01*
X0111767Y0153201D01*
X0111914Y0153054D01*
X0111914Y0152068D01*
X0112398Y0150899D01*
X0113293Y0150004D01*
X0114462Y0149520D01*
X0115728Y0149520D01*
X0116897Y0150004D01*
X0117792Y0150899D01*
X0118276Y0152068D01*
X0118276Y0153334D01*
X0117792Y0154503D01*
X0116897Y0155398D01*
X0115728Y0155882D01*
X0114742Y0155882D01*
X0113424Y0157201D01*
X0111744Y0157201D01*
X0111744Y0158816D01*
X0111710Y0158851D01*
X0133112Y0158851D01*
X0134068Y0159247D01*
X0134799Y0159978D01*
X0140318Y0165497D01*
X0141049Y0166228D01*
X0141445Y0167184D01*
X0141445Y0168552D01*
X0142461Y0168552D01*
X0143398Y0169489D01*
X0143398Y0171351D01*
X0179018Y0171351D01*
X0179450Y0170920D01*
X0179414Y0170834D01*
X0179414Y0169568D01*
X0179898Y0168399D01*
X0180793Y0167504D01*
X0181962Y0167020D01*
X0183228Y0167020D01*
X0184397Y0167504D01*
X0185292Y0168399D01*
X0185776Y0169568D01*
X0185776Y0170554D01*
X0187174Y0171951D01*
X0199674Y0171951D01*
X0200845Y0173123D01*
X0200845Y0174398D01*
X0202057Y0174398D01*
X0202994Y0175336D01*
X0202994Y0176951D01*
X0205946Y0176951D01*
X0205946Y0175336D01*
X0206883Y0174398D01*
X0213327Y0174398D01*
X0213845Y0174917D01*
X0214363Y0174398D01*
X0220807Y0174398D01*
X0221744Y0175336D01*
X0221744Y0176951D01*
X0223846Y0176951D01*
X0224543Y0176254D01*
X0225712Y0175770D01*
X0226978Y0175770D01*
X0228147Y0176254D01*
X0229042Y0177149D01*
X0229526Y0178318D01*
X0229526Y0179584D01*
X0229042Y0180753D01*
X0228147Y0181648D01*
X0226978Y0182132D01*
X0225712Y0182132D01*
X0224543Y0181648D01*
X0223846Y0180951D01*
X0221744Y0180951D01*
X0221744Y0182566D01*
X0220807Y0183504D01*
X0214363Y0183504D01*
X0213845Y0182985D01*
X0213327Y0183504D01*
X0206883Y0183504D01*
X0205946Y0182566D01*
X0205946Y0180951D01*
X0202994Y0180951D01*
X0202994Y0182566D01*
X0202057Y0183504D01*
X0195613Y0183504D01*
X0195095Y0182985D01*
X0194577Y0183504D01*
X0188133Y0183504D01*
X0187196Y0182566D01*
X0187196Y0180951D01*
X0187196Y0181627D02*
X0146497Y0181627D01*
X0148516Y0180029D02*
X0181674Y0180029D01*
X0180704Y0178430D02*
X0149486Y0178430D01*
X0149428Y0176832D02*
X0180762Y0176832D01*
X0179414Y0170438D02*
X0170871Y0170438D01*
X0171219Y0170383D02*
X0170473Y0170501D01*
X0170295Y0170501D01*
X0170295Y0162901D01*
X0169895Y0162901D01*
X0169895Y0162501D01*
X0165295Y0162501D01*
X0165295Y0159323D01*
X0165413Y0158577D01*
X0165647Y0157858D01*
X0165990Y0157185D01*
X0166434Y0156574D01*
X0166968Y0156040D01*
X0167579Y0155596D01*
X0168253Y0155253D01*
X0168971Y0155019D01*
X0169717Y0154901D01*
X0169895Y0154901D01*
X0169895Y0162501D01*
X0170295Y0162501D01*
X0170295Y0154901D01*
X0170473Y0154901D01*
X0171219Y0155019D01*
X0171938Y0155253D01*
X0172611Y0155596D01*
X0173222Y0156040D01*
X0173756Y0156574D01*
X0174200Y0157185D01*
X0174543Y0157858D01*
X0174777Y0158577D01*
X0174895Y0159323D01*
X0174895Y0162501D01*
X0170295Y0162501D01*
X0170295Y0162901D01*
X0174895Y0162901D01*
X0174895Y0166079D01*
X0174777Y0166825D01*
X0174543Y0167544D01*
X0174200Y0168217D01*
X0173756Y0168828D01*
X0173222Y0169362D01*
X0172611Y0169806D01*
X0171938Y0170149D01*
X0171219Y0170383D01*
X0170295Y0170438D02*
X0169895Y0170438D01*
X0169895Y0170501D02*
X0169717Y0170501D01*
X0168971Y0170383D01*
X0168253Y0170149D01*
X0167579Y0169806D01*
X0166968Y0169362D01*
X0166434Y0168828D01*
X0165990Y0168217D01*
X0165647Y0167544D01*
X0165413Y0166825D01*
X0165295Y0166079D01*
X0165295Y0162901D01*
X0169895Y0162901D01*
X0169895Y0170501D01*
X0169319Y0170438D02*
X0143398Y0170438D01*
X0142748Y0168839D02*
X0146728Y0168839D01*
X0146195Y0168307D02*
X0145495Y0166616D01*
X0145495Y0158786D01*
X0146195Y0157095D01*
X0147489Y0155801D01*
X0149180Y0155101D01*
X0151010Y0155101D01*
X0152701Y0155801D01*
X0153995Y0157095D01*
X0154695Y0158786D01*
X0154695Y0166616D01*
X0153995Y0168307D01*
X0152701Y0169601D01*
X0151010Y0170301D01*
X0149180Y0170301D01*
X0147489Y0169601D01*
X0146195Y0168307D01*
X0145754Y0167241D02*
X0141445Y0167241D01*
X0140463Y0165642D02*
X0145495Y0165642D01*
X0145495Y0164044D02*
X0138865Y0164044D01*
X0137266Y0162445D02*
X0145495Y0162445D01*
X0145495Y0160847D02*
X0135668Y0160847D01*
X0134799Y0159978D02*
X0134799Y0159978D01*
X0134069Y0159248D02*
X0145495Y0159248D01*
X0145966Y0157650D02*
X0111744Y0157650D01*
X0114573Y0156051D02*
X0147239Y0156051D01*
X0152951Y0156051D02*
X0157239Y0156051D01*
X0157489Y0155801D02*
X0156195Y0157095D01*
X0155495Y0158786D01*
X0155495Y0166616D01*
X0156195Y0168307D01*
X0157489Y0169601D01*
X0159180Y0170301D01*
X0161010Y0170301D01*
X0162701Y0169601D01*
X0163995Y0168307D01*
X0164695Y0166616D01*
X0164695Y0158786D01*
X0163995Y0157095D01*
X0162701Y0155801D01*
X0161010Y0155101D01*
X0159180Y0155101D01*
X0157489Y0155801D01*
X0155966Y0157650D02*
X0154224Y0157650D01*
X0154695Y0159248D02*
X0155495Y0159248D01*
X0155495Y0160847D02*
X0154695Y0160847D01*
X0154695Y0162445D02*
X0155495Y0162445D01*
X0155495Y0164044D02*
X0154695Y0164044D01*
X0154695Y0165642D02*
X0155495Y0165642D01*
X0155754Y0167241D02*
X0154436Y0167241D01*
X0153462Y0168839D02*
X0156728Y0168839D01*
X0163462Y0168839D02*
X0166445Y0168839D01*
X0165548Y0167241D02*
X0164436Y0167241D01*
X0164695Y0165642D02*
X0165295Y0165642D01*
X0165295Y0164044D02*
X0164695Y0164044D01*
X0164695Y0162445D02*
X0165295Y0162445D01*
X0165295Y0160847D02*
X0164695Y0160847D01*
X0164695Y0159248D02*
X0165307Y0159248D01*
X0165753Y0157650D02*
X0164224Y0157650D01*
X0162951Y0156051D02*
X0166957Y0156051D01*
X0169895Y0156051D02*
X0170295Y0156051D01*
X0170295Y0157650D02*
X0169895Y0157650D01*
X0169895Y0159248D02*
X0170295Y0159248D01*
X0170295Y0160847D02*
X0169895Y0160847D01*
X0169895Y0162445D02*
X0170295Y0162445D01*
X0170295Y0164044D02*
X0169895Y0164044D01*
X0169895Y0165642D02*
X0170295Y0165642D01*
X0170295Y0167241D02*
X0169895Y0167241D01*
X0169895Y0168839D02*
X0170295Y0168839D01*
X0173745Y0168839D02*
X0179716Y0168839D01*
X0181429Y0167241D02*
X0174642Y0167241D01*
X0174895Y0165642D02*
X0252595Y0165642D01*
X0252595Y0164044D02*
X0174895Y0164044D01*
X0174895Y0162445D02*
X0252595Y0162445D01*
X0252595Y0160847D02*
X0174895Y0160847D01*
X0174883Y0159248D02*
X0252595Y0159248D01*
X0252595Y0157650D02*
X0174437Y0157650D01*
X0173234Y0156051D02*
X0252595Y0156051D01*
X0252595Y0154453D02*
X0117813Y0154453D01*
X0118276Y0152854D02*
X0252595Y0152854D01*
X0252595Y0151256D02*
X0117940Y0151256D01*
X0116059Y0149657D02*
X0252595Y0149657D01*
X0252595Y0148059D02*
X0062705Y0148059D01*
X0062705Y0149657D02*
X0074131Y0149657D01*
X0076059Y0149657D02*
X0114131Y0149657D01*
X0112251Y0151256D02*
X0111415Y0151256D01*
X0111744Y0152854D02*
X0111914Y0152854D01*
X0096276Y0151256D02*
X0093915Y0151256D01*
X0094244Y0152854D02*
X0095946Y0152854D01*
X0095946Y0154453D02*
X0094244Y0154453D01*
X0094244Y0156051D02*
X0095946Y0156051D01*
X0095946Y0157650D02*
X0094244Y0157650D01*
X0078776Y0151256D02*
X0077940Y0151256D01*
X0078276Y0152854D02*
X0078446Y0152854D01*
X0075617Y0156051D02*
X0062705Y0156051D01*
X0062705Y0154453D02*
X0072378Y0154453D01*
X0071914Y0152854D02*
X0062705Y0152854D01*
X0062705Y0151256D02*
X0072251Y0151256D01*
X0070839Y0146081D02*
X0070381Y0146204D01*
X0068065Y0146204D01*
X0068065Y0141931D01*
X0071944Y0141931D01*
X0071944Y0144641D01*
X0071822Y0145099D01*
X0071585Y0145509D01*
X0071250Y0145844D01*
X0070839Y0146081D01*
X0071885Y0144862D02*
X0174756Y0144862D01*
X0173958Y0144531D02*
X0172622Y0143195D01*
X0171898Y0141449D01*
X0171898Y0139559D01*
X0172622Y0137814D01*
X0173958Y0136477D01*
X0175704Y0135754D01*
X0177593Y0135754D01*
X0179339Y0136477D01*
X0180675Y0137814D01*
X0181398Y0139559D01*
X0181398Y0141449D01*
X0180675Y0143195D01*
X0179339Y0144531D01*
X0177593Y0145254D01*
X0175704Y0145254D01*
X0173958Y0144531D01*
X0172690Y0143263D02*
X0071944Y0143263D01*
X0071944Y0140066D02*
X0171898Y0140066D01*
X0171988Y0141665D02*
X0068065Y0141665D01*
X0068065Y0143263D02*
X0067106Y0143263D01*
X0067106Y0144862D02*
X0068065Y0144862D01*
X0068065Y0140066D02*
X0067106Y0140066D01*
X0067106Y0138468D02*
X0068065Y0138468D01*
X0068065Y0136869D02*
X0067106Y0136869D01*
X0067106Y0135271D02*
X0068065Y0135271D01*
X0068065Y0133672D02*
X0067106Y0133672D01*
X0067106Y0132074D02*
X0068065Y0132074D01*
X0068065Y0130475D02*
X0067106Y0130475D01*
X0067106Y0128877D02*
X0068065Y0128877D01*
X0063196Y0127278D02*
X0127471Y0127278D01*
X0127356Y0127393D02*
X0127691Y0127058D01*
X0128101Y0126821D01*
X0128559Y0126698D01*
X0130875Y0126698D01*
X0130875Y0130971D01*
X0126996Y0130971D01*
X0126996Y0128261D01*
X0127119Y0127803D01*
X0127356Y0127393D01*
X0126996Y0128877D02*
X0071720Y0128877D01*
X0071944Y0130475D02*
X0126996Y0130475D01*
X0126996Y0131931D02*
X0130875Y0131931D01*
X0130875Y0136204D01*
X0128559Y0136204D01*
X0128101Y0136081D01*
X0127691Y0135844D01*
X0127356Y0135509D01*
X0127119Y0135099D01*
X0126996Y0134641D01*
X0126996Y0131931D01*
X0126996Y0132074D02*
X0071944Y0132074D01*
X0071944Y0133672D02*
X0126996Y0133672D01*
X0127218Y0135271D02*
X0071944Y0135271D01*
X0071475Y0136869D02*
X0166013Y0136869D01*
X0166077Y0136933D02*
X0164627Y0135484D01*
X0164627Y0131383D01*
X0166077Y0129933D01*
X0169577Y0133433D01*
X0169577Y0133433D01*
X0166077Y0129933D01*
X0167527Y0128483D01*
X0171628Y0128483D01*
X0173077Y0129933D01*
X0169577Y0133433D01*
X0166077Y0136933D01*
X0169577Y0133433D01*
X0169577Y0133433D01*
X0169577Y0133433D01*
X0173078Y0129933D01*
X0174527Y0131383D01*
X0174527Y0135484D01*
X0173078Y0136933D01*
X0169577Y0133433D01*
X0173077Y0136933D01*
X0171628Y0138383D01*
X0167527Y0138383D01*
X0166077Y0136933D01*
X0166141Y0136869D02*
X0166142Y0136869D01*
X0164627Y0135271D02*
X0142790Y0135271D01*
X0142994Y0135066D02*
X0142057Y0136004D01*
X0135613Y0136004D01*
X0135237Y0135627D01*
X0135019Y0135844D01*
X0134609Y0136081D01*
X0134151Y0136204D01*
X0131835Y0136204D01*
X0131835Y0131931D01*
X0130875Y0131931D01*
X0130875Y0130971D01*
X0131835Y0130971D01*
X0131835Y0126698D01*
X0134151Y0126698D01*
X0134609Y0126821D01*
X0135019Y0127058D01*
X0135237Y0127275D01*
X0135613Y0126898D01*
X0140395Y0126898D01*
X0140395Y0126250D01*
X0139414Y0125269D01*
X0139414Y0122633D01*
X0141277Y0120770D01*
X0143913Y0120770D01*
X0145776Y0122633D01*
X0145776Y0125269D01*
X0144795Y0126250D01*
X0144795Y0132362D01*
X0143506Y0133651D01*
X0142994Y0133651D01*
X0142994Y0135066D01*
X0142994Y0133672D02*
X0164627Y0133672D01*
X0164627Y0132074D02*
X0144795Y0132074D01*
X0144795Y0130475D02*
X0165535Y0130475D01*
X0166619Y0130475D02*
X0166619Y0130475D01*
X0167134Y0128877D02*
X0144795Y0128877D01*
X0144795Y0127278D02*
X0236116Y0127278D01*
X0236163Y0127575D02*
X0236045Y0126829D01*
X0236045Y0126651D01*
X0243645Y0126651D01*
X0243645Y0126251D01*
X0236045Y0126251D01*
X0236045Y0126073D01*
X0236163Y0125327D01*
X0236397Y0124608D01*
X0236740Y0123935D01*
X0237184Y0123324D01*
X0237718Y0122790D01*
X0238329Y0122346D01*
X0239003Y0122003D01*
X0239721Y0121769D01*
X0240467Y0121651D01*
X0243645Y0121651D01*
X0243645Y0126251D01*
X0244045Y0126251D01*
X0244045Y0121651D01*
X0247223Y0121651D01*
X0247969Y0121769D01*
X0248688Y0122003D01*
X0249361Y0122346D01*
X0249972Y0122790D01*
X0250506Y0123324D01*
X0250950Y0123935D01*
X0251293Y0124608D01*
X0251527Y0125327D01*
X0251645Y0126073D01*
X0251645Y0126251D01*
X0244045Y0126251D01*
X0244045Y0126651D01*
X0243645Y0126651D01*
X0243645Y0131251D01*
X0240467Y0131251D01*
X0239721Y0131133D01*
X0239003Y0130899D01*
X0238329Y0130556D01*
X0237718Y0130112D01*
X0237184Y0129578D01*
X0236740Y0128967D01*
X0236397Y0128294D01*
X0236163Y0127575D01*
X0236694Y0128877D02*
X0172021Y0128877D01*
X0172535Y0130475D02*
X0172536Y0130475D01*
X0173620Y0130475D02*
X0238218Y0130475D01*
X0239393Y0132074D02*
X0174527Y0132074D01*
X0174527Y0133672D02*
X0237119Y0133672D01*
X0236945Y0133845D02*
X0238239Y0132551D01*
X0239930Y0131851D01*
X0247760Y0131851D01*
X0249451Y0132551D01*
X0250745Y0133845D01*
X0251445Y0135536D01*
X0251445Y0137366D01*
X0250745Y0139057D01*
X0249451Y0140351D01*
X0247760Y0141051D01*
X0239930Y0141051D01*
X0238239Y0140351D01*
X0236945Y0139057D01*
X0236245Y0137366D01*
X0236245Y0135536D01*
X0236945Y0133845D01*
X0236355Y0135271D02*
X0174527Y0135271D01*
X0173566Y0136869D02*
X0173142Y0136869D01*
X0173013Y0136869D02*
X0173013Y0136869D01*
X0172351Y0138468D02*
X0071944Y0138468D01*
X0062705Y0146460D02*
X0252595Y0146460D01*
X0252595Y0144862D02*
X0178541Y0144862D01*
X0180607Y0143263D02*
X0252595Y0143263D01*
X0252595Y0141665D02*
X0181309Y0141665D01*
X0181398Y0140066D02*
X0237955Y0140066D01*
X0236701Y0138468D02*
X0180946Y0138468D01*
X0179731Y0136869D02*
X0236245Y0136869D01*
X0244045Y0131251D02*
X0244045Y0126651D01*
X0251645Y0126651D01*
X0251645Y0126829D01*
X0251527Y0127575D01*
X0251293Y0128294D01*
X0250950Y0128967D01*
X0250506Y0129578D01*
X0249972Y0130112D01*
X0249361Y0130556D01*
X0248688Y0130899D01*
X0247969Y0131133D01*
X0247223Y0131251D01*
X0244045Y0131251D01*
X0244045Y0130475D02*
X0243645Y0130475D01*
X0243645Y0128877D02*
X0244045Y0128877D01*
X0244045Y0127278D02*
X0243645Y0127278D01*
X0243645Y0125680D02*
X0244045Y0125680D01*
X0244045Y0124081D02*
X0243645Y0124081D01*
X0243645Y0122483D02*
X0244045Y0122483D01*
X0249549Y0122483D02*
X0252595Y0122483D01*
X0252595Y0124081D02*
X0251025Y0124081D01*
X0251583Y0125680D02*
X0252595Y0125680D01*
X0252595Y0127278D02*
X0251574Y0127278D01*
X0250996Y0128877D02*
X0252595Y0128877D01*
X0252595Y0130475D02*
X0249473Y0130475D01*
X0248298Y0132074D02*
X0252595Y0132074D01*
X0252595Y0133672D02*
X0250572Y0133672D01*
X0251335Y0135271D02*
X0252595Y0135271D01*
X0252595Y0136869D02*
X0251445Y0136869D01*
X0250989Y0138468D02*
X0252595Y0138468D01*
X0252595Y0140066D02*
X0249735Y0140066D01*
X0236107Y0125680D02*
X0145365Y0125680D01*
X0145776Y0124081D02*
X0146919Y0124081D01*
X0147005Y0124229D02*
X0146768Y0123819D01*
X0146646Y0123361D01*
X0146646Y0117994D01*
X0150820Y0117994D01*
X0150820Y0124924D01*
X0148209Y0124924D01*
X0147751Y0124802D01*
X0147340Y0124565D01*
X0147005Y0124229D01*
X0146646Y0122483D02*
X0145625Y0122483D01*
X0146646Y0120884D02*
X0144027Y0120884D01*
X0141163Y0120884D02*
X0138345Y0120884D01*
X0138345Y0119286D02*
X0146646Y0119286D01*
X0146646Y0116444D02*
X0146646Y0111076D01*
X0146768Y0110618D01*
X0147005Y0110208D01*
X0147340Y0109873D01*
X0147751Y0109636D01*
X0148209Y0109513D01*
X0150820Y0109513D01*
X0150820Y0116444D01*
X0146646Y0116444D01*
X0146646Y0116088D02*
X0138345Y0116088D01*
X0138345Y0114490D02*
X0146646Y0114490D01*
X0146646Y0112891D02*
X0138345Y0112891D01*
X0138345Y0111293D02*
X0146646Y0111293D01*
X0147649Y0109694D02*
X0129795Y0109694D01*
X0129795Y0108096D02*
X0160395Y0108096D01*
X0160395Y0109694D02*
X0155541Y0109694D01*
X0155440Y0109636D02*
X0155850Y0109873D01*
X0156185Y0110208D01*
X0156422Y0110618D01*
X0156545Y0111076D01*
X0156545Y0116444D01*
X0152370Y0116444D01*
X0152370Y0117994D01*
X0150820Y0117994D01*
X0150820Y0116444D01*
X0152370Y0116444D01*
X0152370Y0109513D01*
X0154982Y0109513D01*
X0155440Y0109636D01*
X0156545Y0111293D02*
X0160395Y0111293D01*
X0161157Y0112891D02*
X0156545Y0112891D01*
X0156545Y0114490D02*
X0162755Y0114490D01*
X0163846Y0116088D02*
X0156545Y0116088D01*
X0156545Y0117994D02*
X0156545Y0123361D01*
X0156422Y0123819D01*
X0156185Y0124229D01*
X0155850Y0124565D01*
X0155440Y0124802D01*
X0154982Y0124924D01*
X0152370Y0124924D01*
X0152370Y0117994D01*
X0156545Y0117994D01*
X0156545Y0119286D02*
X0163846Y0119286D01*
X0163846Y0120884D02*
X0156545Y0120884D01*
X0156545Y0122483D02*
X0163846Y0122483D01*
X0164140Y0124081D02*
X0156271Y0124081D01*
X0152370Y0124081D02*
X0150820Y0124081D01*
X0150820Y0122483D02*
X0152370Y0122483D01*
X0152370Y0120884D02*
X0150820Y0120884D01*
X0150820Y0119286D02*
X0152370Y0119286D01*
X0152370Y0117687D02*
X0163846Y0117687D01*
X0168595Y0117219D02*
X0162595Y0111219D01*
X0162595Y0093951D01*
X0160395Y0104899D02*
X0129795Y0104899D01*
X0129795Y0106497D02*
X0160395Y0106497D01*
X0164795Y0106497D02*
X0185643Y0106497D01*
X0184545Y0104899D02*
X0164795Y0104899D01*
X0164795Y0108096D02*
X0191361Y0108096D01*
X0190440Y0109636D02*
X0190850Y0109873D01*
X0191185Y0110208D01*
X0191422Y0110618D01*
X0191545Y0111076D01*
X0191545Y0116444D01*
X0187370Y0116444D01*
X0187370Y0117994D01*
X0185820Y0117994D01*
X0185820Y0124924D01*
X0183209Y0124924D01*
X0182751Y0124802D01*
X0182340Y0124565D01*
X0182005Y0124229D01*
X0181768Y0123819D01*
X0181646Y0123361D01*
X0181646Y0117994D01*
X0185820Y0117994D01*
X0185820Y0116444D01*
X0181646Y0116444D01*
X0181646Y0111076D01*
X0181768Y0110618D01*
X0182005Y0110208D01*
X0182340Y0109873D01*
X0182751Y0109636D01*
X0183209Y0109513D01*
X0185820Y0109513D01*
X0185820Y0116444D01*
X0187370Y0116444D01*
X0187370Y0109513D01*
X0189982Y0109513D01*
X0190440Y0109636D01*
X0190541Y0109694D02*
X0192960Y0109694D01*
X0191545Y0111293D02*
X0194558Y0111293D01*
X0196157Y0112891D02*
X0191545Y0112891D01*
X0191545Y0114490D02*
X0197755Y0114490D01*
X0198846Y0116088D02*
X0191545Y0116088D01*
X0191545Y0117994D02*
X0191545Y0123361D01*
X0191422Y0123819D01*
X0191185Y0124229D01*
X0190850Y0124565D01*
X0190440Y0124802D01*
X0189982Y0124924D01*
X0187370Y0124924D01*
X0187370Y0117994D01*
X0191545Y0117994D01*
X0191545Y0119286D02*
X0198846Y0119286D01*
X0198846Y0120884D02*
X0191545Y0120884D01*
X0191545Y0122483D02*
X0198846Y0122483D01*
X0199140Y0124081D02*
X0191271Y0124081D01*
X0187370Y0124081D02*
X0185820Y0124081D01*
X0185820Y0122483D02*
X0187370Y0122483D01*
X0187370Y0120884D02*
X0185820Y0120884D01*
X0185820Y0119286D02*
X0187370Y0119286D01*
X0187370Y0117687D02*
X0198846Y0117687D01*
X0203595Y0117219D02*
X0190327Y0103951D01*
X0187595Y0103951D01*
X0189547Y0106497D02*
X0189763Y0106497D01*
X0187370Y0109694D02*
X0185820Y0109694D01*
X0185820Y0111293D02*
X0187370Y0111293D01*
X0187370Y0112891D02*
X0185820Y0112891D01*
X0185820Y0114490D02*
X0187370Y0114490D01*
X0187370Y0116088D02*
X0185820Y0116088D01*
X0185820Y0117687D02*
X0173345Y0117687D01*
X0173345Y0116088D02*
X0181646Y0116088D01*
X0181646Y0114490D02*
X0173345Y0114490D01*
X0173345Y0112891D02*
X0181646Y0112891D01*
X0181646Y0111293D02*
X0173345Y0111293D01*
X0164795Y0109694D02*
X0182649Y0109694D01*
X0181646Y0119286D02*
X0173345Y0119286D01*
X0173345Y0120884D02*
X0181646Y0120884D01*
X0181646Y0122483D02*
X0173345Y0122483D01*
X0173051Y0124081D02*
X0181919Y0124081D01*
X0170937Y0132074D02*
X0170937Y0132074D01*
X0169577Y0133433D02*
X0169577Y0133433D01*
X0169338Y0133672D02*
X0169339Y0133672D01*
X0169816Y0133672D02*
X0169816Y0133672D01*
X0168218Y0132074D02*
X0168218Y0132074D01*
X0167740Y0135271D02*
X0167740Y0135271D01*
X0171415Y0135271D02*
X0171415Y0135271D01*
X0152370Y0116088D02*
X0150820Y0116088D01*
X0150820Y0114490D02*
X0152370Y0114490D01*
X0152370Y0112891D02*
X0150820Y0112891D01*
X0150820Y0111293D02*
X0152370Y0111293D01*
X0152370Y0109694D02*
X0150820Y0109694D01*
X0150820Y0117687D02*
X0138345Y0117687D01*
X0133595Y0117219D02*
X0127595Y0111219D01*
X0127595Y0088951D01*
X0127034Y0078951D02*
X0121400Y0078951D01*
X0121400Y0076871D01*
X0120463Y0075934D01*
X0108295Y0075934D01*
X0108295Y0065317D01*
X0107720Y0063929D01*
X0107720Y0061907D01*
X0106940Y0060023D01*
X0105498Y0058581D01*
X0103615Y0057801D01*
X0101576Y0057801D01*
X0099692Y0058581D01*
X0098250Y0060023D01*
X0097470Y0061907D01*
X0097470Y0063929D01*
X0096895Y0065317D01*
X0096895Y0075934D01*
X0094728Y0075934D01*
X0093790Y0076871D01*
X0093790Y0078951D01*
X0086400Y0078951D01*
X0086400Y0076871D01*
X0085463Y0075934D01*
X0081173Y0075934D01*
X0082006Y0075101D01*
X0083615Y0075101D01*
X0085498Y0074321D01*
X0086940Y0072879D01*
X0087720Y0070995D01*
X0087720Y0068973D01*
X0088295Y0067585D01*
X0088295Y0065317D01*
X0087720Y0063929D01*
X0087720Y0061907D01*
X0086940Y0060023D01*
X0085498Y0058581D01*
X0083615Y0057801D01*
X0081576Y0057801D01*
X0079692Y0058581D01*
X0078250Y0060023D01*
X0077470Y0061907D01*
X0077470Y0063515D01*
X0067763Y0073222D01*
X0066895Y0075317D01*
X0066895Y0075934D01*
X0059728Y0075934D01*
X0058790Y0076871D01*
X0058790Y0078951D01*
X0055277Y0078951D01*
X0055277Y0051751D01*
X0232595Y0051751D01*
X0232595Y0078951D01*
X0226400Y0078951D01*
X0226400Y0076871D01*
X0225463Y0075934D01*
X0213295Y0075934D01*
X0213295Y0072817D01*
X0212427Y0070722D01*
X0210824Y0069119D01*
X0203324Y0061619D01*
X0201229Y0060751D01*
X0192241Y0060751D01*
X0191940Y0060023D01*
X0190498Y0058581D01*
X0188615Y0057801D01*
X0186576Y0057801D01*
X0184692Y0058581D01*
X0183250Y0060023D01*
X0182470Y0061907D01*
X0182470Y0063929D01*
X0181895Y0065317D01*
X0181895Y0067585D01*
X0182470Y0068973D01*
X0182470Y0070995D01*
X0183250Y0072879D01*
X0184692Y0074321D01*
X0186576Y0075101D01*
X0188615Y0075101D01*
X0190498Y0074321D01*
X0191940Y0072879D01*
X0192241Y0072151D01*
X0197734Y0072151D01*
X0201517Y0075934D01*
X0199728Y0075934D01*
X0198790Y0076871D01*
X0198790Y0078951D01*
X0191400Y0078951D01*
X0191400Y0076871D01*
X0190463Y0075934D01*
X0183295Y0075934D01*
X0183295Y0075317D01*
X0182427Y0073222D01*
X0172720Y0063515D01*
X0172720Y0061907D01*
X0171940Y0060023D01*
X0170498Y0058581D01*
X0168615Y0057801D01*
X0166576Y0057801D01*
X0164692Y0058581D01*
X0163250Y0060023D01*
X0162470Y0061907D01*
X0162470Y0063929D01*
X0161895Y0065317D01*
X0161895Y0067585D01*
X0162470Y0068973D01*
X0162470Y0070995D01*
X0163250Y0072879D01*
X0164692Y0074321D01*
X0166576Y0075101D01*
X0168184Y0075101D01*
X0169017Y0075934D01*
X0164728Y0075934D01*
X0163790Y0076871D01*
X0163790Y0078951D01*
X0156400Y0078951D01*
X0156400Y0076871D01*
X0155463Y0075934D01*
X0140139Y0075934D01*
X0127720Y0063515D01*
X0127720Y0061907D01*
X0126940Y0060023D01*
X0125498Y0058581D01*
X0123615Y0057801D01*
X0121576Y0057801D01*
X0119692Y0058581D01*
X0118250Y0060023D01*
X0117470Y0061907D01*
X0117470Y0063929D01*
X0116895Y0065317D01*
X0116895Y0067585D01*
X0117470Y0068973D01*
X0117470Y0070995D01*
X0118250Y0072879D01*
X0119692Y0074321D01*
X0121576Y0075101D01*
X0123184Y0075101D01*
X0127034Y0078951D01*
X0125807Y0077724D02*
X0121400Y0077724D01*
X0120655Y0076126D02*
X0124209Y0076126D01*
X0120190Y0074527D02*
X0108295Y0074527D01*
X0108295Y0072929D02*
X0118300Y0072929D01*
X0117609Y0071330D02*
X0108295Y0071330D01*
X0108295Y0069732D02*
X0117470Y0069732D01*
X0117122Y0068133D02*
X0108295Y0068133D01*
X0108295Y0066535D02*
X0116895Y0066535D01*
X0117053Y0064936D02*
X0108137Y0064936D01*
X0107720Y0063338D02*
X0117470Y0063338D01*
X0117540Y0061739D02*
X0107651Y0061739D01*
X0106989Y0060141D02*
X0118202Y0060141D01*
X0119787Y0058542D02*
X0105404Y0058542D01*
X0099787Y0058542D02*
X0085404Y0058542D01*
X0086989Y0060141D02*
X0098202Y0060141D01*
X0097540Y0061739D02*
X0087651Y0061739D01*
X0087720Y0063338D02*
X0097470Y0063338D01*
X0097053Y0064936D02*
X0088137Y0064936D01*
X0088295Y0066535D02*
X0096895Y0066535D01*
X0096895Y0068133D02*
X0088068Y0068133D01*
X0087720Y0069732D02*
X0096895Y0069732D01*
X0096895Y0071330D02*
X0087581Y0071330D01*
X0086890Y0072929D02*
X0096895Y0072929D01*
X0096895Y0074527D02*
X0085000Y0074527D01*
X0085655Y0076126D02*
X0094536Y0076126D01*
X0093790Y0077724D02*
X0086400Y0077724D01*
X0074450Y0066535D02*
X0062970Y0066535D01*
X0062970Y0066826D02*
X0067920Y0066826D01*
X0067920Y0070395D01*
X0067789Y0071223D01*
X0067530Y0072020D01*
X0067149Y0072767D01*
X0066657Y0073445D01*
X0066064Y0074038D01*
X0065386Y0074530D01*
X0064639Y0074911D01*
X0063842Y0075170D01*
X0063014Y0075301D01*
X0062970Y0075301D01*
X0062970Y0066826D01*
X0062220Y0066826D01*
X0062220Y0066076D01*
X0057270Y0066076D01*
X0057270Y0062507D01*
X0057401Y0061679D01*
X0057660Y0060882D01*
X0058041Y0060135D01*
X0058533Y0059457D01*
X0059126Y0058864D01*
X0059804Y0058372D01*
X0060551Y0057991D01*
X0061348Y0057732D01*
X0062176Y0057601D01*
X0062220Y0057601D01*
X0062220Y0066076D01*
X0062970Y0066076D01*
X0062970Y0057601D01*
X0063014Y0057601D01*
X0063842Y0057732D01*
X0064639Y0057991D01*
X0065386Y0058372D01*
X0066064Y0058864D01*
X0066657Y0059457D01*
X0067149Y0060135D01*
X0067530Y0060882D01*
X0067789Y0061679D01*
X0067920Y0062507D01*
X0067920Y0066076D01*
X0062970Y0066076D01*
X0062970Y0066826D01*
X0062220Y0066826D02*
X0062220Y0075301D01*
X0062176Y0075301D01*
X0061348Y0075170D01*
X0060551Y0074911D01*
X0059804Y0074530D01*
X0059126Y0074038D01*
X0058533Y0073445D01*
X0058041Y0072767D01*
X0057660Y0072020D01*
X0057401Y0071223D01*
X0057270Y0070395D01*
X0057270Y0066826D01*
X0062220Y0066826D01*
X0062220Y0066535D02*
X0055277Y0066535D01*
X0055277Y0068133D02*
X0057270Y0068133D01*
X0057270Y0069732D02*
X0055277Y0069732D01*
X0055277Y0071330D02*
X0057436Y0071330D01*
X0058158Y0072929D02*
X0055277Y0072929D01*
X0055277Y0074527D02*
X0059800Y0074527D01*
X0059536Y0076126D02*
X0055277Y0076126D01*
X0055277Y0077724D02*
X0058790Y0077724D01*
X0062220Y0074527D02*
X0062970Y0074527D01*
X0062970Y0072929D02*
X0062220Y0072929D01*
X0062220Y0071330D02*
X0062970Y0071330D01*
X0062970Y0069732D02*
X0062220Y0069732D01*
X0062220Y0068133D02*
X0062970Y0068133D01*
X0067920Y0068133D02*
X0072852Y0068133D01*
X0071253Y0069732D02*
X0067920Y0069732D01*
X0067754Y0071330D02*
X0069655Y0071330D01*
X0068056Y0072929D02*
X0067032Y0072929D01*
X0067222Y0074527D02*
X0065390Y0074527D01*
X0062970Y0064936D02*
X0062220Y0064936D01*
X0062220Y0063338D02*
X0062970Y0063338D01*
X0062970Y0061739D02*
X0062220Y0061739D01*
X0062220Y0060141D02*
X0062970Y0060141D01*
X0062970Y0058542D02*
X0062220Y0058542D01*
X0059570Y0058542D02*
X0055277Y0058542D01*
X0055277Y0056944D02*
X0232595Y0056944D01*
X0232595Y0058542D02*
X0225621Y0058542D01*
X0225386Y0058372D02*
X0226064Y0058864D01*
X0226657Y0059457D01*
X0227149Y0060135D01*
X0227530Y0060882D01*
X0227789Y0061679D01*
X0227920Y0062507D01*
X0227920Y0066076D01*
X0222970Y0066076D01*
X0222970Y0057601D01*
X0223014Y0057601D01*
X0223842Y0057732D01*
X0224639Y0057991D01*
X0225386Y0058372D01*
X0222970Y0058542D02*
X0222220Y0058542D01*
X0222220Y0057601D02*
X0222220Y0066076D01*
X0217270Y0066076D01*
X0217270Y0062507D01*
X0217401Y0061679D01*
X0217660Y0060882D01*
X0218041Y0060135D01*
X0218533Y0059457D01*
X0219126Y0058864D01*
X0219804Y0058372D01*
X0220551Y0057991D01*
X0221348Y0057732D01*
X0222176Y0057601D01*
X0222220Y0057601D01*
X0222220Y0060141D02*
X0222970Y0060141D01*
X0222970Y0061739D02*
X0222220Y0061739D01*
X0222220Y0063338D02*
X0222970Y0063338D01*
X0222970Y0064936D02*
X0222220Y0064936D01*
X0222220Y0066076D02*
X0222970Y0066076D01*
X0222970Y0066826D01*
X0222220Y0066826D01*
X0222220Y0066076D01*
X0222220Y0066535D02*
X0208240Y0066535D01*
X0209838Y0068133D02*
X0217270Y0068133D01*
X0217270Y0066826D02*
X0222220Y0066826D01*
X0222220Y0075301D01*
X0222176Y0075301D01*
X0221348Y0075170D01*
X0220551Y0074911D01*
X0219804Y0074530D01*
X0219126Y0074038D01*
X0218533Y0073445D01*
X0218041Y0072767D01*
X0217660Y0072020D01*
X0217401Y0071223D01*
X0217270Y0070395D01*
X0217270Y0066826D01*
X0217270Y0064936D02*
X0206641Y0064936D01*
X0205043Y0063338D02*
X0217270Y0063338D01*
X0217392Y0061739D02*
X0203444Y0061739D01*
X0211437Y0069732D02*
X0217270Y0069732D01*
X0217436Y0071330D02*
X0212679Y0071330D01*
X0213295Y0072929D02*
X0218158Y0072929D01*
X0219800Y0074527D02*
X0213295Y0074527D01*
X0222220Y0074527D02*
X0222970Y0074527D01*
X0222970Y0075301D02*
X0222970Y0066826D01*
X0227920Y0066826D01*
X0227920Y0070395D01*
X0227789Y0071223D01*
X0227530Y0072020D01*
X0227149Y0072767D01*
X0226657Y0073445D01*
X0226064Y0074038D01*
X0225386Y0074530D01*
X0224639Y0074911D01*
X0223842Y0075170D01*
X0223014Y0075301D01*
X0222970Y0075301D01*
X0222970Y0072929D02*
X0222220Y0072929D01*
X0222220Y0071330D02*
X0222970Y0071330D01*
X0222970Y0069732D02*
X0222220Y0069732D01*
X0222220Y0068133D02*
X0222970Y0068133D01*
X0222970Y0066535D02*
X0232595Y0066535D01*
X0232595Y0068133D02*
X0227920Y0068133D01*
X0227920Y0069732D02*
X0232595Y0069732D01*
X0232595Y0071330D02*
X0227754Y0071330D01*
X0227032Y0072929D02*
X0232595Y0072929D01*
X0232595Y0074527D02*
X0225390Y0074527D01*
X0225655Y0076126D02*
X0232595Y0076126D01*
X0232595Y0077724D02*
X0226400Y0077724D01*
X0227595Y0084118D02*
X0252595Y0084118D01*
X0252595Y0082520D02*
X0235095Y0082520D01*
X0235095Y0080921D02*
X0252595Y0080921D01*
X0252595Y0079323D02*
X0235095Y0079323D01*
X0235095Y0077724D02*
X0252595Y0077724D01*
X0252595Y0076126D02*
X0235095Y0076126D01*
X0235095Y0074527D02*
X0239800Y0074527D01*
X0239804Y0074530D02*
X0239126Y0074038D01*
X0238533Y0073445D01*
X0238041Y0072767D01*
X0237660Y0072020D01*
X0237401Y0071223D01*
X0237270Y0070395D01*
X0237270Y0066826D01*
X0242220Y0066826D01*
X0242220Y0066076D01*
X0237270Y0066076D01*
X0237270Y0062507D01*
X0237401Y0061679D01*
X0237660Y0060882D01*
X0238041Y0060135D01*
X0238533Y0059457D01*
X0239126Y0058864D01*
X0239804Y0058372D01*
X0240551Y0057991D01*
X0241348Y0057732D01*
X0242176Y0057601D01*
X0242220Y0057601D01*
X0242220Y0066076D01*
X0242970Y0066076D01*
X0242970Y0057601D01*
X0243014Y0057601D01*
X0243842Y0057732D01*
X0244639Y0057991D01*
X0245386Y0058372D01*
X0246064Y0058864D01*
X0246657Y0059457D01*
X0247149Y0060135D01*
X0247530Y0060882D01*
X0247789Y0061679D01*
X0247920Y0062507D01*
X0247920Y0066076D01*
X0242970Y0066076D01*
X0242970Y0066826D01*
X0242220Y0066826D01*
X0242220Y0075301D01*
X0242176Y0075301D01*
X0241348Y0075170D01*
X0240551Y0074911D01*
X0239804Y0074530D01*
X0238158Y0072929D02*
X0235095Y0072929D01*
X0235095Y0071330D02*
X0237436Y0071330D01*
X0237270Y0069732D02*
X0235095Y0069732D01*
X0235095Y0068133D02*
X0237270Y0068133D01*
X0235095Y0066535D02*
X0242220Y0066535D01*
X0242970Y0066535D02*
X0252595Y0066535D01*
X0252595Y0068133D02*
X0247920Y0068133D01*
X0247920Y0066826D02*
X0247920Y0070395D01*
X0247789Y0071223D01*
X0247530Y0072020D01*
X0247149Y0072767D01*
X0246657Y0073445D01*
X0246064Y0074038D01*
X0245386Y0074530D01*
X0244639Y0074911D01*
X0243842Y0075170D01*
X0243014Y0075301D01*
X0242970Y0075301D01*
X0242970Y0066826D01*
X0247920Y0066826D01*
X0247920Y0064936D02*
X0252595Y0064936D01*
X0252595Y0063338D02*
X0247920Y0063338D01*
X0247799Y0061739D02*
X0252595Y0061739D01*
X0252595Y0060141D02*
X0247152Y0060141D01*
X0245621Y0058542D02*
X0252595Y0058542D01*
X0252595Y0056944D02*
X0235095Y0056944D01*
X0235095Y0058542D02*
X0239570Y0058542D01*
X0238038Y0060141D02*
X0235095Y0060141D01*
X0235095Y0061739D02*
X0237392Y0061739D01*
X0237270Y0063338D02*
X0235095Y0063338D01*
X0235095Y0064936D02*
X0237270Y0064936D01*
X0232595Y0064936D02*
X0227920Y0064936D01*
X0227920Y0063338D02*
X0232595Y0063338D01*
X0232595Y0061739D02*
X0227799Y0061739D01*
X0227152Y0060141D02*
X0232595Y0060141D01*
X0232595Y0055345D02*
X0055277Y0055345D01*
X0055277Y0053747D02*
X0232595Y0053747D01*
X0232595Y0052148D02*
X0055277Y0052148D01*
X0055277Y0060141D02*
X0058038Y0060141D01*
X0057392Y0061739D02*
X0055277Y0061739D01*
X0055277Y0063338D02*
X0057270Y0063338D01*
X0057270Y0064936D02*
X0055277Y0064936D01*
X0065621Y0058542D02*
X0079787Y0058542D01*
X0078202Y0060141D02*
X0067152Y0060141D01*
X0067799Y0061739D02*
X0077540Y0061739D01*
X0077470Y0063338D02*
X0067920Y0063338D01*
X0067920Y0064936D02*
X0076049Y0064936D01*
X0092595Y0088951D02*
X0092595Y0111219D01*
X0098595Y0117219D01*
X0093846Y0117687D02*
X0082370Y0117687D01*
X0082370Y0117994D02*
X0086545Y0117994D01*
X0086545Y0123361D01*
X0086422Y0123819D01*
X0086185Y0124229D01*
X0085850Y0124565D01*
X0085440Y0124802D01*
X0084982Y0124924D01*
X0082370Y0124924D01*
X0082370Y0117994D01*
X0080820Y0117994D01*
X0080820Y0124924D01*
X0078209Y0124924D01*
X0077751Y0124802D01*
X0077340Y0124565D01*
X0077005Y0124229D01*
X0076768Y0123819D01*
X0076646Y0123361D01*
X0076646Y0117994D01*
X0080820Y0117994D01*
X0080820Y0116444D01*
X0076646Y0116444D01*
X0076646Y0111076D01*
X0076768Y0110618D01*
X0077005Y0110208D01*
X0077340Y0109873D01*
X0077751Y0109636D01*
X0078209Y0109513D01*
X0080820Y0109513D01*
X0080820Y0116444D01*
X0082370Y0116444D01*
X0082370Y0117994D01*
X0082370Y0119286D02*
X0080820Y0119286D01*
X0080820Y0120884D02*
X0082370Y0120884D01*
X0082370Y0122483D02*
X0080820Y0122483D01*
X0080820Y0124081D02*
X0082370Y0124081D01*
X0086271Y0124081D02*
X0094140Y0124081D01*
X0093846Y0122483D02*
X0086545Y0122483D01*
X0086545Y0120884D02*
X0093846Y0120884D01*
X0093846Y0119286D02*
X0086545Y0119286D01*
X0086545Y0116444D02*
X0082370Y0116444D01*
X0082370Y0109513D01*
X0084982Y0109513D01*
X0085440Y0109636D01*
X0085850Y0109873D01*
X0086185Y0110208D01*
X0086422Y0110618D01*
X0086545Y0111076D01*
X0086545Y0116444D01*
X0086545Y0116088D02*
X0093846Y0116088D01*
X0092755Y0114490D02*
X0086545Y0114490D01*
X0086545Y0112891D02*
X0091157Y0112891D01*
X0090395Y0111293D02*
X0086545Y0111293D01*
X0085541Y0109694D02*
X0090395Y0109694D01*
X0090395Y0108096D02*
X0077857Y0108096D01*
X0077649Y0109694D02*
X0074680Y0109694D01*
X0073082Y0111293D02*
X0076646Y0111293D01*
X0076646Y0112891D02*
X0071483Y0112891D01*
X0069885Y0114490D02*
X0076646Y0114490D01*
X0076646Y0116088D02*
X0068345Y0116088D01*
X0068345Y0117687D02*
X0080820Y0117687D01*
X0080820Y0116088D02*
X0082370Y0116088D01*
X0082370Y0114490D02*
X0080820Y0114490D01*
X0080820Y0112891D02*
X0082370Y0112891D01*
X0082370Y0111293D02*
X0080820Y0111293D01*
X0080820Y0109694D02*
X0082370Y0109694D01*
X0078276Y0106497D02*
X0090395Y0106497D01*
X0090395Y0104899D02*
X0077895Y0104899D01*
X0063595Y0117219D02*
X0060863Y0117219D01*
X0068345Y0119286D02*
X0076646Y0119286D01*
X0076646Y0120884D02*
X0068345Y0120884D01*
X0068345Y0122483D02*
X0076646Y0122483D01*
X0076919Y0124081D02*
X0068051Y0124081D01*
X0063219Y0125680D02*
X0139825Y0125680D01*
X0139414Y0124081D02*
X0138051Y0124081D01*
X0138345Y0122483D02*
X0139565Y0122483D01*
X0142595Y0123951D02*
X0142595Y0131451D01*
X0138835Y0131451D01*
X0131835Y0132074D02*
X0130875Y0132074D01*
X0130875Y0133672D02*
X0131835Y0133672D01*
X0131835Y0135271D02*
X0130875Y0135271D01*
X0130875Y0130475D02*
X0131835Y0130475D01*
X0131835Y0128877D02*
X0130875Y0128877D01*
X0130875Y0127278D02*
X0131835Y0127278D01*
X0129140Y0124081D02*
X0121271Y0124081D01*
X0121185Y0124229D02*
X0120850Y0124565D01*
X0120440Y0124802D01*
X0119982Y0124924D01*
X0117370Y0124924D01*
X0117370Y0117994D01*
X0115820Y0117994D01*
X0115820Y0124924D01*
X0113209Y0124924D01*
X0112751Y0124802D01*
X0112340Y0124565D01*
X0112005Y0124229D01*
X0111768Y0123819D01*
X0111646Y0123361D01*
X0111646Y0117994D01*
X0115820Y0117994D01*
X0115820Y0116444D01*
X0111646Y0116444D01*
X0111646Y0111076D01*
X0111768Y0110618D01*
X0112005Y0110208D01*
X0112340Y0109873D01*
X0112751Y0109636D01*
X0113209Y0109513D01*
X0115820Y0109513D01*
X0115820Y0116444D01*
X0117370Y0116444D01*
X0117370Y0117994D01*
X0121545Y0117994D01*
X0121545Y0123361D01*
X0121422Y0123819D01*
X0121185Y0124229D01*
X0121545Y0122483D02*
X0128846Y0122483D01*
X0128846Y0120884D02*
X0121545Y0120884D01*
X0121545Y0119286D02*
X0128846Y0119286D01*
X0128846Y0117687D02*
X0117370Y0117687D01*
X0117370Y0116444D02*
X0121545Y0116444D01*
X0121545Y0111076D01*
X0121422Y0110618D01*
X0121185Y0110208D01*
X0120850Y0109873D01*
X0120440Y0109636D01*
X0119982Y0109513D01*
X0117370Y0109513D01*
X0117370Y0116444D01*
X0117370Y0116088D02*
X0115820Y0116088D01*
X0115820Y0114490D02*
X0117370Y0114490D01*
X0117370Y0112891D02*
X0115820Y0112891D01*
X0115820Y0111293D02*
X0117370Y0111293D01*
X0117370Y0109694D02*
X0115820Y0109694D01*
X0120541Y0109694D02*
X0125395Y0109694D01*
X0125395Y0108096D02*
X0094795Y0108096D01*
X0094795Y0109694D02*
X0112649Y0109694D01*
X0111646Y0111293D02*
X0103345Y0111293D01*
X0103345Y0112891D02*
X0111646Y0112891D01*
X0111646Y0114490D02*
X0103345Y0114490D01*
X0103345Y0116088D02*
X0111646Y0116088D01*
X0111646Y0119286D02*
X0103345Y0119286D01*
X0103345Y0120884D02*
X0111646Y0120884D01*
X0111646Y0122483D02*
X0103345Y0122483D01*
X0103051Y0124081D02*
X0111919Y0124081D01*
X0115820Y0124081D02*
X0117370Y0124081D01*
X0117370Y0122483D02*
X0115820Y0122483D01*
X0115820Y0120884D02*
X0117370Y0120884D01*
X0117370Y0119286D02*
X0115820Y0119286D01*
X0115820Y0117687D02*
X0103345Y0117687D01*
X0094795Y0106497D02*
X0125395Y0106497D01*
X0125395Y0104899D02*
X0094795Y0104899D01*
X0121545Y0111293D02*
X0125395Y0111293D01*
X0126157Y0112891D02*
X0121545Y0112891D01*
X0121545Y0114490D02*
X0127755Y0114490D01*
X0128846Y0116088D02*
X0121545Y0116088D01*
X0156400Y0077724D02*
X0163790Y0077724D01*
X0164536Y0076126D02*
X0155655Y0076126D01*
X0151657Y0073445D02*
X0151064Y0074038D01*
X0150386Y0074530D01*
X0149639Y0074911D01*
X0148842Y0075170D01*
X0148014Y0075301D01*
X0147970Y0075301D01*
X0147970Y0066826D01*
X0147220Y0066826D01*
X0147220Y0066076D01*
X0142270Y0066076D01*
X0142270Y0062507D01*
X0142401Y0061679D01*
X0142660Y0060882D01*
X0143041Y0060135D01*
X0143533Y0059457D01*
X0144126Y0058864D01*
X0144804Y0058372D01*
X0145551Y0057991D01*
X0146348Y0057732D01*
X0147176Y0057601D01*
X0147220Y0057601D01*
X0147220Y0066076D01*
X0147970Y0066076D01*
X0147970Y0057601D01*
X0148014Y0057601D01*
X0148842Y0057732D01*
X0149639Y0057991D01*
X0150386Y0058372D01*
X0151064Y0058864D01*
X0151657Y0059457D01*
X0152149Y0060135D01*
X0152530Y0060882D01*
X0152789Y0061679D01*
X0152920Y0062507D01*
X0152920Y0066076D01*
X0147970Y0066076D01*
X0147970Y0066826D01*
X0152920Y0066826D01*
X0152920Y0070395D01*
X0152789Y0071223D01*
X0152530Y0072020D01*
X0152149Y0072767D01*
X0151657Y0073445D01*
X0152032Y0072929D02*
X0163300Y0072929D01*
X0162609Y0071330D02*
X0152754Y0071330D01*
X0152920Y0069732D02*
X0162470Y0069732D01*
X0162122Y0068133D02*
X0152920Y0068133D01*
X0152920Y0064936D02*
X0162053Y0064936D01*
X0161895Y0066535D02*
X0147970Y0066535D01*
X0147220Y0066535D02*
X0130740Y0066535D01*
X0132338Y0068133D02*
X0142270Y0068133D01*
X0142270Y0066826D02*
X0147220Y0066826D01*
X0147220Y0075301D01*
X0147176Y0075301D01*
X0146348Y0075170D01*
X0145551Y0074911D01*
X0144804Y0074530D01*
X0144126Y0074038D01*
X0143533Y0073445D01*
X0143041Y0072767D01*
X0142660Y0072020D01*
X0142401Y0071223D01*
X0142270Y0070395D01*
X0142270Y0066826D01*
X0142270Y0064936D02*
X0129141Y0064936D01*
X0127720Y0063338D02*
X0142270Y0063338D01*
X0142392Y0061739D02*
X0127651Y0061739D01*
X0126989Y0060141D02*
X0143038Y0060141D01*
X0144570Y0058542D02*
X0125404Y0058542D01*
X0133937Y0069732D02*
X0142270Y0069732D01*
X0142436Y0071330D02*
X0135535Y0071330D01*
X0137134Y0072929D02*
X0143158Y0072929D01*
X0144800Y0074527D02*
X0138732Y0074527D01*
X0147220Y0074527D02*
X0147970Y0074527D01*
X0147970Y0072929D02*
X0147220Y0072929D01*
X0147220Y0071330D02*
X0147970Y0071330D01*
X0147970Y0069732D02*
X0147220Y0069732D01*
X0147220Y0068133D02*
X0147970Y0068133D01*
X0147970Y0064936D02*
X0147220Y0064936D01*
X0147220Y0063338D02*
X0147970Y0063338D01*
X0147970Y0061739D02*
X0147220Y0061739D01*
X0147220Y0060141D02*
X0147970Y0060141D01*
X0147970Y0058542D02*
X0147220Y0058542D01*
X0150621Y0058542D02*
X0164787Y0058542D01*
X0163202Y0060141D02*
X0152152Y0060141D01*
X0152799Y0061739D02*
X0162540Y0061739D01*
X0162470Y0063338D02*
X0152920Y0063338D01*
X0150390Y0074527D02*
X0165190Y0074527D01*
X0175740Y0066535D02*
X0181895Y0066535D01*
X0182053Y0064936D02*
X0174141Y0064936D01*
X0172720Y0063338D02*
X0182470Y0063338D01*
X0182540Y0061739D02*
X0172651Y0061739D01*
X0171989Y0060141D02*
X0183202Y0060141D01*
X0184787Y0058542D02*
X0170404Y0058542D01*
X0177338Y0068133D02*
X0182122Y0068133D01*
X0182470Y0069732D02*
X0178937Y0069732D01*
X0180535Y0071330D02*
X0182609Y0071330D01*
X0182134Y0072929D02*
X0183300Y0072929D01*
X0182968Y0074527D02*
X0185190Y0074527D01*
X0190000Y0074527D02*
X0200110Y0074527D01*
X0199536Y0076126D02*
X0190655Y0076126D01*
X0191400Y0077724D02*
X0198790Y0077724D01*
X0198512Y0072929D02*
X0191890Y0072929D01*
X0191989Y0060141D02*
X0218038Y0060141D01*
X0219570Y0058542D02*
X0190404Y0058542D01*
X0227595Y0085717D02*
X0252595Y0085717D01*
X0252595Y0087315D02*
X0227595Y0087315D01*
X0227595Y0088914D02*
X0252595Y0088914D01*
X0252595Y0090512D02*
X0227595Y0090512D01*
X0227595Y0092111D02*
X0252595Y0092111D01*
X0252595Y0093709D02*
X0227595Y0093709D01*
X0227595Y0095308D02*
X0252595Y0095308D01*
X0252595Y0096906D02*
X0227595Y0096906D01*
X0227595Y0098505D02*
X0252595Y0098505D01*
X0252595Y0100103D02*
X0227595Y0100103D01*
X0227595Y0101702D02*
X0252595Y0101702D01*
X0252595Y0103300D02*
X0246894Y0103300D01*
X0246750Y0103156D02*
X0248086Y0104493D01*
X0248810Y0106238D01*
X0248810Y0108128D01*
X0248086Y0109874D01*
X0246750Y0111210D01*
X0245004Y0111933D01*
X0243115Y0111933D01*
X0241369Y0111210D01*
X0240033Y0109874D01*
X0239310Y0108128D01*
X0239310Y0106238D01*
X0240033Y0104493D01*
X0241369Y0103156D01*
X0243115Y0102433D01*
X0245004Y0102433D01*
X0246750Y0103156D01*
X0248255Y0104899D02*
X0252595Y0104899D01*
X0252595Y0106497D02*
X0248810Y0106497D01*
X0248810Y0108096D02*
X0252595Y0108096D01*
X0252595Y0109694D02*
X0248161Y0109694D01*
X0246550Y0111293D02*
X0252595Y0111293D01*
X0252595Y0112891D02*
X0226545Y0112891D01*
X0226545Y0111293D02*
X0231169Y0111293D01*
X0232009Y0112133D02*
X0229110Y0109234D01*
X0229110Y0107183D01*
X0229110Y0105133D01*
X0232009Y0102233D01*
X0234060Y0102233D01*
X0236110Y0102233D01*
X0239010Y0105133D01*
X0239010Y0107183D01*
X0234060Y0107183D01*
X0234060Y0107183D01*
X0234060Y0102233D01*
X0234060Y0107183D01*
X0234060Y0107183D01*
X0239010Y0107183D01*
X0239010Y0109234D01*
X0236110Y0112133D01*
X0234060Y0112133D01*
X0234060Y0107183D01*
X0234060Y0107183D01*
X0234059Y0107183D02*
X0229110Y0107183D01*
X0234059Y0107183D01*
X0234059Y0107183D01*
X0234060Y0107183D02*
X0234060Y0112133D01*
X0232009Y0112133D01*
X0234060Y0111293D02*
X0234060Y0111293D01*
X0234060Y0109694D02*
X0234060Y0109694D01*
X0234060Y0108096D02*
X0234060Y0108096D01*
X0234060Y0106497D02*
X0234060Y0106497D01*
X0234060Y0104899D02*
X0234060Y0104899D01*
X0234060Y0103300D02*
X0234060Y0103300D01*
X0237177Y0103300D02*
X0241225Y0103300D01*
X0239864Y0104899D02*
X0238776Y0104899D01*
X0239010Y0106497D02*
X0239310Y0106497D01*
X0239310Y0108096D02*
X0239010Y0108096D01*
X0238549Y0109694D02*
X0239958Y0109694D01*
X0241569Y0111293D02*
X0236950Y0111293D01*
X0229570Y0109694D02*
X0225541Y0109694D01*
X0225440Y0109636D02*
X0225850Y0109873D01*
X0226185Y0110208D01*
X0226422Y0110618D01*
X0226545Y0111076D01*
X0226545Y0116444D01*
X0222370Y0116444D01*
X0222370Y0117994D01*
X0220820Y0117994D01*
X0220820Y0124924D01*
X0218209Y0124924D01*
X0217751Y0124802D01*
X0217340Y0124565D01*
X0217005Y0124229D01*
X0216768Y0123819D01*
X0216646Y0123361D01*
X0216646Y0117994D01*
X0220820Y0117994D01*
X0220820Y0116444D01*
X0216646Y0116444D01*
X0216646Y0111076D01*
X0216768Y0110618D01*
X0217005Y0110208D01*
X0217340Y0109873D01*
X0217751Y0109636D01*
X0218209Y0109513D01*
X0220820Y0109513D01*
X0220820Y0116444D01*
X0222370Y0116444D01*
X0222370Y0109513D01*
X0224982Y0109513D01*
X0225440Y0109636D01*
X0222370Y0109694D02*
X0220820Y0109694D01*
X0220820Y0111293D02*
X0222370Y0111293D01*
X0222370Y0112891D02*
X0220820Y0112891D01*
X0220820Y0114490D02*
X0222370Y0114490D01*
X0222370Y0116088D02*
X0220820Y0116088D01*
X0220820Y0117687D02*
X0208345Y0117687D01*
X0208345Y0116088D02*
X0216646Y0116088D01*
X0216646Y0114490D02*
X0208345Y0114490D01*
X0208345Y0112891D02*
X0216646Y0112891D01*
X0216646Y0111293D02*
X0208345Y0111293D01*
X0199182Y0109694D02*
X0217649Y0109694D01*
X0222370Y0117687D02*
X0252595Y0117687D01*
X0252595Y0116088D02*
X0226545Y0116088D01*
X0226545Y0114490D02*
X0252595Y0114490D01*
X0252595Y0119286D02*
X0226545Y0119286D01*
X0226545Y0117994D02*
X0226545Y0123361D01*
X0226422Y0123819D01*
X0226185Y0124229D01*
X0225850Y0124565D01*
X0225440Y0124802D01*
X0224982Y0124924D01*
X0222370Y0124924D01*
X0222370Y0117994D01*
X0226545Y0117994D01*
X0226545Y0120884D02*
X0252595Y0120884D01*
X0238141Y0122483D02*
X0226545Y0122483D01*
X0226271Y0124081D02*
X0236666Y0124081D01*
X0222370Y0124081D02*
X0220820Y0124081D01*
X0220820Y0122483D02*
X0222370Y0122483D01*
X0222370Y0120884D02*
X0220820Y0120884D01*
X0220820Y0119286D02*
X0222370Y0119286D01*
X0216646Y0119286D02*
X0208345Y0119286D01*
X0208345Y0120884D02*
X0216646Y0120884D01*
X0216646Y0122483D02*
X0208345Y0122483D01*
X0208051Y0124081D02*
X0216919Y0124081D01*
X0229110Y0108096D02*
X0197584Y0108096D01*
X0195985Y0106497D02*
X0229110Y0106497D01*
X0229344Y0104899D02*
X0194387Y0104899D01*
X0227595Y0103300D02*
X0230942Y0103300D01*
X0242220Y0074527D02*
X0242970Y0074527D01*
X0242970Y0072929D02*
X0242220Y0072929D01*
X0242220Y0071330D02*
X0242970Y0071330D01*
X0242970Y0069732D02*
X0242220Y0069732D01*
X0242220Y0068133D02*
X0242970Y0068133D01*
X0242970Y0064936D02*
X0242220Y0064936D01*
X0242220Y0063338D02*
X0242970Y0063338D01*
X0242970Y0061739D02*
X0242220Y0061739D01*
X0242220Y0060141D02*
X0242970Y0060141D01*
X0242970Y0058542D02*
X0242220Y0058542D01*
X0235095Y0055345D02*
X0252595Y0055345D01*
X0252595Y0053747D02*
X0235095Y0053747D01*
X0235095Y0052148D02*
X0252595Y0052148D01*
X0252595Y0069732D02*
X0247920Y0069732D01*
X0247754Y0071330D02*
X0252595Y0071330D01*
X0252595Y0072929D02*
X0247032Y0072929D01*
X0245390Y0074527D02*
X0252595Y0074527D01*
X0252595Y0167241D02*
X0183761Y0167241D01*
X0185474Y0168839D02*
X0252595Y0168839D01*
X0252595Y0170438D02*
X0185776Y0170438D01*
X0187855Y0183226D02*
X0143398Y0183226D01*
X0194855Y0183226D02*
X0195336Y0183226D01*
X0202335Y0183226D02*
X0206605Y0183226D01*
X0205946Y0181627D02*
X0202994Y0181627D01*
X0202994Y0176832D02*
X0205946Y0176832D01*
X0206048Y0175233D02*
X0202892Y0175233D01*
X0200845Y0173635D02*
X0252595Y0173635D01*
X0252595Y0175233D02*
X0221642Y0175233D01*
X0221744Y0176832D02*
X0223965Y0176832D01*
X0228725Y0176832D02*
X0252595Y0176832D01*
X0252595Y0178430D02*
X0229526Y0178430D01*
X0229342Y0180029D02*
X0252595Y0180029D01*
X0252595Y0181627D02*
X0228167Y0181627D01*
X0224523Y0181627D02*
X0221744Y0181627D01*
X0221085Y0183226D02*
X0252595Y0183226D01*
X0252595Y0172036D02*
X0199759Y0172036D01*
X0213605Y0183226D02*
X0214086Y0183226D01*
X0078446Y0157650D02*
X0062705Y0157650D01*
D23*
X0060105Y0158941D02*
X0060105Y0141451D01*
X0060105Y0132701D01*
X0060095Y0132691D01*
X0060095Y0126451D01*
X0060105Y0158941D02*
X0060095Y0158951D01*
X0062595Y0161451D01*
X0090095Y0161451D01*
X0100095Y0161451D01*
X0132595Y0161451D01*
X0138845Y0167701D01*
X0138845Y0172711D01*
X0137595Y0173951D02*
X0180095Y0173951D01*
X0182595Y0171451D01*
X0182595Y0170201D01*
D24*
X0177595Y0088951D02*
X0177595Y0076451D01*
X0167595Y0066451D01*
X0187595Y0066451D02*
X0200095Y0066451D01*
X0207595Y0073951D01*
X0207595Y0083951D01*
X0212595Y0088951D01*
X0142595Y0088951D02*
X0142595Y0086451D01*
X0122595Y0066451D01*
X0102595Y0066451D02*
X0102595Y0088951D01*
X0082595Y0066451D02*
X0072595Y0076451D01*
X0072595Y0088951D01*
D25*
X0142595Y0123951D03*
M02*
