%
M48
M72
T01C0.02362
T02C0.03200
T03C0.04000
T04C0.04700
T05C0.12598
%
T01
X92595Y88951
X75095Y106451
X60095Y126451
X75095Y152701
X115095Y152701
X146345Y177701
X156345Y178951
X182595Y170201
X183845Y177701
X226345Y178951
X226345Y168951
X187595Y103951
X162595Y93951
X127595Y88951
X122595Y106451
X142595Y123951
T02
X169577Y133433
X176648Y140504
X234060Y107183
X244060Y107183
T03
X243845Y126451
X243845Y136451
X170095Y162701
X160095Y162701
X150095Y162701
T04
X147595Y66451
X167595Y66451
X187595Y66451
X222595Y66451
X242595Y66451
X122595Y66451
X102595Y66451
X82595Y66451
X62595Y66451
T05
X62359Y38252
X249839Y38646
X249839Y195929
X62753Y195929
M30
