G75*
%MOIN*%
%OFA0B0*%
%FSLAX25Y25*%
%IPPOS*%
%LPD*%
%AMOC8*
5,1,8,0,0,1.08239X$1,22.5*
%
%ADD10C,0.00000*%
%ADD11C,0.00512*%
%ADD12C,0.00600*%
%ADD13C,0.01260*%
%ADD14C,0.06300*%
%ADD15R,0.05118X0.05906*%
%ADD16R,0.04400X0.07100*%
%ADD17R,0.09055X0.06299*%
%ADD18R,0.06400X0.08600*%
%ADD19R,0.07874X0.04724*%
%ADD20R,0.11800X0.29500*%
%ADD21C,0.07050*%
%ADD22R,0.07800X0.02200*%
%ADD23OC8,0.06300*%
%ADD24C,0.06000*%
%ADD25C,0.03562*%
%ADD26C,0.01200*%
%ADD27C,0.01000*%
%ADD28C,0.01600*%
%ADD29C,0.02400*%
%ADD30C,0.04000*%
%ADD31OC8,0.03562*%
D10*
X0052477Y0025103D02*
X0261020Y0024709D01*
X0261020Y0209788D01*
X0052477Y0209788D01*
X0052477Y0025103D01*
X0056060Y0038252D02*
X0056062Y0038410D01*
X0056068Y0038568D01*
X0056078Y0038726D01*
X0056092Y0038884D01*
X0056110Y0039041D01*
X0056131Y0039198D01*
X0056157Y0039354D01*
X0056187Y0039510D01*
X0056220Y0039665D01*
X0056258Y0039818D01*
X0056299Y0039971D01*
X0056344Y0040123D01*
X0056393Y0040274D01*
X0056446Y0040423D01*
X0056502Y0040571D01*
X0056562Y0040717D01*
X0056626Y0040862D01*
X0056694Y0041005D01*
X0056765Y0041147D01*
X0056839Y0041287D01*
X0056917Y0041424D01*
X0056999Y0041560D01*
X0057083Y0041694D01*
X0057172Y0041825D01*
X0057263Y0041954D01*
X0057358Y0042081D01*
X0057455Y0042206D01*
X0057556Y0042328D01*
X0057660Y0042447D01*
X0057767Y0042564D01*
X0057877Y0042678D01*
X0057990Y0042789D01*
X0058105Y0042898D01*
X0058223Y0043003D01*
X0058344Y0043105D01*
X0058467Y0043205D01*
X0058593Y0043301D01*
X0058721Y0043394D01*
X0058851Y0043484D01*
X0058984Y0043570D01*
X0059119Y0043654D01*
X0059255Y0043733D01*
X0059394Y0043810D01*
X0059535Y0043882D01*
X0059677Y0043952D01*
X0059821Y0044017D01*
X0059967Y0044079D01*
X0060114Y0044137D01*
X0060263Y0044192D01*
X0060413Y0044243D01*
X0060564Y0044290D01*
X0060716Y0044333D01*
X0060869Y0044372D01*
X0061024Y0044408D01*
X0061179Y0044439D01*
X0061335Y0044467D01*
X0061491Y0044491D01*
X0061648Y0044511D01*
X0061806Y0044527D01*
X0061963Y0044539D01*
X0062122Y0044547D01*
X0062280Y0044551D01*
X0062438Y0044551D01*
X0062596Y0044547D01*
X0062755Y0044539D01*
X0062912Y0044527D01*
X0063070Y0044511D01*
X0063227Y0044491D01*
X0063383Y0044467D01*
X0063539Y0044439D01*
X0063694Y0044408D01*
X0063849Y0044372D01*
X0064002Y0044333D01*
X0064154Y0044290D01*
X0064305Y0044243D01*
X0064455Y0044192D01*
X0064604Y0044137D01*
X0064751Y0044079D01*
X0064897Y0044017D01*
X0065041Y0043952D01*
X0065183Y0043882D01*
X0065324Y0043810D01*
X0065463Y0043733D01*
X0065599Y0043654D01*
X0065734Y0043570D01*
X0065867Y0043484D01*
X0065997Y0043394D01*
X0066125Y0043301D01*
X0066251Y0043205D01*
X0066374Y0043105D01*
X0066495Y0043003D01*
X0066613Y0042898D01*
X0066728Y0042789D01*
X0066841Y0042678D01*
X0066951Y0042564D01*
X0067058Y0042447D01*
X0067162Y0042328D01*
X0067263Y0042206D01*
X0067360Y0042081D01*
X0067455Y0041954D01*
X0067546Y0041825D01*
X0067635Y0041694D01*
X0067719Y0041560D01*
X0067801Y0041424D01*
X0067879Y0041287D01*
X0067953Y0041147D01*
X0068024Y0041005D01*
X0068092Y0040862D01*
X0068156Y0040717D01*
X0068216Y0040571D01*
X0068272Y0040423D01*
X0068325Y0040274D01*
X0068374Y0040123D01*
X0068419Y0039971D01*
X0068460Y0039818D01*
X0068498Y0039665D01*
X0068531Y0039510D01*
X0068561Y0039354D01*
X0068587Y0039198D01*
X0068608Y0039041D01*
X0068626Y0038884D01*
X0068640Y0038726D01*
X0068650Y0038568D01*
X0068656Y0038410D01*
X0068658Y0038252D01*
X0068656Y0038094D01*
X0068650Y0037936D01*
X0068640Y0037778D01*
X0068626Y0037620D01*
X0068608Y0037463D01*
X0068587Y0037306D01*
X0068561Y0037150D01*
X0068531Y0036994D01*
X0068498Y0036839D01*
X0068460Y0036686D01*
X0068419Y0036533D01*
X0068374Y0036381D01*
X0068325Y0036230D01*
X0068272Y0036081D01*
X0068216Y0035933D01*
X0068156Y0035787D01*
X0068092Y0035642D01*
X0068024Y0035499D01*
X0067953Y0035357D01*
X0067879Y0035217D01*
X0067801Y0035080D01*
X0067719Y0034944D01*
X0067635Y0034810D01*
X0067546Y0034679D01*
X0067455Y0034550D01*
X0067360Y0034423D01*
X0067263Y0034298D01*
X0067162Y0034176D01*
X0067058Y0034057D01*
X0066951Y0033940D01*
X0066841Y0033826D01*
X0066728Y0033715D01*
X0066613Y0033606D01*
X0066495Y0033501D01*
X0066374Y0033399D01*
X0066251Y0033299D01*
X0066125Y0033203D01*
X0065997Y0033110D01*
X0065867Y0033020D01*
X0065734Y0032934D01*
X0065599Y0032850D01*
X0065463Y0032771D01*
X0065324Y0032694D01*
X0065183Y0032622D01*
X0065041Y0032552D01*
X0064897Y0032487D01*
X0064751Y0032425D01*
X0064604Y0032367D01*
X0064455Y0032312D01*
X0064305Y0032261D01*
X0064154Y0032214D01*
X0064002Y0032171D01*
X0063849Y0032132D01*
X0063694Y0032096D01*
X0063539Y0032065D01*
X0063383Y0032037D01*
X0063227Y0032013D01*
X0063070Y0031993D01*
X0062912Y0031977D01*
X0062755Y0031965D01*
X0062596Y0031957D01*
X0062438Y0031953D01*
X0062280Y0031953D01*
X0062122Y0031957D01*
X0061963Y0031965D01*
X0061806Y0031977D01*
X0061648Y0031993D01*
X0061491Y0032013D01*
X0061335Y0032037D01*
X0061179Y0032065D01*
X0061024Y0032096D01*
X0060869Y0032132D01*
X0060716Y0032171D01*
X0060564Y0032214D01*
X0060413Y0032261D01*
X0060263Y0032312D01*
X0060114Y0032367D01*
X0059967Y0032425D01*
X0059821Y0032487D01*
X0059677Y0032552D01*
X0059535Y0032622D01*
X0059394Y0032694D01*
X0059255Y0032771D01*
X0059119Y0032850D01*
X0058984Y0032934D01*
X0058851Y0033020D01*
X0058721Y0033110D01*
X0058593Y0033203D01*
X0058467Y0033299D01*
X0058344Y0033399D01*
X0058223Y0033501D01*
X0058105Y0033606D01*
X0057990Y0033715D01*
X0057877Y0033826D01*
X0057767Y0033940D01*
X0057660Y0034057D01*
X0057556Y0034176D01*
X0057455Y0034298D01*
X0057358Y0034423D01*
X0057263Y0034550D01*
X0057172Y0034679D01*
X0057083Y0034810D01*
X0056999Y0034944D01*
X0056917Y0035080D01*
X0056839Y0035217D01*
X0056765Y0035357D01*
X0056694Y0035499D01*
X0056626Y0035642D01*
X0056562Y0035787D01*
X0056502Y0035933D01*
X0056446Y0036081D01*
X0056393Y0036230D01*
X0056344Y0036381D01*
X0056299Y0036533D01*
X0056258Y0036686D01*
X0056220Y0036839D01*
X0056187Y0036994D01*
X0056157Y0037150D01*
X0056131Y0037306D01*
X0056110Y0037463D01*
X0056092Y0037620D01*
X0056078Y0037778D01*
X0056068Y0037936D01*
X0056062Y0038094D01*
X0056060Y0038252D01*
X0052595Y0048951D02*
X0253796Y0048951D01*
X0243540Y0038646D02*
X0243542Y0038804D01*
X0243548Y0038962D01*
X0243558Y0039120D01*
X0243572Y0039278D01*
X0243590Y0039435D01*
X0243611Y0039592D01*
X0243637Y0039748D01*
X0243667Y0039904D01*
X0243700Y0040059D01*
X0243738Y0040212D01*
X0243779Y0040365D01*
X0243824Y0040517D01*
X0243873Y0040668D01*
X0243926Y0040817D01*
X0243982Y0040965D01*
X0244042Y0041111D01*
X0244106Y0041256D01*
X0244174Y0041399D01*
X0244245Y0041541D01*
X0244319Y0041681D01*
X0244397Y0041818D01*
X0244479Y0041954D01*
X0244563Y0042088D01*
X0244652Y0042219D01*
X0244743Y0042348D01*
X0244838Y0042475D01*
X0244935Y0042600D01*
X0245036Y0042722D01*
X0245140Y0042841D01*
X0245247Y0042958D01*
X0245357Y0043072D01*
X0245470Y0043183D01*
X0245585Y0043292D01*
X0245703Y0043397D01*
X0245824Y0043499D01*
X0245947Y0043599D01*
X0246073Y0043695D01*
X0246201Y0043788D01*
X0246331Y0043878D01*
X0246464Y0043964D01*
X0246599Y0044048D01*
X0246735Y0044127D01*
X0246874Y0044204D01*
X0247015Y0044276D01*
X0247157Y0044346D01*
X0247301Y0044411D01*
X0247447Y0044473D01*
X0247594Y0044531D01*
X0247743Y0044586D01*
X0247893Y0044637D01*
X0248044Y0044684D01*
X0248196Y0044727D01*
X0248349Y0044766D01*
X0248504Y0044802D01*
X0248659Y0044833D01*
X0248815Y0044861D01*
X0248971Y0044885D01*
X0249128Y0044905D01*
X0249286Y0044921D01*
X0249443Y0044933D01*
X0249602Y0044941D01*
X0249760Y0044945D01*
X0249918Y0044945D01*
X0250076Y0044941D01*
X0250235Y0044933D01*
X0250392Y0044921D01*
X0250550Y0044905D01*
X0250707Y0044885D01*
X0250863Y0044861D01*
X0251019Y0044833D01*
X0251174Y0044802D01*
X0251329Y0044766D01*
X0251482Y0044727D01*
X0251634Y0044684D01*
X0251785Y0044637D01*
X0251935Y0044586D01*
X0252084Y0044531D01*
X0252231Y0044473D01*
X0252377Y0044411D01*
X0252521Y0044346D01*
X0252663Y0044276D01*
X0252804Y0044204D01*
X0252943Y0044127D01*
X0253079Y0044048D01*
X0253214Y0043964D01*
X0253347Y0043878D01*
X0253477Y0043788D01*
X0253605Y0043695D01*
X0253731Y0043599D01*
X0253854Y0043499D01*
X0253975Y0043397D01*
X0254093Y0043292D01*
X0254208Y0043183D01*
X0254321Y0043072D01*
X0254431Y0042958D01*
X0254538Y0042841D01*
X0254642Y0042722D01*
X0254743Y0042600D01*
X0254840Y0042475D01*
X0254935Y0042348D01*
X0255026Y0042219D01*
X0255115Y0042088D01*
X0255199Y0041954D01*
X0255281Y0041818D01*
X0255359Y0041681D01*
X0255433Y0041541D01*
X0255504Y0041399D01*
X0255572Y0041256D01*
X0255636Y0041111D01*
X0255696Y0040965D01*
X0255752Y0040817D01*
X0255805Y0040668D01*
X0255854Y0040517D01*
X0255899Y0040365D01*
X0255940Y0040212D01*
X0255978Y0040059D01*
X0256011Y0039904D01*
X0256041Y0039748D01*
X0256067Y0039592D01*
X0256088Y0039435D01*
X0256106Y0039278D01*
X0256120Y0039120D01*
X0256130Y0038962D01*
X0256136Y0038804D01*
X0256138Y0038646D01*
X0256136Y0038488D01*
X0256130Y0038330D01*
X0256120Y0038172D01*
X0256106Y0038014D01*
X0256088Y0037857D01*
X0256067Y0037700D01*
X0256041Y0037544D01*
X0256011Y0037388D01*
X0255978Y0037233D01*
X0255940Y0037080D01*
X0255899Y0036927D01*
X0255854Y0036775D01*
X0255805Y0036624D01*
X0255752Y0036475D01*
X0255696Y0036327D01*
X0255636Y0036181D01*
X0255572Y0036036D01*
X0255504Y0035893D01*
X0255433Y0035751D01*
X0255359Y0035611D01*
X0255281Y0035474D01*
X0255199Y0035338D01*
X0255115Y0035204D01*
X0255026Y0035073D01*
X0254935Y0034944D01*
X0254840Y0034817D01*
X0254743Y0034692D01*
X0254642Y0034570D01*
X0254538Y0034451D01*
X0254431Y0034334D01*
X0254321Y0034220D01*
X0254208Y0034109D01*
X0254093Y0034000D01*
X0253975Y0033895D01*
X0253854Y0033793D01*
X0253731Y0033693D01*
X0253605Y0033597D01*
X0253477Y0033504D01*
X0253347Y0033414D01*
X0253214Y0033328D01*
X0253079Y0033244D01*
X0252943Y0033165D01*
X0252804Y0033088D01*
X0252663Y0033016D01*
X0252521Y0032946D01*
X0252377Y0032881D01*
X0252231Y0032819D01*
X0252084Y0032761D01*
X0251935Y0032706D01*
X0251785Y0032655D01*
X0251634Y0032608D01*
X0251482Y0032565D01*
X0251329Y0032526D01*
X0251174Y0032490D01*
X0251019Y0032459D01*
X0250863Y0032431D01*
X0250707Y0032407D01*
X0250550Y0032387D01*
X0250392Y0032371D01*
X0250235Y0032359D01*
X0250076Y0032351D01*
X0249918Y0032347D01*
X0249760Y0032347D01*
X0249602Y0032351D01*
X0249443Y0032359D01*
X0249286Y0032371D01*
X0249128Y0032387D01*
X0248971Y0032407D01*
X0248815Y0032431D01*
X0248659Y0032459D01*
X0248504Y0032490D01*
X0248349Y0032526D01*
X0248196Y0032565D01*
X0248044Y0032608D01*
X0247893Y0032655D01*
X0247743Y0032706D01*
X0247594Y0032761D01*
X0247447Y0032819D01*
X0247301Y0032881D01*
X0247157Y0032946D01*
X0247015Y0033016D01*
X0246874Y0033088D01*
X0246735Y0033165D01*
X0246599Y0033244D01*
X0246464Y0033328D01*
X0246331Y0033414D01*
X0246201Y0033504D01*
X0246073Y0033597D01*
X0245947Y0033693D01*
X0245824Y0033793D01*
X0245703Y0033895D01*
X0245585Y0034000D01*
X0245470Y0034109D01*
X0245357Y0034220D01*
X0245247Y0034334D01*
X0245140Y0034451D01*
X0245036Y0034570D01*
X0244935Y0034692D01*
X0244838Y0034817D01*
X0244743Y0034944D01*
X0244652Y0035073D01*
X0244563Y0035204D01*
X0244479Y0035338D01*
X0244397Y0035474D01*
X0244319Y0035611D01*
X0244245Y0035751D01*
X0244174Y0035893D01*
X0244106Y0036036D01*
X0244042Y0036181D01*
X0243982Y0036327D01*
X0243926Y0036475D01*
X0243873Y0036624D01*
X0243824Y0036775D01*
X0243779Y0036927D01*
X0243738Y0037080D01*
X0243700Y0037233D01*
X0243667Y0037388D01*
X0243637Y0037544D01*
X0243611Y0037700D01*
X0243590Y0037857D01*
X0243572Y0038014D01*
X0243558Y0038172D01*
X0243548Y0038330D01*
X0243542Y0038488D01*
X0243540Y0038646D01*
X0243540Y0195929D02*
X0243542Y0196087D01*
X0243548Y0196245D01*
X0243558Y0196403D01*
X0243572Y0196561D01*
X0243590Y0196718D01*
X0243611Y0196875D01*
X0243637Y0197031D01*
X0243667Y0197187D01*
X0243700Y0197342D01*
X0243738Y0197495D01*
X0243779Y0197648D01*
X0243824Y0197800D01*
X0243873Y0197951D01*
X0243926Y0198100D01*
X0243982Y0198248D01*
X0244042Y0198394D01*
X0244106Y0198539D01*
X0244174Y0198682D01*
X0244245Y0198824D01*
X0244319Y0198964D01*
X0244397Y0199101D01*
X0244479Y0199237D01*
X0244563Y0199371D01*
X0244652Y0199502D01*
X0244743Y0199631D01*
X0244838Y0199758D01*
X0244935Y0199883D01*
X0245036Y0200005D01*
X0245140Y0200124D01*
X0245247Y0200241D01*
X0245357Y0200355D01*
X0245470Y0200466D01*
X0245585Y0200575D01*
X0245703Y0200680D01*
X0245824Y0200782D01*
X0245947Y0200882D01*
X0246073Y0200978D01*
X0246201Y0201071D01*
X0246331Y0201161D01*
X0246464Y0201247D01*
X0246599Y0201331D01*
X0246735Y0201410D01*
X0246874Y0201487D01*
X0247015Y0201559D01*
X0247157Y0201629D01*
X0247301Y0201694D01*
X0247447Y0201756D01*
X0247594Y0201814D01*
X0247743Y0201869D01*
X0247893Y0201920D01*
X0248044Y0201967D01*
X0248196Y0202010D01*
X0248349Y0202049D01*
X0248504Y0202085D01*
X0248659Y0202116D01*
X0248815Y0202144D01*
X0248971Y0202168D01*
X0249128Y0202188D01*
X0249286Y0202204D01*
X0249443Y0202216D01*
X0249602Y0202224D01*
X0249760Y0202228D01*
X0249918Y0202228D01*
X0250076Y0202224D01*
X0250235Y0202216D01*
X0250392Y0202204D01*
X0250550Y0202188D01*
X0250707Y0202168D01*
X0250863Y0202144D01*
X0251019Y0202116D01*
X0251174Y0202085D01*
X0251329Y0202049D01*
X0251482Y0202010D01*
X0251634Y0201967D01*
X0251785Y0201920D01*
X0251935Y0201869D01*
X0252084Y0201814D01*
X0252231Y0201756D01*
X0252377Y0201694D01*
X0252521Y0201629D01*
X0252663Y0201559D01*
X0252804Y0201487D01*
X0252943Y0201410D01*
X0253079Y0201331D01*
X0253214Y0201247D01*
X0253347Y0201161D01*
X0253477Y0201071D01*
X0253605Y0200978D01*
X0253731Y0200882D01*
X0253854Y0200782D01*
X0253975Y0200680D01*
X0254093Y0200575D01*
X0254208Y0200466D01*
X0254321Y0200355D01*
X0254431Y0200241D01*
X0254538Y0200124D01*
X0254642Y0200005D01*
X0254743Y0199883D01*
X0254840Y0199758D01*
X0254935Y0199631D01*
X0255026Y0199502D01*
X0255115Y0199371D01*
X0255199Y0199237D01*
X0255281Y0199101D01*
X0255359Y0198964D01*
X0255433Y0198824D01*
X0255504Y0198682D01*
X0255572Y0198539D01*
X0255636Y0198394D01*
X0255696Y0198248D01*
X0255752Y0198100D01*
X0255805Y0197951D01*
X0255854Y0197800D01*
X0255899Y0197648D01*
X0255940Y0197495D01*
X0255978Y0197342D01*
X0256011Y0197187D01*
X0256041Y0197031D01*
X0256067Y0196875D01*
X0256088Y0196718D01*
X0256106Y0196561D01*
X0256120Y0196403D01*
X0256130Y0196245D01*
X0256136Y0196087D01*
X0256138Y0195929D01*
X0256136Y0195771D01*
X0256130Y0195613D01*
X0256120Y0195455D01*
X0256106Y0195297D01*
X0256088Y0195140D01*
X0256067Y0194983D01*
X0256041Y0194827D01*
X0256011Y0194671D01*
X0255978Y0194516D01*
X0255940Y0194363D01*
X0255899Y0194210D01*
X0255854Y0194058D01*
X0255805Y0193907D01*
X0255752Y0193758D01*
X0255696Y0193610D01*
X0255636Y0193464D01*
X0255572Y0193319D01*
X0255504Y0193176D01*
X0255433Y0193034D01*
X0255359Y0192894D01*
X0255281Y0192757D01*
X0255199Y0192621D01*
X0255115Y0192487D01*
X0255026Y0192356D01*
X0254935Y0192227D01*
X0254840Y0192100D01*
X0254743Y0191975D01*
X0254642Y0191853D01*
X0254538Y0191734D01*
X0254431Y0191617D01*
X0254321Y0191503D01*
X0254208Y0191392D01*
X0254093Y0191283D01*
X0253975Y0191178D01*
X0253854Y0191076D01*
X0253731Y0190976D01*
X0253605Y0190880D01*
X0253477Y0190787D01*
X0253347Y0190697D01*
X0253214Y0190611D01*
X0253079Y0190527D01*
X0252943Y0190448D01*
X0252804Y0190371D01*
X0252663Y0190299D01*
X0252521Y0190229D01*
X0252377Y0190164D01*
X0252231Y0190102D01*
X0252084Y0190044D01*
X0251935Y0189989D01*
X0251785Y0189938D01*
X0251634Y0189891D01*
X0251482Y0189848D01*
X0251329Y0189809D01*
X0251174Y0189773D01*
X0251019Y0189742D01*
X0250863Y0189714D01*
X0250707Y0189690D01*
X0250550Y0189670D01*
X0250392Y0189654D01*
X0250235Y0189642D01*
X0250076Y0189634D01*
X0249918Y0189630D01*
X0249760Y0189630D01*
X0249602Y0189634D01*
X0249443Y0189642D01*
X0249286Y0189654D01*
X0249128Y0189670D01*
X0248971Y0189690D01*
X0248815Y0189714D01*
X0248659Y0189742D01*
X0248504Y0189773D01*
X0248349Y0189809D01*
X0248196Y0189848D01*
X0248044Y0189891D01*
X0247893Y0189938D01*
X0247743Y0189989D01*
X0247594Y0190044D01*
X0247447Y0190102D01*
X0247301Y0190164D01*
X0247157Y0190229D01*
X0247015Y0190299D01*
X0246874Y0190371D01*
X0246735Y0190448D01*
X0246599Y0190527D01*
X0246464Y0190611D01*
X0246331Y0190697D01*
X0246201Y0190787D01*
X0246073Y0190880D01*
X0245947Y0190976D01*
X0245824Y0191076D01*
X0245703Y0191178D01*
X0245585Y0191283D01*
X0245470Y0191392D01*
X0245357Y0191503D01*
X0245247Y0191617D01*
X0245140Y0191734D01*
X0245036Y0191853D01*
X0244935Y0191975D01*
X0244838Y0192100D01*
X0244743Y0192227D01*
X0244652Y0192356D01*
X0244563Y0192487D01*
X0244479Y0192621D01*
X0244397Y0192757D01*
X0244319Y0192894D01*
X0244245Y0193034D01*
X0244174Y0193176D01*
X0244106Y0193319D01*
X0244042Y0193464D01*
X0243982Y0193610D01*
X0243926Y0193758D01*
X0243873Y0193907D01*
X0243824Y0194058D01*
X0243779Y0194210D01*
X0243738Y0194363D01*
X0243700Y0194516D01*
X0243667Y0194671D01*
X0243637Y0194827D01*
X0243611Y0194983D01*
X0243590Y0195140D01*
X0243572Y0195297D01*
X0243558Y0195455D01*
X0243548Y0195613D01*
X0243542Y0195771D01*
X0243540Y0195929D01*
X0056454Y0195929D02*
X0056456Y0196087D01*
X0056462Y0196245D01*
X0056472Y0196403D01*
X0056486Y0196561D01*
X0056504Y0196718D01*
X0056525Y0196875D01*
X0056551Y0197031D01*
X0056581Y0197187D01*
X0056614Y0197342D01*
X0056652Y0197495D01*
X0056693Y0197648D01*
X0056738Y0197800D01*
X0056787Y0197951D01*
X0056840Y0198100D01*
X0056896Y0198248D01*
X0056956Y0198394D01*
X0057020Y0198539D01*
X0057088Y0198682D01*
X0057159Y0198824D01*
X0057233Y0198964D01*
X0057311Y0199101D01*
X0057393Y0199237D01*
X0057477Y0199371D01*
X0057566Y0199502D01*
X0057657Y0199631D01*
X0057752Y0199758D01*
X0057849Y0199883D01*
X0057950Y0200005D01*
X0058054Y0200124D01*
X0058161Y0200241D01*
X0058271Y0200355D01*
X0058384Y0200466D01*
X0058499Y0200575D01*
X0058617Y0200680D01*
X0058738Y0200782D01*
X0058861Y0200882D01*
X0058987Y0200978D01*
X0059115Y0201071D01*
X0059245Y0201161D01*
X0059378Y0201247D01*
X0059513Y0201331D01*
X0059649Y0201410D01*
X0059788Y0201487D01*
X0059929Y0201559D01*
X0060071Y0201629D01*
X0060215Y0201694D01*
X0060361Y0201756D01*
X0060508Y0201814D01*
X0060657Y0201869D01*
X0060807Y0201920D01*
X0060958Y0201967D01*
X0061110Y0202010D01*
X0061263Y0202049D01*
X0061418Y0202085D01*
X0061573Y0202116D01*
X0061729Y0202144D01*
X0061885Y0202168D01*
X0062042Y0202188D01*
X0062200Y0202204D01*
X0062357Y0202216D01*
X0062516Y0202224D01*
X0062674Y0202228D01*
X0062832Y0202228D01*
X0062990Y0202224D01*
X0063149Y0202216D01*
X0063306Y0202204D01*
X0063464Y0202188D01*
X0063621Y0202168D01*
X0063777Y0202144D01*
X0063933Y0202116D01*
X0064088Y0202085D01*
X0064243Y0202049D01*
X0064396Y0202010D01*
X0064548Y0201967D01*
X0064699Y0201920D01*
X0064849Y0201869D01*
X0064998Y0201814D01*
X0065145Y0201756D01*
X0065291Y0201694D01*
X0065435Y0201629D01*
X0065577Y0201559D01*
X0065718Y0201487D01*
X0065857Y0201410D01*
X0065993Y0201331D01*
X0066128Y0201247D01*
X0066261Y0201161D01*
X0066391Y0201071D01*
X0066519Y0200978D01*
X0066645Y0200882D01*
X0066768Y0200782D01*
X0066889Y0200680D01*
X0067007Y0200575D01*
X0067122Y0200466D01*
X0067235Y0200355D01*
X0067345Y0200241D01*
X0067452Y0200124D01*
X0067556Y0200005D01*
X0067657Y0199883D01*
X0067754Y0199758D01*
X0067849Y0199631D01*
X0067940Y0199502D01*
X0068029Y0199371D01*
X0068113Y0199237D01*
X0068195Y0199101D01*
X0068273Y0198964D01*
X0068347Y0198824D01*
X0068418Y0198682D01*
X0068486Y0198539D01*
X0068550Y0198394D01*
X0068610Y0198248D01*
X0068666Y0198100D01*
X0068719Y0197951D01*
X0068768Y0197800D01*
X0068813Y0197648D01*
X0068854Y0197495D01*
X0068892Y0197342D01*
X0068925Y0197187D01*
X0068955Y0197031D01*
X0068981Y0196875D01*
X0069002Y0196718D01*
X0069020Y0196561D01*
X0069034Y0196403D01*
X0069044Y0196245D01*
X0069050Y0196087D01*
X0069052Y0195929D01*
X0069050Y0195771D01*
X0069044Y0195613D01*
X0069034Y0195455D01*
X0069020Y0195297D01*
X0069002Y0195140D01*
X0068981Y0194983D01*
X0068955Y0194827D01*
X0068925Y0194671D01*
X0068892Y0194516D01*
X0068854Y0194363D01*
X0068813Y0194210D01*
X0068768Y0194058D01*
X0068719Y0193907D01*
X0068666Y0193758D01*
X0068610Y0193610D01*
X0068550Y0193464D01*
X0068486Y0193319D01*
X0068418Y0193176D01*
X0068347Y0193034D01*
X0068273Y0192894D01*
X0068195Y0192757D01*
X0068113Y0192621D01*
X0068029Y0192487D01*
X0067940Y0192356D01*
X0067849Y0192227D01*
X0067754Y0192100D01*
X0067657Y0191975D01*
X0067556Y0191853D01*
X0067452Y0191734D01*
X0067345Y0191617D01*
X0067235Y0191503D01*
X0067122Y0191392D01*
X0067007Y0191283D01*
X0066889Y0191178D01*
X0066768Y0191076D01*
X0066645Y0190976D01*
X0066519Y0190880D01*
X0066391Y0190787D01*
X0066261Y0190697D01*
X0066128Y0190611D01*
X0065993Y0190527D01*
X0065857Y0190448D01*
X0065718Y0190371D01*
X0065577Y0190299D01*
X0065435Y0190229D01*
X0065291Y0190164D01*
X0065145Y0190102D01*
X0064998Y0190044D01*
X0064849Y0189989D01*
X0064699Y0189938D01*
X0064548Y0189891D01*
X0064396Y0189848D01*
X0064243Y0189809D01*
X0064088Y0189773D01*
X0063933Y0189742D01*
X0063777Y0189714D01*
X0063621Y0189690D01*
X0063464Y0189670D01*
X0063306Y0189654D01*
X0063149Y0189642D01*
X0062990Y0189634D01*
X0062832Y0189630D01*
X0062674Y0189630D01*
X0062516Y0189634D01*
X0062357Y0189642D01*
X0062200Y0189654D01*
X0062042Y0189670D01*
X0061885Y0189690D01*
X0061729Y0189714D01*
X0061573Y0189742D01*
X0061418Y0189773D01*
X0061263Y0189809D01*
X0061110Y0189848D01*
X0060958Y0189891D01*
X0060807Y0189938D01*
X0060657Y0189989D01*
X0060508Y0190044D01*
X0060361Y0190102D01*
X0060215Y0190164D01*
X0060071Y0190229D01*
X0059929Y0190299D01*
X0059788Y0190371D01*
X0059649Y0190448D01*
X0059513Y0190527D01*
X0059378Y0190611D01*
X0059245Y0190697D01*
X0059115Y0190787D01*
X0058987Y0190880D01*
X0058861Y0190976D01*
X0058738Y0191076D01*
X0058617Y0191178D01*
X0058499Y0191283D01*
X0058384Y0191392D01*
X0058271Y0191503D01*
X0058161Y0191617D01*
X0058054Y0191734D01*
X0057950Y0191853D01*
X0057849Y0191975D01*
X0057752Y0192100D01*
X0057657Y0192227D01*
X0057566Y0192356D01*
X0057477Y0192487D01*
X0057393Y0192621D01*
X0057311Y0192757D01*
X0057233Y0192894D01*
X0057159Y0193034D01*
X0057088Y0193176D01*
X0057020Y0193319D01*
X0056956Y0193464D01*
X0056896Y0193610D01*
X0056840Y0193758D01*
X0056787Y0193907D01*
X0056738Y0194058D01*
X0056693Y0194210D01*
X0056652Y0194363D01*
X0056614Y0194516D01*
X0056581Y0194671D01*
X0056551Y0194827D01*
X0056525Y0194983D01*
X0056504Y0195140D01*
X0056486Y0195297D01*
X0056472Y0195455D01*
X0056462Y0195613D01*
X0056456Y0195771D01*
X0056454Y0195929D01*
D11*
X0052477Y0025103D02*
X0004918Y0025103D01*
X0012595Y0025358D02*
X0013619Y0035339D01*
X0013852Y0035339D02*
X0012595Y0025358D01*
X0011572Y0035339D01*
X0011338Y0035339D02*
X0013852Y0035339D01*
X0013107Y0035339D02*
X0012595Y0025358D01*
X0012083Y0035339D01*
X0011338Y0035339D02*
X0012595Y0025358D01*
X0012595Y0209532D01*
X0013619Y0199551D01*
X0013852Y0199551D02*
X0012595Y0209532D01*
X0011572Y0199551D01*
X0011338Y0199551D02*
X0013852Y0199551D01*
X0013107Y0199551D02*
X0012595Y0209532D01*
X0012083Y0199551D01*
X0011338Y0199551D02*
X0012595Y0209532D01*
X0004918Y0209788D02*
X0052477Y0209788D01*
X0052595Y0186412D02*
X0024918Y0186412D01*
X0032595Y0186156D02*
X0033619Y0176175D01*
X0033852Y0176175D02*
X0032595Y0186156D01*
X0031572Y0176175D01*
X0031338Y0176175D02*
X0033852Y0176175D01*
X0033107Y0176175D02*
X0032595Y0186156D01*
X0032083Y0176175D01*
X0031338Y0176175D02*
X0032595Y0186156D01*
X0032595Y0049207D01*
X0033619Y0059187D01*
X0033852Y0059187D02*
X0032595Y0049207D01*
X0031572Y0059187D01*
X0031338Y0059187D02*
X0033852Y0059187D01*
X0033107Y0059187D02*
X0032595Y0049207D01*
X0032083Y0059187D01*
X0031338Y0059187D02*
X0032595Y0049207D01*
X0024918Y0048951D02*
X0052595Y0048951D01*
X0052595Y0026274D01*
X0052595Y0023951D02*
X0052678Y0001256D01*
X0052906Y0008934D02*
X0062890Y0007947D01*
X0062890Y0007713D02*
X0052906Y0008934D01*
X0062882Y0009994D01*
X0062881Y0010227D02*
X0062890Y0007713D01*
X0062888Y0008458D02*
X0052906Y0008934D01*
X0062884Y0009482D01*
X0062881Y0010227D02*
X0052906Y0008934D01*
X0260819Y0009690D01*
X0250843Y0008630D01*
X0250843Y0008397D02*
X0260819Y0009690D01*
X0250835Y0010677D01*
X0250834Y0010911D02*
X0250843Y0008397D01*
X0250841Y0009142D02*
X0260819Y0009690D01*
X0250837Y0010165D01*
X0250834Y0010911D02*
X0260819Y0009690D01*
X0261103Y0002014D02*
X0261020Y0024709D01*
X0252595Y0026274D02*
X0252595Y0048951D01*
X0252339Y0033951D02*
X0242359Y0034975D01*
X0242359Y0035208D02*
X0242359Y0032694D01*
X0252339Y0033951D01*
X0242359Y0032927D01*
X0242359Y0033439D02*
X0252339Y0033951D01*
X0242359Y0034463D01*
X0242359Y0035208D02*
X0252339Y0033951D01*
X0052851Y0033951D01*
X0062831Y0032927D01*
X0062831Y0032694D02*
X0052851Y0033951D01*
X0062831Y0034975D01*
X0062831Y0035208D02*
X0062831Y0032694D01*
X0062831Y0033439D02*
X0052851Y0033951D01*
X0062831Y0034463D01*
X0062831Y0035208D02*
X0052851Y0033951D01*
D12*
X0028966Y0105506D02*
X0030033Y0106574D01*
X0030033Y0108709D01*
X0028966Y0109777D01*
X0027898Y0109777D01*
X0026831Y0108709D01*
X0026831Y0107641D01*
X0026831Y0108709D02*
X0025763Y0109777D01*
X0024695Y0109777D01*
X0023628Y0108709D01*
X0023628Y0106574D01*
X0024695Y0105506D01*
X0026831Y0111952D02*
X0026831Y0116222D01*
X0028966Y0118397D02*
X0028966Y0119465D01*
X0030033Y0119465D01*
X0030033Y0118397D01*
X0028966Y0118397D01*
X0028966Y0121620D02*
X0030033Y0122687D01*
X0030033Y0124823D01*
X0028966Y0125890D01*
X0024695Y0125890D01*
X0023628Y0124823D01*
X0023628Y0122687D01*
X0024695Y0121620D01*
X0025763Y0121620D01*
X0026831Y0122687D01*
X0026831Y0125890D01*
X0024695Y0128065D02*
X0023628Y0129133D01*
X0023628Y0131268D01*
X0024695Y0132336D01*
X0025763Y0132336D01*
X0030033Y0128065D01*
X0030033Y0132336D01*
X0030033Y0115154D02*
X0023628Y0115154D01*
X0026831Y0111952D01*
X0010033Y0112783D02*
X0008966Y0111715D01*
X0006831Y0111715D01*
X0006831Y0114918D01*
X0007898Y0115986D01*
X0008966Y0115986D01*
X0010033Y0114918D01*
X0010033Y0112783D01*
X0006831Y0111715D02*
X0004695Y0113851D01*
X0003628Y0115986D01*
X0008966Y0118161D02*
X0008966Y0119229D01*
X0010033Y0119229D01*
X0010033Y0118161D01*
X0008966Y0118161D01*
X0008966Y0121384D02*
X0010033Y0122451D01*
X0010033Y0124586D01*
X0008966Y0125654D01*
X0004695Y0125654D01*
X0003628Y0124586D01*
X0003628Y0122451D01*
X0004695Y0121384D01*
X0005763Y0121384D01*
X0006831Y0122451D01*
X0006831Y0125654D01*
X0005763Y0127829D02*
X0003628Y0129964D01*
X0010033Y0129964D01*
X0010033Y0127829D02*
X0010033Y0132100D01*
X0006831Y0109540D02*
X0006831Y0105270D01*
X0003628Y0108473D01*
X0010033Y0108473D01*
X0140420Y0042918D02*
X0140420Y0039716D01*
X0142555Y0040783D01*
X0143623Y0040783D01*
X0144690Y0039716D01*
X0144690Y0037580D01*
X0143623Y0036513D01*
X0141488Y0036513D01*
X0140420Y0037580D01*
X0146866Y0037580D02*
X0146866Y0041851D01*
X0147933Y0042918D01*
X0150068Y0042918D01*
X0151136Y0041851D01*
X0146866Y0037580D01*
X0147933Y0036513D01*
X0150068Y0036513D01*
X0151136Y0037580D01*
X0151136Y0041851D01*
X0153311Y0037580D02*
X0154379Y0037580D01*
X0154379Y0036513D01*
X0153311Y0036513D01*
X0153311Y0037580D01*
X0156534Y0037580D02*
X0156534Y0038648D01*
X0157601Y0039716D01*
X0159736Y0039716D01*
X0160804Y0038648D01*
X0160804Y0037580D01*
X0159736Y0036513D01*
X0157601Y0036513D01*
X0156534Y0037580D01*
X0157601Y0039716D02*
X0156534Y0040783D01*
X0156534Y0041851D01*
X0157601Y0042918D01*
X0159736Y0042918D01*
X0160804Y0041851D01*
X0160804Y0040783D01*
X0159736Y0039716D01*
X0162979Y0041851D02*
X0164047Y0042918D01*
X0166182Y0042918D01*
X0167250Y0041851D01*
X0162979Y0037580D01*
X0164047Y0036513D01*
X0166182Y0036513D01*
X0167250Y0037580D01*
X0167250Y0041851D01*
X0162979Y0041851D02*
X0162979Y0037580D01*
X0144690Y0042918D02*
X0140420Y0042918D01*
X0144656Y0018235D02*
X0144667Y0015032D01*
X0146798Y0016107D01*
X0147866Y0016111D01*
X0148937Y0015047D01*
X0148945Y0012912D01*
X0147881Y0011841D01*
X0145746Y0011833D01*
X0144674Y0012897D01*
X0144656Y0018235D02*
X0148926Y0018250D01*
X0151105Y0017190D02*
X0152169Y0018261D01*
X0154304Y0018269D01*
X0155375Y0017205D01*
X0155379Y0016137D01*
X0151123Y0011852D01*
X0155394Y0011867D01*
X0157569Y0011874D02*
X0157565Y0012942D01*
X0158633Y0012946D01*
X0158636Y0011878D01*
X0157569Y0011874D01*
X0160788Y0012953D02*
X0161859Y0011889D01*
X0163994Y0011897D01*
X0165058Y0012968D01*
X0165043Y0017238D01*
X0163972Y0018302D01*
X0161837Y0018295D01*
X0160773Y0017224D01*
X0160777Y0016156D01*
X0161848Y0015092D01*
X0165051Y0015103D01*
X0167226Y0015111D02*
X0171496Y0015126D01*
X0170417Y0018325D02*
X0167226Y0015111D01*
X0170440Y0011919D02*
X0170417Y0018325D01*
D13*
X0167688Y0133019D02*
X0167058Y0132389D01*
X0167058Y0134477D01*
X0168533Y0135952D01*
X0170621Y0135952D01*
X0172096Y0134477D01*
X0172096Y0132389D01*
X0170621Y0130914D01*
X0168533Y0130914D01*
X0167058Y0132389D01*
X0168003Y0132781D01*
X0168003Y0134085D01*
X0168925Y0135007D01*
X0170229Y0135007D01*
X0171151Y0134085D01*
X0171151Y0132781D01*
X0170229Y0131859D01*
X0168925Y0131859D01*
X0168003Y0132781D01*
X0168948Y0133172D01*
X0168948Y0133694D01*
X0169316Y0134062D01*
X0169838Y0134062D01*
X0170206Y0133694D01*
X0170206Y0133172D01*
X0169838Y0132804D01*
X0169316Y0132804D01*
X0168948Y0133172D01*
D14*
X0176648Y0140504D03*
X0244060Y0107183D03*
D15*
X0211335Y0127701D03*
X0203855Y0127701D03*
X0186335Y0113951D03*
X0178855Y0113951D03*
X0176335Y0093951D03*
X0168855Y0093951D03*
X0186355Y0093951D03*
X0193835Y0093951D03*
X0147585Y0092701D03*
X0140105Y0092701D03*
X0111335Y0088951D03*
X0103855Y0088951D03*
X0086335Y0088951D03*
X0078855Y0088951D03*
X0067585Y0088951D03*
X0060105Y0088951D03*
D16*
X0212945Y0095201D03*
X0224745Y0095201D03*
D17*
X0236247Y0177701D03*
X0211444Y0177701D03*
X0199997Y0177701D03*
X0175194Y0177701D03*
X0163747Y0177701D03*
X0138944Y0177701D03*
D18*
X0226345Y0161251D03*
X0226345Y0146651D03*
D19*
X0131375Y0149069D03*
X0131375Y0141195D03*
X0131375Y0133321D03*
X0131375Y0125447D03*
X0131375Y0117573D03*
X0131375Y0109699D03*
X0131375Y0101825D03*
X0067595Y0101825D03*
X0067595Y0109699D03*
X0067595Y0117573D03*
X0067595Y0125447D03*
X0067595Y0133321D03*
X0067595Y0141195D03*
X0067595Y0149069D03*
X0067595Y0156943D03*
X0131375Y0156943D03*
D20*
X0193995Y0148951D03*
X0213695Y0148951D03*
D21*
X0222595Y0069976D02*
X0222595Y0062926D01*
X0242595Y0062926D02*
X0242595Y0069976D01*
X0187595Y0069976D02*
X0187595Y0062926D01*
X0167595Y0062926D02*
X0167595Y0069976D01*
X0147595Y0069976D02*
X0147595Y0062926D01*
X0122595Y0062926D02*
X0122595Y0069976D01*
X0102595Y0069976D02*
X0102595Y0062926D01*
X0082595Y0062926D02*
X0082595Y0069976D01*
X0062595Y0069976D02*
X0062595Y0062926D01*
D22*
X0197895Y0103951D03*
X0197895Y0108951D03*
X0197895Y0113951D03*
X0197895Y0118951D03*
X0217295Y0118951D03*
X0217295Y0113951D03*
X0217295Y0108951D03*
X0217295Y0103951D03*
D23*
X0234060Y0107183D03*
D24*
X0240845Y0126451D02*
X0246845Y0126451D01*
X0246845Y0136451D02*
X0240845Y0136451D01*
X0170095Y0159701D02*
X0170095Y0165701D01*
X0160095Y0165701D02*
X0160095Y0159701D01*
X0150095Y0159701D02*
X0150095Y0165701D01*
D25*
X0146345Y0177701D03*
X0156345Y0178951D03*
X0182595Y0170201D03*
X0183845Y0177701D03*
X0226345Y0178951D03*
X0226345Y0168951D03*
X0187595Y0103951D03*
X0162595Y0093951D03*
X0127595Y0088951D03*
X0122595Y0106451D03*
X0092595Y0088951D03*
X0075095Y0106451D03*
X0060095Y0126451D03*
X0075095Y0152701D03*
X0115095Y0152701D03*
D26*
X0120095Y0152701D01*
X0122595Y0150201D01*
X0122595Y0123951D01*
X0127595Y0118951D01*
X0126099Y0125447D02*
X0125095Y0126451D01*
X0125095Y0143951D01*
X0126345Y0145201D01*
X0152595Y0145201D01*
X0165095Y0157701D01*
X0165095Y0170201D01*
X0167595Y0172701D01*
X0180095Y0172701D01*
X0183845Y0176451D01*
X0183845Y0177701D01*
X0199997Y0177701D01*
X0202595Y0173151D02*
X0194889Y0173151D01*
X0194090Y0173951D01*
X0183891Y0173951D01*
X0180841Y0170901D01*
X0168341Y0170901D01*
X0166895Y0169455D01*
X0166895Y0168724D01*
X0167603Y0169431D01*
X0169220Y0170101D01*
X0170970Y0170101D01*
X0172588Y0169431D01*
X0173825Y0168193D01*
X0174495Y0166576D01*
X0174495Y0158826D01*
X0173825Y0157209D01*
X0172588Y0155971D01*
X0170970Y0155301D01*
X0169220Y0155301D01*
X0167603Y0155971D01*
X0166757Y0156817D01*
X0165841Y0155901D01*
X0165841Y0155901D01*
X0154395Y0144455D01*
X0154395Y0144455D01*
X0153341Y0143401D01*
X0136712Y0143401D01*
X0136712Y0143195D01*
X0146179Y0143195D01*
X0154595Y0134779D01*
X0154595Y0114779D01*
X0163424Y0105951D01*
X0185379Y0105951D01*
X0185906Y0106478D01*
X0186849Y0106869D01*
X0185507Y0108211D01*
X0184335Y0109382D01*
X0184335Y0109598D01*
X0183196Y0109598D01*
X0182595Y0110199D01*
X0181994Y0109598D01*
X0175716Y0109598D01*
X0174896Y0110418D01*
X0174896Y0111951D01*
X0171767Y0111951D01*
X0170595Y0113123D01*
X0170595Y0113123D01*
X0167577Y0116140D01*
X0167577Y0128999D01*
X0165027Y0131549D01*
X0165027Y0135318D01*
X0167693Y0137983D01*
X0171462Y0137983D01*
X0174127Y0135318D01*
X0174127Y0131549D01*
X0171577Y0128999D01*
X0171577Y0117797D01*
X0173424Y0115951D01*
X0174896Y0115951D01*
X0174896Y0117484D01*
X0175716Y0118304D01*
X0181994Y0118304D01*
X0182595Y0117703D01*
X0183196Y0118304D01*
X0189474Y0118304D01*
X0190294Y0117484D01*
X0190294Y0110418D01*
X0189625Y0109749D01*
X0193169Y0106205D01*
X0193415Y0106451D01*
X0200095Y0106451D01*
X0200095Y0106451D01*
X0193415Y0106451D01*
X0192595Y0107271D01*
X0192595Y0110631D01*
X0193415Y0111451D01*
X0200095Y0111451D01*
X0200095Y0111451D01*
X0193415Y0111451D01*
X0192595Y0112271D01*
X0192595Y0115631D01*
X0193415Y0116451D01*
X0200095Y0116451D01*
X0200095Y0116451D01*
X0193415Y0116451D01*
X0192595Y0117271D01*
X0192595Y0120631D01*
X0193415Y0121451D01*
X0195895Y0121451D01*
X0195895Y0123820D01*
X0199896Y0127820D01*
X0199896Y0131234D01*
X0200716Y0132054D01*
X0202595Y0132054D01*
X0202595Y0173151D01*
X0202595Y0172398D02*
X0182337Y0172398D01*
X0181139Y0171199D02*
X0202595Y0171199D01*
X0202595Y0170001D02*
X0171213Y0170001D01*
X0168978Y0170001D02*
X0167440Y0170001D01*
X0166974Y0168802D02*
X0166895Y0168802D01*
X0160095Y0162701D02*
X0160095Y0156451D01*
X0152713Y0149069D01*
X0131375Y0149069D01*
X0126345Y0152701D02*
X0152595Y0152701D01*
X0155095Y0155201D01*
X0155095Y0168951D01*
X0152595Y0171451D01*
X0148845Y0171451D01*
X0146345Y0173951D01*
X0146345Y0177701D01*
X0138944Y0177701D01*
X0138845Y0177603D01*
X0133845Y0182701D02*
X0210095Y0182701D01*
X0211345Y0181451D01*
X0211345Y0177799D01*
X0211444Y0177701D01*
X0225095Y0177701D01*
X0226345Y0178951D01*
X0223965Y0180787D02*
X0217371Y0180787D01*
X0217371Y0181431D02*
X0216551Y0182251D01*
X0213091Y0182251D01*
X0212091Y0183251D01*
X0212091Y0183251D01*
X0211391Y0183951D01*
X0252595Y0183951D01*
X0252595Y0118951D01*
X0237595Y0118951D01*
X0237595Y0110365D01*
X0236027Y0111933D01*
X0234260Y0111933D01*
X0234260Y0107383D01*
X0233860Y0107383D01*
X0233860Y0111933D01*
X0232092Y0111933D01*
X0229310Y0109151D01*
X0229310Y0107383D01*
X0233860Y0107383D01*
X0233860Y0106983D01*
X0234260Y0106983D01*
X0234260Y0102433D01*
X0236027Y0102433D01*
X0237595Y0104001D01*
X0237595Y0088951D01*
X0220095Y0088951D01*
X0220095Y0101451D01*
X0221775Y0101451D01*
X0222595Y0102271D01*
X0222595Y0105631D01*
X0221846Y0106380D01*
X0222178Y0106571D01*
X0222475Y0106869D01*
X0222686Y0107233D01*
X0222795Y0107640D01*
X0222795Y0108951D01*
X0222795Y0109651D01*
X0223341Y0109651D01*
X0230841Y0117151D01*
X0231895Y0118205D01*
X0231895Y0128205D01*
X0237382Y0133692D01*
X0238353Y0132721D01*
X0239970Y0132051D01*
X0247720Y0132051D01*
X0249338Y0132721D01*
X0250575Y0133959D01*
X0251245Y0135576D01*
X0251245Y0137326D01*
X0250575Y0138943D01*
X0249338Y0140181D01*
X0247720Y0140851D01*
X0239970Y0140851D01*
X0238353Y0140181D01*
X0237115Y0138943D01*
X0236813Y0138215D01*
X0235795Y0137197D01*
X0233845Y0135247D01*
X0233845Y0155201D01*
X0225095Y0155201D01*
X0225095Y0155351D01*
X0225745Y0155351D01*
X0225745Y0160651D01*
X0226945Y0160651D01*
X0226945Y0155351D01*
X0229756Y0155351D01*
X0230163Y0155460D01*
X0230528Y0155671D01*
X0230825Y0155969D01*
X0231036Y0156333D01*
X0231145Y0156740D01*
X0231145Y0160651D01*
X0226945Y0160651D01*
X0226945Y0161851D01*
X0225745Y0161851D01*
X0225745Y0167151D01*
X0225095Y0167151D01*
X0225095Y0168951D01*
X0205095Y0168951D01*
X0205095Y0173151D01*
X0205104Y0173151D01*
X0205720Y0173767D01*
X0206336Y0173151D01*
X0216551Y0173151D01*
X0217371Y0173971D01*
X0217371Y0175901D01*
X0225841Y0175901D01*
X0225910Y0175970D01*
X0226938Y0175970D01*
X0228034Y0176424D01*
X0228872Y0177262D01*
X0229326Y0178358D01*
X0229326Y0179544D01*
X0228872Y0180640D01*
X0228034Y0181478D01*
X0226938Y0181932D01*
X0225752Y0181932D01*
X0224656Y0181478D01*
X0223818Y0180640D01*
X0223364Y0179544D01*
X0223364Y0179501D01*
X0217371Y0179501D01*
X0217371Y0181431D01*
X0216816Y0181986D02*
X0230592Y0181986D01*
X0230737Y0182131D02*
X0230439Y0181833D01*
X0230228Y0181468D01*
X0230119Y0181061D01*
X0230119Y0178301D01*
X0235647Y0178301D01*
X0235647Y0182451D01*
X0231509Y0182451D01*
X0231102Y0182342D01*
X0230737Y0182131D01*
X0230119Y0180787D02*
X0228725Y0180787D01*
X0229308Y0179589D02*
X0230119Y0179589D01*
X0230119Y0178390D02*
X0229326Y0178390D01*
X0228802Y0177192D02*
X0235647Y0177192D01*
X0235647Y0177101D02*
X0230119Y0177101D01*
X0230119Y0174341D01*
X0230228Y0173934D01*
X0230439Y0173569D01*
X0230737Y0173271D01*
X0231102Y0173060D01*
X0231509Y0172951D01*
X0235647Y0172951D01*
X0235647Y0177101D01*
X0236847Y0177101D01*
X0236847Y0178301D01*
X0242374Y0178301D01*
X0242374Y0181061D01*
X0242265Y0181468D01*
X0242055Y0181833D01*
X0241757Y0182131D01*
X0241392Y0182342D01*
X0240985Y0182451D01*
X0236847Y0182451D01*
X0236847Y0178301D01*
X0235647Y0178301D01*
X0235647Y0177101D01*
X0236247Y0177701D02*
X0236345Y0178853D01*
X0236345Y0173951D01*
X0235095Y0172701D01*
X0227595Y0172701D01*
X0226345Y0171451D01*
X0226345Y0168951D01*
X0225095Y0168802D02*
X0252595Y0168802D01*
X0252595Y0167604D02*
X0225095Y0167604D01*
X0225745Y0166405D02*
X0226945Y0166405D01*
X0226945Y0167151D02*
X0226945Y0161851D01*
X0231145Y0161851D01*
X0231145Y0165762D01*
X0231036Y0166169D01*
X0230825Y0166533D01*
X0230528Y0166831D01*
X0230163Y0167042D01*
X0229756Y0167151D01*
X0226945Y0167151D01*
X0226945Y0165207D02*
X0225745Y0165207D01*
X0225745Y0164008D02*
X0226945Y0164008D01*
X0226945Y0162810D02*
X0225745Y0162810D01*
X0226945Y0161611D02*
X0252595Y0161611D01*
X0252595Y0160413D02*
X0231145Y0160413D01*
X0231145Y0159214D02*
X0252595Y0159214D01*
X0252595Y0158016D02*
X0231145Y0158016D01*
X0231145Y0156817D02*
X0252595Y0156817D01*
X0252595Y0155619D02*
X0230437Y0155619D01*
X0231345Y0152701D02*
X0231345Y0132747D01*
X0228295Y0129697D01*
X0228295Y0119697D01*
X0226300Y0117701D01*
X0222795Y0117701D01*
X0222795Y0118951D01*
X0222795Y0120262D01*
X0222686Y0120669D01*
X0222475Y0121033D01*
X0222178Y0121331D01*
X0221813Y0121542D01*
X0221406Y0121651D01*
X0217295Y0121651D01*
X0213184Y0121651D01*
X0212778Y0121542D01*
X0212413Y0121331D01*
X0212115Y0121033D01*
X0211904Y0120669D01*
X0211795Y0120262D01*
X0211795Y0118951D01*
X0211795Y0117701D01*
X0205095Y0117701D01*
X0205095Y0123348D01*
X0206994Y0123348D01*
X0207465Y0123819D01*
X0207496Y0123766D01*
X0207794Y0123468D01*
X0208159Y0123257D01*
X0208566Y0123148D01*
X0210735Y0123148D01*
X0210735Y0127101D01*
X0211935Y0127101D01*
X0211935Y0123148D01*
X0214105Y0123148D01*
X0214512Y0123257D01*
X0214877Y0123468D01*
X0215175Y0123766D01*
X0215385Y0124131D01*
X0215494Y0124538D01*
X0215494Y0127101D01*
X0211935Y0127101D01*
X0211935Y0128301D01*
X0210735Y0128301D01*
X0210735Y0132254D01*
X0208566Y0132254D01*
X0208159Y0132145D01*
X0207794Y0131934D01*
X0207496Y0131636D01*
X0207465Y0131583D01*
X0206994Y0132054D01*
X0205095Y0132054D01*
X0205095Y0166451D01*
X0222065Y0166451D01*
X0221745Y0166131D01*
X0221745Y0156371D01*
X0222565Y0155551D01*
X0222595Y0155551D01*
X0222595Y0152701D01*
X0231345Y0152701D01*
X0231345Y0152023D02*
X0230736Y0152023D01*
X0230825Y0151933D02*
X0230528Y0152231D01*
X0230163Y0152442D01*
X0229756Y0152551D01*
X0226945Y0152551D01*
X0226945Y0147251D01*
X0225745Y0147251D01*
X0225745Y0146051D01*
X0221545Y0146051D01*
X0221545Y0142140D01*
X0221654Y0141733D01*
X0221865Y0141369D01*
X0222163Y0141071D01*
X0222528Y0140860D01*
X0222934Y0140751D01*
X0225745Y0140751D01*
X0225745Y0146051D01*
X0226945Y0146051D01*
X0226945Y0140751D01*
X0229756Y0140751D01*
X0230163Y0140860D01*
X0230528Y0141071D01*
X0230825Y0141369D01*
X0231036Y0141733D01*
X0231145Y0142140D01*
X0231145Y0146051D01*
X0226945Y0146051D01*
X0226945Y0147251D01*
X0231145Y0147251D01*
X0231145Y0151162D01*
X0231036Y0151569D01*
X0230825Y0151933D01*
X0231145Y0150824D02*
X0231345Y0150824D01*
X0231345Y0149626D02*
X0231145Y0149626D01*
X0231145Y0148427D02*
X0231345Y0148427D01*
X0231345Y0147229D02*
X0226945Y0147229D01*
X0226945Y0148427D02*
X0225745Y0148427D01*
X0225745Y0147251D02*
X0225745Y0152551D01*
X0222934Y0152551D01*
X0222528Y0152442D01*
X0222163Y0152231D01*
X0221865Y0151933D01*
X0221654Y0151569D01*
X0221545Y0151162D01*
X0221545Y0147251D01*
X0225745Y0147251D01*
X0225745Y0147229D02*
X0221195Y0147229D01*
X0221195Y0148351D02*
X0214295Y0148351D01*
X0214295Y0132601D01*
X0219806Y0132601D01*
X0220213Y0132710D01*
X0220578Y0132921D01*
X0220875Y0133219D01*
X0221086Y0133583D01*
X0221195Y0133990D01*
X0221195Y0148351D01*
X0221545Y0148427D02*
X0214295Y0148427D01*
X0214295Y0148351D02*
X0214295Y0149551D01*
X0213095Y0149551D01*
X0213095Y0148351D01*
X0206195Y0148351D01*
X0206195Y0133990D01*
X0206304Y0133583D01*
X0206515Y0133219D01*
X0206813Y0132921D01*
X0207178Y0132710D01*
X0207584Y0132601D01*
X0213095Y0132601D01*
X0213095Y0148351D01*
X0214295Y0148351D01*
X0214295Y0147229D02*
X0213095Y0147229D01*
X0213095Y0148427D02*
X0205095Y0148427D01*
X0205095Y0147229D02*
X0206195Y0147229D01*
X0206195Y0146030D02*
X0205095Y0146030D01*
X0205095Y0144832D02*
X0206195Y0144832D01*
X0206195Y0143633D02*
X0205095Y0143633D01*
X0205095Y0142435D02*
X0206195Y0142435D01*
X0206195Y0141236D02*
X0205095Y0141236D01*
X0205095Y0140038D02*
X0206195Y0140038D01*
X0206195Y0138839D02*
X0205095Y0138839D01*
X0205095Y0137641D02*
X0206195Y0137641D01*
X0206195Y0136442D02*
X0205095Y0136442D01*
X0205095Y0135244D02*
X0206195Y0135244D01*
X0206195Y0134045D02*
X0205095Y0134045D01*
X0205095Y0132847D02*
X0206941Y0132847D01*
X0207399Y0131648D02*
X0207508Y0131648D01*
X0210735Y0131648D02*
X0211935Y0131648D01*
X0211935Y0132254D02*
X0211935Y0128301D01*
X0215494Y0128301D01*
X0215494Y0130864D01*
X0215385Y0131271D01*
X0215175Y0131636D01*
X0214877Y0131934D01*
X0214512Y0132145D01*
X0214105Y0132254D01*
X0211935Y0132254D01*
X0213095Y0132847D02*
X0214295Y0132847D01*
X0214295Y0134045D02*
X0213095Y0134045D01*
X0213095Y0135244D02*
X0214295Y0135244D01*
X0214295Y0136442D02*
X0213095Y0136442D01*
X0213095Y0137641D02*
X0214295Y0137641D01*
X0214295Y0138839D02*
X0213095Y0138839D01*
X0213095Y0140038D02*
X0214295Y0140038D01*
X0214295Y0141236D02*
X0213095Y0141236D01*
X0213095Y0142435D02*
X0214295Y0142435D01*
X0214295Y0143633D02*
X0213095Y0143633D01*
X0213095Y0144832D02*
X0214295Y0144832D01*
X0214295Y0146030D02*
X0213095Y0146030D01*
X0213095Y0149551D02*
X0206195Y0149551D01*
X0206195Y0163912D01*
X0206304Y0164319D01*
X0206515Y0164683D01*
X0206813Y0164981D01*
X0207178Y0165192D01*
X0207584Y0165301D01*
X0213095Y0165301D01*
X0213095Y0149551D01*
X0213095Y0149626D02*
X0214295Y0149626D01*
X0214295Y0149551D02*
X0214295Y0165301D01*
X0219806Y0165301D01*
X0220213Y0165192D01*
X0220578Y0164981D01*
X0220875Y0164683D01*
X0221086Y0164319D01*
X0221195Y0163912D01*
X0221195Y0149551D01*
X0214295Y0149551D01*
X0214295Y0150824D02*
X0213095Y0150824D01*
X0213095Y0152023D02*
X0214295Y0152023D01*
X0214295Y0153221D02*
X0213095Y0153221D01*
X0213095Y0154420D02*
X0214295Y0154420D01*
X0214295Y0155619D02*
X0213095Y0155619D01*
X0213095Y0156817D02*
X0214295Y0156817D01*
X0214295Y0158016D02*
X0213095Y0158016D01*
X0213095Y0159214D02*
X0214295Y0159214D01*
X0214295Y0160413D02*
X0213095Y0160413D01*
X0213095Y0161611D02*
X0214295Y0161611D01*
X0214295Y0162810D02*
X0213095Y0162810D01*
X0213095Y0164008D02*
X0214295Y0164008D01*
X0214295Y0165207D02*
X0213095Y0165207D01*
X0220158Y0165207D02*
X0221745Y0165207D01*
X0221745Y0164008D02*
X0221169Y0164008D01*
X0221195Y0162810D02*
X0221745Y0162810D01*
X0221745Y0161611D02*
X0221195Y0161611D01*
X0221195Y0160413D02*
X0221745Y0160413D01*
X0221745Y0159214D02*
X0221195Y0159214D01*
X0221195Y0158016D02*
X0221745Y0158016D01*
X0221745Y0156817D02*
X0221195Y0156817D01*
X0221195Y0155619D02*
X0222498Y0155619D01*
X0222595Y0154420D02*
X0221195Y0154420D01*
X0221195Y0153221D02*
X0222595Y0153221D01*
X0221954Y0152023D02*
X0221195Y0152023D01*
X0221195Y0150824D02*
X0221545Y0150824D01*
X0221545Y0149626D02*
X0221195Y0149626D01*
X0221195Y0146030D02*
X0221545Y0146030D01*
X0221545Y0144832D02*
X0221195Y0144832D01*
X0221195Y0143633D02*
X0221545Y0143633D01*
X0221545Y0142435D02*
X0221195Y0142435D01*
X0221195Y0141236D02*
X0221997Y0141236D01*
X0221195Y0140038D02*
X0231345Y0140038D01*
X0231345Y0141236D02*
X0230693Y0141236D01*
X0231145Y0142435D02*
X0231345Y0142435D01*
X0231345Y0143633D02*
X0231145Y0143633D01*
X0231145Y0144832D02*
X0231345Y0144832D01*
X0231345Y0146030D02*
X0231145Y0146030D01*
X0233845Y0146030D02*
X0252595Y0146030D01*
X0252595Y0144832D02*
X0233845Y0144832D01*
X0233845Y0143633D02*
X0252595Y0143633D01*
X0252595Y0142435D02*
X0233845Y0142435D01*
X0233845Y0141236D02*
X0252595Y0141236D01*
X0252595Y0140038D02*
X0249481Y0140038D01*
X0250618Y0138839D02*
X0252595Y0138839D01*
X0252595Y0137641D02*
X0251115Y0137641D01*
X0251245Y0136442D02*
X0252595Y0136442D01*
X0252595Y0135244D02*
X0251108Y0135244D01*
X0250611Y0134045D02*
X0252595Y0134045D01*
X0252595Y0132847D02*
X0249463Y0132847D01*
X0248611Y0130714D02*
X0247922Y0130938D01*
X0247207Y0131051D01*
X0244245Y0131051D01*
X0244245Y0126851D01*
X0243445Y0126851D01*
X0243445Y0126051D01*
X0236251Y0126051D01*
X0236358Y0125374D01*
X0236582Y0124685D01*
X0236911Y0124040D01*
X0237336Y0123454D01*
X0237848Y0122942D01*
X0238434Y0122517D01*
X0239079Y0122188D01*
X0239768Y0121964D01*
X0240483Y0121851D01*
X0243445Y0121851D01*
X0243445Y0126051D01*
X0244245Y0126051D01*
X0244245Y0121851D01*
X0247207Y0121851D01*
X0247922Y0121964D01*
X0248611Y0122188D01*
X0249256Y0122517D01*
X0249842Y0122942D01*
X0250354Y0123454D01*
X0250779Y0124040D01*
X0251108Y0124685D01*
X0251332Y0125374D01*
X0251439Y0126051D01*
X0244245Y0126051D01*
X0244245Y0126851D01*
X0251439Y0126851D01*
X0251332Y0127528D01*
X0251108Y0128217D01*
X0250779Y0128862D01*
X0250354Y0129448D01*
X0249842Y0129960D01*
X0249256Y0130385D01*
X0248611Y0130714D01*
X0249129Y0130450D02*
X0252595Y0130450D01*
X0252595Y0131648D02*
X0235338Y0131648D01*
X0234139Y0130450D02*
X0238561Y0130450D01*
X0238434Y0130385D02*
X0237848Y0129960D01*
X0237336Y0129448D01*
X0236911Y0128862D01*
X0236582Y0128217D01*
X0236358Y0127528D01*
X0236251Y0126851D01*
X0243445Y0126851D01*
X0243445Y0131051D01*
X0240483Y0131051D01*
X0239768Y0130938D01*
X0239079Y0130714D01*
X0238434Y0130385D01*
X0237194Y0129251D02*
X0232941Y0129251D01*
X0231895Y0128053D02*
X0236529Y0128053D01*
X0236252Y0126854D02*
X0231895Y0126854D01*
X0231895Y0125656D02*
X0236314Y0125656D01*
X0236698Y0124457D02*
X0231895Y0124457D01*
X0231895Y0123259D02*
X0237532Y0123259D01*
X0239473Y0122060D02*
X0231895Y0122060D01*
X0231895Y0120862D02*
X0252595Y0120862D01*
X0252595Y0122060D02*
X0248218Y0122060D01*
X0250158Y0123259D02*
X0252595Y0123259D01*
X0252595Y0124457D02*
X0250992Y0124457D01*
X0251377Y0125656D02*
X0252595Y0125656D01*
X0252595Y0126854D02*
X0251439Y0126854D01*
X0251161Y0128053D02*
X0252595Y0128053D01*
X0252595Y0129251D02*
X0250497Y0129251D01*
X0244245Y0129251D02*
X0243445Y0129251D01*
X0243445Y0128053D02*
X0244245Y0128053D01*
X0244245Y0126854D02*
X0243445Y0126854D01*
X0243445Y0125656D02*
X0244245Y0125656D01*
X0244245Y0124457D02*
X0243445Y0124457D01*
X0243445Y0123259D02*
X0244245Y0123259D01*
X0244245Y0122060D02*
X0243445Y0122060D01*
X0240095Y0116451D02*
X0252595Y0116451D01*
X0252595Y0051551D01*
X0055077Y0051551D01*
X0055077Y0078951D01*
X0067267Y0078951D01*
X0068017Y0078201D01*
X0195924Y0078201D01*
X0200924Y0083201D01*
X0202095Y0084373D01*
X0202095Y0100201D01*
X0203845Y0100201D01*
X0203845Y0115201D01*
X0211795Y0115201D01*
X0211795Y0113951D01*
X0211795Y0113197D01*
X0210795Y0112197D01*
X0209545Y0110947D01*
X0209545Y0104455D01*
X0210795Y0103205D01*
X0211850Y0102151D01*
X0212115Y0102151D01*
X0212815Y0101451D01*
X0217595Y0101451D01*
X0217595Y0086451D01*
X0240095Y0086451D01*
X0240095Y0104559D01*
X0240436Y0104089D01*
X0240965Y0103560D01*
X0241570Y0103121D01*
X0242236Y0102781D01*
X0242947Y0102550D01*
X0243686Y0102433D01*
X0243860Y0102433D01*
X0243860Y0106983D01*
X0244260Y0106983D01*
X0244260Y0107383D01*
X0248810Y0107383D01*
X0248810Y0107557D01*
X0248693Y0108296D01*
X0248462Y0109007D01*
X0248122Y0109673D01*
X0247683Y0110278D01*
X0247154Y0110806D01*
X0246549Y0111246D01*
X0245883Y0111585D01*
X0245172Y0111816D01*
X0244433Y0111933D01*
X0244260Y0111933D01*
X0244260Y0107383D01*
X0243860Y0107383D01*
X0243860Y0111933D01*
X0243686Y0111933D01*
X0242947Y0111816D01*
X0242236Y0111585D01*
X0241570Y0111246D01*
X0240965Y0110806D01*
X0240436Y0110278D01*
X0240095Y0109808D01*
X0240095Y0116451D01*
X0240095Y0116068D02*
X0252595Y0116068D01*
X0252595Y0114869D02*
X0240095Y0114869D01*
X0240095Y0113671D02*
X0252595Y0113671D01*
X0252595Y0112472D02*
X0240095Y0112472D01*
X0240095Y0111274D02*
X0241625Y0111274D01*
X0240289Y0110075D02*
X0240095Y0110075D01*
X0237595Y0111274D02*
X0236687Y0111274D01*
X0237595Y0112472D02*
X0226162Y0112472D01*
X0227360Y0113671D02*
X0237595Y0113671D01*
X0237595Y0114869D02*
X0228559Y0114869D01*
X0229757Y0116068D02*
X0237595Y0116068D01*
X0237595Y0117266D02*
X0230956Y0117266D01*
X0231895Y0118465D02*
X0237595Y0118465D01*
X0231895Y0119663D02*
X0252595Y0119663D01*
X0252595Y0111274D02*
X0246495Y0111274D01*
X0247830Y0110075D02*
X0252595Y0110075D01*
X0252595Y0108877D02*
X0248504Y0108877D01*
X0248790Y0107678D02*
X0252595Y0107678D01*
X0252595Y0106480D02*
X0248757Y0106480D01*
X0248810Y0106809D02*
X0248810Y0106983D01*
X0244260Y0106983D01*
X0244260Y0102433D01*
X0244433Y0102433D01*
X0245172Y0102550D01*
X0245883Y0102781D01*
X0246549Y0103121D01*
X0247154Y0103560D01*
X0247683Y0104089D01*
X0248122Y0104694D01*
X0248462Y0105360D01*
X0248693Y0106071D01*
X0248810Y0106809D01*
X0248421Y0105281D02*
X0252595Y0105281D01*
X0252595Y0104083D02*
X0247676Y0104083D01*
X0246085Y0102884D02*
X0252595Y0102884D01*
X0252595Y0101686D02*
X0240095Y0101686D01*
X0240095Y0102884D02*
X0242034Y0102884D01*
X0243860Y0102884D02*
X0244260Y0102884D01*
X0244260Y0104083D02*
X0243860Y0104083D01*
X0243860Y0105281D02*
X0244260Y0105281D01*
X0244260Y0106480D02*
X0243860Y0106480D01*
X0243860Y0107678D02*
X0244260Y0107678D01*
X0244260Y0108877D02*
X0243860Y0108877D01*
X0243860Y0110075D02*
X0244260Y0110075D01*
X0244260Y0111274D02*
X0243860Y0111274D01*
X0240443Y0104083D02*
X0240095Y0104083D01*
X0237595Y0102884D02*
X0236478Y0102884D01*
X0237595Y0101686D02*
X0222010Y0101686D01*
X0222595Y0102884D02*
X0231641Y0102884D01*
X0232092Y0102433D02*
X0233860Y0102433D01*
X0233860Y0106983D01*
X0229310Y0106983D01*
X0229310Y0105216D01*
X0232092Y0102433D01*
X0233860Y0102884D02*
X0234260Y0102884D01*
X0234260Y0104083D02*
X0233860Y0104083D01*
X0233860Y0105281D02*
X0234260Y0105281D01*
X0234260Y0106480D02*
X0233860Y0106480D01*
X0233860Y0107678D02*
X0234260Y0107678D01*
X0234260Y0108877D02*
X0233860Y0108877D01*
X0233860Y0110075D02*
X0234260Y0110075D01*
X0234260Y0111274D02*
X0233860Y0111274D01*
X0231432Y0111274D02*
X0224963Y0111274D01*
X0223765Y0110075D02*
X0230234Y0110075D01*
X0229310Y0108877D02*
X0222795Y0108877D01*
X0222795Y0108951D02*
X0217295Y0108951D01*
X0222795Y0108951D01*
X0222795Y0107678D02*
X0229310Y0107678D01*
X0229310Y0106480D02*
X0222020Y0106480D01*
X0222595Y0105281D02*
X0229310Y0105281D01*
X0230443Y0104083D02*
X0222595Y0104083D01*
X0222334Y0100351D02*
X0221928Y0100242D01*
X0221563Y0100031D01*
X0221265Y0099733D01*
X0221054Y0099369D01*
X0220945Y0098962D01*
X0220945Y0095701D01*
X0224245Y0095701D01*
X0224245Y0094701D01*
X0220945Y0094701D01*
X0220945Y0091440D01*
X0221054Y0091033D01*
X0221265Y0090669D01*
X0221563Y0090371D01*
X0221928Y0090160D01*
X0222334Y0090051D01*
X0224245Y0090051D01*
X0224245Y0094701D01*
X0225245Y0094701D01*
X0225245Y0090051D01*
X0227156Y0090051D01*
X0227563Y0090160D01*
X0227928Y0090371D01*
X0228225Y0090669D01*
X0228436Y0091033D01*
X0228545Y0091440D01*
X0228545Y0094701D01*
X0225245Y0094701D01*
X0225245Y0095701D01*
X0224245Y0095701D01*
X0224245Y0100351D01*
X0222334Y0100351D01*
X0221033Y0099288D02*
X0220095Y0099288D01*
X0220095Y0098090D02*
X0220945Y0098090D01*
X0220945Y0096891D02*
X0220095Y0096891D01*
X0220095Y0095693D02*
X0224245Y0095693D01*
X0225245Y0095701D02*
X0225245Y0100351D01*
X0227156Y0100351D01*
X0227563Y0100242D01*
X0227928Y0100031D01*
X0228225Y0099733D01*
X0228436Y0099369D01*
X0228545Y0098962D01*
X0228545Y0095701D01*
X0225245Y0095701D01*
X0225245Y0095693D02*
X0237595Y0095693D01*
X0237595Y0096891D02*
X0228545Y0096891D01*
X0228545Y0098090D02*
X0237595Y0098090D01*
X0237595Y0099288D02*
X0228458Y0099288D01*
X0225245Y0099288D02*
X0224245Y0099288D01*
X0224245Y0098090D02*
X0225245Y0098090D01*
X0225245Y0096891D02*
X0224245Y0096891D01*
X0224245Y0094494D02*
X0225245Y0094494D01*
X0225245Y0093296D02*
X0224245Y0093296D01*
X0224245Y0092097D02*
X0225245Y0092097D01*
X0225245Y0090899D02*
X0224245Y0090899D01*
X0221132Y0090899D02*
X0220095Y0090899D01*
X0220095Y0092097D02*
X0220945Y0092097D01*
X0220945Y0093296D02*
X0220095Y0093296D01*
X0220095Y0094494D02*
X0220945Y0094494D01*
X0217595Y0094494D02*
X0216745Y0094494D01*
X0216745Y0094701D02*
X0213445Y0094701D01*
X0213445Y0090051D01*
X0215356Y0090051D01*
X0215763Y0090160D01*
X0216128Y0090371D01*
X0216425Y0090669D01*
X0216636Y0091033D01*
X0216745Y0091440D01*
X0216745Y0094701D01*
X0216745Y0095701D02*
X0213445Y0095701D01*
X0212445Y0095701D01*
X0212445Y0094701D01*
X0209145Y0094701D01*
X0209145Y0091440D01*
X0209254Y0091033D01*
X0209465Y0090669D01*
X0209763Y0090371D01*
X0210128Y0090160D01*
X0210534Y0090051D01*
X0212445Y0090051D01*
X0212445Y0094701D01*
X0213445Y0094701D01*
X0213445Y0095701D01*
X0213445Y0100351D01*
X0215356Y0100351D01*
X0215763Y0100242D01*
X0216128Y0100031D01*
X0216425Y0099733D01*
X0216636Y0099369D01*
X0216745Y0098962D01*
X0216745Y0095701D01*
X0217595Y0095693D02*
X0213445Y0095693D01*
X0212445Y0095701D02*
X0212445Y0100351D01*
X0210534Y0100351D01*
X0210128Y0100242D01*
X0209763Y0100031D01*
X0209465Y0099733D01*
X0209254Y0099369D01*
X0209145Y0098962D01*
X0209145Y0095701D01*
X0212445Y0095701D01*
X0212445Y0095693D02*
X0202095Y0095693D01*
X0202095Y0096891D02*
X0209145Y0096891D01*
X0209145Y0098090D02*
X0202095Y0098090D01*
X0202095Y0099288D02*
X0209233Y0099288D01*
X0212445Y0099288D02*
X0213445Y0099288D01*
X0213445Y0098090D02*
X0212445Y0098090D01*
X0212445Y0096891D02*
X0213445Y0096891D01*
X0213445Y0094494D02*
X0212445Y0094494D01*
X0212445Y0093296D02*
X0213445Y0093296D01*
X0213445Y0092097D02*
X0212445Y0092097D01*
X0212445Y0090899D02*
X0213445Y0090899D01*
X0216558Y0090899D02*
X0217595Y0090899D01*
X0217595Y0092097D02*
X0216745Y0092097D01*
X0216745Y0093296D02*
X0217595Y0093296D01*
X0217595Y0096891D02*
X0216745Y0096891D01*
X0216745Y0098090D02*
X0217595Y0098090D01*
X0217595Y0099288D02*
X0216658Y0099288D01*
X0217595Y0100487D02*
X0203845Y0100487D01*
X0203845Y0101686D02*
X0212581Y0101686D01*
X0211117Y0102884D02*
X0203845Y0102884D01*
X0203845Y0104083D02*
X0209918Y0104083D01*
X0209545Y0105281D02*
X0203845Y0105281D01*
X0203845Y0106480D02*
X0209545Y0106480D01*
X0209545Y0107678D02*
X0203845Y0107678D01*
X0203845Y0108877D02*
X0209545Y0108877D01*
X0209545Y0110075D02*
X0203845Y0110075D01*
X0203845Y0111274D02*
X0209872Y0111274D01*
X0211071Y0112472D02*
X0203845Y0112472D01*
X0203845Y0113671D02*
X0211795Y0113671D01*
X0211795Y0113951D02*
X0212595Y0113951D01*
X0212595Y0113951D01*
X0211795Y0113951D01*
X0211795Y0114869D02*
X0203845Y0114869D01*
X0205095Y0118465D02*
X0211795Y0118465D01*
X0211795Y0118951D02*
X0217295Y0118951D01*
X0217295Y0118951D01*
X0211795Y0118951D01*
X0211795Y0119663D02*
X0205095Y0119663D01*
X0205095Y0120862D02*
X0212016Y0120862D01*
X0211935Y0123259D02*
X0210735Y0123259D01*
X0210735Y0124457D02*
X0211935Y0124457D01*
X0211935Y0125656D02*
X0210735Y0125656D01*
X0210735Y0126854D02*
X0211935Y0126854D01*
X0211935Y0128053D02*
X0228295Y0128053D01*
X0228295Y0129251D02*
X0215494Y0129251D01*
X0215494Y0130450D02*
X0229048Y0130450D01*
X0230247Y0131648D02*
X0215163Y0131648D01*
X0211935Y0130450D02*
X0210735Y0130450D01*
X0210735Y0129251D02*
X0211935Y0129251D01*
X0215494Y0126854D02*
X0228295Y0126854D01*
X0228295Y0125656D02*
X0215494Y0125656D01*
X0215473Y0124457D02*
X0228295Y0124457D01*
X0228295Y0123259D02*
X0214514Y0123259D01*
X0217295Y0121651D02*
X0217295Y0118951D01*
X0217295Y0118951D01*
X0217295Y0121651D01*
X0217295Y0120862D02*
X0217295Y0120862D01*
X0217295Y0119663D02*
X0217295Y0119663D01*
X0217295Y0118951D02*
X0222795Y0118951D01*
X0217295Y0118951D01*
X0217295Y0118951D01*
X0222795Y0118465D02*
X0227063Y0118465D01*
X0228262Y0119663D02*
X0222795Y0119663D01*
X0222575Y0120862D02*
X0228295Y0120862D01*
X0228295Y0122060D02*
X0205095Y0122060D01*
X0205095Y0123259D02*
X0208156Y0123259D01*
X0199896Y0128053D02*
X0171577Y0128053D01*
X0171577Y0126854D02*
X0198930Y0126854D01*
X0197731Y0125656D02*
X0171577Y0125656D01*
X0171577Y0124457D02*
X0196533Y0124457D01*
X0195895Y0123259D02*
X0171577Y0123259D01*
X0171577Y0122060D02*
X0195895Y0122060D01*
X0192826Y0120862D02*
X0171577Y0120862D01*
X0171577Y0119663D02*
X0192595Y0119663D01*
X0192595Y0118465D02*
X0171577Y0118465D01*
X0172108Y0117266D02*
X0174896Y0117266D01*
X0174896Y0116068D02*
X0173307Y0116068D01*
X0171246Y0112472D02*
X0156902Y0112472D01*
X0155704Y0113671D02*
X0170047Y0113671D01*
X0168849Y0114869D02*
X0154595Y0114869D01*
X0154595Y0116068D02*
X0167650Y0116068D01*
X0167577Y0117266D02*
X0154595Y0117266D01*
X0154595Y0118465D02*
X0167577Y0118465D01*
X0167577Y0119663D02*
X0154595Y0119663D01*
X0154595Y0120862D02*
X0167577Y0120862D01*
X0167577Y0122060D02*
X0154595Y0122060D01*
X0154595Y0123259D02*
X0167577Y0123259D01*
X0167577Y0124457D02*
X0154595Y0124457D01*
X0154595Y0125656D02*
X0167577Y0125656D01*
X0167577Y0126854D02*
X0154595Y0126854D01*
X0154595Y0128053D02*
X0167577Y0128053D01*
X0167325Y0129251D02*
X0154595Y0129251D01*
X0154595Y0130450D02*
X0166126Y0130450D01*
X0165027Y0131648D02*
X0154595Y0131648D01*
X0154595Y0132847D02*
X0165027Y0132847D01*
X0165027Y0134045D02*
X0154595Y0134045D01*
X0154131Y0135244D02*
X0165027Y0135244D01*
X0166152Y0136442D02*
X0152932Y0136442D01*
X0151734Y0137641D02*
X0167350Y0137641D01*
X0171804Y0137641D02*
X0172858Y0137641D01*
X0173025Y0137410D02*
X0173148Y0137287D01*
X0176366Y0140504D01*
X0176648Y0140221D01*
X0173431Y0137004D01*
X0173554Y0136881D01*
X0174159Y0136442D01*
X0174825Y0136102D01*
X0175536Y0135871D01*
X0176275Y0135754D01*
X0177022Y0135754D01*
X0177761Y0135871D01*
X0178472Y0136102D01*
X0179138Y0136442D01*
X0179743Y0136881D01*
X0179866Y0137004D01*
X0176648Y0140221D01*
X0176931Y0140504D01*
X0180149Y0137287D01*
X0180272Y0137410D01*
X0180711Y0138015D01*
X0181050Y0138681D01*
X0181281Y0139392D01*
X0181398Y0140130D01*
X0181398Y0140878D01*
X0181281Y0141617D01*
X0181050Y0142328D01*
X0180711Y0142994D01*
X0180272Y0143599D01*
X0180149Y0143722D01*
X0176931Y0140504D01*
X0176648Y0140787D01*
X0176366Y0140504D01*
X0173148Y0143722D01*
X0173025Y0143599D01*
X0172586Y0142994D01*
X0172246Y0142328D01*
X0172015Y0141617D01*
X0171898Y0140878D01*
X0171898Y0140130D01*
X0172015Y0139392D01*
X0172246Y0138681D01*
X0172586Y0138015D01*
X0173025Y0137410D01*
X0173502Y0137641D02*
X0174068Y0137641D01*
X0174158Y0136442D02*
X0173003Y0136442D01*
X0174127Y0135244D02*
X0186495Y0135244D01*
X0186495Y0136442D02*
X0179139Y0136442D01*
X0179229Y0137641D02*
X0179795Y0137641D01*
X0180439Y0137641D02*
X0186495Y0137641D01*
X0186495Y0138839D02*
X0181102Y0138839D01*
X0181384Y0140038D02*
X0186495Y0140038D01*
X0186495Y0141236D02*
X0181342Y0141236D01*
X0180996Y0142435D02*
X0186495Y0142435D01*
X0186495Y0143633D02*
X0180237Y0143633D01*
X0180060Y0143633D02*
X0179495Y0143633D01*
X0179866Y0144004D02*
X0179743Y0144127D01*
X0179138Y0144567D01*
X0178472Y0144906D01*
X0177761Y0145137D01*
X0177022Y0145254D01*
X0176275Y0145254D01*
X0175536Y0145137D01*
X0174825Y0144906D01*
X0174159Y0144567D01*
X0173554Y0144127D01*
X0173431Y0144004D01*
X0176648Y0140787D01*
X0179866Y0144004D01*
X0178618Y0144832D02*
X0186495Y0144832D01*
X0186495Y0146030D02*
X0155970Y0146030D01*
X0154772Y0144832D02*
X0174679Y0144832D01*
X0173802Y0143633D02*
X0173236Y0143633D01*
X0173060Y0143633D02*
X0153573Y0143633D01*
X0157169Y0147229D02*
X0186495Y0147229D01*
X0186495Y0148351D02*
X0186495Y0133990D01*
X0186604Y0133583D01*
X0186815Y0133219D01*
X0187113Y0132921D01*
X0187478Y0132710D01*
X0187884Y0132601D01*
X0193395Y0132601D01*
X0193395Y0148351D01*
X0186495Y0148351D01*
X0186495Y0149551D02*
X0193395Y0149551D01*
X0193395Y0148351D01*
X0194595Y0148351D01*
X0194595Y0132601D01*
X0200106Y0132601D01*
X0200513Y0132710D01*
X0200878Y0132921D01*
X0201175Y0133219D01*
X0201386Y0133583D01*
X0201495Y0133990D01*
X0201495Y0148351D01*
X0194595Y0148351D01*
X0194595Y0149551D01*
X0193395Y0149551D01*
X0193395Y0165301D01*
X0187884Y0165301D01*
X0187478Y0165192D01*
X0187113Y0164981D01*
X0186815Y0164683D01*
X0186604Y0164319D01*
X0186495Y0163912D01*
X0186495Y0149551D01*
X0186495Y0149626D02*
X0159566Y0149626D01*
X0160764Y0150824D02*
X0186495Y0150824D01*
X0186495Y0152023D02*
X0161963Y0152023D01*
X0163161Y0153221D02*
X0186495Y0153221D01*
X0186495Y0154420D02*
X0164360Y0154420D01*
X0165558Y0155619D02*
X0168453Y0155619D01*
X0171737Y0155619D02*
X0186495Y0155619D01*
X0186495Y0156817D02*
X0173434Y0156817D01*
X0174160Y0158016D02*
X0186495Y0158016D01*
X0186495Y0159214D02*
X0174495Y0159214D01*
X0174495Y0160413D02*
X0186495Y0160413D01*
X0186495Y0161611D02*
X0174495Y0161611D01*
X0174495Y0162810D02*
X0186495Y0162810D01*
X0186521Y0164008D02*
X0174495Y0164008D01*
X0174495Y0165207D02*
X0187532Y0165207D01*
X0193395Y0165207D02*
X0194595Y0165207D01*
X0194595Y0165301D02*
X0200106Y0165301D01*
X0200513Y0165192D01*
X0200878Y0164981D01*
X0201175Y0164683D01*
X0201386Y0164319D01*
X0201495Y0163912D01*
X0201495Y0149551D01*
X0194595Y0149551D01*
X0194595Y0165301D01*
X0194595Y0164008D02*
X0193395Y0164008D01*
X0193395Y0162810D02*
X0194595Y0162810D01*
X0194595Y0161611D02*
X0193395Y0161611D01*
X0193395Y0160413D02*
X0194595Y0160413D01*
X0194595Y0159214D02*
X0193395Y0159214D01*
X0193395Y0158016D02*
X0194595Y0158016D01*
X0194595Y0156817D02*
X0193395Y0156817D01*
X0193395Y0155619D02*
X0194595Y0155619D01*
X0194595Y0154420D02*
X0193395Y0154420D01*
X0193395Y0153221D02*
X0194595Y0153221D01*
X0194595Y0152023D02*
X0193395Y0152023D01*
X0193395Y0150824D02*
X0194595Y0150824D01*
X0194595Y0149626D02*
X0193395Y0149626D01*
X0193395Y0148427D02*
X0158367Y0148427D01*
X0149337Y0140038D02*
X0171913Y0140038D01*
X0171955Y0141236D02*
X0148138Y0141236D01*
X0146940Y0142435D02*
X0172301Y0142435D01*
X0174435Y0142435D02*
X0175001Y0142435D01*
X0175633Y0141236D02*
X0176199Y0141236D01*
X0177098Y0141236D02*
X0177663Y0141236D01*
X0177398Y0140038D02*
X0176832Y0140038D01*
X0176465Y0140038D02*
X0175899Y0140038D01*
X0175266Y0138839D02*
X0174701Y0138839D01*
X0172195Y0138839D02*
X0150535Y0138839D01*
X0131375Y0125447D02*
X0126099Y0125447D01*
X0158101Y0111274D02*
X0174896Y0111274D01*
X0175239Y0110075D02*
X0159299Y0110075D01*
X0160498Y0108877D02*
X0184841Y0108877D01*
X0186040Y0107678D02*
X0161696Y0107678D01*
X0162895Y0106480D02*
X0185910Y0106480D01*
X0182720Y0110075D02*
X0182471Y0110075D01*
X0189951Y0110075D02*
X0192595Y0110075D01*
X0192595Y0108877D02*
X0190498Y0108877D01*
X0191696Y0107678D02*
X0192595Y0107678D01*
X0192895Y0106480D02*
X0193387Y0106480D01*
X0193238Y0111274D02*
X0190294Y0111274D01*
X0190294Y0112472D02*
X0192595Y0112472D01*
X0192595Y0113671D02*
X0190294Y0113671D01*
X0190294Y0114869D02*
X0192595Y0114869D01*
X0193032Y0116068D02*
X0190294Y0116068D01*
X0190294Y0117266D02*
X0192600Y0117266D01*
X0199896Y0129251D02*
X0171830Y0129251D01*
X0173029Y0130450D02*
X0199896Y0130450D01*
X0200311Y0131648D02*
X0174127Y0131648D01*
X0174127Y0132847D02*
X0187241Y0132847D01*
X0186495Y0134045D02*
X0174127Y0134045D01*
X0178030Y0138839D02*
X0178596Y0138839D01*
X0178862Y0142435D02*
X0178296Y0142435D01*
X0193395Y0142435D02*
X0194595Y0142435D01*
X0194595Y0143633D02*
X0193395Y0143633D01*
X0193395Y0144832D02*
X0194595Y0144832D01*
X0194595Y0146030D02*
X0193395Y0146030D01*
X0193395Y0147229D02*
X0194595Y0147229D01*
X0194595Y0148427D02*
X0202595Y0148427D01*
X0202595Y0147229D02*
X0201495Y0147229D01*
X0201495Y0146030D02*
X0202595Y0146030D01*
X0202595Y0144832D02*
X0201495Y0144832D01*
X0201495Y0143633D02*
X0202595Y0143633D01*
X0202595Y0142435D02*
X0201495Y0142435D01*
X0201495Y0141236D02*
X0202595Y0141236D01*
X0202595Y0140038D02*
X0201495Y0140038D01*
X0201495Y0138839D02*
X0202595Y0138839D01*
X0202595Y0137641D02*
X0201495Y0137641D01*
X0201495Y0136442D02*
X0202595Y0136442D01*
X0202595Y0135244D02*
X0201495Y0135244D01*
X0201495Y0134045D02*
X0202595Y0134045D01*
X0202595Y0132847D02*
X0200750Y0132847D01*
X0194595Y0132847D02*
X0193395Y0132847D01*
X0193395Y0134045D02*
X0194595Y0134045D01*
X0194595Y0135244D02*
X0193395Y0135244D01*
X0193395Y0136442D02*
X0194595Y0136442D01*
X0194595Y0137641D02*
X0193395Y0137641D01*
X0193395Y0138839D02*
X0194595Y0138839D01*
X0194595Y0140038D02*
X0193395Y0140038D01*
X0193395Y0141236D02*
X0194595Y0141236D01*
X0201495Y0149626D02*
X0202595Y0149626D01*
X0202595Y0150824D02*
X0201495Y0150824D01*
X0201495Y0152023D02*
X0202595Y0152023D01*
X0202595Y0153221D02*
X0201495Y0153221D01*
X0201495Y0154420D02*
X0202595Y0154420D01*
X0202595Y0155619D02*
X0201495Y0155619D01*
X0201495Y0156817D02*
X0202595Y0156817D01*
X0202595Y0158016D02*
X0201495Y0158016D01*
X0201495Y0159214D02*
X0202595Y0159214D01*
X0202595Y0160413D02*
X0201495Y0160413D01*
X0201495Y0161611D02*
X0202595Y0161611D01*
X0202595Y0162810D02*
X0201495Y0162810D01*
X0201469Y0164008D02*
X0202595Y0164008D01*
X0202595Y0165207D02*
X0200458Y0165207D01*
X0202595Y0166405D02*
X0174495Y0166405D01*
X0174070Y0167604D02*
X0202595Y0167604D01*
X0202595Y0168802D02*
X0173217Y0168802D01*
X0183536Y0173596D02*
X0194444Y0173596D01*
X0205095Y0172398D02*
X0252595Y0172398D01*
X0252595Y0173596D02*
X0242070Y0173596D01*
X0242055Y0173569D02*
X0242265Y0173934D01*
X0242374Y0174341D01*
X0242374Y0177101D01*
X0236847Y0177101D01*
X0236847Y0172951D01*
X0240985Y0172951D01*
X0241392Y0173060D01*
X0241757Y0173271D01*
X0242055Y0173569D01*
X0242374Y0174795D02*
X0252595Y0174795D01*
X0252595Y0175993D02*
X0242374Y0175993D01*
X0242374Y0178390D02*
X0252595Y0178390D01*
X0252595Y0177192D02*
X0236847Y0177192D01*
X0236847Y0178390D02*
X0235647Y0178390D01*
X0235647Y0179589D02*
X0236847Y0179589D01*
X0236847Y0180787D02*
X0235647Y0180787D01*
X0235647Y0181986D02*
X0236847Y0181986D01*
X0241902Y0181986D02*
X0252595Y0181986D01*
X0252595Y0183184D02*
X0212157Y0183184D01*
X0211345Y0179049D02*
X0211444Y0177701D01*
X0217371Y0179589D02*
X0223383Y0179589D01*
X0226994Y0175993D02*
X0230119Y0175993D01*
X0230119Y0174795D02*
X0217371Y0174795D01*
X0216996Y0173596D02*
X0230423Y0173596D01*
X0235647Y0173596D02*
X0236847Y0173596D01*
X0236847Y0174795D02*
X0235647Y0174795D01*
X0235647Y0175993D02*
X0236847Y0175993D01*
X0242374Y0179589D02*
X0252595Y0179589D01*
X0252595Y0180787D02*
X0242374Y0180787D01*
X0252595Y0171199D02*
X0205095Y0171199D01*
X0205095Y0170001D02*
X0252595Y0170001D01*
X0252595Y0166405D02*
X0230900Y0166405D01*
X0231145Y0165207D02*
X0252595Y0165207D01*
X0252595Y0164008D02*
X0231145Y0164008D01*
X0231145Y0162810D02*
X0252595Y0162810D01*
X0252595Y0154420D02*
X0233845Y0154420D01*
X0233845Y0153221D02*
X0252595Y0153221D01*
X0252595Y0152023D02*
X0233845Y0152023D01*
X0233845Y0150824D02*
X0252595Y0150824D01*
X0252595Y0149626D02*
X0233845Y0149626D01*
X0233845Y0148427D02*
X0252595Y0148427D01*
X0252595Y0147229D02*
X0233845Y0147229D01*
X0226945Y0146030D02*
X0225745Y0146030D01*
X0225745Y0144832D02*
X0226945Y0144832D01*
X0226945Y0143633D02*
X0225745Y0143633D01*
X0225745Y0142435D02*
X0226945Y0142435D01*
X0226945Y0141236D02*
X0225745Y0141236D01*
X0221195Y0138839D02*
X0231345Y0138839D01*
X0231345Y0137641D02*
X0221195Y0137641D01*
X0221195Y0136442D02*
X0231345Y0136442D01*
X0231345Y0135244D02*
X0221195Y0135244D01*
X0221195Y0134045D02*
X0231345Y0134045D01*
X0231345Y0132847D02*
X0220450Y0132847D01*
X0230095Y0128951D02*
X0237595Y0136451D01*
X0243845Y0136451D01*
X0238227Y0132847D02*
X0236537Y0132847D01*
X0235041Y0136442D02*
X0233845Y0136442D01*
X0233845Y0137641D02*
X0236239Y0137641D01*
X0237072Y0138839D02*
X0233845Y0138839D01*
X0233845Y0140038D02*
X0238209Y0140038D01*
X0226945Y0149626D02*
X0225745Y0149626D01*
X0225745Y0150824D02*
X0226945Y0150824D01*
X0226945Y0152023D02*
X0225745Y0152023D01*
X0225745Y0155619D02*
X0226945Y0155619D01*
X0226945Y0156817D02*
X0225745Y0156817D01*
X0225745Y0158016D02*
X0226945Y0158016D01*
X0226345Y0158951D02*
X0228845Y0161451D01*
X0226945Y0160413D02*
X0225745Y0160413D01*
X0225745Y0159214D02*
X0226945Y0159214D01*
X0222019Y0166405D02*
X0205095Y0166405D01*
X0205095Y0165207D02*
X0207232Y0165207D01*
X0206221Y0164008D02*
X0205095Y0164008D01*
X0205095Y0162810D02*
X0206195Y0162810D01*
X0206195Y0161611D02*
X0205095Y0161611D01*
X0205095Y0160413D02*
X0206195Y0160413D01*
X0206195Y0159214D02*
X0205095Y0159214D01*
X0205095Y0158016D02*
X0206195Y0158016D01*
X0206195Y0156817D02*
X0205095Y0156817D01*
X0205095Y0155619D02*
X0206195Y0155619D01*
X0206195Y0154420D02*
X0205095Y0154420D01*
X0205095Y0153221D02*
X0206195Y0153221D01*
X0206195Y0152023D02*
X0205095Y0152023D01*
X0205095Y0150824D02*
X0206195Y0150824D01*
X0206195Y0149626D02*
X0205095Y0149626D01*
X0230095Y0128951D02*
X0230095Y0118951D01*
X0222595Y0111451D01*
X0212595Y0111451D01*
X0211345Y0110201D01*
X0211345Y0105201D01*
X0212595Y0103951D01*
X0217295Y0103951D01*
X0220095Y0100487D02*
X0237595Y0100487D01*
X0240095Y0100487D02*
X0252595Y0100487D01*
X0252595Y0099288D02*
X0240095Y0099288D01*
X0240095Y0098090D02*
X0252595Y0098090D01*
X0252595Y0096891D02*
X0240095Y0096891D01*
X0240095Y0095693D02*
X0252595Y0095693D01*
X0252595Y0094494D02*
X0240095Y0094494D01*
X0240095Y0093296D02*
X0252595Y0093296D01*
X0252595Y0092097D02*
X0240095Y0092097D01*
X0240095Y0090899D02*
X0252595Y0090899D01*
X0252595Y0089700D02*
X0240095Y0089700D01*
X0240095Y0088502D02*
X0252595Y0088502D01*
X0252595Y0087303D02*
X0240095Y0087303D01*
X0237595Y0089700D02*
X0220095Y0089700D01*
X0217595Y0089700D02*
X0202095Y0089700D01*
X0202095Y0088502D02*
X0217595Y0088502D01*
X0217595Y0087303D02*
X0202095Y0087303D01*
X0202095Y0086105D02*
X0252595Y0086105D01*
X0252595Y0084906D02*
X0202095Y0084906D01*
X0201430Y0083708D02*
X0252595Y0083708D01*
X0252595Y0082509D02*
X0200232Y0082509D01*
X0199033Y0081311D02*
X0252595Y0081311D01*
X0252595Y0080112D02*
X0197835Y0080112D01*
X0196636Y0078914D02*
X0252595Y0078914D01*
X0252595Y0077715D02*
X0055077Y0077715D01*
X0055077Y0076517D02*
X0252595Y0076517D01*
X0252595Y0075318D02*
X0055077Y0075318D01*
X0055077Y0074120D02*
X0059579Y0074120D01*
X0059256Y0073885D02*
X0058686Y0073315D01*
X0058212Y0072662D01*
X0057846Y0071943D01*
X0057596Y0071176D01*
X0057470Y0070379D01*
X0057470Y0067026D01*
X0062020Y0067026D01*
X0062020Y0065876D01*
X0057470Y0065876D01*
X0057470Y0062523D01*
X0057596Y0061726D01*
X0057846Y0060959D01*
X0058212Y0060240D01*
X0058686Y0059587D01*
X0059256Y0059017D01*
X0059909Y0058543D01*
X0060628Y0058176D01*
X0061395Y0057927D01*
X0062020Y0057828D01*
X0062020Y0065876D01*
X0063170Y0065876D01*
X0063170Y0057828D01*
X0063795Y0057927D01*
X0064562Y0058176D01*
X0065281Y0058543D01*
X0065934Y0059017D01*
X0066504Y0059587D01*
X0066978Y0060240D01*
X0067345Y0060959D01*
X0067594Y0061726D01*
X0067720Y0062523D01*
X0067720Y0065876D01*
X0063170Y0065876D01*
X0063170Y0067026D01*
X0062020Y0067026D01*
X0062020Y0075074D01*
X0061395Y0074975D01*
X0060628Y0074726D01*
X0059909Y0074359D01*
X0059256Y0073885D01*
X0058400Y0072921D02*
X0055077Y0072921D01*
X0055077Y0071723D02*
X0057774Y0071723D01*
X0057493Y0070524D02*
X0055077Y0070524D01*
X0055077Y0069326D02*
X0057470Y0069326D01*
X0057470Y0068127D02*
X0055077Y0068127D01*
X0055077Y0066929D02*
X0062020Y0066929D01*
X0063170Y0066929D02*
X0077670Y0066929D01*
X0077670Y0068127D02*
X0067720Y0068127D01*
X0067720Y0067026D02*
X0063170Y0067026D01*
X0063170Y0075074D01*
X0063795Y0074975D01*
X0064562Y0074726D01*
X0065281Y0074359D01*
X0065934Y0073885D01*
X0066504Y0073315D01*
X0066978Y0072662D01*
X0067345Y0071943D01*
X0067594Y0071176D01*
X0067720Y0070379D01*
X0067720Y0067026D01*
X0067720Y0065730D02*
X0077670Y0065730D01*
X0077670Y0064532D02*
X0067720Y0064532D01*
X0067720Y0063333D02*
X0077670Y0063333D01*
X0077670Y0062135D02*
X0067659Y0062135D01*
X0067333Y0060936D02*
X0078089Y0060936D01*
X0078420Y0060136D02*
X0079805Y0058751D01*
X0081615Y0058001D01*
X0083575Y0058001D01*
X0085385Y0058751D01*
X0086770Y0060136D01*
X0087520Y0061946D01*
X0087520Y0070956D01*
X0086770Y0072766D01*
X0085385Y0074151D01*
X0083575Y0074901D01*
X0081615Y0074901D01*
X0079805Y0074151D01*
X0078420Y0072766D01*
X0077670Y0070956D01*
X0077670Y0061946D01*
X0078420Y0060136D01*
X0078819Y0059738D02*
X0066613Y0059738D01*
X0065274Y0058539D02*
X0080316Y0058539D01*
X0084874Y0058539D02*
X0100316Y0058539D01*
X0099805Y0058751D02*
X0101615Y0058001D01*
X0103575Y0058001D01*
X0105385Y0058751D01*
X0106770Y0060136D01*
X0107520Y0061946D01*
X0107520Y0070956D01*
X0106770Y0072766D01*
X0105385Y0074151D01*
X0103575Y0074901D01*
X0101615Y0074901D01*
X0099805Y0074151D01*
X0098420Y0072766D01*
X0097670Y0070956D01*
X0097670Y0061946D01*
X0098420Y0060136D01*
X0099805Y0058751D01*
X0098819Y0059738D02*
X0086372Y0059738D01*
X0087102Y0060936D02*
X0098089Y0060936D01*
X0097670Y0062135D02*
X0087520Y0062135D01*
X0087520Y0063333D02*
X0097670Y0063333D01*
X0097670Y0064532D02*
X0087520Y0064532D01*
X0087520Y0065730D02*
X0097670Y0065730D01*
X0097670Y0066929D02*
X0087520Y0066929D01*
X0087520Y0068127D02*
X0097670Y0068127D01*
X0097670Y0069326D02*
X0087520Y0069326D01*
X0087520Y0070524D02*
X0097670Y0070524D01*
X0097988Y0071723D02*
X0087202Y0071723D01*
X0086615Y0072921D02*
X0098575Y0072921D01*
X0099774Y0074120D02*
X0085416Y0074120D01*
X0079774Y0074120D02*
X0065611Y0074120D01*
X0066790Y0072921D02*
X0078575Y0072921D01*
X0077988Y0071723D02*
X0067416Y0071723D01*
X0067697Y0070524D02*
X0077670Y0070524D01*
X0077670Y0069326D02*
X0067720Y0069326D01*
X0063170Y0069326D02*
X0062020Y0069326D01*
X0062020Y0070524D02*
X0063170Y0070524D01*
X0063170Y0071723D02*
X0062020Y0071723D01*
X0062020Y0072921D02*
X0063170Y0072921D01*
X0063170Y0074120D02*
X0062020Y0074120D01*
X0067304Y0078914D02*
X0055077Y0078914D01*
X0062020Y0068127D02*
X0063170Y0068127D01*
X0063170Y0065730D02*
X0062020Y0065730D01*
X0062020Y0064532D02*
X0063170Y0064532D01*
X0063170Y0063333D02*
X0062020Y0063333D01*
X0062020Y0062135D02*
X0063170Y0062135D01*
X0063170Y0060936D02*
X0062020Y0060936D01*
X0062020Y0059738D02*
X0063170Y0059738D01*
X0063170Y0058539D02*
X0062020Y0058539D01*
X0059916Y0058539D02*
X0055077Y0058539D01*
X0055077Y0057341D02*
X0252595Y0057341D01*
X0252595Y0058539D02*
X0244874Y0058539D01*
X0245385Y0058751D02*
X0246770Y0060136D01*
X0247520Y0061946D01*
X0247520Y0070956D01*
X0246770Y0072766D01*
X0245385Y0074151D01*
X0243575Y0074901D01*
X0241615Y0074901D01*
X0239805Y0074151D01*
X0238420Y0072766D01*
X0237670Y0070956D01*
X0237670Y0061946D01*
X0238420Y0060136D01*
X0239805Y0058751D01*
X0241615Y0058001D01*
X0243575Y0058001D01*
X0245385Y0058751D01*
X0246372Y0059738D02*
X0252595Y0059738D01*
X0252595Y0060936D02*
X0247102Y0060936D01*
X0247520Y0062135D02*
X0252595Y0062135D01*
X0252595Y0063333D02*
X0247520Y0063333D01*
X0247520Y0064532D02*
X0252595Y0064532D01*
X0252595Y0065730D02*
X0247520Y0065730D01*
X0247520Y0066929D02*
X0252595Y0066929D01*
X0252595Y0068127D02*
X0247520Y0068127D01*
X0247520Y0069326D02*
X0252595Y0069326D01*
X0252595Y0070524D02*
X0247520Y0070524D01*
X0247202Y0071723D02*
X0252595Y0071723D01*
X0252595Y0072921D02*
X0246615Y0072921D01*
X0245416Y0074120D02*
X0252595Y0074120D01*
X0239774Y0074120D02*
X0225611Y0074120D01*
X0225934Y0073885D02*
X0225281Y0074359D01*
X0224562Y0074726D01*
X0223795Y0074975D01*
X0223170Y0075074D01*
X0223170Y0067026D01*
X0222020Y0067026D01*
X0222020Y0065876D01*
X0217470Y0065876D01*
X0217470Y0062523D01*
X0217596Y0061726D01*
X0217846Y0060959D01*
X0218212Y0060240D01*
X0218686Y0059587D01*
X0219256Y0059017D01*
X0219909Y0058543D01*
X0220628Y0058176D01*
X0221395Y0057927D01*
X0222020Y0057828D01*
X0222020Y0065876D01*
X0223170Y0065876D01*
X0223170Y0057828D01*
X0223795Y0057927D01*
X0224562Y0058176D01*
X0225281Y0058543D01*
X0225934Y0059017D01*
X0226504Y0059587D01*
X0226978Y0060240D01*
X0227345Y0060959D01*
X0227594Y0061726D01*
X0227720Y0062523D01*
X0227720Y0065876D01*
X0223170Y0065876D01*
X0223170Y0067026D01*
X0227720Y0067026D01*
X0227720Y0070379D01*
X0227594Y0071176D01*
X0227345Y0071943D01*
X0226978Y0072662D01*
X0226504Y0073315D01*
X0225934Y0073885D01*
X0226790Y0072921D02*
X0238575Y0072921D01*
X0237988Y0071723D02*
X0227416Y0071723D01*
X0227697Y0070524D02*
X0237670Y0070524D01*
X0237670Y0069326D02*
X0227720Y0069326D01*
X0227720Y0068127D02*
X0237670Y0068127D01*
X0237670Y0066929D02*
X0223170Y0066929D01*
X0222020Y0066929D02*
X0192520Y0066929D01*
X0192520Y0068127D02*
X0217470Y0068127D01*
X0217470Y0067026D02*
X0222020Y0067026D01*
X0222020Y0075074D01*
X0221395Y0074975D01*
X0220628Y0074726D01*
X0219909Y0074359D01*
X0219256Y0073885D01*
X0218686Y0073315D01*
X0218212Y0072662D01*
X0217846Y0071943D01*
X0217596Y0071176D01*
X0217470Y0070379D01*
X0217470Y0067026D01*
X0217470Y0065730D02*
X0192520Y0065730D01*
X0192520Y0064532D02*
X0217470Y0064532D01*
X0217470Y0063333D02*
X0192520Y0063333D01*
X0192520Y0062135D02*
X0217532Y0062135D01*
X0217857Y0060936D02*
X0192102Y0060936D01*
X0191770Y0060136D02*
X0192520Y0061946D01*
X0192520Y0070956D01*
X0191770Y0072766D01*
X0190385Y0074151D01*
X0188575Y0074901D01*
X0186615Y0074901D01*
X0184805Y0074151D01*
X0183420Y0072766D01*
X0182670Y0070956D01*
X0182670Y0061946D01*
X0183420Y0060136D01*
X0184805Y0058751D01*
X0186615Y0058001D01*
X0188575Y0058001D01*
X0190385Y0058751D01*
X0191770Y0060136D01*
X0191372Y0059738D02*
X0218577Y0059738D01*
X0219916Y0058539D02*
X0189874Y0058539D01*
X0185316Y0058539D02*
X0169874Y0058539D01*
X0170385Y0058751D02*
X0171770Y0060136D01*
X0172520Y0061946D01*
X0172520Y0070956D01*
X0171770Y0072766D01*
X0170385Y0074151D01*
X0168575Y0074901D01*
X0166615Y0074901D01*
X0164805Y0074151D01*
X0163420Y0072766D01*
X0162670Y0070956D01*
X0162670Y0061946D01*
X0163420Y0060136D01*
X0164805Y0058751D01*
X0166615Y0058001D01*
X0168575Y0058001D01*
X0170385Y0058751D01*
X0171372Y0059738D02*
X0183819Y0059738D01*
X0183089Y0060936D02*
X0172102Y0060936D01*
X0172520Y0062135D02*
X0182670Y0062135D01*
X0182670Y0063333D02*
X0172520Y0063333D01*
X0172520Y0064532D02*
X0182670Y0064532D01*
X0182670Y0065730D02*
X0172520Y0065730D01*
X0172520Y0066929D02*
X0182670Y0066929D01*
X0182670Y0068127D02*
X0172520Y0068127D01*
X0172520Y0069326D02*
X0182670Y0069326D01*
X0182670Y0070524D02*
X0172520Y0070524D01*
X0172202Y0071723D02*
X0182988Y0071723D01*
X0183575Y0072921D02*
X0171615Y0072921D01*
X0170416Y0074120D02*
X0184774Y0074120D01*
X0190416Y0074120D02*
X0219579Y0074120D01*
X0218400Y0072921D02*
X0191615Y0072921D01*
X0192202Y0071723D02*
X0217774Y0071723D01*
X0217493Y0070524D02*
X0192520Y0070524D01*
X0192520Y0069326D02*
X0217470Y0069326D01*
X0222020Y0069326D02*
X0223170Y0069326D01*
X0223170Y0070524D02*
X0222020Y0070524D01*
X0222020Y0071723D02*
X0223170Y0071723D01*
X0223170Y0072921D02*
X0222020Y0072921D01*
X0222020Y0074120D02*
X0223170Y0074120D01*
X0223170Y0068127D02*
X0222020Y0068127D01*
X0222020Y0065730D02*
X0223170Y0065730D01*
X0223170Y0064532D02*
X0222020Y0064532D01*
X0222020Y0063333D02*
X0223170Y0063333D01*
X0223170Y0062135D02*
X0222020Y0062135D01*
X0222020Y0060936D02*
X0223170Y0060936D01*
X0223170Y0059738D02*
X0222020Y0059738D01*
X0222020Y0058539D02*
X0223170Y0058539D01*
X0225274Y0058539D02*
X0240316Y0058539D01*
X0238819Y0059738D02*
X0226613Y0059738D01*
X0227333Y0060936D02*
X0238089Y0060936D01*
X0237670Y0062135D02*
X0227659Y0062135D01*
X0227720Y0063333D02*
X0237670Y0063333D01*
X0237670Y0064532D02*
X0227720Y0064532D01*
X0227720Y0065730D02*
X0237670Y0065730D01*
X0252595Y0056142D02*
X0055077Y0056142D01*
X0055077Y0054944D02*
X0252595Y0054944D01*
X0252595Y0053745D02*
X0055077Y0053745D01*
X0055077Y0052547D02*
X0252595Y0052547D01*
X0237595Y0090899D02*
X0228358Y0090899D01*
X0228545Y0092097D02*
X0237595Y0092097D01*
X0237595Y0093296D02*
X0228545Y0093296D01*
X0228545Y0094494D02*
X0237595Y0094494D01*
X0217295Y0108951D02*
X0217295Y0108951D01*
X0209145Y0094494D02*
X0202095Y0094494D01*
X0202095Y0093296D02*
X0209145Y0093296D01*
X0209145Y0092097D02*
X0202095Y0092097D01*
X0202095Y0090899D02*
X0209332Y0090899D01*
X0165316Y0058539D02*
X0150274Y0058539D01*
X0150281Y0058543D02*
X0150934Y0059017D01*
X0151504Y0059587D01*
X0151978Y0060240D01*
X0152345Y0060959D01*
X0152594Y0061726D01*
X0152720Y0062523D01*
X0152720Y0065876D01*
X0148170Y0065876D01*
X0148170Y0057828D01*
X0148795Y0057927D01*
X0149562Y0058176D01*
X0150281Y0058543D01*
X0151613Y0059738D02*
X0163819Y0059738D01*
X0163089Y0060936D02*
X0152333Y0060936D01*
X0152659Y0062135D02*
X0162670Y0062135D01*
X0162670Y0063333D02*
X0152720Y0063333D01*
X0152720Y0064532D02*
X0162670Y0064532D01*
X0162670Y0065730D02*
X0152720Y0065730D01*
X0152720Y0067026D02*
X0152720Y0070379D01*
X0152594Y0071176D01*
X0152345Y0071943D01*
X0151978Y0072662D01*
X0151504Y0073315D01*
X0150934Y0073885D01*
X0150281Y0074359D01*
X0149562Y0074726D01*
X0148795Y0074975D01*
X0148170Y0075074D01*
X0148170Y0067026D01*
X0147020Y0067026D01*
X0147020Y0065876D01*
X0142470Y0065876D01*
X0142470Y0062523D01*
X0142596Y0061726D01*
X0142846Y0060959D01*
X0143212Y0060240D01*
X0143686Y0059587D01*
X0144256Y0059017D01*
X0144909Y0058543D01*
X0145628Y0058176D01*
X0146395Y0057927D01*
X0147020Y0057828D01*
X0147020Y0065876D01*
X0148170Y0065876D01*
X0148170Y0067026D01*
X0152720Y0067026D01*
X0152720Y0068127D02*
X0162670Y0068127D01*
X0162670Y0066929D02*
X0148170Y0066929D01*
X0147020Y0066929D02*
X0127520Y0066929D01*
X0127520Y0068127D02*
X0142470Y0068127D01*
X0142470Y0067026D02*
X0147020Y0067026D01*
X0147020Y0075074D01*
X0146395Y0074975D01*
X0145628Y0074726D01*
X0144909Y0074359D01*
X0144256Y0073885D01*
X0143686Y0073315D01*
X0143212Y0072662D01*
X0142846Y0071943D01*
X0142596Y0071176D01*
X0142470Y0070379D01*
X0142470Y0067026D01*
X0142470Y0065730D02*
X0127520Y0065730D01*
X0127520Y0064532D02*
X0142470Y0064532D01*
X0142470Y0063333D02*
X0127520Y0063333D01*
X0127520Y0062135D02*
X0142532Y0062135D01*
X0142857Y0060936D02*
X0127102Y0060936D01*
X0126770Y0060136D02*
X0127520Y0061946D01*
X0127520Y0070956D01*
X0126770Y0072766D01*
X0125385Y0074151D01*
X0123575Y0074901D01*
X0121615Y0074901D01*
X0119805Y0074151D01*
X0118420Y0072766D01*
X0117670Y0070956D01*
X0117670Y0061946D01*
X0118420Y0060136D01*
X0119805Y0058751D01*
X0121615Y0058001D01*
X0123575Y0058001D01*
X0125385Y0058751D01*
X0126770Y0060136D01*
X0126372Y0059738D02*
X0143577Y0059738D01*
X0144916Y0058539D02*
X0124874Y0058539D01*
X0120316Y0058539D02*
X0104874Y0058539D01*
X0106372Y0059738D02*
X0118819Y0059738D01*
X0118089Y0060936D02*
X0107102Y0060936D01*
X0107520Y0062135D02*
X0117670Y0062135D01*
X0117670Y0063333D02*
X0107520Y0063333D01*
X0107520Y0064532D02*
X0117670Y0064532D01*
X0117670Y0065730D02*
X0107520Y0065730D01*
X0107520Y0066929D02*
X0117670Y0066929D01*
X0117670Y0068127D02*
X0107520Y0068127D01*
X0107520Y0069326D02*
X0117670Y0069326D01*
X0117670Y0070524D02*
X0107520Y0070524D01*
X0107202Y0071723D02*
X0117988Y0071723D01*
X0118575Y0072921D02*
X0106615Y0072921D01*
X0105416Y0074120D02*
X0119774Y0074120D01*
X0125416Y0074120D02*
X0144579Y0074120D01*
X0143400Y0072921D02*
X0126615Y0072921D01*
X0127202Y0071723D02*
X0142774Y0071723D01*
X0142493Y0070524D02*
X0127520Y0070524D01*
X0127520Y0069326D02*
X0142470Y0069326D01*
X0147020Y0069326D02*
X0148170Y0069326D01*
X0148170Y0070524D02*
X0147020Y0070524D01*
X0147020Y0071723D02*
X0148170Y0071723D01*
X0148170Y0072921D02*
X0147020Y0072921D01*
X0147020Y0074120D02*
X0148170Y0074120D01*
X0150611Y0074120D02*
X0164774Y0074120D01*
X0163575Y0072921D02*
X0151790Y0072921D01*
X0152416Y0071723D02*
X0162988Y0071723D01*
X0162670Y0070524D02*
X0152697Y0070524D01*
X0152720Y0069326D02*
X0162670Y0069326D01*
X0148170Y0068127D02*
X0147020Y0068127D01*
X0147020Y0065730D02*
X0148170Y0065730D01*
X0148170Y0064532D02*
X0147020Y0064532D01*
X0147020Y0063333D02*
X0148170Y0063333D01*
X0148170Y0062135D02*
X0147020Y0062135D01*
X0147020Y0060936D02*
X0148170Y0060936D01*
X0148170Y0059738D02*
X0147020Y0059738D01*
X0147020Y0058539D02*
X0148170Y0058539D01*
X0078855Y0088951D02*
X0076345Y0088951D01*
X0075095Y0090201D01*
X0075095Y0106451D01*
X0071847Y0109699D01*
X0067595Y0109699D01*
X0067595Y0133321D02*
X0074465Y0133321D01*
X0078845Y0137701D01*
X0078845Y0153951D01*
X0081345Y0156451D01*
X0122595Y0156451D01*
X0126345Y0152701D01*
X0131375Y0156943D02*
X0138087Y0156943D01*
X0143845Y0162701D01*
X0150095Y0162701D01*
X0157595Y0177701D02*
X0156345Y0178951D01*
X0157595Y0177701D02*
X0163747Y0177701D01*
X0175194Y0177701D01*
X0205549Y0173596D02*
X0205891Y0173596D01*
X0243445Y0130450D02*
X0244245Y0130450D01*
X0133845Y0182701D02*
X0132595Y0181451D01*
X0132595Y0162701D01*
X0131345Y0161451D01*
X0125095Y0161451D01*
X0122595Y0158951D01*
X0076345Y0158951D01*
X0075095Y0157701D01*
X0068353Y0157701D01*
X0067595Y0156943D01*
X0068087Y0156451D01*
X0075095Y0152701D02*
X0075095Y0143951D01*
X0072339Y0141195D01*
X0067595Y0141195D01*
X0066965Y0133951D02*
X0067595Y0133321D01*
X0057470Y0065730D02*
X0055077Y0065730D01*
X0055077Y0064532D02*
X0057470Y0064532D01*
X0057470Y0063333D02*
X0055077Y0063333D01*
X0055077Y0062135D02*
X0057532Y0062135D01*
X0057857Y0060936D02*
X0055077Y0060936D01*
X0055077Y0059738D02*
X0058577Y0059738D01*
D27*
X0127595Y0118951D02*
X0129997Y0118951D01*
X0131375Y0117573D01*
D28*
X0126750Y0113636D02*
X0125838Y0112724D01*
X0125838Y0106674D01*
X0126682Y0105830D01*
X0126332Y0105628D01*
X0125997Y0105292D01*
X0125760Y0104882D01*
X0125638Y0104424D01*
X0125638Y0102206D01*
X0130993Y0102206D01*
X0130993Y0101444D01*
X0125638Y0101444D01*
X0125638Y0099226D01*
X0125760Y0098768D01*
X0125997Y0098358D01*
X0126332Y0098022D01*
X0126743Y0097785D01*
X0127201Y0097663D01*
X0130994Y0097663D01*
X0130994Y0101444D01*
X0131756Y0101444D01*
X0131756Y0102206D01*
X0137112Y0102206D01*
X0137112Y0104424D01*
X0136989Y0104882D01*
X0136752Y0105292D01*
X0136417Y0105628D01*
X0136067Y0105830D01*
X0136912Y0106674D01*
X0136912Y0107499D01*
X0139254Y0107499D01*
X0143506Y0111751D01*
X0144795Y0113040D01*
X0144795Y0121652D01*
X0145395Y0122252D01*
X0145395Y0108040D01*
X0159414Y0094021D01*
X0159414Y0093318D01*
X0159898Y0092149D01*
X0160793Y0091254D01*
X0161962Y0090770D01*
X0163228Y0090770D01*
X0164397Y0091254D01*
X0164696Y0091553D01*
X0164696Y0090336D01*
X0165633Y0089398D01*
X0172077Y0089398D01*
X0172454Y0089775D01*
X0172671Y0089558D01*
X0173081Y0089321D01*
X0173539Y0089198D01*
X0175856Y0089198D01*
X0175856Y0093471D01*
X0176815Y0093471D01*
X0176815Y0089198D01*
X0179131Y0089198D01*
X0179589Y0089321D01*
X0180000Y0089558D01*
X0180335Y0089893D01*
X0180572Y0090303D01*
X0180694Y0090761D01*
X0180694Y0093471D01*
X0176815Y0093471D01*
X0176815Y0094431D01*
X0175856Y0094431D01*
X0175856Y0098704D01*
X0173539Y0098704D01*
X0173081Y0098581D01*
X0172671Y0098344D01*
X0172454Y0098127D01*
X0172077Y0098504D01*
X0165633Y0098504D01*
X0164696Y0097566D01*
X0164696Y0096349D01*
X0164397Y0096648D01*
X0163228Y0097132D01*
X0162525Y0097132D01*
X0149795Y0109862D01*
X0149795Y0129862D01*
X0144136Y0135521D01*
X0136912Y0135521D01*
X0136912Y0136346D01*
X0136000Y0137258D01*
X0136912Y0138170D01*
X0136912Y0138951D01*
X0144484Y0138951D01*
X0150395Y0133040D01*
X0150395Y0113040D01*
X0157595Y0105840D01*
X0157595Y0103951D01*
X0159484Y0103951D01*
X0160395Y0103040D01*
X0161684Y0101751D01*
X0185296Y0101751D01*
X0185793Y0101254D01*
X0186962Y0100770D01*
X0187665Y0100770D01*
X0190272Y0098163D01*
X0190237Y0098127D01*
X0190019Y0098344D01*
X0189609Y0098581D01*
X0189151Y0098704D01*
X0186835Y0098704D01*
X0186835Y0094431D01*
X0185875Y0094431D01*
X0185875Y0098704D01*
X0183559Y0098704D01*
X0183101Y0098581D01*
X0182691Y0098344D01*
X0182356Y0098009D01*
X0182119Y0097599D01*
X0181996Y0097141D01*
X0181996Y0094431D01*
X0185875Y0094431D01*
X0185875Y0093471D01*
X0186835Y0093471D01*
X0186835Y0089198D01*
X0189151Y0089198D01*
X0189609Y0089321D01*
X0190019Y0089558D01*
X0190237Y0089775D01*
X0190613Y0089398D01*
X0197057Y0089398D01*
X0197595Y0089936D01*
X0197595Y0085812D01*
X0194184Y0082401D01*
X0069785Y0082401D01*
X0069785Y0084398D01*
X0070807Y0084398D01*
X0071744Y0085336D01*
X0071744Y0092566D01*
X0070807Y0093504D01*
X0064363Y0093504D01*
X0063845Y0092985D01*
X0063327Y0093504D01*
X0062305Y0093504D01*
X0062305Y0094251D01*
X0066006Y0094251D01*
X0068506Y0096751D01*
X0068506Y0096751D01*
X0069618Y0097863D01*
X0072195Y0097863D01*
X0073095Y0098763D01*
X0073095Y0089373D01*
X0074345Y0088123D01*
X0074696Y0087772D01*
X0074696Y0085336D01*
X0075633Y0084398D01*
X0082077Y0084398D01*
X0082454Y0084775D01*
X0082671Y0084558D01*
X0083081Y0084321D01*
X0083539Y0084198D01*
X0085856Y0084198D01*
X0085856Y0088471D01*
X0086815Y0088471D01*
X0086815Y0084198D01*
X0089131Y0084198D01*
X0089589Y0084321D01*
X0090000Y0084558D01*
X0090335Y0084893D01*
X0090572Y0085303D01*
X0090694Y0085761D01*
X0090694Y0086353D01*
X0090793Y0086254D01*
X0091962Y0085770D01*
X0093228Y0085770D01*
X0094397Y0086254D01*
X0094894Y0086751D01*
X0099696Y0086751D01*
X0099696Y0085336D01*
X0100633Y0084398D01*
X0107077Y0084398D01*
X0107454Y0084775D01*
X0107671Y0084558D01*
X0108081Y0084321D01*
X0108539Y0084198D01*
X0110856Y0084198D01*
X0110856Y0088471D01*
X0111815Y0088471D01*
X0111815Y0084198D01*
X0114131Y0084198D01*
X0114589Y0084321D01*
X0115000Y0084558D01*
X0115335Y0084893D01*
X0115572Y0085303D01*
X0115694Y0085761D01*
X0115694Y0088471D01*
X0111815Y0088471D01*
X0111815Y0089431D01*
X0110856Y0089431D01*
X0110856Y0093704D01*
X0108539Y0093704D01*
X0108081Y0093581D01*
X0107671Y0093344D01*
X0107454Y0093127D01*
X0107077Y0093504D01*
X0100633Y0093504D01*
X0099696Y0092566D01*
X0099696Y0091151D01*
X0094894Y0091151D01*
X0094795Y0091250D01*
X0094795Y0099862D01*
X0093506Y0101151D01*
X0074884Y0119773D01*
X0073132Y0119773D01*
X0073132Y0120598D01*
X0072220Y0121510D01*
X0073132Y0122422D01*
X0073132Y0123247D01*
X0075188Y0123247D01*
X0095395Y0103040D01*
X0096684Y0101751D01*
X0111684Y0101751D01*
X0124414Y0089021D01*
X0124414Y0088318D01*
X0124898Y0087149D01*
X0125793Y0086254D01*
X0126962Y0085770D01*
X0128228Y0085770D01*
X0129397Y0086254D01*
X0129894Y0086751D01*
X0134766Y0086751D01*
X0136055Y0088040D01*
X0136055Y0088050D01*
X0136518Y0088513D01*
X0136883Y0088148D01*
X0143327Y0088148D01*
X0143704Y0088525D01*
X0143921Y0088308D01*
X0144331Y0088071D01*
X0144789Y0087948D01*
X0147106Y0087948D01*
X0147106Y0092221D01*
X0148065Y0092221D01*
X0148065Y0087948D01*
X0150381Y0087948D01*
X0150839Y0088071D01*
X0151250Y0088308D01*
X0151585Y0088643D01*
X0151822Y0089053D01*
X0151944Y0089511D01*
X0151944Y0092221D01*
X0148065Y0092221D01*
X0148065Y0093181D01*
X0147106Y0093181D01*
X0147106Y0097454D01*
X0144789Y0097454D01*
X0144331Y0097331D01*
X0143921Y0097094D01*
X0143704Y0096877D01*
X0143327Y0097254D01*
X0136883Y0097254D01*
X0135946Y0096316D01*
X0135946Y0094163D01*
X0135395Y0093612D01*
X0132934Y0091151D01*
X0129894Y0091151D01*
X0129397Y0091648D01*
X0128228Y0092132D01*
X0127525Y0092132D01*
X0114795Y0104862D01*
X0113506Y0106151D01*
X0098506Y0106151D01*
X0078299Y0126358D01*
X0077010Y0127647D01*
X0073132Y0127647D01*
X0073132Y0128472D01*
X0072220Y0129384D01*
X0073132Y0130296D01*
X0073132Y0131321D01*
X0075294Y0131321D01*
X0079674Y0135701D01*
X0080845Y0136873D01*
X0080845Y0153123D01*
X0082174Y0154451D01*
X0112377Y0154451D01*
X0111914Y0153334D01*
X0111914Y0152068D01*
X0112398Y0150899D01*
X0113293Y0150004D01*
X0114462Y0149520D01*
X0115728Y0149520D01*
X0116897Y0150004D01*
X0117594Y0150701D01*
X0119267Y0150701D01*
X0120595Y0149373D01*
X0120595Y0123123D01*
X0121767Y0121951D01*
X0125838Y0117880D01*
X0125838Y0114548D01*
X0126750Y0113636D01*
X0126005Y0112891D02*
X0091766Y0112891D01*
X0093364Y0111293D02*
X0125838Y0111293D01*
X0125838Y0109694D02*
X0094963Y0109694D01*
X0096561Y0108096D02*
X0125838Y0108096D01*
X0126014Y0106497D02*
X0098160Y0106497D01*
X0097595Y0103951D02*
X0112595Y0103951D01*
X0127595Y0088951D01*
X0133855Y0088951D01*
X0133855Y0088961D01*
X0137595Y0092701D01*
X0140105Y0092701D01*
X0135492Y0093709D02*
X0125948Y0093709D01*
X0124350Y0095308D02*
X0135946Y0095308D01*
X0136536Y0096906D02*
X0122751Y0096906D01*
X0121153Y0098505D02*
X0125912Y0098505D01*
X0125638Y0100103D02*
X0119554Y0100103D01*
X0117956Y0101702D02*
X0130993Y0101702D01*
X0131756Y0101702D02*
X0151733Y0101702D01*
X0150134Y0103300D02*
X0137112Y0103300D01*
X0136979Y0104899D02*
X0148536Y0104899D01*
X0146937Y0106497D02*
X0136735Y0106497D01*
X0139851Y0108096D02*
X0145395Y0108096D01*
X0145395Y0109694D02*
X0141450Y0109694D01*
X0143048Y0111293D02*
X0145395Y0111293D01*
X0145395Y0112891D02*
X0144647Y0112891D01*
X0144795Y0114490D02*
X0145395Y0114490D01*
X0145395Y0116088D02*
X0144795Y0116088D01*
X0144795Y0117687D02*
X0145395Y0117687D01*
X0145395Y0119286D02*
X0144795Y0119286D01*
X0144795Y0120884D02*
X0145395Y0120884D01*
X0142595Y0123951D02*
X0142595Y0113951D01*
X0138343Y0109699D01*
X0131375Y0109699D01*
X0125896Y0114490D02*
X0090167Y0114490D01*
X0088569Y0116088D02*
X0125838Y0116088D01*
X0125838Y0117687D02*
X0086970Y0117687D01*
X0085372Y0119286D02*
X0124432Y0119286D01*
X0122834Y0120884D02*
X0083773Y0120884D01*
X0082175Y0122483D02*
X0121235Y0122483D01*
X0120595Y0124081D02*
X0080576Y0124081D01*
X0078978Y0125680D02*
X0120595Y0125680D01*
X0120595Y0127278D02*
X0077379Y0127278D01*
X0076099Y0125447D02*
X0067595Y0125447D01*
X0072728Y0128877D02*
X0120595Y0128877D01*
X0120595Y0130475D02*
X0073132Y0130475D01*
X0076046Y0132074D02*
X0120595Y0132074D01*
X0120595Y0133672D02*
X0077645Y0133672D01*
X0079243Y0135271D02*
X0120595Y0135271D01*
X0120595Y0136869D02*
X0080842Y0136869D01*
X0080845Y0138468D02*
X0120595Y0138468D01*
X0120595Y0140066D02*
X0080845Y0140066D01*
X0080845Y0141665D02*
X0120595Y0141665D01*
X0120595Y0143263D02*
X0080845Y0143263D01*
X0080845Y0144862D02*
X0120595Y0144862D01*
X0120595Y0146460D02*
X0080845Y0146460D01*
X0080845Y0148059D02*
X0120595Y0148059D01*
X0120310Y0149657D02*
X0116059Y0149657D01*
X0114131Y0149657D02*
X0080845Y0149657D01*
X0080845Y0151256D02*
X0112251Y0151256D01*
X0111914Y0152854D02*
X0080845Y0152854D01*
X0076099Y0125447D02*
X0097595Y0103951D01*
X0095134Y0103300D02*
X0091357Y0103300D01*
X0092956Y0101702D02*
X0111733Y0101702D01*
X0113331Y0100103D02*
X0094554Y0100103D01*
X0094795Y0098505D02*
X0114930Y0098505D01*
X0116529Y0096906D02*
X0094795Y0096906D01*
X0094795Y0095308D02*
X0118127Y0095308D01*
X0119726Y0093709D02*
X0094795Y0093709D01*
X0094795Y0092111D02*
X0099696Y0092111D01*
X0103855Y0088951D02*
X0092595Y0088951D01*
X0092595Y0098951D01*
X0073973Y0117573D01*
X0067595Y0117573D01*
X0073132Y0115303D02*
X0090395Y0098040D01*
X0090395Y0092904D01*
X0090335Y0093009D01*
X0090000Y0093344D01*
X0089589Y0093581D01*
X0089131Y0093704D01*
X0086815Y0093704D01*
X0086815Y0089431D01*
X0085856Y0089431D01*
X0085856Y0093704D01*
X0083539Y0093704D01*
X0083081Y0093581D01*
X0082671Y0093344D01*
X0082454Y0093127D01*
X0082077Y0093504D01*
X0077095Y0093504D01*
X0077095Y0103952D01*
X0077792Y0104649D01*
X0078276Y0105818D01*
X0078276Y0107084D01*
X0077792Y0108253D01*
X0076897Y0109148D01*
X0075728Y0109632D01*
X0074742Y0109632D01*
X0073132Y0111242D01*
X0073132Y0112724D01*
X0072220Y0113636D01*
X0073132Y0114548D01*
X0073132Y0115303D01*
X0073074Y0114490D02*
X0073945Y0114490D01*
X0072965Y0112891D02*
X0075543Y0112891D01*
X0077142Y0111293D02*
X0073132Y0111293D01*
X0074680Y0109694D02*
X0078740Y0109694D01*
X0077857Y0108096D02*
X0080339Y0108096D01*
X0081937Y0106497D02*
X0078276Y0106497D01*
X0077895Y0104899D02*
X0083536Y0104899D01*
X0085134Y0103300D02*
X0077095Y0103300D01*
X0077095Y0101702D02*
X0086733Y0101702D01*
X0088331Y0100103D02*
X0077095Y0100103D01*
X0077095Y0098505D02*
X0089930Y0098505D01*
X0090395Y0096906D02*
X0077095Y0096906D01*
X0077095Y0095308D02*
X0090395Y0095308D01*
X0090395Y0093709D02*
X0077095Y0093709D01*
X0073095Y0093709D02*
X0062305Y0093709D01*
X0060105Y0095211D02*
X0061345Y0096451D01*
X0065095Y0096451D01*
X0067595Y0098951D01*
X0067595Y0101825D01*
X0064721Y0101825D01*
X0068662Y0096906D02*
X0073095Y0096906D01*
X0073095Y0095308D02*
X0067063Y0095308D01*
X0071744Y0092111D02*
X0073095Y0092111D01*
X0073095Y0090512D02*
X0071744Y0090512D01*
X0071744Y0088914D02*
X0073554Y0088914D01*
X0074696Y0087315D02*
X0071744Y0087315D01*
X0071744Y0085717D02*
X0074696Y0085717D01*
X0069785Y0084118D02*
X0195901Y0084118D01*
X0194303Y0082520D02*
X0069785Y0082520D01*
X0067585Y0081461D02*
X0068845Y0080201D01*
X0195095Y0080201D01*
X0200095Y0085201D01*
X0200095Y0101751D01*
X0197895Y0103951D01*
X0192595Y0103951D01*
X0186335Y0110211D01*
X0186335Y0113951D01*
X0178855Y0113951D02*
X0172595Y0113951D01*
X0169577Y0116969D01*
X0169577Y0133433D01*
X0152595Y0133951D02*
X0145351Y0141195D01*
X0131375Y0141195D01*
X0136912Y0138468D02*
X0144967Y0138468D01*
X0146566Y0136869D02*
X0136389Y0136869D01*
X0131375Y0133321D02*
X0143225Y0133321D01*
X0147595Y0128951D01*
X0147595Y0108951D01*
X0162595Y0093951D01*
X0168855Y0093951D01*
X0164696Y0096906D02*
X0163773Y0096906D01*
X0161153Y0098505D02*
X0172949Y0098505D01*
X0175856Y0098505D02*
X0176815Y0098505D01*
X0176815Y0098704D02*
X0176815Y0094431D01*
X0180694Y0094431D01*
X0180694Y0097141D01*
X0180572Y0097599D01*
X0180335Y0098009D01*
X0180000Y0098344D01*
X0179589Y0098581D01*
X0179131Y0098704D01*
X0176815Y0098704D01*
X0176815Y0096906D02*
X0175856Y0096906D01*
X0175856Y0095308D02*
X0176815Y0095308D01*
X0176335Y0093951D02*
X0176345Y0093941D01*
X0176345Y0087701D01*
X0172595Y0083951D01*
X0156335Y0083951D01*
X0151741Y0088914D02*
X0197595Y0088914D01*
X0197595Y0087315D02*
X0135331Y0087315D01*
X0137595Y0083951D02*
X0116335Y0083951D01*
X0111335Y0088951D01*
X0111335Y0087691D01*
X0107595Y0083951D01*
X0088845Y0083951D01*
X0086335Y0086461D01*
X0086335Y0088951D01*
X0085856Y0090512D02*
X0086815Y0090512D01*
X0086815Y0092111D02*
X0085856Y0092111D01*
X0085856Y0087315D02*
X0086815Y0087315D01*
X0086815Y0085717D02*
X0085856Y0085717D01*
X0090682Y0085717D02*
X0099696Y0085717D01*
X0110856Y0085717D02*
X0111815Y0085717D01*
X0111815Y0087315D02*
X0110856Y0087315D01*
X0111815Y0088914D02*
X0124414Y0088914D01*
X0124829Y0087315D02*
X0115694Y0087315D01*
X0115682Y0085717D02*
X0197500Y0085717D01*
X0193835Y0093951D02*
X0193835Y0097711D01*
X0187595Y0103951D01*
X0162595Y0103951D01*
X0152595Y0113951D01*
X0152595Y0133951D01*
X0149763Y0133672D02*
X0145985Y0133672D01*
X0144387Y0135271D02*
X0148164Y0135271D01*
X0147584Y0132074D02*
X0150395Y0132074D01*
X0150395Y0130475D02*
X0149182Y0130475D01*
X0149795Y0128877D02*
X0150395Y0128877D01*
X0150395Y0127278D02*
X0149795Y0127278D01*
X0149795Y0125680D02*
X0150395Y0125680D01*
X0150395Y0124081D02*
X0149795Y0124081D01*
X0149795Y0122483D02*
X0150395Y0122483D01*
X0150395Y0120884D02*
X0149795Y0120884D01*
X0149795Y0119286D02*
X0150395Y0119286D01*
X0150395Y0117687D02*
X0149795Y0117687D01*
X0149795Y0116088D02*
X0150395Y0116088D01*
X0150395Y0114490D02*
X0149795Y0114490D01*
X0149795Y0112891D02*
X0150543Y0112891D01*
X0149795Y0111293D02*
X0152142Y0111293D01*
X0153740Y0109694D02*
X0149963Y0109694D01*
X0151561Y0108096D02*
X0155339Y0108096D01*
X0156937Y0106497D02*
X0153160Y0106497D01*
X0154759Y0104899D02*
X0157595Y0104899D01*
X0156357Y0103300D02*
X0160134Y0103300D01*
X0157956Y0101702D02*
X0185345Y0101702D01*
X0188331Y0100103D02*
X0159554Y0100103D01*
X0154930Y0098505D02*
X0136837Y0098505D01*
X0136752Y0098358D02*
X0136989Y0098768D01*
X0137112Y0099226D01*
X0137112Y0101444D01*
X0131756Y0101444D01*
X0131756Y0097663D01*
X0135549Y0097663D01*
X0136006Y0097785D01*
X0136417Y0098022D01*
X0136752Y0098358D01*
X0137112Y0100103D02*
X0153331Y0100103D01*
X0151250Y0097094D02*
X0150839Y0097331D01*
X0150381Y0097454D01*
X0148065Y0097454D01*
X0148065Y0093181D01*
X0151944Y0093181D01*
X0151944Y0095891D01*
X0151822Y0096349D01*
X0151585Y0096759D01*
X0151250Y0097094D01*
X0151437Y0096906D02*
X0156529Y0096906D01*
X0158127Y0095308D02*
X0151944Y0095308D01*
X0151944Y0093709D02*
X0159414Y0093709D01*
X0159937Y0092111D02*
X0151944Y0092111D01*
X0151944Y0090512D02*
X0164696Y0090512D01*
X0175856Y0090512D02*
X0176815Y0090512D01*
X0176815Y0092111D02*
X0175856Y0092111D01*
X0176815Y0093709D02*
X0185875Y0093709D01*
X0185875Y0093471D02*
X0181996Y0093471D01*
X0181996Y0090761D01*
X0182119Y0090303D01*
X0182356Y0089893D01*
X0182691Y0089558D01*
X0183101Y0089321D01*
X0183559Y0089198D01*
X0185875Y0089198D01*
X0185875Y0093471D01*
X0186355Y0093951D02*
X0176335Y0093951D01*
X0180694Y0095308D02*
X0181996Y0095308D01*
X0181996Y0096906D02*
X0180694Y0096906D01*
X0179721Y0098505D02*
X0182969Y0098505D01*
X0185875Y0098505D02*
X0186835Y0098505D01*
X0186835Y0096906D02*
X0185875Y0096906D01*
X0185875Y0095308D02*
X0186835Y0095308D01*
X0189741Y0098505D02*
X0189930Y0098505D01*
X0186835Y0092111D02*
X0185875Y0092111D01*
X0185875Y0090512D02*
X0186835Y0090512D01*
X0182063Y0090512D02*
X0180628Y0090512D01*
X0180694Y0092111D02*
X0181996Y0092111D01*
X0197895Y0118951D02*
X0197895Y0122991D01*
X0202605Y0127701D01*
X0203855Y0127701D01*
X0148065Y0096906D02*
X0147106Y0096906D01*
X0147106Y0095308D02*
X0148065Y0095308D01*
X0147595Y0093951D02*
X0147585Y0092701D01*
X0147106Y0092111D02*
X0148065Y0092111D01*
X0148065Y0093709D02*
X0147106Y0093709D01*
X0147106Y0090512D02*
X0148065Y0090512D01*
X0148065Y0088914D02*
X0147106Y0088914D01*
X0143733Y0096906D02*
X0143674Y0096906D01*
X0133894Y0092111D02*
X0128279Y0092111D01*
X0122923Y0090512D02*
X0115694Y0090512D01*
X0115694Y0089431D02*
X0115694Y0092141D01*
X0115572Y0092599D01*
X0115335Y0093009D01*
X0115000Y0093344D01*
X0114589Y0093581D01*
X0114131Y0093704D01*
X0111815Y0093704D01*
X0111815Y0089431D01*
X0115694Y0089431D01*
X0115694Y0092111D02*
X0121324Y0092111D01*
X0130994Y0098505D02*
X0131756Y0098505D01*
X0131756Y0100103D02*
X0130994Y0100103D01*
X0125638Y0103300D02*
X0116357Y0103300D01*
X0114759Y0104899D02*
X0125770Y0104899D01*
X0111815Y0092111D02*
X0110856Y0092111D01*
X0110856Y0090512D02*
X0111815Y0090512D01*
X0093536Y0104899D02*
X0089759Y0104899D01*
X0088160Y0106497D02*
X0091937Y0106497D01*
X0090339Y0108096D02*
X0086561Y0108096D01*
X0084963Y0109694D02*
X0088740Y0109694D01*
X0087142Y0111293D02*
X0083364Y0111293D01*
X0081766Y0112891D02*
X0085543Y0112891D01*
X0083945Y0114490D02*
X0080167Y0114490D01*
X0078569Y0116088D02*
X0082346Y0116088D01*
X0080748Y0117687D02*
X0076970Y0117687D01*
X0075372Y0119286D02*
X0079149Y0119286D01*
X0077551Y0120884D02*
X0072846Y0120884D01*
X0073132Y0122483D02*
X0075952Y0122483D01*
X0073095Y0098505D02*
X0072837Y0098505D01*
X0067585Y0088951D02*
X0067585Y0081461D01*
X0060105Y0088951D02*
X0060105Y0095211D01*
D29*
X0064721Y0101825D02*
X0060095Y0106451D01*
X0060095Y0126451D01*
X0122595Y0106451D02*
X0127221Y0101825D01*
X0131375Y0101825D01*
X0207595Y0113951D02*
X0217295Y0113951D01*
X0217295Y0108951D02*
X0232292Y0108951D01*
X0234060Y0107183D01*
D30*
X0226345Y0158951D02*
X0226345Y0161251D01*
X0226345Y0168951D01*
D31*
X0142595Y0123951D03*
M02*
