G75*
%MOIN*%
%OFA0B0*%
%FSLAX25Y25*%
%IPPOS*%
%LPD*%
%AMOC8*
5,1,8,0,0,1.08239X$1,22.5*
%
%ADD10C,0.00000*%
%ADD11C,0.12598*%
%ADD12C,0.01260*%
%ADD13C,0.06300*%
%ADD14R,0.05118X0.05906*%
%ADD15R,0.06299X0.11811*%
%ADD16R,0.24409X0.22835*%
%ADD17R,0.05906X0.05118*%
%ADD18C,0.07050*%
%ADD19OC8,0.06300*%
%ADD20C,0.06000*%
D10*
X0052477Y0025103D02*
X0261020Y0024709D01*
X0261020Y0209788D01*
X0052477Y0209788D01*
X0052477Y0025103D01*
X0056060Y0038252D02*
X0056062Y0038410D01*
X0056068Y0038568D01*
X0056078Y0038726D01*
X0056092Y0038884D01*
X0056110Y0039041D01*
X0056131Y0039198D01*
X0056157Y0039354D01*
X0056187Y0039510D01*
X0056220Y0039665D01*
X0056258Y0039818D01*
X0056299Y0039971D01*
X0056344Y0040123D01*
X0056393Y0040274D01*
X0056446Y0040423D01*
X0056502Y0040571D01*
X0056562Y0040717D01*
X0056626Y0040862D01*
X0056694Y0041005D01*
X0056765Y0041147D01*
X0056839Y0041287D01*
X0056917Y0041424D01*
X0056999Y0041560D01*
X0057083Y0041694D01*
X0057172Y0041825D01*
X0057263Y0041954D01*
X0057358Y0042081D01*
X0057455Y0042206D01*
X0057556Y0042328D01*
X0057660Y0042447D01*
X0057767Y0042564D01*
X0057877Y0042678D01*
X0057990Y0042789D01*
X0058105Y0042898D01*
X0058223Y0043003D01*
X0058344Y0043105D01*
X0058467Y0043205D01*
X0058593Y0043301D01*
X0058721Y0043394D01*
X0058851Y0043484D01*
X0058984Y0043570D01*
X0059119Y0043654D01*
X0059255Y0043733D01*
X0059394Y0043810D01*
X0059535Y0043882D01*
X0059677Y0043952D01*
X0059821Y0044017D01*
X0059967Y0044079D01*
X0060114Y0044137D01*
X0060263Y0044192D01*
X0060413Y0044243D01*
X0060564Y0044290D01*
X0060716Y0044333D01*
X0060869Y0044372D01*
X0061024Y0044408D01*
X0061179Y0044439D01*
X0061335Y0044467D01*
X0061491Y0044491D01*
X0061648Y0044511D01*
X0061806Y0044527D01*
X0061963Y0044539D01*
X0062122Y0044547D01*
X0062280Y0044551D01*
X0062438Y0044551D01*
X0062596Y0044547D01*
X0062755Y0044539D01*
X0062912Y0044527D01*
X0063070Y0044511D01*
X0063227Y0044491D01*
X0063383Y0044467D01*
X0063539Y0044439D01*
X0063694Y0044408D01*
X0063849Y0044372D01*
X0064002Y0044333D01*
X0064154Y0044290D01*
X0064305Y0044243D01*
X0064455Y0044192D01*
X0064604Y0044137D01*
X0064751Y0044079D01*
X0064897Y0044017D01*
X0065041Y0043952D01*
X0065183Y0043882D01*
X0065324Y0043810D01*
X0065463Y0043733D01*
X0065599Y0043654D01*
X0065734Y0043570D01*
X0065867Y0043484D01*
X0065997Y0043394D01*
X0066125Y0043301D01*
X0066251Y0043205D01*
X0066374Y0043105D01*
X0066495Y0043003D01*
X0066613Y0042898D01*
X0066728Y0042789D01*
X0066841Y0042678D01*
X0066951Y0042564D01*
X0067058Y0042447D01*
X0067162Y0042328D01*
X0067263Y0042206D01*
X0067360Y0042081D01*
X0067455Y0041954D01*
X0067546Y0041825D01*
X0067635Y0041694D01*
X0067719Y0041560D01*
X0067801Y0041424D01*
X0067879Y0041287D01*
X0067953Y0041147D01*
X0068024Y0041005D01*
X0068092Y0040862D01*
X0068156Y0040717D01*
X0068216Y0040571D01*
X0068272Y0040423D01*
X0068325Y0040274D01*
X0068374Y0040123D01*
X0068419Y0039971D01*
X0068460Y0039818D01*
X0068498Y0039665D01*
X0068531Y0039510D01*
X0068561Y0039354D01*
X0068587Y0039198D01*
X0068608Y0039041D01*
X0068626Y0038884D01*
X0068640Y0038726D01*
X0068650Y0038568D01*
X0068656Y0038410D01*
X0068658Y0038252D01*
X0068656Y0038094D01*
X0068650Y0037936D01*
X0068640Y0037778D01*
X0068626Y0037620D01*
X0068608Y0037463D01*
X0068587Y0037306D01*
X0068561Y0037150D01*
X0068531Y0036994D01*
X0068498Y0036839D01*
X0068460Y0036686D01*
X0068419Y0036533D01*
X0068374Y0036381D01*
X0068325Y0036230D01*
X0068272Y0036081D01*
X0068216Y0035933D01*
X0068156Y0035787D01*
X0068092Y0035642D01*
X0068024Y0035499D01*
X0067953Y0035357D01*
X0067879Y0035217D01*
X0067801Y0035080D01*
X0067719Y0034944D01*
X0067635Y0034810D01*
X0067546Y0034679D01*
X0067455Y0034550D01*
X0067360Y0034423D01*
X0067263Y0034298D01*
X0067162Y0034176D01*
X0067058Y0034057D01*
X0066951Y0033940D01*
X0066841Y0033826D01*
X0066728Y0033715D01*
X0066613Y0033606D01*
X0066495Y0033501D01*
X0066374Y0033399D01*
X0066251Y0033299D01*
X0066125Y0033203D01*
X0065997Y0033110D01*
X0065867Y0033020D01*
X0065734Y0032934D01*
X0065599Y0032850D01*
X0065463Y0032771D01*
X0065324Y0032694D01*
X0065183Y0032622D01*
X0065041Y0032552D01*
X0064897Y0032487D01*
X0064751Y0032425D01*
X0064604Y0032367D01*
X0064455Y0032312D01*
X0064305Y0032261D01*
X0064154Y0032214D01*
X0064002Y0032171D01*
X0063849Y0032132D01*
X0063694Y0032096D01*
X0063539Y0032065D01*
X0063383Y0032037D01*
X0063227Y0032013D01*
X0063070Y0031993D01*
X0062912Y0031977D01*
X0062755Y0031965D01*
X0062596Y0031957D01*
X0062438Y0031953D01*
X0062280Y0031953D01*
X0062122Y0031957D01*
X0061963Y0031965D01*
X0061806Y0031977D01*
X0061648Y0031993D01*
X0061491Y0032013D01*
X0061335Y0032037D01*
X0061179Y0032065D01*
X0061024Y0032096D01*
X0060869Y0032132D01*
X0060716Y0032171D01*
X0060564Y0032214D01*
X0060413Y0032261D01*
X0060263Y0032312D01*
X0060114Y0032367D01*
X0059967Y0032425D01*
X0059821Y0032487D01*
X0059677Y0032552D01*
X0059535Y0032622D01*
X0059394Y0032694D01*
X0059255Y0032771D01*
X0059119Y0032850D01*
X0058984Y0032934D01*
X0058851Y0033020D01*
X0058721Y0033110D01*
X0058593Y0033203D01*
X0058467Y0033299D01*
X0058344Y0033399D01*
X0058223Y0033501D01*
X0058105Y0033606D01*
X0057990Y0033715D01*
X0057877Y0033826D01*
X0057767Y0033940D01*
X0057660Y0034057D01*
X0057556Y0034176D01*
X0057455Y0034298D01*
X0057358Y0034423D01*
X0057263Y0034550D01*
X0057172Y0034679D01*
X0057083Y0034810D01*
X0056999Y0034944D01*
X0056917Y0035080D01*
X0056839Y0035217D01*
X0056765Y0035357D01*
X0056694Y0035499D01*
X0056626Y0035642D01*
X0056562Y0035787D01*
X0056502Y0035933D01*
X0056446Y0036081D01*
X0056393Y0036230D01*
X0056344Y0036381D01*
X0056299Y0036533D01*
X0056258Y0036686D01*
X0056220Y0036839D01*
X0056187Y0036994D01*
X0056157Y0037150D01*
X0056131Y0037306D01*
X0056110Y0037463D01*
X0056092Y0037620D01*
X0056078Y0037778D01*
X0056068Y0037936D01*
X0056062Y0038094D01*
X0056060Y0038252D01*
X0052595Y0048951D02*
X0253796Y0048951D01*
X0243540Y0038646D02*
X0243542Y0038804D01*
X0243548Y0038962D01*
X0243558Y0039120D01*
X0243572Y0039278D01*
X0243590Y0039435D01*
X0243611Y0039592D01*
X0243637Y0039748D01*
X0243667Y0039904D01*
X0243700Y0040059D01*
X0243738Y0040212D01*
X0243779Y0040365D01*
X0243824Y0040517D01*
X0243873Y0040668D01*
X0243926Y0040817D01*
X0243982Y0040965D01*
X0244042Y0041111D01*
X0244106Y0041256D01*
X0244174Y0041399D01*
X0244245Y0041541D01*
X0244319Y0041681D01*
X0244397Y0041818D01*
X0244479Y0041954D01*
X0244563Y0042088D01*
X0244652Y0042219D01*
X0244743Y0042348D01*
X0244838Y0042475D01*
X0244935Y0042600D01*
X0245036Y0042722D01*
X0245140Y0042841D01*
X0245247Y0042958D01*
X0245357Y0043072D01*
X0245470Y0043183D01*
X0245585Y0043292D01*
X0245703Y0043397D01*
X0245824Y0043499D01*
X0245947Y0043599D01*
X0246073Y0043695D01*
X0246201Y0043788D01*
X0246331Y0043878D01*
X0246464Y0043964D01*
X0246599Y0044048D01*
X0246735Y0044127D01*
X0246874Y0044204D01*
X0247015Y0044276D01*
X0247157Y0044346D01*
X0247301Y0044411D01*
X0247447Y0044473D01*
X0247594Y0044531D01*
X0247743Y0044586D01*
X0247893Y0044637D01*
X0248044Y0044684D01*
X0248196Y0044727D01*
X0248349Y0044766D01*
X0248504Y0044802D01*
X0248659Y0044833D01*
X0248815Y0044861D01*
X0248971Y0044885D01*
X0249128Y0044905D01*
X0249286Y0044921D01*
X0249443Y0044933D01*
X0249602Y0044941D01*
X0249760Y0044945D01*
X0249918Y0044945D01*
X0250076Y0044941D01*
X0250235Y0044933D01*
X0250392Y0044921D01*
X0250550Y0044905D01*
X0250707Y0044885D01*
X0250863Y0044861D01*
X0251019Y0044833D01*
X0251174Y0044802D01*
X0251329Y0044766D01*
X0251482Y0044727D01*
X0251634Y0044684D01*
X0251785Y0044637D01*
X0251935Y0044586D01*
X0252084Y0044531D01*
X0252231Y0044473D01*
X0252377Y0044411D01*
X0252521Y0044346D01*
X0252663Y0044276D01*
X0252804Y0044204D01*
X0252943Y0044127D01*
X0253079Y0044048D01*
X0253214Y0043964D01*
X0253347Y0043878D01*
X0253477Y0043788D01*
X0253605Y0043695D01*
X0253731Y0043599D01*
X0253854Y0043499D01*
X0253975Y0043397D01*
X0254093Y0043292D01*
X0254208Y0043183D01*
X0254321Y0043072D01*
X0254431Y0042958D01*
X0254538Y0042841D01*
X0254642Y0042722D01*
X0254743Y0042600D01*
X0254840Y0042475D01*
X0254935Y0042348D01*
X0255026Y0042219D01*
X0255115Y0042088D01*
X0255199Y0041954D01*
X0255281Y0041818D01*
X0255359Y0041681D01*
X0255433Y0041541D01*
X0255504Y0041399D01*
X0255572Y0041256D01*
X0255636Y0041111D01*
X0255696Y0040965D01*
X0255752Y0040817D01*
X0255805Y0040668D01*
X0255854Y0040517D01*
X0255899Y0040365D01*
X0255940Y0040212D01*
X0255978Y0040059D01*
X0256011Y0039904D01*
X0256041Y0039748D01*
X0256067Y0039592D01*
X0256088Y0039435D01*
X0256106Y0039278D01*
X0256120Y0039120D01*
X0256130Y0038962D01*
X0256136Y0038804D01*
X0256138Y0038646D01*
X0256136Y0038488D01*
X0256130Y0038330D01*
X0256120Y0038172D01*
X0256106Y0038014D01*
X0256088Y0037857D01*
X0256067Y0037700D01*
X0256041Y0037544D01*
X0256011Y0037388D01*
X0255978Y0037233D01*
X0255940Y0037080D01*
X0255899Y0036927D01*
X0255854Y0036775D01*
X0255805Y0036624D01*
X0255752Y0036475D01*
X0255696Y0036327D01*
X0255636Y0036181D01*
X0255572Y0036036D01*
X0255504Y0035893D01*
X0255433Y0035751D01*
X0255359Y0035611D01*
X0255281Y0035474D01*
X0255199Y0035338D01*
X0255115Y0035204D01*
X0255026Y0035073D01*
X0254935Y0034944D01*
X0254840Y0034817D01*
X0254743Y0034692D01*
X0254642Y0034570D01*
X0254538Y0034451D01*
X0254431Y0034334D01*
X0254321Y0034220D01*
X0254208Y0034109D01*
X0254093Y0034000D01*
X0253975Y0033895D01*
X0253854Y0033793D01*
X0253731Y0033693D01*
X0253605Y0033597D01*
X0253477Y0033504D01*
X0253347Y0033414D01*
X0253214Y0033328D01*
X0253079Y0033244D01*
X0252943Y0033165D01*
X0252804Y0033088D01*
X0252663Y0033016D01*
X0252521Y0032946D01*
X0252377Y0032881D01*
X0252231Y0032819D01*
X0252084Y0032761D01*
X0251935Y0032706D01*
X0251785Y0032655D01*
X0251634Y0032608D01*
X0251482Y0032565D01*
X0251329Y0032526D01*
X0251174Y0032490D01*
X0251019Y0032459D01*
X0250863Y0032431D01*
X0250707Y0032407D01*
X0250550Y0032387D01*
X0250392Y0032371D01*
X0250235Y0032359D01*
X0250076Y0032351D01*
X0249918Y0032347D01*
X0249760Y0032347D01*
X0249602Y0032351D01*
X0249443Y0032359D01*
X0249286Y0032371D01*
X0249128Y0032387D01*
X0248971Y0032407D01*
X0248815Y0032431D01*
X0248659Y0032459D01*
X0248504Y0032490D01*
X0248349Y0032526D01*
X0248196Y0032565D01*
X0248044Y0032608D01*
X0247893Y0032655D01*
X0247743Y0032706D01*
X0247594Y0032761D01*
X0247447Y0032819D01*
X0247301Y0032881D01*
X0247157Y0032946D01*
X0247015Y0033016D01*
X0246874Y0033088D01*
X0246735Y0033165D01*
X0246599Y0033244D01*
X0246464Y0033328D01*
X0246331Y0033414D01*
X0246201Y0033504D01*
X0246073Y0033597D01*
X0245947Y0033693D01*
X0245824Y0033793D01*
X0245703Y0033895D01*
X0245585Y0034000D01*
X0245470Y0034109D01*
X0245357Y0034220D01*
X0245247Y0034334D01*
X0245140Y0034451D01*
X0245036Y0034570D01*
X0244935Y0034692D01*
X0244838Y0034817D01*
X0244743Y0034944D01*
X0244652Y0035073D01*
X0244563Y0035204D01*
X0244479Y0035338D01*
X0244397Y0035474D01*
X0244319Y0035611D01*
X0244245Y0035751D01*
X0244174Y0035893D01*
X0244106Y0036036D01*
X0244042Y0036181D01*
X0243982Y0036327D01*
X0243926Y0036475D01*
X0243873Y0036624D01*
X0243824Y0036775D01*
X0243779Y0036927D01*
X0243738Y0037080D01*
X0243700Y0037233D01*
X0243667Y0037388D01*
X0243637Y0037544D01*
X0243611Y0037700D01*
X0243590Y0037857D01*
X0243572Y0038014D01*
X0243558Y0038172D01*
X0243548Y0038330D01*
X0243542Y0038488D01*
X0243540Y0038646D01*
X0243540Y0195929D02*
X0243542Y0196087D01*
X0243548Y0196245D01*
X0243558Y0196403D01*
X0243572Y0196561D01*
X0243590Y0196718D01*
X0243611Y0196875D01*
X0243637Y0197031D01*
X0243667Y0197187D01*
X0243700Y0197342D01*
X0243738Y0197495D01*
X0243779Y0197648D01*
X0243824Y0197800D01*
X0243873Y0197951D01*
X0243926Y0198100D01*
X0243982Y0198248D01*
X0244042Y0198394D01*
X0244106Y0198539D01*
X0244174Y0198682D01*
X0244245Y0198824D01*
X0244319Y0198964D01*
X0244397Y0199101D01*
X0244479Y0199237D01*
X0244563Y0199371D01*
X0244652Y0199502D01*
X0244743Y0199631D01*
X0244838Y0199758D01*
X0244935Y0199883D01*
X0245036Y0200005D01*
X0245140Y0200124D01*
X0245247Y0200241D01*
X0245357Y0200355D01*
X0245470Y0200466D01*
X0245585Y0200575D01*
X0245703Y0200680D01*
X0245824Y0200782D01*
X0245947Y0200882D01*
X0246073Y0200978D01*
X0246201Y0201071D01*
X0246331Y0201161D01*
X0246464Y0201247D01*
X0246599Y0201331D01*
X0246735Y0201410D01*
X0246874Y0201487D01*
X0247015Y0201559D01*
X0247157Y0201629D01*
X0247301Y0201694D01*
X0247447Y0201756D01*
X0247594Y0201814D01*
X0247743Y0201869D01*
X0247893Y0201920D01*
X0248044Y0201967D01*
X0248196Y0202010D01*
X0248349Y0202049D01*
X0248504Y0202085D01*
X0248659Y0202116D01*
X0248815Y0202144D01*
X0248971Y0202168D01*
X0249128Y0202188D01*
X0249286Y0202204D01*
X0249443Y0202216D01*
X0249602Y0202224D01*
X0249760Y0202228D01*
X0249918Y0202228D01*
X0250076Y0202224D01*
X0250235Y0202216D01*
X0250392Y0202204D01*
X0250550Y0202188D01*
X0250707Y0202168D01*
X0250863Y0202144D01*
X0251019Y0202116D01*
X0251174Y0202085D01*
X0251329Y0202049D01*
X0251482Y0202010D01*
X0251634Y0201967D01*
X0251785Y0201920D01*
X0251935Y0201869D01*
X0252084Y0201814D01*
X0252231Y0201756D01*
X0252377Y0201694D01*
X0252521Y0201629D01*
X0252663Y0201559D01*
X0252804Y0201487D01*
X0252943Y0201410D01*
X0253079Y0201331D01*
X0253214Y0201247D01*
X0253347Y0201161D01*
X0253477Y0201071D01*
X0253605Y0200978D01*
X0253731Y0200882D01*
X0253854Y0200782D01*
X0253975Y0200680D01*
X0254093Y0200575D01*
X0254208Y0200466D01*
X0254321Y0200355D01*
X0254431Y0200241D01*
X0254538Y0200124D01*
X0254642Y0200005D01*
X0254743Y0199883D01*
X0254840Y0199758D01*
X0254935Y0199631D01*
X0255026Y0199502D01*
X0255115Y0199371D01*
X0255199Y0199237D01*
X0255281Y0199101D01*
X0255359Y0198964D01*
X0255433Y0198824D01*
X0255504Y0198682D01*
X0255572Y0198539D01*
X0255636Y0198394D01*
X0255696Y0198248D01*
X0255752Y0198100D01*
X0255805Y0197951D01*
X0255854Y0197800D01*
X0255899Y0197648D01*
X0255940Y0197495D01*
X0255978Y0197342D01*
X0256011Y0197187D01*
X0256041Y0197031D01*
X0256067Y0196875D01*
X0256088Y0196718D01*
X0256106Y0196561D01*
X0256120Y0196403D01*
X0256130Y0196245D01*
X0256136Y0196087D01*
X0256138Y0195929D01*
X0256136Y0195771D01*
X0256130Y0195613D01*
X0256120Y0195455D01*
X0256106Y0195297D01*
X0256088Y0195140D01*
X0256067Y0194983D01*
X0256041Y0194827D01*
X0256011Y0194671D01*
X0255978Y0194516D01*
X0255940Y0194363D01*
X0255899Y0194210D01*
X0255854Y0194058D01*
X0255805Y0193907D01*
X0255752Y0193758D01*
X0255696Y0193610D01*
X0255636Y0193464D01*
X0255572Y0193319D01*
X0255504Y0193176D01*
X0255433Y0193034D01*
X0255359Y0192894D01*
X0255281Y0192757D01*
X0255199Y0192621D01*
X0255115Y0192487D01*
X0255026Y0192356D01*
X0254935Y0192227D01*
X0254840Y0192100D01*
X0254743Y0191975D01*
X0254642Y0191853D01*
X0254538Y0191734D01*
X0254431Y0191617D01*
X0254321Y0191503D01*
X0254208Y0191392D01*
X0254093Y0191283D01*
X0253975Y0191178D01*
X0253854Y0191076D01*
X0253731Y0190976D01*
X0253605Y0190880D01*
X0253477Y0190787D01*
X0253347Y0190697D01*
X0253214Y0190611D01*
X0253079Y0190527D01*
X0252943Y0190448D01*
X0252804Y0190371D01*
X0252663Y0190299D01*
X0252521Y0190229D01*
X0252377Y0190164D01*
X0252231Y0190102D01*
X0252084Y0190044D01*
X0251935Y0189989D01*
X0251785Y0189938D01*
X0251634Y0189891D01*
X0251482Y0189848D01*
X0251329Y0189809D01*
X0251174Y0189773D01*
X0251019Y0189742D01*
X0250863Y0189714D01*
X0250707Y0189690D01*
X0250550Y0189670D01*
X0250392Y0189654D01*
X0250235Y0189642D01*
X0250076Y0189634D01*
X0249918Y0189630D01*
X0249760Y0189630D01*
X0249602Y0189634D01*
X0249443Y0189642D01*
X0249286Y0189654D01*
X0249128Y0189670D01*
X0248971Y0189690D01*
X0248815Y0189714D01*
X0248659Y0189742D01*
X0248504Y0189773D01*
X0248349Y0189809D01*
X0248196Y0189848D01*
X0248044Y0189891D01*
X0247893Y0189938D01*
X0247743Y0189989D01*
X0247594Y0190044D01*
X0247447Y0190102D01*
X0247301Y0190164D01*
X0247157Y0190229D01*
X0247015Y0190299D01*
X0246874Y0190371D01*
X0246735Y0190448D01*
X0246599Y0190527D01*
X0246464Y0190611D01*
X0246331Y0190697D01*
X0246201Y0190787D01*
X0246073Y0190880D01*
X0245947Y0190976D01*
X0245824Y0191076D01*
X0245703Y0191178D01*
X0245585Y0191283D01*
X0245470Y0191392D01*
X0245357Y0191503D01*
X0245247Y0191617D01*
X0245140Y0191734D01*
X0245036Y0191853D01*
X0244935Y0191975D01*
X0244838Y0192100D01*
X0244743Y0192227D01*
X0244652Y0192356D01*
X0244563Y0192487D01*
X0244479Y0192621D01*
X0244397Y0192757D01*
X0244319Y0192894D01*
X0244245Y0193034D01*
X0244174Y0193176D01*
X0244106Y0193319D01*
X0244042Y0193464D01*
X0243982Y0193610D01*
X0243926Y0193758D01*
X0243873Y0193907D01*
X0243824Y0194058D01*
X0243779Y0194210D01*
X0243738Y0194363D01*
X0243700Y0194516D01*
X0243667Y0194671D01*
X0243637Y0194827D01*
X0243611Y0194983D01*
X0243590Y0195140D01*
X0243572Y0195297D01*
X0243558Y0195455D01*
X0243548Y0195613D01*
X0243542Y0195771D01*
X0243540Y0195929D01*
X0056454Y0195929D02*
X0056456Y0196087D01*
X0056462Y0196245D01*
X0056472Y0196403D01*
X0056486Y0196561D01*
X0056504Y0196718D01*
X0056525Y0196875D01*
X0056551Y0197031D01*
X0056581Y0197187D01*
X0056614Y0197342D01*
X0056652Y0197495D01*
X0056693Y0197648D01*
X0056738Y0197800D01*
X0056787Y0197951D01*
X0056840Y0198100D01*
X0056896Y0198248D01*
X0056956Y0198394D01*
X0057020Y0198539D01*
X0057088Y0198682D01*
X0057159Y0198824D01*
X0057233Y0198964D01*
X0057311Y0199101D01*
X0057393Y0199237D01*
X0057477Y0199371D01*
X0057566Y0199502D01*
X0057657Y0199631D01*
X0057752Y0199758D01*
X0057849Y0199883D01*
X0057950Y0200005D01*
X0058054Y0200124D01*
X0058161Y0200241D01*
X0058271Y0200355D01*
X0058384Y0200466D01*
X0058499Y0200575D01*
X0058617Y0200680D01*
X0058738Y0200782D01*
X0058861Y0200882D01*
X0058987Y0200978D01*
X0059115Y0201071D01*
X0059245Y0201161D01*
X0059378Y0201247D01*
X0059513Y0201331D01*
X0059649Y0201410D01*
X0059788Y0201487D01*
X0059929Y0201559D01*
X0060071Y0201629D01*
X0060215Y0201694D01*
X0060361Y0201756D01*
X0060508Y0201814D01*
X0060657Y0201869D01*
X0060807Y0201920D01*
X0060958Y0201967D01*
X0061110Y0202010D01*
X0061263Y0202049D01*
X0061418Y0202085D01*
X0061573Y0202116D01*
X0061729Y0202144D01*
X0061885Y0202168D01*
X0062042Y0202188D01*
X0062200Y0202204D01*
X0062357Y0202216D01*
X0062516Y0202224D01*
X0062674Y0202228D01*
X0062832Y0202228D01*
X0062990Y0202224D01*
X0063149Y0202216D01*
X0063306Y0202204D01*
X0063464Y0202188D01*
X0063621Y0202168D01*
X0063777Y0202144D01*
X0063933Y0202116D01*
X0064088Y0202085D01*
X0064243Y0202049D01*
X0064396Y0202010D01*
X0064548Y0201967D01*
X0064699Y0201920D01*
X0064849Y0201869D01*
X0064998Y0201814D01*
X0065145Y0201756D01*
X0065291Y0201694D01*
X0065435Y0201629D01*
X0065577Y0201559D01*
X0065718Y0201487D01*
X0065857Y0201410D01*
X0065993Y0201331D01*
X0066128Y0201247D01*
X0066261Y0201161D01*
X0066391Y0201071D01*
X0066519Y0200978D01*
X0066645Y0200882D01*
X0066768Y0200782D01*
X0066889Y0200680D01*
X0067007Y0200575D01*
X0067122Y0200466D01*
X0067235Y0200355D01*
X0067345Y0200241D01*
X0067452Y0200124D01*
X0067556Y0200005D01*
X0067657Y0199883D01*
X0067754Y0199758D01*
X0067849Y0199631D01*
X0067940Y0199502D01*
X0068029Y0199371D01*
X0068113Y0199237D01*
X0068195Y0199101D01*
X0068273Y0198964D01*
X0068347Y0198824D01*
X0068418Y0198682D01*
X0068486Y0198539D01*
X0068550Y0198394D01*
X0068610Y0198248D01*
X0068666Y0198100D01*
X0068719Y0197951D01*
X0068768Y0197800D01*
X0068813Y0197648D01*
X0068854Y0197495D01*
X0068892Y0197342D01*
X0068925Y0197187D01*
X0068955Y0197031D01*
X0068981Y0196875D01*
X0069002Y0196718D01*
X0069020Y0196561D01*
X0069034Y0196403D01*
X0069044Y0196245D01*
X0069050Y0196087D01*
X0069052Y0195929D01*
X0069050Y0195771D01*
X0069044Y0195613D01*
X0069034Y0195455D01*
X0069020Y0195297D01*
X0069002Y0195140D01*
X0068981Y0194983D01*
X0068955Y0194827D01*
X0068925Y0194671D01*
X0068892Y0194516D01*
X0068854Y0194363D01*
X0068813Y0194210D01*
X0068768Y0194058D01*
X0068719Y0193907D01*
X0068666Y0193758D01*
X0068610Y0193610D01*
X0068550Y0193464D01*
X0068486Y0193319D01*
X0068418Y0193176D01*
X0068347Y0193034D01*
X0068273Y0192894D01*
X0068195Y0192757D01*
X0068113Y0192621D01*
X0068029Y0192487D01*
X0067940Y0192356D01*
X0067849Y0192227D01*
X0067754Y0192100D01*
X0067657Y0191975D01*
X0067556Y0191853D01*
X0067452Y0191734D01*
X0067345Y0191617D01*
X0067235Y0191503D01*
X0067122Y0191392D01*
X0067007Y0191283D01*
X0066889Y0191178D01*
X0066768Y0191076D01*
X0066645Y0190976D01*
X0066519Y0190880D01*
X0066391Y0190787D01*
X0066261Y0190697D01*
X0066128Y0190611D01*
X0065993Y0190527D01*
X0065857Y0190448D01*
X0065718Y0190371D01*
X0065577Y0190299D01*
X0065435Y0190229D01*
X0065291Y0190164D01*
X0065145Y0190102D01*
X0064998Y0190044D01*
X0064849Y0189989D01*
X0064699Y0189938D01*
X0064548Y0189891D01*
X0064396Y0189848D01*
X0064243Y0189809D01*
X0064088Y0189773D01*
X0063933Y0189742D01*
X0063777Y0189714D01*
X0063621Y0189690D01*
X0063464Y0189670D01*
X0063306Y0189654D01*
X0063149Y0189642D01*
X0062990Y0189634D01*
X0062832Y0189630D01*
X0062674Y0189630D01*
X0062516Y0189634D01*
X0062357Y0189642D01*
X0062200Y0189654D01*
X0062042Y0189670D01*
X0061885Y0189690D01*
X0061729Y0189714D01*
X0061573Y0189742D01*
X0061418Y0189773D01*
X0061263Y0189809D01*
X0061110Y0189848D01*
X0060958Y0189891D01*
X0060807Y0189938D01*
X0060657Y0189989D01*
X0060508Y0190044D01*
X0060361Y0190102D01*
X0060215Y0190164D01*
X0060071Y0190229D01*
X0059929Y0190299D01*
X0059788Y0190371D01*
X0059649Y0190448D01*
X0059513Y0190527D01*
X0059378Y0190611D01*
X0059245Y0190697D01*
X0059115Y0190787D01*
X0058987Y0190880D01*
X0058861Y0190976D01*
X0058738Y0191076D01*
X0058617Y0191178D01*
X0058499Y0191283D01*
X0058384Y0191392D01*
X0058271Y0191503D01*
X0058161Y0191617D01*
X0058054Y0191734D01*
X0057950Y0191853D01*
X0057849Y0191975D01*
X0057752Y0192100D01*
X0057657Y0192227D01*
X0057566Y0192356D01*
X0057477Y0192487D01*
X0057393Y0192621D01*
X0057311Y0192757D01*
X0057233Y0192894D01*
X0057159Y0193034D01*
X0057088Y0193176D01*
X0057020Y0193319D01*
X0056956Y0193464D01*
X0056896Y0193610D01*
X0056840Y0193758D01*
X0056787Y0193907D01*
X0056738Y0194058D01*
X0056693Y0194210D01*
X0056652Y0194363D01*
X0056614Y0194516D01*
X0056581Y0194671D01*
X0056551Y0194827D01*
X0056525Y0194983D01*
X0056504Y0195140D01*
X0056486Y0195297D01*
X0056472Y0195455D01*
X0056462Y0195613D01*
X0056456Y0195771D01*
X0056454Y0195929D01*
D11*
X0062753Y0195929D03*
X0249839Y0195929D03*
X0249839Y0038646D03*
X0062359Y0038252D03*
D12*
X0167688Y0133019D02*
X0167058Y0132389D01*
X0167058Y0134477D01*
X0168533Y0135952D01*
X0170621Y0135952D01*
X0172096Y0134477D01*
X0172096Y0132389D01*
X0170621Y0130914D01*
X0168533Y0130914D01*
X0167058Y0132389D01*
X0168003Y0132781D01*
X0168003Y0134085D01*
X0168925Y0135007D01*
X0170229Y0135007D01*
X0171151Y0134085D01*
X0171151Y0132781D01*
X0170229Y0131859D01*
X0168925Y0131859D01*
X0168003Y0132781D01*
X0168948Y0133172D01*
X0168948Y0133694D01*
X0169316Y0134062D01*
X0169838Y0134062D01*
X0170206Y0133694D01*
X0170206Y0133172D01*
X0169838Y0132804D01*
X0169316Y0132804D01*
X0168948Y0133172D01*
D13*
X0176648Y0140504D03*
X0244060Y0107183D03*
D14*
X0217585Y0178951D03*
X0210105Y0178951D03*
X0198835Y0178951D03*
X0191355Y0178951D03*
X0138835Y0131451D03*
X0131355Y0131451D03*
X0107585Y0155201D03*
X0100105Y0155201D03*
X0090085Y0155201D03*
X0082605Y0155201D03*
X0067585Y0141451D03*
X0060105Y0141451D03*
X0060105Y0132701D03*
X0067585Y0132701D03*
D15*
X0063595Y0117219D03*
X0081595Y0117219D03*
X0098595Y0117219D03*
X0116595Y0117219D03*
X0133595Y0117219D03*
X0151595Y0117219D03*
X0168595Y0117219D03*
X0186595Y0117219D03*
X0203595Y0117219D03*
X0221595Y0117219D03*
D16*
X0212595Y0088951D03*
X0177595Y0088951D03*
X0142595Y0088951D03*
X0107595Y0088951D03*
X0072595Y0088951D03*
D17*
X0138845Y0172711D03*
X0138845Y0180191D03*
D18*
X0147595Y0069976D02*
X0147595Y0062926D01*
X0167595Y0062926D02*
X0167595Y0069976D01*
X0187595Y0069976D02*
X0187595Y0062926D01*
X0222595Y0062926D02*
X0222595Y0069976D01*
X0242595Y0069976D02*
X0242595Y0062926D01*
X0122595Y0062926D02*
X0122595Y0069976D01*
X0102595Y0069976D02*
X0102595Y0062926D01*
X0082595Y0062926D02*
X0082595Y0069976D01*
X0062595Y0069976D02*
X0062595Y0062926D01*
D19*
X0234060Y0107183D03*
D20*
X0240845Y0126451D02*
X0246845Y0126451D01*
X0246845Y0136451D02*
X0240845Y0136451D01*
X0170095Y0159701D02*
X0170095Y0165701D01*
X0160095Y0165701D02*
X0160095Y0159701D01*
X0150095Y0159701D02*
X0150095Y0165701D01*
M02*
