G75*
%MOIN*%
%OFA0B0*%
%FSLAX25Y25*%
%IPPOS*%
%LPD*%
%AMOC8*
5,1,8,0,0,1.08239X$1,22.5*
%
%ADD10C,0.00000*%
%ADD11C,0.00300*%
%ADD12C,0.00400*%
%ADD13C,0.00600*%
%ADD14C,0.00500*%
%ADD15C,0.00800*%
%ADD16C,0.00200*%
D10*
X0052477Y0025103D02*
X0261020Y0024709D01*
X0261020Y0209788D01*
X0052477Y0209788D01*
X0052477Y0025103D01*
X0056060Y0038252D02*
X0056062Y0038410D01*
X0056068Y0038568D01*
X0056078Y0038726D01*
X0056092Y0038884D01*
X0056110Y0039041D01*
X0056131Y0039198D01*
X0056157Y0039354D01*
X0056187Y0039510D01*
X0056220Y0039665D01*
X0056258Y0039818D01*
X0056299Y0039971D01*
X0056344Y0040123D01*
X0056393Y0040274D01*
X0056446Y0040423D01*
X0056502Y0040571D01*
X0056562Y0040717D01*
X0056626Y0040862D01*
X0056694Y0041005D01*
X0056765Y0041147D01*
X0056839Y0041287D01*
X0056917Y0041424D01*
X0056999Y0041560D01*
X0057083Y0041694D01*
X0057172Y0041825D01*
X0057263Y0041954D01*
X0057358Y0042081D01*
X0057455Y0042206D01*
X0057556Y0042328D01*
X0057660Y0042447D01*
X0057767Y0042564D01*
X0057877Y0042678D01*
X0057990Y0042789D01*
X0058105Y0042898D01*
X0058223Y0043003D01*
X0058344Y0043105D01*
X0058467Y0043205D01*
X0058593Y0043301D01*
X0058721Y0043394D01*
X0058851Y0043484D01*
X0058984Y0043570D01*
X0059119Y0043654D01*
X0059255Y0043733D01*
X0059394Y0043810D01*
X0059535Y0043882D01*
X0059677Y0043952D01*
X0059821Y0044017D01*
X0059967Y0044079D01*
X0060114Y0044137D01*
X0060263Y0044192D01*
X0060413Y0044243D01*
X0060564Y0044290D01*
X0060716Y0044333D01*
X0060869Y0044372D01*
X0061024Y0044408D01*
X0061179Y0044439D01*
X0061335Y0044467D01*
X0061491Y0044491D01*
X0061648Y0044511D01*
X0061806Y0044527D01*
X0061963Y0044539D01*
X0062122Y0044547D01*
X0062280Y0044551D01*
X0062438Y0044551D01*
X0062596Y0044547D01*
X0062755Y0044539D01*
X0062912Y0044527D01*
X0063070Y0044511D01*
X0063227Y0044491D01*
X0063383Y0044467D01*
X0063539Y0044439D01*
X0063694Y0044408D01*
X0063849Y0044372D01*
X0064002Y0044333D01*
X0064154Y0044290D01*
X0064305Y0044243D01*
X0064455Y0044192D01*
X0064604Y0044137D01*
X0064751Y0044079D01*
X0064897Y0044017D01*
X0065041Y0043952D01*
X0065183Y0043882D01*
X0065324Y0043810D01*
X0065463Y0043733D01*
X0065599Y0043654D01*
X0065734Y0043570D01*
X0065867Y0043484D01*
X0065997Y0043394D01*
X0066125Y0043301D01*
X0066251Y0043205D01*
X0066374Y0043105D01*
X0066495Y0043003D01*
X0066613Y0042898D01*
X0066728Y0042789D01*
X0066841Y0042678D01*
X0066951Y0042564D01*
X0067058Y0042447D01*
X0067162Y0042328D01*
X0067263Y0042206D01*
X0067360Y0042081D01*
X0067455Y0041954D01*
X0067546Y0041825D01*
X0067635Y0041694D01*
X0067719Y0041560D01*
X0067801Y0041424D01*
X0067879Y0041287D01*
X0067953Y0041147D01*
X0068024Y0041005D01*
X0068092Y0040862D01*
X0068156Y0040717D01*
X0068216Y0040571D01*
X0068272Y0040423D01*
X0068325Y0040274D01*
X0068374Y0040123D01*
X0068419Y0039971D01*
X0068460Y0039818D01*
X0068498Y0039665D01*
X0068531Y0039510D01*
X0068561Y0039354D01*
X0068587Y0039198D01*
X0068608Y0039041D01*
X0068626Y0038884D01*
X0068640Y0038726D01*
X0068650Y0038568D01*
X0068656Y0038410D01*
X0068658Y0038252D01*
X0068656Y0038094D01*
X0068650Y0037936D01*
X0068640Y0037778D01*
X0068626Y0037620D01*
X0068608Y0037463D01*
X0068587Y0037306D01*
X0068561Y0037150D01*
X0068531Y0036994D01*
X0068498Y0036839D01*
X0068460Y0036686D01*
X0068419Y0036533D01*
X0068374Y0036381D01*
X0068325Y0036230D01*
X0068272Y0036081D01*
X0068216Y0035933D01*
X0068156Y0035787D01*
X0068092Y0035642D01*
X0068024Y0035499D01*
X0067953Y0035357D01*
X0067879Y0035217D01*
X0067801Y0035080D01*
X0067719Y0034944D01*
X0067635Y0034810D01*
X0067546Y0034679D01*
X0067455Y0034550D01*
X0067360Y0034423D01*
X0067263Y0034298D01*
X0067162Y0034176D01*
X0067058Y0034057D01*
X0066951Y0033940D01*
X0066841Y0033826D01*
X0066728Y0033715D01*
X0066613Y0033606D01*
X0066495Y0033501D01*
X0066374Y0033399D01*
X0066251Y0033299D01*
X0066125Y0033203D01*
X0065997Y0033110D01*
X0065867Y0033020D01*
X0065734Y0032934D01*
X0065599Y0032850D01*
X0065463Y0032771D01*
X0065324Y0032694D01*
X0065183Y0032622D01*
X0065041Y0032552D01*
X0064897Y0032487D01*
X0064751Y0032425D01*
X0064604Y0032367D01*
X0064455Y0032312D01*
X0064305Y0032261D01*
X0064154Y0032214D01*
X0064002Y0032171D01*
X0063849Y0032132D01*
X0063694Y0032096D01*
X0063539Y0032065D01*
X0063383Y0032037D01*
X0063227Y0032013D01*
X0063070Y0031993D01*
X0062912Y0031977D01*
X0062755Y0031965D01*
X0062596Y0031957D01*
X0062438Y0031953D01*
X0062280Y0031953D01*
X0062122Y0031957D01*
X0061963Y0031965D01*
X0061806Y0031977D01*
X0061648Y0031993D01*
X0061491Y0032013D01*
X0061335Y0032037D01*
X0061179Y0032065D01*
X0061024Y0032096D01*
X0060869Y0032132D01*
X0060716Y0032171D01*
X0060564Y0032214D01*
X0060413Y0032261D01*
X0060263Y0032312D01*
X0060114Y0032367D01*
X0059967Y0032425D01*
X0059821Y0032487D01*
X0059677Y0032552D01*
X0059535Y0032622D01*
X0059394Y0032694D01*
X0059255Y0032771D01*
X0059119Y0032850D01*
X0058984Y0032934D01*
X0058851Y0033020D01*
X0058721Y0033110D01*
X0058593Y0033203D01*
X0058467Y0033299D01*
X0058344Y0033399D01*
X0058223Y0033501D01*
X0058105Y0033606D01*
X0057990Y0033715D01*
X0057877Y0033826D01*
X0057767Y0033940D01*
X0057660Y0034057D01*
X0057556Y0034176D01*
X0057455Y0034298D01*
X0057358Y0034423D01*
X0057263Y0034550D01*
X0057172Y0034679D01*
X0057083Y0034810D01*
X0056999Y0034944D01*
X0056917Y0035080D01*
X0056839Y0035217D01*
X0056765Y0035357D01*
X0056694Y0035499D01*
X0056626Y0035642D01*
X0056562Y0035787D01*
X0056502Y0035933D01*
X0056446Y0036081D01*
X0056393Y0036230D01*
X0056344Y0036381D01*
X0056299Y0036533D01*
X0056258Y0036686D01*
X0056220Y0036839D01*
X0056187Y0036994D01*
X0056157Y0037150D01*
X0056131Y0037306D01*
X0056110Y0037463D01*
X0056092Y0037620D01*
X0056078Y0037778D01*
X0056068Y0037936D01*
X0056062Y0038094D01*
X0056060Y0038252D01*
X0052595Y0048951D02*
X0253796Y0048951D01*
X0243540Y0038646D02*
X0243542Y0038804D01*
X0243548Y0038962D01*
X0243558Y0039120D01*
X0243572Y0039278D01*
X0243590Y0039435D01*
X0243611Y0039592D01*
X0243637Y0039748D01*
X0243667Y0039904D01*
X0243700Y0040059D01*
X0243738Y0040212D01*
X0243779Y0040365D01*
X0243824Y0040517D01*
X0243873Y0040668D01*
X0243926Y0040817D01*
X0243982Y0040965D01*
X0244042Y0041111D01*
X0244106Y0041256D01*
X0244174Y0041399D01*
X0244245Y0041541D01*
X0244319Y0041681D01*
X0244397Y0041818D01*
X0244479Y0041954D01*
X0244563Y0042088D01*
X0244652Y0042219D01*
X0244743Y0042348D01*
X0244838Y0042475D01*
X0244935Y0042600D01*
X0245036Y0042722D01*
X0245140Y0042841D01*
X0245247Y0042958D01*
X0245357Y0043072D01*
X0245470Y0043183D01*
X0245585Y0043292D01*
X0245703Y0043397D01*
X0245824Y0043499D01*
X0245947Y0043599D01*
X0246073Y0043695D01*
X0246201Y0043788D01*
X0246331Y0043878D01*
X0246464Y0043964D01*
X0246599Y0044048D01*
X0246735Y0044127D01*
X0246874Y0044204D01*
X0247015Y0044276D01*
X0247157Y0044346D01*
X0247301Y0044411D01*
X0247447Y0044473D01*
X0247594Y0044531D01*
X0247743Y0044586D01*
X0247893Y0044637D01*
X0248044Y0044684D01*
X0248196Y0044727D01*
X0248349Y0044766D01*
X0248504Y0044802D01*
X0248659Y0044833D01*
X0248815Y0044861D01*
X0248971Y0044885D01*
X0249128Y0044905D01*
X0249286Y0044921D01*
X0249443Y0044933D01*
X0249602Y0044941D01*
X0249760Y0044945D01*
X0249918Y0044945D01*
X0250076Y0044941D01*
X0250235Y0044933D01*
X0250392Y0044921D01*
X0250550Y0044905D01*
X0250707Y0044885D01*
X0250863Y0044861D01*
X0251019Y0044833D01*
X0251174Y0044802D01*
X0251329Y0044766D01*
X0251482Y0044727D01*
X0251634Y0044684D01*
X0251785Y0044637D01*
X0251935Y0044586D01*
X0252084Y0044531D01*
X0252231Y0044473D01*
X0252377Y0044411D01*
X0252521Y0044346D01*
X0252663Y0044276D01*
X0252804Y0044204D01*
X0252943Y0044127D01*
X0253079Y0044048D01*
X0253214Y0043964D01*
X0253347Y0043878D01*
X0253477Y0043788D01*
X0253605Y0043695D01*
X0253731Y0043599D01*
X0253854Y0043499D01*
X0253975Y0043397D01*
X0254093Y0043292D01*
X0254208Y0043183D01*
X0254321Y0043072D01*
X0254431Y0042958D01*
X0254538Y0042841D01*
X0254642Y0042722D01*
X0254743Y0042600D01*
X0254840Y0042475D01*
X0254935Y0042348D01*
X0255026Y0042219D01*
X0255115Y0042088D01*
X0255199Y0041954D01*
X0255281Y0041818D01*
X0255359Y0041681D01*
X0255433Y0041541D01*
X0255504Y0041399D01*
X0255572Y0041256D01*
X0255636Y0041111D01*
X0255696Y0040965D01*
X0255752Y0040817D01*
X0255805Y0040668D01*
X0255854Y0040517D01*
X0255899Y0040365D01*
X0255940Y0040212D01*
X0255978Y0040059D01*
X0256011Y0039904D01*
X0256041Y0039748D01*
X0256067Y0039592D01*
X0256088Y0039435D01*
X0256106Y0039278D01*
X0256120Y0039120D01*
X0256130Y0038962D01*
X0256136Y0038804D01*
X0256138Y0038646D01*
X0256136Y0038488D01*
X0256130Y0038330D01*
X0256120Y0038172D01*
X0256106Y0038014D01*
X0256088Y0037857D01*
X0256067Y0037700D01*
X0256041Y0037544D01*
X0256011Y0037388D01*
X0255978Y0037233D01*
X0255940Y0037080D01*
X0255899Y0036927D01*
X0255854Y0036775D01*
X0255805Y0036624D01*
X0255752Y0036475D01*
X0255696Y0036327D01*
X0255636Y0036181D01*
X0255572Y0036036D01*
X0255504Y0035893D01*
X0255433Y0035751D01*
X0255359Y0035611D01*
X0255281Y0035474D01*
X0255199Y0035338D01*
X0255115Y0035204D01*
X0255026Y0035073D01*
X0254935Y0034944D01*
X0254840Y0034817D01*
X0254743Y0034692D01*
X0254642Y0034570D01*
X0254538Y0034451D01*
X0254431Y0034334D01*
X0254321Y0034220D01*
X0254208Y0034109D01*
X0254093Y0034000D01*
X0253975Y0033895D01*
X0253854Y0033793D01*
X0253731Y0033693D01*
X0253605Y0033597D01*
X0253477Y0033504D01*
X0253347Y0033414D01*
X0253214Y0033328D01*
X0253079Y0033244D01*
X0252943Y0033165D01*
X0252804Y0033088D01*
X0252663Y0033016D01*
X0252521Y0032946D01*
X0252377Y0032881D01*
X0252231Y0032819D01*
X0252084Y0032761D01*
X0251935Y0032706D01*
X0251785Y0032655D01*
X0251634Y0032608D01*
X0251482Y0032565D01*
X0251329Y0032526D01*
X0251174Y0032490D01*
X0251019Y0032459D01*
X0250863Y0032431D01*
X0250707Y0032407D01*
X0250550Y0032387D01*
X0250392Y0032371D01*
X0250235Y0032359D01*
X0250076Y0032351D01*
X0249918Y0032347D01*
X0249760Y0032347D01*
X0249602Y0032351D01*
X0249443Y0032359D01*
X0249286Y0032371D01*
X0249128Y0032387D01*
X0248971Y0032407D01*
X0248815Y0032431D01*
X0248659Y0032459D01*
X0248504Y0032490D01*
X0248349Y0032526D01*
X0248196Y0032565D01*
X0248044Y0032608D01*
X0247893Y0032655D01*
X0247743Y0032706D01*
X0247594Y0032761D01*
X0247447Y0032819D01*
X0247301Y0032881D01*
X0247157Y0032946D01*
X0247015Y0033016D01*
X0246874Y0033088D01*
X0246735Y0033165D01*
X0246599Y0033244D01*
X0246464Y0033328D01*
X0246331Y0033414D01*
X0246201Y0033504D01*
X0246073Y0033597D01*
X0245947Y0033693D01*
X0245824Y0033793D01*
X0245703Y0033895D01*
X0245585Y0034000D01*
X0245470Y0034109D01*
X0245357Y0034220D01*
X0245247Y0034334D01*
X0245140Y0034451D01*
X0245036Y0034570D01*
X0244935Y0034692D01*
X0244838Y0034817D01*
X0244743Y0034944D01*
X0244652Y0035073D01*
X0244563Y0035204D01*
X0244479Y0035338D01*
X0244397Y0035474D01*
X0244319Y0035611D01*
X0244245Y0035751D01*
X0244174Y0035893D01*
X0244106Y0036036D01*
X0244042Y0036181D01*
X0243982Y0036327D01*
X0243926Y0036475D01*
X0243873Y0036624D01*
X0243824Y0036775D01*
X0243779Y0036927D01*
X0243738Y0037080D01*
X0243700Y0037233D01*
X0243667Y0037388D01*
X0243637Y0037544D01*
X0243611Y0037700D01*
X0243590Y0037857D01*
X0243572Y0038014D01*
X0243558Y0038172D01*
X0243548Y0038330D01*
X0243542Y0038488D01*
X0243540Y0038646D01*
X0243540Y0195929D02*
X0243542Y0196087D01*
X0243548Y0196245D01*
X0243558Y0196403D01*
X0243572Y0196561D01*
X0243590Y0196718D01*
X0243611Y0196875D01*
X0243637Y0197031D01*
X0243667Y0197187D01*
X0243700Y0197342D01*
X0243738Y0197495D01*
X0243779Y0197648D01*
X0243824Y0197800D01*
X0243873Y0197951D01*
X0243926Y0198100D01*
X0243982Y0198248D01*
X0244042Y0198394D01*
X0244106Y0198539D01*
X0244174Y0198682D01*
X0244245Y0198824D01*
X0244319Y0198964D01*
X0244397Y0199101D01*
X0244479Y0199237D01*
X0244563Y0199371D01*
X0244652Y0199502D01*
X0244743Y0199631D01*
X0244838Y0199758D01*
X0244935Y0199883D01*
X0245036Y0200005D01*
X0245140Y0200124D01*
X0245247Y0200241D01*
X0245357Y0200355D01*
X0245470Y0200466D01*
X0245585Y0200575D01*
X0245703Y0200680D01*
X0245824Y0200782D01*
X0245947Y0200882D01*
X0246073Y0200978D01*
X0246201Y0201071D01*
X0246331Y0201161D01*
X0246464Y0201247D01*
X0246599Y0201331D01*
X0246735Y0201410D01*
X0246874Y0201487D01*
X0247015Y0201559D01*
X0247157Y0201629D01*
X0247301Y0201694D01*
X0247447Y0201756D01*
X0247594Y0201814D01*
X0247743Y0201869D01*
X0247893Y0201920D01*
X0248044Y0201967D01*
X0248196Y0202010D01*
X0248349Y0202049D01*
X0248504Y0202085D01*
X0248659Y0202116D01*
X0248815Y0202144D01*
X0248971Y0202168D01*
X0249128Y0202188D01*
X0249286Y0202204D01*
X0249443Y0202216D01*
X0249602Y0202224D01*
X0249760Y0202228D01*
X0249918Y0202228D01*
X0250076Y0202224D01*
X0250235Y0202216D01*
X0250392Y0202204D01*
X0250550Y0202188D01*
X0250707Y0202168D01*
X0250863Y0202144D01*
X0251019Y0202116D01*
X0251174Y0202085D01*
X0251329Y0202049D01*
X0251482Y0202010D01*
X0251634Y0201967D01*
X0251785Y0201920D01*
X0251935Y0201869D01*
X0252084Y0201814D01*
X0252231Y0201756D01*
X0252377Y0201694D01*
X0252521Y0201629D01*
X0252663Y0201559D01*
X0252804Y0201487D01*
X0252943Y0201410D01*
X0253079Y0201331D01*
X0253214Y0201247D01*
X0253347Y0201161D01*
X0253477Y0201071D01*
X0253605Y0200978D01*
X0253731Y0200882D01*
X0253854Y0200782D01*
X0253975Y0200680D01*
X0254093Y0200575D01*
X0254208Y0200466D01*
X0254321Y0200355D01*
X0254431Y0200241D01*
X0254538Y0200124D01*
X0254642Y0200005D01*
X0254743Y0199883D01*
X0254840Y0199758D01*
X0254935Y0199631D01*
X0255026Y0199502D01*
X0255115Y0199371D01*
X0255199Y0199237D01*
X0255281Y0199101D01*
X0255359Y0198964D01*
X0255433Y0198824D01*
X0255504Y0198682D01*
X0255572Y0198539D01*
X0255636Y0198394D01*
X0255696Y0198248D01*
X0255752Y0198100D01*
X0255805Y0197951D01*
X0255854Y0197800D01*
X0255899Y0197648D01*
X0255940Y0197495D01*
X0255978Y0197342D01*
X0256011Y0197187D01*
X0256041Y0197031D01*
X0256067Y0196875D01*
X0256088Y0196718D01*
X0256106Y0196561D01*
X0256120Y0196403D01*
X0256130Y0196245D01*
X0256136Y0196087D01*
X0256138Y0195929D01*
X0256136Y0195771D01*
X0256130Y0195613D01*
X0256120Y0195455D01*
X0256106Y0195297D01*
X0256088Y0195140D01*
X0256067Y0194983D01*
X0256041Y0194827D01*
X0256011Y0194671D01*
X0255978Y0194516D01*
X0255940Y0194363D01*
X0255899Y0194210D01*
X0255854Y0194058D01*
X0255805Y0193907D01*
X0255752Y0193758D01*
X0255696Y0193610D01*
X0255636Y0193464D01*
X0255572Y0193319D01*
X0255504Y0193176D01*
X0255433Y0193034D01*
X0255359Y0192894D01*
X0255281Y0192757D01*
X0255199Y0192621D01*
X0255115Y0192487D01*
X0255026Y0192356D01*
X0254935Y0192227D01*
X0254840Y0192100D01*
X0254743Y0191975D01*
X0254642Y0191853D01*
X0254538Y0191734D01*
X0254431Y0191617D01*
X0254321Y0191503D01*
X0254208Y0191392D01*
X0254093Y0191283D01*
X0253975Y0191178D01*
X0253854Y0191076D01*
X0253731Y0190976D01*
X0253605Y0190880D01*
X0253477Y0190787D01*
X0253347Y0190697D01*
X0253214Y0190611D01*
X0253079Y0190527D01*
X0252943Y0190448D01*
X0252804Y0190371D01*
X0252663Y0190299D01*
X0252521Y0190229D01*
X0252377Y0190164D01*
X0252231Y0190102D01*
X0252084Y0190044D01*
X0251935Y0189989D01*
X0251785Y0189938D01*
X0251634Y0189891D01*
X0251482Y0189848D01*
X0251329Y0189809D01*
X0251174Y0189773D01*
X0251019Y0189742D01*
X0250863Y0189714D01*
X0250707Y0189690D01*
X0250550Y0189670D01*
X0250392Y0189654D01*
X0250235Y0189642D01*
X0250076Y0189634D01*
X0249918Y0189630D01*
X0249760Y0189630D01*
X0249602Y0189634D01*
X0249443Y0189642D01*
X0249286Y0189654D01*
X0249128Y0189670D01*
X0248971Y0189690D01*
X0248815Y0189714D01*
X0248659Y0189742D01*
X0248504Y0189773D01*
X0248349Y0189809D01*
X0248196Y0189848D01*
X0248044Y0189891D01*
X0247893Y0189938D01*
X0247743Y0189989D01*
X0247594Y0190044D01*
X0247447Y0190102D01*
X0247301Y0190164D01*
X0247157Y0190229D01*
X0247015Y0190299D01*
X0246874Y0190371D01*
X0246735Y0190448D01*
X0246599Y0190527D01*
X0246464Y0190611D01*
X0246331Y0190697D01*
X0246201Y0190787D01*
X0246073Y0190880D01*
X0245947Y0190976D01*
X0245824Y0191076D01*
X0245703Y0191178D01*
X0245585Y0191283D01*
X0245470Y0191392D01*
X0245357Y0191503D01*
X0245247Y0191617D01*
X0245140Y0191734D01*
X0245036Y0191853D01*
X0244935Y0191975D01*
X0244838Y0192100D01*
X0244743Y0192227D01*
X0244652Y0192356D01*
X0244563Y0192487D01*
X0244479Y0192621D01*
X0244397Y0192757D01*
X0244319Y0192894D01*
X0244245Y0193034D01*
X0244174Y0193176D01*
X0244106Y0193319D01*
X0244042Y0193464D01*
X0243982Y0193610D01*
X0243926Y0193758D01*
X0243873Y0193907D01*
X0243824Y0194058D01*
X0243779Y0194210D01*
X0243738Y0194363D01*
X0243700Y0194516D01*
X0243667Y0194671D01*
X0243637Y0194827D01*
X0243611Y0194983D01*
X0243590Y0195140D01*
X0243572Y0195297D01*
X0243558Y0195455D01*
X0243548Y0195613D01*
X0243542Y0195771D01*
X0243540Y0195929D01*
X0056454Y0195929D02*
X0056456Y0196087D01*
X0056462Y0196245D01*
X0056472Y0196403D01*
X0056486Y0196561D01*
X0056504Y0196718D01*
X0056525Y0196875D01*
X0056551Y0197031D01*
X0056581Y0197187D01*
X0056614Y0197342D01*
X0056652Y0197495D01*
X0056693Y0197648D01*
X0056738Y0197800D01*
X0056787Y0197951D01*
X0056840Y0198100D01*
X0056896Y0198248D01*
X0056956Y0198394D01*
X0057020Y0198539D01*
X0057088Y0198682D01*
X0057159Y0198824D01*
X0057233Y0198964D01*
X0057311Y0199101D01*
X0057393Y0199237D01*
X0057477Y0199371D01*
X0057566Y0199502D01*
X0057657Y0199631D01*
X0057752Y0199758D01*
X0057849Y0199883D01*
X0057950Y0200005D01*
X0058054Y0200124D01*
X0058161Y0200241D01*
X0058271Y0200355D01*
X0058384Y0200466D01*
X0058499Y0200575D01*
X0058617Y0200680D01*
X0058738Y0200782D01*
X0058861Y0200882D01*
X0058987Y0200978D01*
X0059115Y0201071D01*
X0059245Y0201161D01*
X0059378Y0201247D01*
X0059513Y0201331D01*
X0059649Y0201410D01*
X0059788Y0201487D01*
X0059929Y0201559D01*
X0060071Y0201629D01*
X0060215Y0201694D01*
X0060361Y0201756D01*
X0060508Y0201814D01*
X0060657Y0201869D01*
X0060807Y0201920D01*
X0060958Y0201967D01*
X0061110Y0202010D01*
X0061263Y0202049D01*
X0061418Y0202085D01*
X0061573Y0202116D01*
X0061729Y0202144D01*
X0061885Y0202168D01*
X0062042Y0202188D01*
X0062200Y0202204D01*
X0062357Y0202216D01*
X0062516Y0202224D01*
X0062674Y0202228D01*
X0062832Y0202228D01*
X0062990Y0202224D01*
X0063149Y0202216D01*
X0063306Y0202204D01*
X0063464Y0202188D01*
X0063621Y0202168D01*
X0063777Y0202144D01*
X0063933Y0202116D01*
X0064088Y0202085D01*
X0064243Y0202049D01*
X0064396Y0202010D01*
X0064548Y0201967D01*
X0064699Y0201920D01*
X0064849Y0201869D01*
X0064998Y0201814D01*
X0065145Y0201756D01*
X0065291Y0201694D01*
X0065435Y0201629D01*
X0065577Y0201559D01*
X0065718Y0201487D01*
X0065857Y0201410D01*
X0065993Y0201331D01*
X0066128Y0201247D01*
X0066261Y0201161D01*
X0066391Y0201071D01*
X0066519Y0200978D01*
X0066645Y0200882D01*
X0066768Y0200782D01*
X0066889Y0200680D01*
X0067007Y0200575D01*
X0067122Y0200466D01*
X0067235Y0200355D01*
X0067345Y0200241D01*
X0067452Y0200124D01*
X0067556Y0200005D01*
X0067657Y0199883D01*
X0067754Y0199758D01*
X0067849Y0199631D01*
X0067940Y0199502D01*
X0068029Y0199371D01*
X0068113Y0199237D01*
X0068195Y0199101D01*
X0068273Y0198964D01*
X0068347Y0198824D01*
X0068418Y0198682D01*
X0068486Y0198539D01*
X0068550Y0198394D01*
X0068610Y0198248D01*
X0068666Y0198100D01*
X0068719Y0197951D01*
X0068768Y0197800D01*
X0068813Y0197648D01*
X0068854Y0197495D01*
X0068892Y0197342D01*
X0068925Y0197187D01*
X0068955Y0197031D01*
X0068981Y0196875D01*
X0069002Y0196718D01*
X0069020Y0196561D01*
X0069034Y0196403D01*
X0069044Y0196245D01*
X0069050Y0196087D01*
X0069052Y0195929D01*
X0069050Y0195771D01*
X0069044Y0195613D01*
X0069034Y0195455D01*
X0069020Y0195297D01*
X0069002Y0195140D01*
X0068981Y0194983D01*
X0068955Y0194827D01*
X0068925Y0194671D01*
X0068892Y0194516D01*
X0068854Y0194363D01*
X0068813Y0194210D01*
X0068768Y0194058D01*
X0068719Y0193907D01*
X0068666Y0193758D01*
X0068610Y0193610D01*
X0068550Y0193464D01*
X0068486Y0193319D01*
X0068418Y0193176D01*
X0068347Y0193034D01*
X0068273Y0192894D01*
X0068195Y0192757D01*
X0068113Y0192621D01*
X0068029Y0192487D01*
X0067940Y0192356D01*
X0067849Y0192227D01*
X0067754Y0192100D01*
X0067657Y0191975D01*
X0067556Y0191853D01*
X0067452Y0191734D01*
X0067345Y0191617D01*
X0067235Y0191503D01*
X0067122Y0191392D01*
X0067007Y0191283D01*
X0066889Y0191178D01*
X0066768Y0191076D01*
X0066645Y0190976D01*
X0066519Y0190880D01*
X0066391Y0190787D01*
X0066261Y0190697D01*
X0066128Y0190611D01*
X0065993Y0190527D01*
X0065857Y0190448D01*
X0065718Y0190371D01*
X0065577Y0190299D01*
X0065435Y0190229D01*
X0065291Y0190164D01*
X0065145Y0190102D01*
X0064998Y0190044D01*
X0064849Y0189989D01*
X0064699Y0189938D01*
X0064548Y0189891D01*
X0064396Y0189848D01*
X0064243Y0189809D01*
X0064088Y0189773D01*
X0063933Y0189742D01*
X0063777Y0189714D01*
X0063621Y0189690D01*
X0063464Y0189670D01*
X0063306Y0189654D01*
X0063149Y0189642D01*
X0062990Y0189634D01*
X0062832Y0189630D01*
X0062674Y0189630D01*
X0062516Y0189634D01*
X0062357Y0189642D01*
X0062200Y0189654D01*
X0062042Y0189670D01*
X0061885Y0189690D01*
X0061729Y0189714D01*
X0061573Y0189742D01*
X0061418Y0189773D01*
X0061263Y0189809D01*
X0061110Y0189848D01*
X0060958Y0189891D01*
X0060807Y0189938D01*
X0060657Y0189989D01*
X0060508Y0190044D01*
X0060361Y0190102D01*
X0060215Y0190164D01*
X0060071Y0190229D01*
X0059929Y0190299D01*
X0059788Y0190371D01*
X0059649Y0190448D01*
X0059513Y0190527D01*
X0059378Y0190611D01*
X0059245Y0190697D01*
X0059115Y0190787D01*
X0058987Y0190880D01*
X0058861Y0190976D01*
X0058738Y0191076D01*
X0058617Y0191178D01*
X0058499Y0191283D01*
X0058384Y0191392D01*
X0058271Y0191503D01*
X0058161Y0191617D01*
X0058054Y0191734D01*
X0057950Y0191853D01*
X0057849Y0191975D01*
X0057752Y0192100D01*
X0057657Y0192227D01*
X0057566Y0192356D01*
X0057477Y0192487D01*
X0057393Y0192621D01*
X0057311Y0192757D01*
X0057233Y0192894D01*
X0057159Y0193034D01*
X0057088Y0193176D01*
X0057020Y0193319D01*
X0056956Y0193464D01*
X0056896Y0193610D01*
X0056840Y0193758D01*
X0056787Y0193907D01*
X0056738Y0194058D01*
X0056693Y0194210D01*
X0056652Y0194363D01*
X0056614Y0194516D01*
X0056581Y0194671D01*
X0056551Y0194827D01*
X0056525Y0194983D01*
X0056504Y0195140D01*
X0056486Y0195297D01*
X0056472Y0195455D01*
X0056462Y0195613D01*
X0056456Y0195771D01*
X0056454Y0195929D01*
D11*
X0142858Y0149006D02*
X0144604Y0150752D01*
X0145462Y0151611D02*
X0149827Y0150738D01*
X0150685Y0151596D02*
X0151995Y0152906D01*
X0151995Y0153779D01*
X0150249Y0155524D01*
X0149376Y0155524D01*
X0148067Y0154215D01*
X0150685Y0151596D01*
X0152492Y0148640D02*
X0153801Y0149949D01*
X0154674Y0149949D01*
X0155547Y0149077D01*
X0155547Y0148204D01*
X0154238Y0146894D01*
X0155110Y0146022D02*
X0152492Y0148640D01*
X0155110Y0147767D02*
X0156856Y0147767D01*
X0157715Y0148626D02*
X0156842Y0152990D01*
X0157701Y0153849D02*
X0159010Y0155158D01*
X0159883Y0155158D01*
X0161628Y0153412D01*
X0161628Y0152540D01*
X0160319Y0151230D01*
X0157701Y0153849D01*
X0155096Y0151244D02*
X0159460Y0150372D01*
X0162411Y0149077D02*
X0162411Y0148204D01*
X0164156Y0146458D01*
X0165029Y0146458D01*
X0165902Y0147331D01*
X0165902Y0148204D01*
X0165029Y0149077D01*
X0164156Y0148204D01*
X0164156Y0149949D02*
X0163283Y0149949D01*
X0162411Y0149077D01*
X0164578Y0151244D02*
X0168943Y0150372D01*
X0166324Y0152990D01*
X0167183Y0153849D02*
X0168492Y0155158D01*
X0169365Y0155158D01*
X0171111Y0153412D01*
X0171111Y0152540D01*
X0169801Y0151230D01*
X0167183Y0153849D01*
X0164578Y0151244D02*
X0167197Y0148626D01*
X0148081Y0148992D02*
X0147208Y0153356D01*
X0143731Y0149879D02*
X0146349Y0147261D01*
X0194745Y0124721D02*
X0197881Y0121585D01*
X0194745Y0124721D01*
X0194745Y0123153D02*
X0197881Y0123153D01*
X0194745Y0123153D01*
X0194745Y0121585D02*
X0197881Y0124721D01*
X0194745Y0121585D01*
X0196313Y0121585D02*
X0196313Y0124721D01*
X0196313Y0121585D01*
X0205241Y0115223D02*
X0206809Y0113655D01*
X0205241Y0112187D02*
X0209161Y0112187D01*
X0209945Y0111403D01*
X0209945Y0109835D01*
X0209161Y0109051D01*
X0205241Y0109051D01*
X0209945Y0113655D02*
X0209945Y0116791D01*
X0209945Y0115223D02*
X0205241Y0115223D01*
X0205241Y0099860D02*
X0209945Y0099860D01*
X0205241Y0096724D01*
X0209945Y0096724D01*
X0209945Y0095223D02*
X0209945Y0093655D01*
X0209945Y0094439D02*
X0205241Y0094439D01*
X0205241Y0093655D02*
X0205241Y0095223D01*
X0206025Y0092187D02*
X0205241Y0091403D01*
X0205241Y0089835D01*
X0206025Y0089051D01*
X0209161Y0089051D01*
X0209945Y0089835D01*
X0209945Y0091403D01*
X0209161Y0092187D01*
X0233991Y0145301D02*
X0233991Y0147653D01*
X0234775Y0148437D01*
X0237911Y0148437D01*
X0238695Y0147653D01*
X0238695Y0145301D01*
X0233991Y0145301D01*
X0235559Y0149905D02*
X0233991Y0151473D01*
X0238695Y0151473D01*
X0238695Y0149905D02*
X0238695Y0153041D01*
X0206195Y0152723D02*
X0201491Y0152723D01*
X0203059Y0151155D01*
X0206195Y0151155D02*
X0206195Y0154291D01*
X0206195Y0149687D02*
X0206195Y0146551D01*
X0201491Y0146551D01*
D12*
X0199701Y0132505D02*
X0197399Y0130203D01*
X0200468Y0130203D01*
X0199701Y0127901D02*
X0199701Y0132505D01*
X0195864Y0131738D02*
X0195097Y0132505D01*
X0193562Y0132505D01*
X0192795Y0131738D01*
X0192795Y0128668D01*
X0193562Y0127901D01*
X0195097Y0127901D01*
X0195864Y0128668D01*
X0187572Y0122988D02*
X0187572Y0122220D01*
X0184503Y0119151D01*
X0187572Y0119151D01*
X0187572Y0122988D02*
X0186805Y0123755D01*
X0185270Y0123755D01*
X0184503Y0122988D01*
X0181434Y0123755D02*
X0181434Y0119151D01*
X0182968Y0119151D02*
X0179899Y0119151D01*
X0178364Y0119151D02*
X0176830Y0120686D01*
X0177597Y0120686D02*
X0175295Y0120686D01*
X0175295Y0119151D02*
X0175295Y0123755D01*
X0177597Y0123755D01*
X0178364Y0122988D01*
X0178364Y0121453D01*
X0177597Y0120686D01*
X0179899Y0122220D02*
X0181434Y0123755D01*
X0179701Y0103755D02*
X0178166Y0103755D01*
X0177399Y0102988D01*
X0175864Y0102988D02*
X0175864Y0101453D01*
X0175097Y0100686D01*
X0172795Y0100686D01*
X0174330Y0100686D02*
X0175864Y0099151D01*
X0177399Y0099151D02*
X0180468Y0102220D01*
X0180468Y0102988D01*
X0179701Y0103755D01*
X0175864Y0102988D02*
X0175097Y0103755D01*
X0172795Y0103755D01*
X0172795Y0099151D01*
X0177399Y0099151D02*
X0180468Y0099151D01*
X0197791Y0096540D02*
X0202395Y0096540D01*
X0202395Y0098074D02*
X0202395Y0095005D01*
X0202395Y0093470D02*
X0200861Y0091936D01*
X0200861Y0092703D02*
X0200861Y0090401D01*
X0202395Y0090401D02*
X0197791Y0090401D01*
X0197791Y0092703D01*
X0198559Y0093470D01*
X0200093Y0093470D01*
X0200861Y0092703D01*
X0199326Y0095005D02*
X0197791Y0096540D01*
X0152968Y0098668D02*
X0152201Y0097901D01*
X0150666Y0097901D01*
X0149899Y0098668D01*
X0148364Y0097901D02*
X0146830Y0099436D01*
X0147597Y0099436D02*
X0145295Y0099436D01*
X0145295Y0097901D02*
X0145295Y0102505D01*
X0147597Y0102505D01*
X0148364Y0101738D01*
X0148364Y0100203D01*
X0147597Y0099436D01*
X0149899Y0101738D02*
X0150666Y0102505D01*
X0152201Y0102505D01*
X0152968Y0101738D01*
X0152968Y0100970D01*
X0152201Y0100203D01*
X0152968Y0099436D01*
X0152968Y0098668D01*
X0152201Y0100203D02*
X0151434Y0100203D01*
X0116718Y0096453D02*
X0113649Y0096453D01*
X0115951Y0098755D01*
X0115951Y0094151D01*
X0112114Y0094151D02*
X0110580Y0095686D01*
X0111347Y0095686D02*
X0109045Y0095686D01*
X0109045Y0094151D02*
X0109045Y0098755D01*
X0111347Y0098755D01*
X0112114Y0097988D01*
X0112114Y0096453D01*
X0111347Y0095686D01*
X0090468Y0096453D02*
X0090468Y0094918D01*
X0089701Y0094151D01*
X0088166Y0094151D01*
X0087399Y0094918D01*
X0087399Y0096453D02*
X0088934Y0097220D01*
X0089701Y0097220D01*
X0090468Y0096453D01*
X0090468Y0098755D02*
X0087399Y0098755D01*
X0087399Y0096453D01*
X0085864Y0096453D02*
X0085864Y0097988D01*
X0085097Y0098755D01*
X0082795Y0098755D01*
X0082795Y0094151D01*
X0082795Y0095686D02*
X0085097Y0095686D01*
X0085864Y0096453D01*
X0084330Y0095686D02*
X0085864Y0094151D01*
X0084778Y0102025D02*
X0084778Y0103560D01*
X0082476Y0105094D02*
X0082476Y0102025D01*
X0087080Y0102025D01*
X0087080Y0105094D01*
X0086313Y0106629D02*
X0087080Y0107396D01*
X0087080Y0108931D01*
X0086313Y0109698D01*
X0085546Y0109698D01*
X0084778Y0108931D01*
X0084778Y0107396D01*
X0084011Y0106629D01*
X0083244Y0106629D01*
X0082476Y0107396D01*
X0082476Y0108931D01*
X0083244Y0109698D01*
X0082476Y0111233D02*
X0082476Y0113535D01*
X0083244Y0114302D01*
X0084778Y0114302D01*
X0085546Y0113535D01*
X0085546Y0111233D01*
X0087080Y0111233D02*
X0082476Y0111233D01*
X0084778Y0115837D02*
X0084778Y0118906D01*
X0084011Y0120441D02*
X0082476Y0121975D01*
X0087080Y0121975D01*
X0087080Y0120441D02*
X0087080Y0123510D01*
X0087080Y0125045D02*
X0084011Y0128114D01*
X0083244Y0128114D01*
X0082476Y0127347D01*
X0082476Y0125812D01*
X0083244Y0125045D01*
X0087080Y0125045D02*
X0087080Y0128114D01*
X0064726Y0097505D02*
X0064726Y0092901D01*
X0066260Y0092901D02*
X0063191Y0092901D01*
X0061657Y0092901D02*
X0058587Y0092901D01*
X0057053Y0092901D02*
X0055518Y0094436D01*
X0056285Y0094436D02*
X0053983Y0094436D01*
X0053983Y0092901D02*
X0053983Y0097505D01*
X0056285Y0097505D01*
X0057053Y0096738D01*
X0057053Y0095203D01*
X0056285Y0094436D01*
X0058587Y0095970D02*
X0060122Y0097505D01*
X0060122Y0092901D01*
X0063191Y0095970D02*
X0064726Y0097505D01*
X0063451Y0056255D02*
X0061916Y0056255D01*
X0061149Y0055488D01*
X0061149Y0052418D01*
X0061916Y0051651D01*
X0063451Y0051651D01*
X0064218Y0052418D01*
X0065753Y0052418D02*
X0066520Y0051651D01*
X0068055Y0051651D01*
X0068822Y0052418D01*
X0065753Y0052418D02*
X0065753Y0055488D01*
X0066520Y0056255D01*
X0068055Y0056255D01*
X0068822Y0055488D01*
X0064218Y0055488D02*
X0063451Y0056255D01*
X0059614Y0056255D02*
X0059614Y0053186D01*
X0058080Y0051651D01*
X0056545Y0053186D01*
X0056545Y0056255D01*
X0080295Y0056255D02*
X0080295Y0051651D01*
X0080295Y0053186D02*
X0082597Y0053186D01*
X0083364Y0053953D01*
X0083364Y0055488D01*
X0082597Y0056255D01*
X0080295Y0056255D01*
X0081830Y0053186D02*
X0083364Y0051651D01*
X0100295Y0052418D02*
X0101062Y0051651D01*
X0102597Y0051651D01*
X0103364Y0052418D01*
X0103364Y0053953D01*
X0101830Y0053953D01*
X0103364Y0055488D02*
X0102597Y0056255D01*
X0101062Y0056255D01*
X0100295Y0055488D01*
X0100295Y0052418D01*
X0120295Y0051651D02*
X0122597Y0051651D01*
X0123364Y0052418D01*
X0123364Y0053186D01*
X0122597Y0053953D01*
X0120295Y0053953D01*
X0120295Y0051651D02*
X0120295Y0056255D01*
X0122597Y0056255D01*
X0123364Y0055488D01*
X0123364Y0054720D01*
X0122597Y0053953D01*
X0141545Y0053186D02*
X0143080Y0051651D01*
X0144614Y0053186D01*
X0144614Y0056255D01*
X0146149Y0055488D02*
X0146149Y0052418D01*
X0146916Y0051651D01*
X0148451Y0051651D01*
X0149218Y0052418D01*
X0150753Y0052418D02*
X0151520Y0051651D01*
X0153055Y0051651D01*
X0153822Y0052418D01*
X0150753Y0052418D02*
X0150753Y0055488D01*
X0151520Y0056255D01*
X0153055Y0056255D01*
X0153822Y0055488D01*
X0149218Y0055488D02*
X0148451Y0056255D01*
X0146916Y0056255D01*
X0146149Y0055488D01*
X0141545Y0056255D02*
X0141545Y0053186D01*
X0162795Y0052418D02*
X0163562Y0051651D01*
X0165097Y0051651D01*
X0165864Y0052418D01*
X0167399Y0051651D02*
X0168934Y0053186D01*
X0170468Y0051651D01*
X0170468Y0056255D01*
X0167399Y0056255D02*
X0167399Y0051651D01*
X0162795Y0052418D02*
X0162795Y0055488D01*
X0163562Y0056255D01*
X0165097Y0056255D01*
X0165864Y0055488D01*
X0181545Y0056255D02*
X0181545Y0051651D01*
X0183080Y0053186D01*
X0184614Y0051651D01*
X0184614Y0056255D01*
X0186149Y0056255D02*
X0186149Y0051651D01*
X0187684Y0053186D01*
X0189218Y0051651D01*
X0189218Y0056255D01*
X0235295Y0055488D02*
X0235295Y0052418D01*
X0236062Y0051651D01*
X0237597Y0051651D01*
X0238364Y0052418D01*
X0238364Y0053953D01*
X0236830Y0053953D01*
X0238364Y0055488D02*
X0237597Y0056255D01*
X0236062Y0056255D01*
X0235295Y0055488D01*
X0239899Y0056255D02*
X0239899Y0051651D01*
X0242968Y0051651D02*
X0242968Y0056255D01*
X0244503Y0056255D02*
X0246805Y0056255D01*
X0247572Y0055488D01*
X0247572Y0052418D01*
X0246805Y0051651D01*
X0244503Y0051651D01*
X0244503Y0056255D01*
X0239899Y0056255D02*
X0242968Y0051651D01*
X0246242Y0139897D02*
X0246242Y0141698D01*
X0246843Y0142299D01*
X0249245Y0142299D01*
X0249845Y0141698D01*
X0249845Y0139897D01*
X0246242Y0139897D01*
X0246242Y0143580D02*
X0246242Y0144781D01*
X0246242Y0144180D02*
X0249845Y0144180D01*
X0249845Y0143580D02*
X0249845Y0144781D01*
X0249245Y0146035D02*
X0249845Y0146636D01*
X0249845Y0147837D01*
X0249245Y0148437D01*
X0248644Y0148437D01*
X0248044Y0147837D01*
X0248044Y0146636D01*
X0247443Y0146035D01*
X0246843Y0146035D01*
X0246242Y0146636D01*
X0246242Y0147837D01*
X0246843Y0148437D01*
X0247443Y0149718D02*
X0246242Y0150919D01*
X0247443Y0152120D01*
X0249845Y0152120D01*
X0249845Y0153402D02*
X0249845Y0155203D01*
X0249245Y0155804D01*
X0248644Y0155804D01*
X0248044Y0155203D01*
X0248044Y0153402D01*
X0248044Y0152120D02*
X0248044Y0149718D01*
X0247443Y0149718D02*
X0249845Y0149718D01*
X0249845Y0153402D02*
X0246242Y0153402D01*
X0246242Y0155203D01*
X0246843Y0155804D01*
X0247443Y0155804D01*
X0248044Y0155203D01*
X0249845Y0157085D02*
X0246242Y0157085D01*
X0249845Y0157085D02*
X0249845Y0159487D01*
X0249845Y0160768D02*
X0249845Y0163170D01*
X0248044Y0161969D02*
X0248044Y0160768D01*
X0249845Y0160768D02*
X0246242Y0160768D01*
X0246242Y0163170D01*
D13*
X0232145Y0162951D02*
X0230845Y0162951D01*
X0229545Y0162951D02*
X0229545Y0164951D01*
X0223145Y0164951D01*
X0223145Y0162951D01*
X0229545Y0162951D01*
X0232145Y0162951D02*
X0232145Y0144951D01*
X0230845Y0144951D01*
X0229545Y0144951D02*
X0229545Y0142951D01*
X0223145Y0142951D01*
X0223145Y0144951D01*
X0223445Y0144951D01*
X0220545Y0147751D01*
X0220545Y0144951D02*
X0221845Y0144951D01*
X0220545Y0144951D02*
X0220545Y0162951D01*
X0221845Y0162951D01*
X0220545Y0162951D02*
X0220545Y0144951D01*
X0232145Y0144951D01*
X0232145Y0162951D01*
X0220545Y0162951D01*
X0219845Y0163351D02*
X0219845Y0134551D01*
X0187845Y0134551D01*
X0187845Y0163351D01*
X0219845Y0163351D01*
X0226345Y0156551D02*
X0226345Y0152551D01*
X0226845Y0155551D01*
X0226345Y0152551D01*
X0227345Y0155551D01*
X0226345Y0152551D01*
X0227845Y0155551D01*
X0226345Y0152551D01*
X0228345Y0155551D01*
X0226345Y0152551D01*
X0228845Y0155551D01*
X0223845Y0155551D01*
X0226345Y0152551D01*
X0225845Y0155551D01*
X0226345Y0152551D01*
X0225345Y0155551D01*
X0226345Y0152551D01*
X0224845Y0155551D01*
X0226345Y0152551D01*
X0224345Y0155551D01*
X0226345Y0152551D01*
X0228845Y0152551D01*
X0226345Y0152551D01*
X0223845Y0152551D01*
X0226345Y0152551D01*
X0226345Y0151551D01*
X0226345Y0152551D01*
X0226345Y0156051D01*
X0223845Y0155551D02*
X0226345Y0152551D01*
X0228845Y0155551D01*
X0223845Y0155551D01*
X0232145Y0147751D02*
X0229245Y0144951D01*
X0223445Y0144951D01*
X0229245Y0144951D02*
X0229545Y0144951D01*
X0238845Y0138951D02*
X0238845Y0133951D01*
X0241345Y0131451D01*
X0238845Y0128951D01*
X0238845Y0123951D01*
X0241345Y0121451D01*
X0246345Y0121451D01*
X0248845Y0123951D01*
X0248845Y0128951D01*
X0246345Y0131451D01*
X0241345Y0131451D01*
X0246345Y0131451D02*
X0248845Y0133951D01*
X0248845Y0138951D01*
X0246345Y0141451D01*
X0241345Y0141451D01*
X0238845Y0138951D01*
X0219795Y0119951D02*
X0215395Y0119951D01*
X0215395Y0117951D01*
X0219795Y0117951D01*
X0219795Y0119951D01*
X0215395Y0121251D02*
X0199795Y0121251D01*
X0199795Y0101651D01*
X0215395Y0101651D01*
X0215395Y0121251D01*
X0212995Y0121251D02*
X0202195Y0121251D01*
X0199795Y0119951D02*
X0195395Y0119951D01*
X0195395Y0117951D01*
X0199795Y0117951D01*
X0199795Y0119951D01*
X0199795Y0114951D02*
X0195395Y0114951D01*
X0195395Y0112951D01*
X0199795Y0112951D01*
X0199795Y0114951D01*
X0199795Y0109951D02*
X0195395Y0109951D01*
X0195395Y0107951D01*
X0199795Y0107951D01*
X0199795Y0109951D01*
X0199795Y0104951D02*
X0195395Y0104951D01*
X0195395Y0102951D01*
X0199795Y0102951D01*
X0199795Y0104951D01*
X0202195Y0101651D02*
X0212995Y0101651D01*
X0215395Y0102951D02*
X0215395Y0104951D01*
X0219795Y0104951D01*
X0219795Y0102951D01*
X0215395Y0102951D01*
X0215145Y0098801D02*
X0212145Y0098701D01*
X0212145Y0091601D01*
X0225545Y0091601D01*
X0225545Y0098801D01*
X0212145Y0098801D01*
X0212145Y0091601D01*
X0215145Y0091601D01*
X0215145Y0098801D01*
X0216445Y0098801D02*
X0221245Y0098801D01*
X0222545Y0098801D02*
X0225545Y0098801D01*
X0225545Y0091601D01*
X0222545Y0091601D01*
X0222545Y0098801D01*
X0221245Y0091601D02*
X0216445Y0091601D01*
X0212595Y0086451D02*
X0252595Y0086451D01*
X0252595Y0085451D01*
X0252595Y0059451D01*
X0246095Y0059451D01*
X0239095Y0059451D02*
X0226095Y0059451D01*
X0219095Y0059451D02*
X0212595Y0059451D01*
X0212595Y0049951D01*
X0252595Y0049951D01*
X0252595Y0059451D01*
X0240595Y0080151D02*
X0240597Y0080240D01*
X0240603Y0080329D01*
X0240613Y0080418D01*
X0240627Y0080506D01*
X0240644Y0080593D01*
X0240666Y0080679D01*
X0240692Y0080765D01*
X0240721Y0080849D01*
X0240754Y0080932D01*
X0240790Y0081013D01*
X0240831Y0081093D01*
X0240874Y0081170D01*
X0240921Y0081246D01*
X0240972Y0081319D01*
X0241025Y0081390D01*
X0241082Y0081459D01*
X0241142Y0081525D01*
X0241205Y0081589D01*
X0241270Y0081649D01*
X0241338Y0081707D01*
X0241409Y0081761D01*
X0241482Y0081812D01*
X0241557Y0081860D01*
X0241634Y0081905D01*
X0241713Y0081946D01*
X0241794Y0081983D01*
X0241876Y0082017D01*
X0241960Y0082048D01*
X0242045Y0082074D01*
X0242131Y0082097D01*
X0242218Y0082115D01*
X0242306Y0082130D01*
X0242395Y0082141D01*
X0242484Y0082148D01*
X0242573Y0082151D01*
X0242662Y0082150D01*
X0242751Y0082145D01*
X0242839Y0082136D01*
X0242928Y0082123D01*
X0243015Y0082106D01*
X0243102Y0082086D01*
X0243188Y0082061D01*
X0243272Y0082033D01*
X0243355Y0082001D01*
X0243437Y0081965D01*
X0243517Y0081926D01*
X0243595Y0081883D01*
X0243671Y0081837D01*
X0243745Y0081787D01*
X0243817Y0081734D01*
X0243886Y0081678D01*
X0243953Y0081619D01*
X0244017Y0081557D01*
X0244078Y0081493D01*
X0244137Y0081425D01*
X0244192Y0081355D01*
X0244244Y0081283D01*
X0244293Y0081208D01*
X0244338Y0081132D01*
X0244380Y0081053D01*
X0244418Y0080973D01*
X0244453Y0080891D01*
X0244484Y0080807D01*
X0244512Y0080722D01*
X0244535Y0080636D01*
X0244555Y0080549D01*
X0244571Y0080462D01*
X0244583Y0080373D01*
X0244591Y0080285D01*
X0244595Y0080196D01*
X0244595Y0080106D01*
X0244591Y0080017D01*
X0244583Y0079929D01*
X0244571Y0079840D01*
X0244555Y0079753D01*
X0244535Y0079666D01*
X0244512Y0079580D01*
X0244484Y0079495D01*
X0244453Y0079411D01*
X0244418Y0079329D01*
X0244380Y0079249D01*
X0244338Y0079170D01*
X0244293Y0079094D01*
X0244244Y0079019D01*
X0244192Y0078947D01*
X0244137Y0078877D01*
X0244078Y0078809D01*
X0244017Y0078745D01*
X0243953Y0078683D01*
X0243886Y0078624D01*
X0243817Y0078568D01*
X0243745Y0078515D01*
X0243671Y0078465D01*
X0243595Y0078419D01*
X0243517Y0078376D01*
X0243437Y0078337D01*
X0243355Y0078301D01*
X0243272Y0078269D01*
X0243188Y0078241D01*
X0243102Y0078216D01*
X0243015Y0078196D01*
X0242928Y0078179D01*
X0242839Y0078166D01*
X0242751Y0078157D01*
X0242662Y0078152D01*
X0242573Y0078151D01*
X0242484Y0078154D01*
X0242395Y0078161D01*
X0242306Y0078172D01*
X0242218Y0078187D01*
X0242131Y0078205D01*
X0242045Y0078228D01*
X0241960Y0078254D01*
X0241876Y0078285D01*
X0241794Y0078319D01*
X0241713Y0078356D01*
X0241634Y0078397D01*
X0241557Y0078442D01*
X0241482Y0078490D01*
X0241409Y0078541D01*
X0241338Y0078595D01*
X0241270Y0078653D01*
X0241205Y0078713D01*
X0241142Y0078777D01*
X0241082Y0078843D01*
X0241025Y0078912D01*
X0240972Y0078983D01*
X0240921Y0079056D01*
X0240874Y0079132D01*
X0240831Y0079209D01*
X0240790Y0079289D01*
X0240754Y0079370D01*
X0240721Y0079453D01*
X0240692Y0079537D01*
X0240666Y0079623D01*
X0240644Y0079709D01*
X0240627Y0079796D01*
X0240613Y0079884D01*
X0240603Y0079973D01*
X0240597Y0080062D01*
X0240595Y0080151D01*
X0252595Y0085451D02*
X0212595Y0085451D01*
X0212595Y0086451D01*
X0212595Y0085451D02*
X0212595Y0059451D01*
X0197595Y0059451D02*
X0197595Y0049951D01*
X0137595Y0049951D01*
X0137595Y0059451D01*
X0137595Y0085451D01*
X0137595Y0086451D01*
X0197595Y0086451D01*
X0197595Y0085451D01*
X0137595Y0085451D01*
X0132595Y0085451D02*
X0132595Y0059451D01*
X0126095Y0059451D01*
X0132595Y0059451D02*
X0132595Y0049951D01*
X0052595Y0049951D01*
X0052595Y0059451D01*
X0059095Y0059451D01*
X0052595Y0059451D02*
X0052595Y0085451D01*
X0052595Y0086451D01*
X0092595Y0086451D01*
X0092595Y0059451D01*
X0099095Y0059451D01*
X0092595Y0059451D02*
X0086095Y0059451D01*
X0079095Y0059451D02*
X0066095Y0059451D01*
X0060595Y0080151D02*
X0060597Y0080240D01*
X0060603Y0080329D01*
X0060613Y0080418D01*
X0060627Y0080506D01*
X0060644Y0080593D01*
X0060666Y0080679D01*
X0060692Y0080765D01*
X0060721Y0080849D01*
X0060754Y0080932D01*
X0060790Y0081013D01*
X0060831Y0081093D01*
X0060874Y0081170D01*
X0060921Y0081246D01*
X0060972Y0081319D01*
X0061025Y0081390D01*
X0061082Y0081459D01*
X0061142Y0081525D01*
X0061205Y0081589D01*
X0061270Y0081649D01*
X0061338Y0081707D01*
X0061409Y0081761D01*
X0061482Y0081812D01*
X0061557Y0081860D01*
X0061634Y0081905D01*
X0061713Y0081946D01*
X0061794Y0081983D01*
X0061876Y0082017D01*
X0061960Y0082048D01*
X0062045Y0082074D01*
X0062131Y0082097D01*
X0062218Y0082115D01*
X0062306Y0082130D01*
X0062395Y0082141D01*
X0062484Y0082148D01*
X0062573Y0082151D01*
X0062662Y0082150D01*
X0062751Y0082145D01*
X0062839Y0082136D01*
X0062928Y0082123D01*
X0063015Y0082106D01*
X0063102Y0082086D01*
X0063188Y0082061D01*
X0063272Y0082033D01*
X0063355Y0082001D01*
X0063437Y0081965D01*
X0063517Y0081926D01*
X0063595Y0081883D01*
X0063671Y0081837D01*
X0063745Y0081787D01*
X0063817Y0081734D01*
X0063886Y0081678D01*
X0063953Y0081619D01*
X0064017Y0081557D01*
X0064078Y0081493D01*
X0064137Y0081425D01*
X0064192Y0081355D01*
X0064244Y0081283D01*
X0064293Y0081208D01*
X0064338Y0081132D01*
X0064380Y0081053D01*
X0064418Y0080973D01*
X0064453Y0080891D01*
X0064484Y0080807D01*
X0064512Y0080722D01*
X0064535Y0080636D01*
X0064555Y0080549D01*
X0064571Y0080462D01*
X0064583Y0080373D01*
X0064591Y0080285D01*
X0064595Y0080196D01*
X0064595Y0080106D01*
X0064591Y0080017D01*
X0064583Y0079929D01*
X0064571Y0079840D01*
X0064555Y0079753D01*
X0064535Y0079666D01*
X0064512Y0079580D01*
X0064484Y0079495D01*
X0064453Y0079411D01*
X0064418Y0079329D01*
X0064380Y0079249D01*
X0064338Y0079170D01*
X0064293Y0079094D01*
X0064244Y0079019D01*
X0064192Y0078947D01*
X0064137Y0078877D01*
X0064078Y0078809D01*
X0064017Y0078745D01*
X0063953Y0078683D01*
X0063886Y0078624D01*
X0063817Y0078568D01*
X0063745Y0078515D01*
X0063671Y0078465D01*
X0063595Y0078419D01*
X0063517Y0078376D01*
X0063437Y0078337D01*
X0063355Y0078301D01*
X0063272Y0078269D01*
X0063188Y0078241D01*
X0063102Y0078216D01*
X0063015Y0078196D01*
X0062928Y0078179D01*
X0062839Y0078166D01*
X0062751Y0078157D01*
X0062662Y0078152D01*
X0062573Y0078151D01*
X0062484Y0078154D01*
X0062395Y0078161D01*
X0062306Y0078172D01*
X0062218Y0078187D01*
X0062131Y0078205D01*
X0062045Y0078228D01*
X0061960Y0078254D01*
X0061876Y0078285D01*
X0061794Y0078319D01*
X0061713Y0078356D01*
X0061634Y0078397D01*
X0061557Y0078442D01*
X0061482Y0078490D01*
X0061409Y0078541D01*
X0061338Y0078595D01*
X0061270Y0078653D01*
X0061205Y0078713D01*
X0061142Y0078777D01*
X0061082Y0078843D01*
X0061025Y0078912D01*
X0060972Y0078983D01*
X0060921Y0079056D01*
X0060874Y0079132D01*
X0060831Y0079209D01*
X0060790Y0079289D01*
X0060754Y0079370D01*
X0060721Y0079453D01*
X0060692Y0079537D01*
X0060666Y0079623D01*
X0060644Y0079709D01*
X0060627Y0079796D01*
X0060613Y0079884D01*
X0060603Y0079973D01*
X0060597Y0080062D01*
X0060595Y0080151D01*
X0052595Y0085451D02*
X0132595Y0085451D01*
X0132595Y0086451D01*
X0092595Y0086451D01*
X0080595Y0080151D02*
X0080597Y0080240D01*
X0080603Y0080329D01*
X0080613Y0080418D01*
X0080627Y0080506D01*
X0080644Y0080593D01*
X0080666Y0080679D01*
X0080692Y0080765D01*
X0080721Y0080849D01*
X0080754Y0080932D01*
X0080790Y0081013D01*
X0080831Y0081093D01*
X0080874Y0081170D01*
X0080921Y0081246D01*
X0080972Y0081319D01*
X0081025Y0081390D01*
X0081082Y0081459D01*
X0081142Y0081525D01*
X0081205Y0081589D01*
X0081270Y0081649D01*
X0081338Y0081707D01*
X0081409Y0081761D01*
X0081482Y0081812D01*
X0081557Y0081860D01*
X0081634Y0081905D01*
X0081713Y0081946D01*
X0081794Y0081983D01*
X0081876Y0082017D01*
X0081960Y0082048D01*
X0082045Y0082074D01*
X0082131Y0082097D01*
X0082218Y0082115D01*
X0082306Y0082130D01*
X0082395Y0082141D01*
X0082484Y0082148D01*
X0082573Y0082151D01*
X0082662Y0082150D01*
X0082751Y0082145D01*
X0082839Y0082136D01*
X0082928Y0082123D01*
X0083015Y0082106D01*
X0083102Y0082086D01*
X0083188Y0082061D01*
X0083272Y0082033D01*
X0083355Y0082001D01*
X0083437Y0081965D01*
X0083517Y0081926D01*
X0083595Y0081883D01*
X0083671Y0081837D01*
X0083745Y0081787D01*
X0083817Y0081734D01*
X0083886Y0081678D01*
X0083953Y0081619D01*
X0084017Y0081557D01*
X0084078Y0081493D01*
X0084137Y0081425D01*
X0084192Y0081355D01*
X0084244Y0081283D01*
X0084293Y0081208D01*
X0084338Y0081132D01*
X0084380Y0081053D01*
X0084418Y0080973D01*
X0084453Y0080891D01*
X0084484Y0080807D01*
X0084512Y0080722D01*
X0084535Y0080636D01*
X0084555Y0080549D01*
X0084571Y0080462D01*
X0084583Y0080373D01*
X0084591Y0080285D01*
X0084595Y0080196D01*
X0084595Y0080106D01*
X0084591Y0080017D01*
X0084583Y0079929D01*
X0084571Y0079840D01*
X0084555Y0079753D01*
X0084535Y0079666D01*
X0084512Y0079580D01*
X0084484Y0079495D01*
X0084453Y0079411D01*
X0084418Y0079329D01*
X0084380Y0079249D01*
X0084338Y0079170D01*
X0084293Y0079094D01*
X0084244Y0079019D01*
X0084192Y0078947D01*
X0084137Y0078877D01*
X0084078Y0078809D01*
X0084017Y0078745D01*
X0083953Y0078683D01*
X0083886Y0078624D01*
X0083817Y0078568D01*
X0083745Y0078515D01*
X0083671Y0078465D01*
X0083595Y0078419D01*
X0083517Y0078376D01*
X0083437Y0078337D01*
X0083355Y0078301D01*
X0083272Y0078269D01*
X0083188Y0078241D01*
X0083102Y0078216D01*
X0083015Y0078196D01*
X0082928Y0078179D01*
X0082839Y0078166D01*
X0082751Y0078157D01*
X0082662Y0078152D01*
X0082573Y0078151D01*
X0082484Y0078154D01*
X0082395Y0078161D01*
X0082306Y0078172D01*
X0082218Y0078187D01*
X0082131Y0078205D01*
X0082045Y0078228D01*
X0081960Y0078254D01*
X0081876Y0078285D01*
X0081794Y0078319D01*
X0081713Y0078356D01*
X0081634Y0078397D01*
X0081557Y0078442D01*
X0081482Y0078490D01*
X0081409Y0078541D01*
X0081338Y0078595D01*
X0081270Y0078653D01*
X0081205Y0078713D01*
X0081142Y0078777D01*
X0081082Y0078843D01*
X0081025Y0078912D01*
X0080972Y0078983D01*
X0080921Y0079056D01*
X0080874Y0079132D01*
X0080831Y0079209D01*
X0080790Y0079289D01*
X0080754Y0079370D01*
X0080721Y0079453D01*
X0080692Y0079537D01*
X0080666Y0079623D01*
X0080644Y0079709D01*
X0080627Y0079796D01*
X0080613Y0079884D01*
X0080603Y0079973D01*
X0080597Y0080062D01*
X0080595Y0080151D01*
X0100595Y0080151D02*
X0100597Y0080240D01*
X0100603Y0080329D01*
X0100613Y0080418D01*
X0100627Y0080506D01*
X0100644Y0080593D01*
X0100666Y0080679D01*
X0100692Y0080765D01*
X0100721Y0080849D01*
X0100754Y0080932D01*
X0100790Y0081013D01*
X0100831Y0081093D01*
X0100874Y0081170D01*
X0100921Y0081246D01*
X0100972Y0081319D01*
X0101025Y0081390D01*
X0101082Y0081459D01*
X0101142Y0081525D01*
X0101205Y0081589D01*
X0101270Y0081649D01*
X0101338Y0081707D01*
X0101409Y0081761D01*
X0101482Y0081812D01*
X0101557Y0081860D01*
X0101634Y0081905D01*
X0101713Y0081946D01*
X0101794Y0081983D01*
X0101876Y0082017D01*
X0101960Y0082048D01*
X0102045Y0082074D01*
X0102131Y0082097D01*
X0102218Y0082115D01*
X0102306Y0082130D01*
X0102395Y0082141D01*
X0102484Y0082148D01*
X0102573Y0082151D01*
X0102662Y0082150D01*
X0102751Y0082145D01*
X0102839Y0082136D01*
X0102928Y0082123D01*
X0103015Y0082106D01*
X0103102Y0082086D01*
X0103188Y0082061D01*
X0103272Y0082033D01*
X0103355Y0082001D01*
X0103437Y0081965D01*
X0103517Y0081926D01*
X0103595Y0081883D01*
X0103671Y0081837D01*
X0103745Y0081787D01*
X0103817Y0081734D01*
X0103886Y0081678D01*
X0103953Y0081619D01*
X0104017Y0081557D01*
X0104078Y0081493D01*
X0104137Y0081425D01*
X0104192Y0081355D01*
X0104244Y0081283D01*
X0104293Y0081208D01*
X0104338Y0081132D01*
X0104380Y0081053D01*
X0104418Y0080973D01*
X0104453Y0080891D01*
X0104484Y0080807D01*
X0104512Y0080722D01*
X0104535Y0080636D01*
X0104555Y0080549D01*
X0104571Y0080462D01*
X0104583Y0080373D01*
X0104591Y0080285D01*
X0104595Y0080196D01*
X0104595Y0080106D01*
X0104591Y0080017D01*
X0104583Y0079929D01*
X0104571Y0079840D01*
X0104555Y0079753D01*
X0104535Y0079666D01*
X0104512Y0079580D01*
X0104484Y0079495D01*
X0104453Y0079411D01*
X0104418Y0079329D01*
X0104380Y0079249D01*
X0104338Y0079170D01*
X0104293Y0079094D01*
X0104244Y0079019D01*
X0104192Y0078947D01*
X0104137Y0078877D01*
X0104078Y0078809D01*
X0104017Y0078745D01*
X0103953Y0078683D01*
X0103886Y0078624D01*
X0103817Y0078568D01*
X0103745Y0078515D01*
X0103671Y0078465D01*
X0103595Y0078419D01*
X0103517Y0078376D01*
X0103437Y0078337D01*
X0103355Y0078301D01*
X0103272Y0078269D01*
X0103188Y0078241D01*
X0103102Y0078216D01*
X0103015Y0078196D01*
X0102928Y0078179D01*
X0102839Y0078166D01*
X0102751Y0078157D01*
X0102662Y0078152D01*
X0102573Y0078151D01*
X0102484Y0078154D01*
X0102395Y0078161D01*
X0102306Y0078172D01*
X0102218Y0078187D01*
X0102131Y0078205D01*
X0102045Y0078228D01*
X0101960Y0078254D01*
X0101876Y0078285D01*
X0101794Y0078319D01*
X0101713Y0078356D01*
X0101634Y0078397D01*
X0101557Y0078442D01*
X0101482Y0078490D01*
X0101409Y0078541D01*
X0101338Y0078595D01*
X0101270Y0078653D01*
X0101205Y0078713D01*
X0101142Y0078777D01*
X0101082Y0078843D01*
X0101025Y0078912D01*
X0100972Y0078983D01*
X0100921Y0079056D01*
X0100874Y0079132D01*
X0100831Y0079209D01*
X0100790Y0079289D01*
X0100754Y0079370D01*
X0100721Y0079453D01*
X0100692Y0079537D01*
X0100666Y0079623D01*
X0100644Y0079709D01*
X0100627Y0079796D01*
X0100613Y0079884D01*
X0100603Y0079973D01*
X0100597Y0080062D01*
X0100595Y0080151D01*
X0120595Y0080151D02*
X0120597Y0080240D01*
X0120603Y0080329D01*
X0120613Y0080418D01*
X0120627Y0080506D01*
X0120644Y0080593D01*
X0120666Y0080679D01*
X0120692Y0080765D01*
X0120721Y0080849D01*
X0120754Y0080932D01*
X0120790Y0081013D01*
X0120831Y0081093D01*
X0120874Y0081170D01*
X0120921Y0081246D01*
X0120972Y0081319D01*
X0121025Y0081390D01*
X0121082Y0081459D01*
X0121142Y0081525D01*
X0121205Y0081589D01*
X0121270Y0081649D01*
X0121338Y0081707D01*
X0121409Y0081761D01*
X0121482Y0081812D01*
X0121557Y0081860D01*
X0121634Y0081905D01*
X0121713Y0081946D01*
X0121794Y0081983D01*
X0121876Y0082017D01*
X0121960Y0082048D01*
X0122045Y0082074D01*
X0122131Y0082097D01*
X0122218Y0082115D01*
X0122306Y0082130D01*
X0122395Y0082141D01*
X0122484Y0082148D01*
X0122573Y0082151D01*
X0122662Y0082150D01*
X0122751Y0082145D01*
X0122839Y0082136D01*
X0122928Y0082123D01*
X0123015Y0082106D01*
X0123102Y0082086D01*
X0123188Y0082061D01*
X0123272Y0082033D01*
X0123355Y0082001D01*
X0123437Y0081965D01*
X0123517Y0081926D01*
X0123595Y0081883D01*
X0123671Y0081837D01*
X0123745Y0081787D01*
X0123817Y0081734D01*
X0123886Y0081678D01*
X0123953Y0081619D01*
X0124017Y0081557D01*
X0124078Y0081493D01*
X0124137Y0081425D01*
X0124192Y0081355D01*
X0124244Y0081283D01*
X0124293Y0081208D01*
X0124338Y0081132D01*
X0124380Y0081053D01*
X0124418Y0080973D01*
X0124453Y0080891D01*
X0124484Y0080807D01*
X0124512Y0080722D01*
X0124535Y0080636D01*
X0124555Y0080549D01*
X0124571Y0080462D01*
X0124583Y0080373D01*
X0124591Y0080285D01*
X0124595Y0080196D01*
X0124595Y0080106D01*
X0124591Y0080017D01*
X0124583Y0079929D01*
X0124571Y0079840D01*
X0124555Y0079753D01*
X0124535Y0079666D01*
X0124512Y0079580D01*
X0124484Y0079495D01*
X0124453Y0079411D01*
X0124418Y0079329D01*
X0124380Y0079249D01*
X0124338Y0079170D01*
X0124293Y0079094D01*
X0124244Y0079019D01*
X0124192Y0078947D01*
X0124137Y0078877D01*
X0124078Y0078809D01*
X0124017Y0078745D01*
X0123953Y0078683D01*
X0123886Y0078624D01*
X0123817Y0078568D01*
X0123745Y0078515D01*
X0123671Y0078465D01*
X0123595Y0078419D01*
X0123517Y0078376D01*
X0123437Y0078337D01*
X0123355Y0078301D01*
X0123272Y0078269D01*
X0123188Y0078241D01*
X0123102Y0078216D01*
X0123015Y0078196D01*
X0122928Y0078179D01*
X0122839Y0078166D01*
X0122751Y0078157D01*
X0122662Y0078152D01*
X0122573Y0078151D01*
X0122484Y0078154D01*
X0122395Y0078161D01*
X0122306Y0078172D01*
X0122218Y0078187D01*
X0122131Y0078205D01*
X0122045Y0078228D01*
X0121960Y0078254D01*
X0121876Y0078285D01*
X0121794Y0078319D01*
X0121713Y0078356D01*
X0121634Y0078397D01*
X0121557Y0078442D01*
X0121482Y0078490D01*
X0121409Y0078541D01*
X0121338Y0078595D01*
X0121270Y0078653D01*
X0121205Y0078713D01*
X0121142Y0078777D01*
X0121082Y0078843D01*
X0121025Y0078912D01*
X0120972Y0078983D01*
X0120921Y0079056D01*
X0120874Y0079132D01*
X0120831Y0079209D01*
X0120790Y0079289D01*
X0120754Y0079370D01*
X0120721Y0079453D01*
X0120692Y0079537D01*
X0120666Y0079623D01*
X0120644Y0079709D01*
X0120627Y0079796D01*
X0120613Y0079884D01*
X0120603Y0079973D01*
X0120597Y0080062D01*
X0120595Y0080151D01*
X0119095Y0059451D02*
X0106095Y0059451D01*
X0137595Y0059451D02*
X0144095Y0059451D01*
X0151095Y0059451D02*
X0164095Y0059451D01*
X0171095Y0059451D02*
X0184095Y0059451D01*
X0191095Y0059451D02*
X0197595Y0059451D01*
X0197595Y0085451D01*
X0185595Y0080151D02*
X0185597Y0080240D01*
X0185603Y0080329D01*
X0185613Y0080418D01*
X0185627Y0080506D01*
X0185644Y0080593D01*
X0185666Y0080679D01*
X0185692Y0080765D01*
X0185721Y0080849D01*
X0185754Y0080932D01*
X0185790Y0081013D01*
X0185831Y0081093D01*
X0185874Y0081170D01*
X0185921Y0081246D01*
X0185972Y0081319D01*
X0186025Y0081390D01*
X0186082Y0081459D01*
X0186142Y0081525D01*
X0186205Y0081589D01*
X0186270Y0081649D01*
X0186338Y0081707D01*
X0186409Y0081761D01*
X0186482Y0081812D01*
X0186557Y0081860D01*
X0186634Y0081905D01*
X0186713Y0081946D01*
X0186794Y0081983D01*
X0186876Y0082017D01*
X0186960Y0082048D01*
X0187045Y0082074D01*
X0187131Y0082097D01*
X0187218Y0082115D01*
X0187306Y0082130D01*
X0187395Y0082141D01*
X0187484Y0082148D01*
X0187573Y0082151D01*
X0187662Y0082150D01*
X0187751Y0082145D01*
X0187839Y0082136D01*
X0187928Y0082123D01*
X0188015Y0082106D01*
X0188102Y0082086D01*
X0188188Y0082061D01*
X0188272Y0082033D01*
X0188355Y0082001D01*
X0188437Y0081965D01*
X0188517Y0081926D01*
X0188595Y0081883D01*
X0188671Y0081837D01*
X0188745Y0081787D01*
X0188817Y0081734D01*
X0188886Y0081678D01*
X0188953Y0081619D01*
X0189017Y0081557D01*
X0189078Y0081493D01*
X0189137Y0081425D01*
X0189192Y0081355D01*
X0189244Y0081283D01*
X0189293Y0081208D01*
X0189338Y0081132D01*
X0189380Y0081053D01*
X0189418Y0080973D01*
X0189453Y0080891D01*
X0189484Y0080807D01*
X0189512Y0080722D01*
X0189535Y0080636D01*
X0189555Y0080549D01*
X0189571Y0080462D01*
X0189583Y0080373D01*
X0189591Y0080285D01*
X0189595Y0080196D01*
X0189595Y0080106D01*
X0189591Y0080017D01*
X0189583Y0079929D01*
X0189571Y0079840D01*
X0189555Y0079753D01*
X0189535Y0079666D01*
X0189512Y0079580D01*
X0189484Y0079495D01*
X0189453Y0079411D01*
X0189418Y0079329D01*
X0189380Y0079249D01*
X0189338Y0079170D01*
X0189293Y0079094D01*
X0189244Y0079019D01*
X0189192Y0078947D01*
X0189137Y0078877D01*
X0189078Y0078809D01*
X0189017Y0078745D01*
X0188953Y0078683D01*
X0188886Y0078624D01*
X0188817Y0078568D01*
X0188745Y0078515D01*
X0188671Y0078465D01*
X0188595Y0078419D01*
X0188517Y0078376D01*
X0188437Y0078337D01*
X0188355Y0078301D01*
X0188272Y0078269D01*
X0188188Y0078241D01*
X0188102Y0078216D01*
X0188015Y0078196D01*
X0187928Y0078179D01*
X0187839Y0078166D01*
X0187751Y0078157D01*
X0187662Y0078152D01*
X0187573Y0078151D01*
X0187484Y0078154D01*
X0187395Y0078161D01*
X0187306Y0078172D01*
X0187218Y0078187D01*
X0187131Y0078205D01*
X0187045Y0078228D01*
X0186960Y0078254D01*
X0186876Y0078285D01*
X0186794Y0078319D01*
X0186713Y0078356D01*
X0186634Y0078397D01*
X0186557Y0078442D01*
X0186482Y0078490D01*
X0186409Y0078541D01*
X0186338Y0078595D01*
X0186270Y0078653D01*
X0186205Y0078713D01*
X0186142Y0078777D01*
X0186082Y0078843D01*
X0186025Y0078912D01*
X0185972Y0078983D01*
X0185921Y0079056D01*
X0185874Y0079132D01*
X0185831Y0079209D01*
X0185790Y0079289D01*
X0185754Y0079370D01*
X0185721Y0079453D01*
X0185692Y0079537D01*
X0185666Y0079623D01*
X0185644Y0079709D01*
X0185627Y0079796D01*
X0185613Y0079884D01*
X0185603Y0079973D01*
X0185597Y0080062D01*
X0185595Y0080151D01*
X0165595Y0080151D02*
X0165597Y0080240D01*
X0165603Y0080329D01*
X0165613Y0080418D01*
X0165627Y0080506D01*
X0165644Y0080593D01*
X0165666Y0080679D01*
X0165692Y0080765D01*
X0165721Y0080849D01*
X0165754Y0080932D01*
X0165790Y0081013D01*
X0165831Y0081093D01*
X0165874Y0081170D01*
X0165921Y0081246D01*
X0165972Y0081319D01*
X0166025Y0081390D01*
X0166082Y0081459D01*
X0166142Y0081525D01*
X0166205Y0081589D01*
X0166270Y0081649D01*
X0166338Y0081707D01*
X0166409Y0081761D01*
X0166482Y0081812D01*
X0166557Y0081860D01*
X0166634Y0081905D01*
X0166713Y0081946D01*
X0166794Y0081983D01*
X0166876Y0082017D01*
X0166960Y0082048D01*
X0167045Y0082074D01*
X0167131Y0082097D01*
X0167218Y0082115D01*
X0167306Y0082130D01*
X0167395Y0082141D01*
X0167484Y0082148D01*
X0167573Y0082151D01*
X0167662Y0082150D01*
X0167751Y0082145D01*
X0167839Y0082136D01*
X0167928Y0082123D01*
X0168015Y0082106D01*
X0168102Y0082086D01*
X0168188Y0082061D01*
X0168272Y0082033D01*
X0168355Y0082001D01*
X0168437Y0081965D01*
X0168517Y0081926D01*
X0168595Y0081883D01*
X0168671Y0081837D01*
X0168745Y0081787D01*
X0168817Y0081734D01*
X0168886Y0081678D01*
X0168953Y0081619D01*
X0169017Y0081557D01*
X0169078Y0081493D01*
X0169137Y0081425D01*
X0169192Y0081355D01*
X0169244Y0081283D01*
X0169293Y0081208D01*
X0169338Y0081132D01*
X0169380Y0081053D01*
X0169418Y0080973D01*
X0169453Y0080891D01*
X0169484Y0080807D01*
X0169512Y0080722D01*
X0169535Y0080636D01*
X0169555Y0080549D01*
X0169571Y0080462D01*
X0169583Y0080373D01*
X0169591Y0080285D01*
X0169595Y0080196D01*
X0169595Y0080106D01*
X0169591Y0080017D01*
X0169583Y0079929D01*
X0169571Y0079840D01*
X0169555Y0079753D01*
X0169535Y0079666D01*
X0169512Y0079580D01*
X0169484Y0079495D01*
X0169453Y0079411D01*
X0169418Y0079329D01*
X0169380Y0079249D01*
X0169338Y0079170D01*
X0169293Y0079094D01*
X0169244Y0079019D01*
X0169192Y0078947D01*
X0169137Y0078877D01*
X0169078Y0078809D01*
X0169017Y0078745D01*
X0168953Y0078683D01*
X0168886Y0078624D01*
X0168817Y0078568D01*
X0168745Y0078515D01*
X0168671Y0078465D01*
X0168595Y0078419D01*
X0168517Y0078376D01*
X0168437Y0078337D01*
X0168355Y0078301D01*
X0168272Y0078269D01*
X0168188Y0078241D01*
X0168102Y0078216D01*
X0168015Y0078196D01*
X0167928Y0078179D01*
X0167839Y0078166D01*
X0167751Y0078157D01*
X0167662Y0078152D01*
X0167573Y0078151D01*
X0167484Y0078154D01*
X0167395Y0078161D01*
X0167306Y0078172D01*
X0167218Y0078187D01*
X0167131Y0078205D01*
X0167045Y0078228D01*
X0166960Y0078254D01*
X0166876Y0078285D01*
X0166794Y0078319D01*
X0166713Y0078356D01*
X0166634Y0078397D01*
X0166557Y0078442D01*
X0166482Y0078490D01*
X0166409Y0078541D01*
X0166338Y0078595D01*
X0166270Y0078653D01*
X0166205Y0078713D01*
X0166142Y0078777D01*
X0166082Y0078843D01*
X0166025Y0078912D01*
X0165972Y0078983D01*
X0165921Y0079056D01*
X0165874Y0079132D01*
X0165831Y0079209D01*
X0165790Y0079289D01*
X0165754Y0079370D01*
X0165721Y0079453D01*
X0165692Y0079537D01*
X0165666Y0079623D01*
X0165644Y0079709D01*
X0165627Y0079796D01*
X0165613Y0079884D01*
X0165603Y0079973D01*
X0165597Y0080062D01*
X0165595Y0080151D01*
X0145595Y0080151D02*
X0145597Y0080240D01*
X0145603Y0080329D01*
X0145613Y0080418D01*
X0145627Y0080506D01*
X0145644Y0080593D01*
X0145666Y0080679D01*
X0145692Y0080765D01*
X0145721Y0080849D01*
X0145754Y0080932D01*
X0145790Y0081013D01*
X0145831Y0081093D01*
X0145874Y0081170D01*
X0145921Y0081246D01*
X0145972Y0081319D01*
X0146025Y0081390D01*
X0146082Y0081459D01*
X0146142Y0081525D01*
X0146205Y0081589D01*
X0146270Y0081649D01*
X0146338Y0081707D01*
X0146409Y0081761D01*
X0146482Y0081812D01*
X0146557Y0081860D01*
X0146634Y0081905D01*
X0146713Y0081946D01*
X0146794Y0081983D01*
X0146876Y0082017D01*
X0146960Y0082048D01*
X0147045Y0082074D01*
X0147131Y0082097D01*
X0147218Y0082115D01*
X0147306Y0082130D01*
X0147395Y0082141D01*
X0147484Y0082148D01*
X0147573Y0082151D01*
X0147662Y0082150D01*
X0147751Y0082145D01*
X0147839Y0082136D01*
X0147928Y0082123D01*
X0148015Y0082106D01*
X0148102Y0082086D01*
X0148188Y0082061D01*
X0148272Y0082033D01*
X0148355Y0082001D01*
X0148437Y0081965D01*
X0148517Y0081926D01*
X0148595Y0081883D01*
X0148671Y0081837D01*
X0148745Y0081787D01*
X0148817Y0081734D01*
X0148886Y0081678D01*
X0148953Y0081619D01*
X0149017Y0081557D01*
X0149078Y0081493D01*
X0149137Y0081425D01*
X0149192Y0081355D01*
X0149244Y0081283D01*
X0149293Y0081208D01*
X0149338Y0081132D01*
X0149380Y0081053D01*
X0149418Y0080973D01*
X0149453Y0080891D01*
X0149484Y0080807D01*
X0149512Y0080722D01*
X0149535Y0080636D01*
X0149555Y0080549D01*
X0149571Y0080462D01*
X0149583Y0080373D01*
X0149591Y0080285D01*
X0149595Y0080196D01*
X0149595Y0080106D01*
X0149591Y0080017D01*
X0149583Y0079929D01*
X0149571Y0079840D01*
X0149555Y0079753D01*
X0149535Y0079666D01*
X0149512Y0079580D01*
X0149484Y0079495D01*
X0149453Y0079411D01*
X0149418Y0079329D01*
X0149380Y0079249D01*
X0149338Y0079170D01*
X0149293Y0079094D01*
X0149244Y0079019D01*
X0149192Y0078947D01*
X0149137Y0078877D01*
X0149078Y0078809D01*
X0149017Y0078745D01*
X0148953Y0078683D01*
X0148886Y0078624D01*
X0148817Y0078568D01*
X0148745Y0078515D01*
X0148671Y0078465D01*
X0148595Y0078419D01*
X0148517Y0078376D01*
X0148437Y0078337D01*
X0148355Y0078301D01*
X0148272Y0078269D01*
X0148188Y0078241D01*
X0148102Y0078216D01*
X0148015Y0078196D01*
X0147928Y0078179D01*
X0147839Y0078166D01*
X0147751Y0078157D01*
X0147662Y0078152D01*
X0147573Y0078151D01*
X0147484Y0078154D01*
X0147395Y0078161D01*
X0147306Y0078172D01*
X0147218Y0078187D01*
X0147131Y0078205D01*
X0147045Y0078228D01*
X0146960Y0078254D01*
X0146876Y0078285D01*
X0146794Y0078319D01*
X0146713Y0078356D01*
X0146634Y0078397D01*
X0146557Y0078442D01*
X0146482Y0078490D01*
X0146409Y0078541D01*
X0146338Y0078595D01*
X0146270Y0078653D01*
X0146205Y0078713D01*
X0146142Y0078777D01*
X0146082Y0078843D01*
X0146025Y0078912D01*
X0145972Y0078983D01*
X0145921Y0079056D01*
X0145874Y0079132D01*
X0145831Y0079209D01*
X0145790Y0079289D01*
X0145754Y0079370D01*
X0145721Y0079453D01*
X0145692Y0079537D01*
X0145666Y0079623D01*
X0145644Y0079709D01*
X0145627Y0079796D01*
X0145613Y0079884D01*
X0145603Y0079973D01*
X0145597Y0080062D01*
X0145595Y0080151D01*
X0206395Y0121251D02*
X0206400Y0121183D01*
X0206409Y0121115D01*
X0206421Y0121047D01*
X0206438Y0120981D01*
X0206458Y0120915D01*
X0206482Y0120851D01*
X0206509Y0120788D01*
X0206540Y0120727D01*
X0206575Y0120667D01*
X0206613Y0120610D01*
X0206654Y0120555D01*
X0206698Y0120503D01*
X0206745Y0120453D01*
X0206795Y0120406D01*
X0206847Y0120361D01*
X0206902Y0120320D01*
X0206959Y0120282D01*
X0207018Y0120248D01*
X0207079Y0120216D01*
X0207142Y0120189D01*
X0207206Y0120165D01*
X0207272Y0120144D01*
X0207338Y0120128D01*
X0207406Y0120115D01*
X0207474Y0120106D01*
X0207542Y0120101D01*
X0207611Y0120100D01*
X0207679Y0120103D01*
X0207748Y0120110D01*
X0207815Y0120120D01*
X0207882Y0120135D01*
X0207948Y0120153D01*
X0208013Y0120175D01*
X0208077Y0120201D01*
X0208139Y0120230D01*
X0208199Y0120263D01*
X0208257Y0120299D01*
X0208314Y0120339D01*
X0208367Y0120381D01*
X0208419Y0120427D01*
X0208467Y0120475D01*
X0208513Y0120526D01*
X0208556Y0120580D01*
X0208595Y0120636D01*
X0208632Y0120694D01*
X0208664Y0120754D01*
X0208694Y0120816D01*
X0208720Y0120880D01*
X0208742Y0120945D01*
X0208760Y0121011D01*
X0208775Y0121078D01*
X0208786Y0121146D01*
X0208793Y0121214D01*
X0208796Y0121282D01*
X0208795Y0121351D01*
X0208796Y0121282D01*
X0208793Y0121214D01*
X0208786Y0121146D01*
X0208775Y0121078D01*
X0208760Y0121011D01*
X0208742Y0120945D01*
X0208720Y0120880D01*
X0208694Y0120816D01*
X0208664Y0120754D01*
X0208632Y0120694D01*
X0208595Y0120636D01*
X0208556Y0120580D01*
X0208513Y0120526D01*
X0208467Y0120475D01*
X0208419Y0120427D01*
X0208367Y0120381D01*
X0208314Y0120339D01*
X0208257Y0120299D01*
X0208199Y0120263D01*
X0208139Y0120230D01*
X0208077Y0120201D01*
X0208013Y0120175D01*
X0207948Y0120153D01*
X0207882Y0120135D01*
X0207815Y0120120D01*
X0207748Y0120110D01*
X0207679Y0120103D01*
X0207611Y0120100D01*
X0207542Y0120101D01*
X0207474Y0120106D01*
X0207406Y0120115D01*
X0207338Y0120128D01*
X0207272Y0120144D01*
X0207206Y0120165D01*
X0207142Y0120189D01*
X0207079Y0120216D01*
X0207018Y0120248D01*
X0206959Y0120282D01*
X0206902Y0120320D01*
X0206847Y0120361D01*
X0206795Y0120406D01*
X0206745Y0120453D01*
X0206698Y0120503D01*
X0206654Y0120555D01*
X0206613Y0120610D01*
X0206575Y0120667D01*
X0206540Y0120727D01*
X0206509Y0120788D01*
X0206482Y0120851D01*
X0206458Y0120915D01*
X0206438Y0120981D01*
X0206421Y0121047D01*
X0206409Y0121115D01*
X0206400Y0121183D01*
X0206395Y0121251D01*
X0215395Y0114951D02*
X0215395Y0112951D01*
X0219795Y0112951D01*
X0219795Y0114951D01*
X0215395Y0114951D01*
X0215395Y0109951D02*
X0219795Y0109951D01*
X0219795Y0107951D01*
X0215395Y0107951D01*
X0215395Y0109951D01*
X0225560Y0107183D02*
X0225564Y0107514D01*
X0225576Y0107845D01*
X0225597Y0108176D01*
X0225625Y0108506D01*
X0225662Y0108836D01*
X0225706Y0109164D01*
X0225759Y0109491D01*
X0225819Y0109817D01*
X0225888Y0110141D01*
X0225965Y0110463D01*
X0226049Y0110784D01*
X0226141Y0111102D01*
X0226241Y0111418D01*
X0226349Y0111731D01*
X0226465Y0112042D01*
X0226588Y0112349D01*
X0226718Y0112654D01*
X0226856Y0112955D01*
X0227001Y0113253D01*
X0227154Y0113547D01*
X0227314Y0113837D01*
X0227481Y0114123D01*
X0227654Y0114405D01*
X0227835Y0114683D01*
X0228023Y0114956D01*
X0228217Y0115225D01*
X0228417Y0115489D01*
X0228624Y0115747D01*
X0228838Y0116001D01*
X0229057Y0116249D01*
X0229283Y0116492D01*
X0229514Y0116729D01*
X0229751Y0116960D01*
X0229994Y0117186D01*
X0230242Y0117405D01*
X0230496Y0117619D01*
X0230754Y0117826D01*
X0231018Y0118026D01*
X0231287Y0118220D01*
X0231560Y0118408D01*
X0231838Y0118589D01*
X0232120Y0118762D01*
X0232406Y0118929D01*
X0232696Y0119089D01*
X0232990Y0119242D01*
X0233288Y0119387D01*
X0233589Y0119525D01*
X0233894Y0119655D01*
X0234201Y0119778D01*
X0234512Y0119894D01*
X0234825Y0120002D01*
X0235141Y0120102D01*
X0235459Y0120194D01*
X0235780Y0120278D01*
X0236102Y0120355D01*
X0236426Y0120424D01*
X0236752Y0120484D01*
X0237079Y0120537D01*
X0237407Y0120581D01*
X0237737Y0120618D01*
X0238067Y0120646D01*
X0238398Y0120667D01*
X0238729Y0120679D01*
X0239060Y0120683D01*
X0239391Y0120679D01*
X0239722Y0120667D01*
X0240053Y0120646D01*
X0240383Y0120618D01*
X0240713Y0120581D01*
X0241041Y0120537D01*
X0241368Y0120484D01*
X0241694Y0120424D01*
X0242018Y0120355D01*
X0242340Y0120278D01*
X0242661Y0120194D01*
X0242979Y0120102D01*
X0243295Y0120002D01*
X0243608Y0119894D01*
X0243919Y0119778D01*
X0244226Y0119655D01*
X0244531Y0119525D01*
X0244832Y0119387D01*
X0245130Y0119242D01*
X0245424Y0119089D01*
X0245714Y0118929D01*
X0246000Y0118762D01*
X0246282Y0118589D01*
X0246560Y0118408D01*
X0246833Y0118220D01*
X0247102Y0118026D01*
X0247366Y0117826D01*
X0247624Y0117619D01*
X0247878Y0117405D01*
X0248126Y0117186D01*
X0248369Y0116960D01*
X0248606Y0116729D01*
X0248837Y0116492D01*
X0249063Y0116249D01*
X0249282Y0116001D01*
X0249496Y0115747D01*
X0249703Y0115489D01*
X0249903Y0115225D01*
X0250097Y0114956D01*
X0250285Y0114683D01*
X0250466Y0114405D01*
X0250639Y0114123D01*
X0250806Y0113837D01*
X0250966Y0113547D01*
X0251119Y0113253D01*
X0251264Y0112955D01*
X0251402Y0112654D01*
X0251532Y0112349D01*
X0251655Y0112042D01*
X0251771Y0111731D01*
X0251879Y0111418D01*
X0251979Y0111102D01*
X0252071Y0110784D01*
X0252155Y0110463D01*
X0252232Y0110141D01*
X0252301Y0109817D01*
X0252361Y0109491D01*
X0252414Y0109164D01*
X0252458Y0108836D01*
X0252495Y0108506D01*
X0252523Y0108176D01*
X0252544Y0107845D01*
X0252556Y0107514D01*
X0252560Y0107183D01*
X0252556Y0106852D01*
X0252544Y0106521D01*
X0252523Y0106190D01*
X0252495Y0105860D01*
X0252458Y0105530D01*
X0252414Y0105202D01*
X0252361Y0104875D01*
X0252301Y0104549D01*
X0252232Y0104225D01*
X0252155Y0103903D01*
X0252071Y0103582D01*
X0251979Y0103264D01*
X0251879Y0102948D01*
X0251771Y0102635D01*
X0251655Y0102324D01*
X0251532Y0102017D01*
X0251402Y0101712D01*
X0251264Y0101411D01*
X0251119Y0101113D01*
X0250966Y0100819D01*
X0250806Y0100529D01*
X0250639Y0100243D01*
X0250466Y0099961D01*
X0250285Y0099683D01*
X0250097Y0099410D01*
X0249903Y0099141D01*
X0249703Y0098877D01*
X0249496Y0098619D01*
X0249282Y0098365D01*
X0249063Y0098117D01*
X0248837Y0097874D01*
X0248606Y0097637D01*
X0248369Y0097406D01*
X0248126Y0097180D01*
X0247878Y0096961D01*
X0247624Y0096747D01*
X0247366Y0096540D01*
X0247102Y0096340D01*
X0246833Y0096146D01*
X0246560Y0095958D01*
X0246282Y0095777D01*
X0246000Y0095604D01*
X0245714Y0095437D01*
X0245424Y0095277D01*
X0245130Y0095124D01*
X0244832Y0094979D01*
X0244531Y0094841D01*
X0244226Y0094711D01*
X0243919Y0094588D01*
X0243608Y0094472D01*
X0243295Y0094364D01*
X0242979Y0094264D01*
X0242661Y0094172D01*
X0242340Y0094088D01*
X0242018Y0094011D01*
X0241694Y0093942D01*
X0241368Y0093882D01*
X0241041Y0093829D01*
X0240713Y0093785D01*
X0240383Y0093748D01*
X0240053Y0093720D01*
X0239722Y0093699D01*
X0239391Y0093687D01*
X0239060Y0093683D01*
X0238729Y0093687D01*
X0238398Y0093699D01*
X0238067Y0093720D01*
X0237737Y0093748D01*
X0237407Y0093785D01*
X0237079Y0093829D01*
X0236752Y0093882D01*
X0236426Y0093942D01*
X0236102Y0094011D01*
X0235780Y0094088D01*
X0235459Y0094172D01*
X0235141Y0094264D01*
X0234825Y0094364D01*
X0234512Y0094472D01*
X0234201Y0094588D01*
X0233894Y0094711D01*
X0233589Y0094841D01*
X0233288Y0094979D01*
X0232990Y0095124D01*
X0232696Y0095277D01*
X0232406Y0095437D01*
X0232120Y0095604D01*
X0231838Y0095777D01*
X0231560Y0095958D01*
X0231287Y0096146D01*
X0231018Y0096340D01*
X0230754Y0096540D01*
X0230496Y0096747D01*
X0230242Y0096961D01*
X0229994Y0097180D01*
X0229751Y0097406D01*
X0229514Y0097637D01*
X0229283Y0097874D01*
X0229057Y0098117D01*
X0228838Y0098365D01*
X0228624Y0098619D01*
X0228417Y0098877D01*
X0228217Y0099141D01*
X0228023Y0099410D01*
X0227835Y0099683D01*
X0227654Y0099961D01*
X0227481Y0100243D01*
X0227314Y0100529D01*
X0227154Y0100819D01*
X0227001Y0101113D01*
X0226856Y0101411D01*
X0226718Y0101712D01*
X0226588Y0102017D01*
X0226465Y0102324D01*
X0226349Y0102635D01*
X0226241Y0102948D01*
X0226141Y0103264D01*
X0226049Y0103582D01*
X0225965Y0103903D01*
X0225888Y0104225D01*
X0225819Y0104549D01*
X0225759Y0104875D01*
X0225706Y0105202D01*
X0225662Y0105530D01*
X0225625Y0105860D01*
X0225597Y0106190D01*
X0225576Y0106521D01*
X0225564Y0106852D01*
X0225560Y0107183D01*
X0248060Y0107183D02*
X0251060Y0107183D01*
X0249560Y0108683D02*
X0249560Y0105683D01*
X0220595Y0080151D02*
X0220597Y0080240D01*
X0220603Y0080329D01*
X0220613Y0080418D01*
X0220627Y0080506D01*
X0220644Y0080593D01*
X0220666Y0080679D01*
X0220692Y0080765D01*
X0220721Y0080849D01*
X0220754Y0080932D01*
X0220790Y0081013D01*
X0220831Y0081093D01*
X0220874Y0081170D01*
X0220921Y0081246D01*
X0220972Y0081319D01*
X0221025Y0081390D01*
X0221082Y0081459D01*
X0221142Y0081525D01*
X0221205Y0081589D01*
X0221270Y0081649D01*
X0221338Y0081707D01*
X0221409Y0081761D01*
X0221482Y0081812D01*
X0221557Y0081860D01*
X0221634Y0081905D01*
X0221713Y0081946D01*
X0221794Y0081983D01*
X0221876Y0082017D01*
X0221960Y0082048D01*
X0222045Y0082074D01*
X0222131Y0082097D01*
X0222218Y0082115D01*
X0222306Y0082130D01*
X0222395Y0082141D01*
X0222484Y0082148D01*
X0222573Y0082151D01*
X0222662Y0082150D01*
X0222751Y0082145D01*
X0222839Y0082136D01*
X0222928Y0082123D01*
X0223015Y0082106D01*
X0223102Y0082086D01*
X0223188Y0082061D01*
X0223272Y0082033D01*
X0223355Y0082001D01*
X0223437Y0081965D01*
X0223517Y0081926D01*
X0223595Y0081883D01*
X0223671Y0081837D01*
X0223745Y0081787D01*
X0223817Y0081734D01*
X0223886Y0081678D01*
X0223953Y0081619D01*
X0224017Y0081557D01*
X0224078Y0081493D01*
X0224137Y0081425D01*
X0224192Y0081355D01*
X0224244Y0081283D01*
X0224293Y0081208D01*
X0224338Y0081132D01*
X0224380Y0081053D01*
X0224418Y0080973D01*
X0224453Y0080891D01*
X0224484Y0080807D01*
X0224512Y0080722D01*
X0224535Y0080636D01*
X0224555Y0080549D01*
X0224571Y0080462D01*
X0224583Y0080373D01*
X0224591Y0080285D01*
X0224595Y0080196D01*
X0224595Y0080106D01*
X0224591Y0080017D01*
X0224583Y0079929D01*
X0224571Y0079840D01*
X0224555Y0079753D01*
X0224535Y0079666D01*
X0224512Y0079580D01*
X0224484Y0079495D01*
X0224453Y0079411D01*
X0224418Y0079329D01*
X0224380Y0079249D01*
X0224338Y0079170D01*
X0224293Y0079094D01*
X0224244Y0079019D01*
X0224192Y0078947D01*
X0224137Y0078877D01*
X0224078Y0078809D01*
X0224017Y0078745D01*
X0223953Y0078683D01*
X0223886Y0078624D01*
X0223817Y0078568D01*
X0223745Y0078515D01*
X0223671Y0078465D01*
X0223595Y0078419D01*
X0223517Y0078376D01*
X0223437Y0078337D01*
X0223355Y0078301D01*
X0223272Y0078269D01*
X0223188Y0078241D01*
X0223102Y0078216D01*
X0223015Y0078196D01*
X0222928Y0078179D01*
X0222839Y0078166D01*
X0222751Y0078157D01*
X0222662Y0078152D01*
X0222573Y0078151D01*
X0222484Y0078154D01*
X0222395Y0078161D01*
X0222306Y0078172D01*
X0222218Y0078187D01*
X0222131Y0078205D01*
X0222045Y0078228D01*
X0221960Y0078254D01*
X0221876Y0078285D01*
X0221794Y0078319D01*
X0221713Y0078356D01*
X0221634Y0078397D01*
X0221557Y0078442D01*
X0221482Y0078490D01*
X0221409Y0078541D01*
X0221338Y0078595D01*
X0221270Y0078653D01*
X0221205Y0078713D01*
X0221142Y0078777D01*
X0221082Y0078843D01*
X0221025Y0078912D01*
X0220972Y0078983D01*
X0220921Y0079056D01*
X0220874Y0079132D01*
X0220831Y0079209D01*
X0220790Y0079289D01*
X0220754Y0079370D01*
X0220721Y0079453D01*
X0220692Y0079537D01*
X0220666Y0079623D01*
X0220644Y0079709D01*
X0220627Y0079796D01*
X0220613Y0079884D01*
X0220603Y0079973D01*
X0220597Y0080062D01*
X0220595Y0080151D01*
X0206445Y0134551D02*
X0201245Y0134551D01*
X0181598Y0143333D02*
X0179477Y0145454D01*
X0181598Y0145454D02*
X0179477Y0143333D01*
X0159613Y0136969D02*
X0159617Y0137300D01*
X0159629Y0137631D01*
X0159650Y0137962D01*
X0159678Y0138292D01*
X0159715Y0138622D01*
X0159759Y0138950D01*
X0159812Y0139277D01*
X0159872Y0139603D01*
X0159941Y0139927D01*
X0160018Y0140249D01*
X0160102Y0140570D01*
X0160194Y0140888D01*
X0160294Y0141204D01*
X0160402Y0141517D01*
X0160518Y0141828D01*
X0160641Y0142135D01*
X0160771Y0142440D01*
X0160909Y0142741D01*
X0161054Y0143039D01*
X0161207Y0143333D01*
X0161367Y0143623D01*
X0161534Y0143909D01*
X0161707Y0144191D01*
X0161888Y0144469D01*
X0162076Y0144742D01*
X0162270Y0145011D01*
X0162470Y0145275D01*
X0162677Y0145533D01*
X0162891Y0145787D01*
X0163110Y0146035D01*
X0163336Y0146278D01*
X0163567Y0146515D01*
X0163804Y0146746D01*
X0164047Y0146972D01*
X0164295Y0147191D01*
X0164549Y0147405D01*
X0164807Y0147612D01*
X0165071Y0147812D01*
X0165340Y0148006D01*
X0165613Y0148194D01*
X0165891Y0148375D01*
X0166173Y0148548D01*
X0166459Y0148715D01*
X0166749Y0148875D01*
X0167043Y0149028D01*
X0167341Y0149173D01*
X0167642Y0149311D01*
X0167947Y0149441D01*
X0168254Y0149564D01*
X0168565Y0149680D01*
X0168878Y0149788D01*
X0169194Y0149888D01*
X0169512Y0149980D01*
X0169833Y0150064D01*
X0170155Y0150141D01*
X0170479Y0150210D01*
X0170805Y0150270D01*
X0171132Y0150323D01*
X0171460Y0150367D01*
X0171790Y0150404D01*
X0172120Y0150432D01*
X0172451Y0150453D01*
X0172782Y0150465D01*
X0173113Y0150469D01*
X0173444Y0150465D01*
X0173775Y0150453D01*
X0174106Y0150432D01*
X0174436Y0150404D01*
X0174766Y0150367D01*
X0175094Y0150323D01*
X0175421Y0150270D01*
X0175747Y0150210D01*
X0176071Y0150141D01*
X0176393Y0150064D01*
X0176714Y0149980D01*
X0177032Y0149888D01*
X0177348Y0149788D01*
X0177661Y0149680D01*
X0177972Y0149564D01*
X0178279Y0149441D01*
X0178584Y0149311D01*
X0178885Y0149173D01*
X0179183Y0149028D01*
X0179477Y0148875D01*
X0179767Y0148715D01*
X0180053Y0148548D01*
X0180335Y0148375D01*
X0180613Y0148194D01*
X0180886Y0148006D01*
X0181155Y0147812D01*
X0181419Y0147612D01*
X0181677Y0147405D01*
X0181931Y0147191D01*
X0182179Y0146972D01*
X0182422Y0146746D01*
X0182659Y0146515D01*
X0182890Y0146278D01*
X0183116Y0146035D01*
X0183335Y0145787D01*
X0183549Y0145533D01*
X0183756Y0145275D01*
X0183956Y0145011D01*
X0184150Y0144742D01*
X0184338Y0144469D01*
X0184519Y0144191D01*
X0184692Y0143909D01*
X0184859Y0143623D01*
X0185019Y0143333D01*
X0185172Y0143039D01*
X0185317Y0142741D01*
X0185455Y0142440D01*
X0185585Y0142135D01*
X0185708Y0141828D01*
X0185824Y0141517D01*
X0185932Y0141204D01*
X0186032Y0140888D01*
X0186124Y0140570D01*
X0186208Y0140249D01*
X0186285Y0139927D01*
X0186354Y0139603D01*
X0186414Y0139277D01*
X0186467Y0138950D01*
X0186511Y0138622D01*
X0186548Y0138292D01*
X0186576Y0137962D01*
X0186597Y0137631D01*
X0186609Y0137300D01*
X0186613Y0136969D01*
X0186609Y0136638D01*
X0186597Y0136307D01*
X0186576Y0135976D01*
X0186548Y0135646D01*
X0186511Y0135316D01*
X0186467Y0134988D01*
X0186414Y0134661D01*
X0186354Y0134335D01*
X0186285Y0134011D01*
X0186208Y0133689D01*
X0186124Y0133368D01*
X0186032Y0133050D01*
X0185932Y0132734D01*
X0185824Y0132421D01*
X0185708Y0132110D01*
X0185585Y0131803D01*
X0185455Y0131498D01*
X0185317Y0131197D01*
X0185172Y0130899D01*
X0185019Y0130605D01*
X0184859Y0130315D01*
X0184692Y0130029D01*
X0184519Y0129747D01*
X0184338Y0129469D01*
X0184150Y0129196D01*
X0183956Y0128927D01*
X0183756Y0128663D01*
X0183549Y0128405D01*
X0183335Y0128151D01*
X0183116Y0127903D01*
X0182890Y0127660D01*
X0182659Y0127423D01*
X0182422Y0127192D01*
X0182179Y0126966D01*
X0181931Y0126747D01*
X0181677Y0126533D01*
X0181419Y0126326D01*
X0181155Y0126126D01*
X0180886Y0125932D01*
X0180613Y0125744D01*
X0180335Y0125563D01*
X0180053Y0125390D01*
X0179767Y0125223D01*
X0179477Y0125063D01*
X0179183Y0124910D01*
X0178885Y0124765D01*
X0178584Y0124627D01*
X0178279Y0124497D01*
X0177972Y0124374D01*
X0177661Y0124258D01*
X0177348Y0124150D01*
X0177032Y0124050D01*
X0176714Y0123958D01*
X0176393Y0123874D01*
X0176071Y0123797D01*
X0175747Y0123728D01*
X0175421Y0123668D01*
X0175094Y0123615D01*
X0174766Y0123571D01*
X0174436Y0123534D01*
X0174106Y0123506D01*
X0173775Y0123485D01*
X0173444Y0123473D01*
X0173113Y0123469D01*
X0172782Y0123473D01*
X0172451Y0123485D01*
X0172120Y0123506D01*
X0171790Y0123534D01*
X0171460Y0123571D01*
X0171132Y0123615D01*
X0170805Y0123668D01*
X0170479Y0123728D01*
X0170155Y0123797D01*
X0169833Y0123874D01*
X0169512Y0123958D01*
X0169194Y0124050D01*
X0168878Y0124150D01*
X0168565Y0124258D01*
X0168254Y0124374D01*
X0167947Y0124497D01*
X0167642Y0124627D01*
X0167341Y0124765D01*
X0167043Y0124910D01*
X0166749Y0125063D01*
X0166459Y0125223D01*
X0166173Y0125390D01*
X0165891Y0125563D01*
X0165613Y0125744D01*
X0165340Y0125932D01*
X0165071Y0126126D01*
X0164807Y0126326D01*
X0164549Y0126533D01*
X0164295Y0126747D01*
X0164047Y0126966D01*
X0163804Y0127192D01*
X0163567Y0127423D01*
X0163336Y0127660D01*
X0163110Y0127903D01*
X0162891Y0128151D01*
X0162677Y0128405D01*
X0162470Y0128663D01*
X0162270Y0128927D01*
X0162076Y0129196D01*
X0161888Y0129469D01*
X0161707Y0129747D01*
X0161534Y0130029D01*
X0161367Y0130315D01*
X0161207Y0130605D01*
X0161054Y0130899D01*
X0160909Y0131197D01*
X0160771Y0131498D01*
X0160641Y0131803D01*
X0160518Y0132110D01*
X0160402Y0132421D01*
X0160294Y0132734D01*
X0160194Y0133050D01*
X0160102Y0133368D01*
X0160018Y0133689D01*
X0159941Y0134011D01*
X0159872Y0134335D01*
X0159812Y0134661D01*
X0159759Y0134988D01*
X0159715Y0135316D01*
X0159678Y0135646D01*
X0159650Y0135976D01*
X0159629Y0136307D01*
X0159617Y0136638D01*
X0159613Y0136969D01*
X0157595Y0157701D02*
X0155095Y0160201D01*
X0152595Y0157701D01*
X0147595Y0157701D01*
X0145095Y0160201D01*
X0145095Y0165201D01*
X0147595Y0167701D01*
X0152595Y0167701D01*
X0155095Y0165201D01*
X0157595Y0167701D01*
X0162595Y0167701D01*
X0165095Y0165201D01*
X0167595Y0167701D01*
X0172595Y0167701D01*
X0175095Y0165201D01*
X0175095Y0160201D01*
X0172595Y0157701D01*
X0167595Y0157701D01*
X0165095Y0160201D01*
X0162595Y0157701D01*
X0157595Y0157701D01*
X0201245Y0163351D02*
X0206445Y0163351D01*
D14*
X0178744Y0160451D02*
X0175741Y0160451D01*
X0177242Y0160451D02*
X0177242Y0164955D01*
X0175741Y0163454D01*
X0179048Y0133010D02*
X0182233Y0129825D01*
X0181171Y0128764D02*
X0183294Y0130887D01*
X0179048Y0130887D02*
X0179048Y0133010D01*
X0177385Y0130285D02*
X0176323Y0130285D01*
X0175262Y0129224D01*
X0175262Y0128162D01*
X0177385Y0126039D01*
X0178446Y0126039D01*
X0179508Y0127100D01*
X0179508Y0128162D01*
X0131375Y0093951D02*
X0131375Y0188833D01*
X0067595Y0188833D01*
X0067595Y0093951D01*
X0131375Y0093951D01*
X0217845Y0056705D02*
X0217845Y0053702D01*
X0219346Y0052201D01*
X0220848Y0053702D01*
X0220848Y0056705D01*
X0222449Y0055954D02*
X0222449Y0052952D01*
X0223200Y0052201D01*
X0224701Y0052201D01*
X0225452Y0052952D01*
X0227053Y0052952D02*
X0227804Y0052201D01*
X0229305Y0052201D01*
X0230056Y0052952D01*
X0230056Y0055954D02*
X0229305Y0056705D01*
X0227804Y0056705D01*
X0227053Y0055954D01*
X0227053Y0052952D01*
X0225452Y0055954D02*
X0224701Y0056705D01*
X0223200Y0056705D01*
X0222449Y0055954D01*
X0233852Y0114433D02*
X0233102Y0115184D01*
X0233102Y0118186D01*
X0233852Y0118937D01*
X0235354Y0118937D01*
X0236104Y0118186D01*
X0237706Y0118186D02*
X0238456Y0118937D01*
X0239958Y0118937D01*
X0240708Y0118186D01*
X0240708Y0117436D01*
X0239958Y0116685D01*
X0240708Y0115934D01*
X0240708Y0115184D01*
X0239958Y0114433D01*
X0238456Y0114433D01*
X0237706Y0115184D01*
X0236104Y0115184D02*
X0235354Y0114433D01*
X0233852Y0114433D01*
X0239207Y0116685D02*
X0239958Y0116685D01*
D15*
X0234672Y0170811D02*
X0213018Y0170811D01*
X0212956Y0170813D01*
X0212895Y0170819D01*
X0212834Y0170828D01*
X0212773Y0170842D01*
X0212714Y0170859D01*
X0212656Y0170880D01*
X0212599Y0170905D01*
X0212544Y0170933D01*
X0212491Y0170964D01*
X0212440Y0170999D01*
X0212391Y0171037D01*
X0212344Y0171078D01*
X0212301Y0171121D01*
X0212260Y0171168D01*
X0212222Y0171217D01*
X0212187Y0171268D01*
X0212156Y0171321D01*
X0212128Y0171376D01*
X0212103Y0171433D01*
X0212082Y0171491D01*
X0212065Y0171550D01*
X0212051Y0171611D01*
X0212042Y0171672D01*
X0212036Y0171733D01*
X0212034Y0171795D01*
X0212034Y0173370D01*
X0217940Y0174748D02*
X0217940Y0180654D01*
X0229751Y0180654D01*
X0229751Y0174748D01*
X0217940Y0174748D01*
X0212034Y0182032D02*
X0212034Y0183607D01*
X0212036Y0183669D01*
X0212042Y0183730D01*
X0212051Y0183791D01*
X0212065Y0183852D01*
X0212082Y0183911D01*
X0212103Y0183969D01*
X0212128Y0184026D01*
X0212156Y0184081D01*
X0212187Y0184134D01*
X0212222Y0184185D01*
X0212260Y0184234D01*
X0212301Y0184281D01*
X0212344Y0184324D01*
X0212391Y0184365D01*
X0212440Y0184403D01*
X0212491Y0184438D01*
X0212544Y0184469D01*
X0212599Y0184497D01*
X0212656Y0184522D01*
X0212714Y0184543D01*
X0212773Y0184560D01*
X0212834Y0184574D01*
X0212895Y0184583D01*
X0212956Y0184589D01*
X0213018Y0184591D01*
X0234672Y0184591D01*
X0234734Y0184589D01*
X0234795Y0184583D01*
X0234856Y0184574D01*
X0234917Y0184560D01*
X0234976Y0184543D01*
X0235034Y0184522D01*
X0235091Y0184497D01*
X0235146Y0184469D01*
X0235199Y0184438D01*
X0235250Y0184403D01*
X0235299Y0184365D01*
X0235346Y0184324D01*
X0235389Y0184281D01*
X0235430Y0184234D01*
X0235468Y0184185D01*
X0235503Y0184134D01*
X0235534Y0184081D01*
X0235562Y0184026D01*
X0235587Y0183969D01*
X0235608Y0183911D01*
X0235625Y0183852D01*
X0235639Y0183791D01*
X0235648Y0183730D01*
X0235654Y0183669D01*
X0235656Y0183607D01*
X0235656Y0182032D01*
X0235656Y0173370D02*
X0235656Y0171795D01*
X0235654Y0171733D01*
X0235648Y0171672D01*
X0235639Y0171611D01*
X0235625Y0171550D01*
X0235608Y0171491D01*
X0235587Y0171433D01*
X0235562Y0171376D01*
X0235534Y0171321D01*
X0235503Y0171268D01*
X0235468Y0171217D01*
X0235430Y0171168D01*
X0235389Y0171121D01*
X0235346Y0171078D01*
X0235299Y0171037D01*
X0235250Y0170999D01*
X0235199Y0170964D01*
X0235146Y0170933D01*
X0235091Y0170905D01*
X0235034Y0170880D01*
X0234976Y0170859D01*
X0234917Y0170842D01*
X0234856Y0170828D01*
X0234795Y0170819D01*
X0234734Y0170813D01*
X0234672Y0170811D01*
X0199406Y0171795D02*
X0199406Y0173370D01*
X0199406Y0171795D02*
X0199404Y0171733D01*
X0199398Y0171672D01*
X0199389Y0171611D01*
X0199375Y0171550D01*
X0199358Y0171491D01*
X0199337Y0171433D01*
X0199312Y0171376D01*
X0199284Y0171321D01*
X0199253Y0171268D01*
X0199218Y0171217D01*
X0199180Y0171168D01*
X0199139Y0171121D01*
X0199096Y0171078D01*
X0199049Y0171037D01*
X0199000Y0170999D01*
X0198949Y0170964D01*
X0198896Y0170933D01*
X0198841Y0170905D01*
X0198784Y0170880D01*
X0198726Y0170859D01*
X0198667Y0170842D01*
X0198606Y0170828D01*
X0198545Y0170819D01*
X0198484Y0170813D01*
X0198422Y0170811D01*
X0176768Y0170811D01*
X0176706Y0170813D01*
X0176645Y0170819D01*
X0176584Y0170828D01*
X0176523Y0170842D01*
X0176464Y0170859D01*
X0176406Y0170880D01*
X0176349Y0170905D01*
X0176294Y0170933D01*
X0176241Y0170964D01*
X0176190Y0170999D01*
X0176141Y0171037D01*
X0176094Y0171078D01*
X0176051Y0171121D01*
X0176010Y0171168D01*
X0175972Y0171217D01*
X0175937Y0171268D01*
X0175906Y0171321D01*
X0175878Y0171376D01*
X0175853Y0171433D01*
X0175832Y0171491D01*
X0175815Y0171550D01*
X0175801Y0171611D01*
X0175792Y0171672D01*
X0175786Y0171733D01*
X0175784Y0171795D01*
X0175784Y0173370D01*
X0181690Y0174748D02*
X0181690Y0180654D01*
X0193501Y0180654D01*
X0193501Y0174748D01*
X0181690Y0174748D01*
X0175784Y0182032D02*
X0175784Y0183607D01*
X0175786Y0183669D01*
X0175792Y0183730D01*
X0175801Y0183791D01*
X0175815Y0183852D01*
X0175832Y0183911D01*
X0175853Y0183969D01*
X0175878Y0184026D01*
X0175906Y0184081D01*
X0175937Y0184134D01*
X0175972Y0184185D01*
X0176010Y0184234D01*
X0176051Y0184281D01*
X0176094Y0184324D01*
X0176141Y0184365D01*
X0176190Y0184403D01*
X0176241Y0184438D01*
X0176294Y0184469D01*
X0176349Y0184497D01*
X0176406Y0184522D01*
X0176464Y0184543D01*
X0176523Y0184560D01*
X0176584Y0184574D01*
X0176645Y0184583D01*
X0176706Y0184589D01*
X0176768Y0184591D01*
X0198422Y0184591D01*
X0198484Y0184589D01*
X0198545Y0184583D01*
X0198606Y0184574D01*
X0198667Y0184560D01*
X0198726Y0184543D01*
X0198784Y0184522D01*
X0198841Y0184497D01*
X0198896Y0184469D01*
X0198949Y0184438D01*
X0199000Y0184403D01*
X0199049Y0184365D01*
X0199096Y0184324D01*
X0199139Y0184281D01*
X0199180Y0184234D01*
X0199218Y0184185D01*
X0199253Y0184134D01*
X0199284Y0184081D01*
X0199312Y0184026D01*
X0199337Y0183969D01*
X0199358Y0183911D01*
X0199375Y0183852D01*
X0199389Y0183791D01*
X0199398Y0183730D01*
X0199404Y0183669D01*
X0199406Y0183607D01*
X0199406Y0182032D01*
X0163156Y0182032D02*
X0163156Y0183607D01*
X0163154Y0183669D01*
X0163148Y0183730D01*
X0163139Y0183791D01*
X0163125Y0183852D01*
X0163108Y0183911D01*
X0163087Y0183969D01*
X0163062Y0184026D01*
X0163034Y0184081D01*
X0163003Y0184134D01*
X0162968Y0184185D01*
X0162930Y0184234D01*
X0162889Y0184281D01*
X0162846Y0184324D01*
X0162799Y0184365D01*
X0162750Y0184403D01*
X0162699Y0184438D01*
X0162646Y0184469D01*
X0162591Y0184497D01*
X0162534Y0184522D01*
X0162476Y0184543D01*
X0162417Y0184560D01*
X0162356Y0184574D01*
X0162295Y0184583D01*
X0162234Y0184589D01*
X0162172Y0184591D01*
X0140518Y0184591D01*
X0140456Y0184589D01*
X0140395Y0184583D01*
X0140334Y0184574D01*
X0140273Y0184560D01*
X0140214Y0184543D01*
X0140156Y0184522D01*
X0140099Y0184497D01*
X0140044Y0184469D01*
X0139991Y0184438D01*
X0139940Y0184403D01*
X0139891Y0184365D01*
X0139844Y0184324D01*
X0139801Y0184281D01*
X0139760Y0184234D01*
X0139722Y0184185D01*
X0139687Y0184134D01*
X0139656Y0184081D01*
X0139628Y0184026D01*
X0139603Y0183969D01*
X0139582Y0183911D01*
X0139565Y0183852D01*
X0139551Y0183791D01*
X0139542Y0183730D01*
X0139536Y0183669D01*
X0139534Y0183607D01*
X0139534Y0182032D01*
X0145440Y0180654D02*
X0145440Y0174748D01*
X0157251Y0174748D01*
X0157251Y0180654D01*
X0145440Y0180654D01*
X0139534Y0173370D02*
X0139534Y0171795D01*
X0139536Y0171733D01*
X0139542Y0171672D01*
X0139551Y0171611D01*
X0139565Y0171550D01*
X0139582Y0171491D01*
X0139603Y0171433D01*
X0139628Y0171376D01*
X0139656Y0171321D01*
X0139687Y0171268D01*
X0139722Y0171217D01*
X0139760Y0171168D01*
X0139801Y0171121D01*
X0139844Y0171078D01*
X0139891Y0171037D01*
X0139940Y0170999D01*
X0139991Y0170964D01*
X0140044Y0170933D01*
X0140099Y0170905D01*
X0140156Y0170880D01*
X0140214Y0170859D01*
X0140273Y0170842D01*
X0140334Y0170828D01*
X0140395Y0170819D01*
X0140456Y0170813D01*
X0140518Y0170811D01*
X0162172Y0170811D01*
X0162234Y0170813D01*
X0162295Y0170819D01*
X0162356Y0170828D01*
X0162417Y0170842D01*
X0162476Y0170859D01*
X0162534Y0170880D01*
X0162591Y0170905D01*
X0162646Y0170933D01*
X0162699Y0170964D01*
X0162750Y0170999D01*
X0162799Y0171037D01*
X0162846Y0171078D01*
X0162889Y0171121D01*
X0162930Y0171168D01*
X0162968Y0171217D01*
X0163003Y0171268D01*
X0163034Y0171321D01*
X0163062Y0171376D01*
X0163087Y0171433D01*
X0163108Y0171491D01*
X0163125Y0171550D01*
X0163139Y0171611D01*
X0163148Y0171672D01*
X0163154Y0171733D01*
X0163156Y0171795D01*
X0163156Y0173370D01*
D16*
X0163719Y0173012D02*
X0164186Y0173479D01*
X0165120Y0173479D01*
X0165587Y0173012D01*
X0166481Y0173479D02*
X0166481Y0170677D01*
X0168350Y0170677D01*
X0169244Y0170677D02*
X0169244Y0173479D01*
X0170645Y0173479D01*
X0171112Y0173012D01*
X0171112Y0172078D01*
X0170645Y0171611D01*
X0169244Y0171611D01*
X0170178Y0171611D02*
X0171112Y0170677D01*
X0165587Y0171144D02*
X0165120Y0170677D01*
X0164186Y0170677D01*
X0163719Y0171144D01*
X0163719Y0173012D01*
X0199969Y0173479D02*
X0199969Y0170677D01*
X0199969Y0171611D02*
X0201370Y0171611D01*
X0201837Y0172078D01*
X0201837Y0173012D01*
X0201370Y0173479D01*
X0199969Y0173479D01*
X0202731Y0173479D02*
X0204133Y0173479D01*
X0204600Y0173012D01*
X0204600Y0172078D01*
X0204133Y0171611D01*
X0202731Y0171611D01*
X0202731Y0170677D02*
X0202731Y0173479D01*
X0203666Y0171611D02*
X0204600Y0170677D01*
X0205494Y0171144D02*
X0205961Y0170677D01*
X0206895Y0170677D01*
X0207362Y0171144D01*
X0207362Y0172078D01*
X0206428Y0172078D01*
X0205494Y0173012D02*
X0205494Y0171144D01*
X0205494Y0173012D02*
X0205961Y0173479D01*
X0206895Y0173479D01*
X0207362Y0173012D01*
X0236219Y0173479D02*
X0236219Y0170677D01*
X0236219Y0171611D02*
X0237620Y0171611D01*
X0238087Y0172078D01*
X0238087Y0173012D01*
X0237620Y0173479D01*
X0236219Y0173479D01*
X0237153Y0171611D02*
X0238087Y0170677D01*
X0238981Y0171144D02*
X0239448Y0170677D01*
X0240383Y0170677D01*
X0240850Y0171144D01*
X0240850Y0171611D01*
X0240383Y0172078D01*
X0239448Y0172078D01*
X0238981Y0172545D01*
X0238981Y0173012D01*
X0239448Y0173479D01*
X0240383Y0173479D01*
X0240850Y0173012D01*
X0241744Y0173479D02*
X0243612Y0173479D01*
X0242678Y0173479D02*
X0242678Y0170677D01*
M02*
